<svg width="600" height="338" viewBox="0 0 600 338" fill="none" xmlns="http://www.w3.org/2000/svg">
<g clip-path="url(#clip0_108_1940)">
<rect width="600" height="338" fill="black"/>
<g clip-path="url(#clip1_108_1940)">
<path d="M450.781 225.401C449.768 225.401 448.755 225.016 447.975 224.236C446.425 222.687 446.425 220.184 447.975 218.635L592.662 73.9576C594.212 72.4077 596.714 72.4077 598.264 73.9576C599.814 75.5075 599.814 78.0096 598.264 79.5595L453.577 224.236C452.807 225.006 451.784 225.401 450.771 225.401H450.781Z" fill="white"/>
<path d="M578.309 97.8643C577.296 97.8643 576.283 97.4794 575.503 96.6994C573.953 95.1495 573.953 92.6474 575.503 91.0975L657.192 9.409C658.742 7.85911 661.244 7.85911 662.794 9.409C664.343 10.9589 664.343 13.461 662.794 15.0109L581.105 96.6994C580.335 97.4693 579.312 97.8643 578.299 97.8643H578.309Z" fill="#FF091C"/>
<path d="M469.238 176.989C468.225 176.989 467.212 176.604 466.432 175.824C464.882 174.275 464.882 171.772 466.432 170.223L611.119 25.5355C612.669 23.9856 615.171 23.9856 616.721 25.5355C618.271 27.0854 618.271 29.5875 616.721 31.1374L472.034 175.824C471.264 176.594 470.241 176.989 469.228 176.989H469.238Z" fill="#00B7E7"/>
<path d="M516.14 130.087C515.127 130.087 514.114 129.702 513.334 128.922C511.784 127.372 511.784 124.87 513.334 123.32L658.021 -21.3671C659.571 -22.917 662.073 -22.917 663.623 -21.3671C665.173 -19.8172 665.173 -17.3151 663.623 -15.7652L518.936 128.922C518.166 129.692 517.143 130.087 516.13 130.087H516.14Z" fill="#FF0A1B"/>
<path d="M555.708 90.5191C554.695 90.5191 553.682 90.1341 552.902 89.3541C551.352 87.8042 551.352 85.3021 552.902 83.7522L697.589 -60.9247C699.139 -62.4746 701.641 -62.4746 703.191 -60.9247C704.741 -59.3748 704.741 -56.8727 703.191 -55.3228L558.504 89.3541C557.734 90.124 556.711 90.5191 555.698 90.5191H555.708Z" fill="#FFB325"/>
<path d="M455.796 190.27C457.894 190.27 459.595 188.569 459.595 186.471C459.595 184.373 457.894 182.672 455.796 182.672C453.698 182.672 451.997 184.373 451.997 186.471C451.997 188.569 453.698 190.27 455.796 190.27Z" fill="#FF091C"/>
<path d="M236.197 209.608C237.21 209.608 238.223 209.993 239.003 210.773C240.553 212.323 240.553 214.825 239.003 216.375L94.3161 361.052C92.7662 362.602 90.2641 362.602 88.7142 361.052C87.1643 359.502 87.1643 357 88.7142 355.45L233.401 210.773C234.171 210.003 235.194 209.608 236.207 209.608H236.197Z" fill="#FFB325"/>
<path d="M108.67 337.135C109.683 337.135 110.696 337.52 111.476 338.3C113.026 339.85 113.026 342.352 111.476 343.902L29.7873 425.59C28.2374 427.14 25.7353 427.14 24.1854 425.59C22.6355 424.04 22.6355 421.538 24.1854 419.988L105.874 338.3C106.644 337.53 107.667 337.135 108.68 337.135H108.67Z" fill="#FF091C"/>
<path d="M217.74 258.02C218.753 258.02 219.766 258.405 220.546 259.185C222.096 260.735 222.096 263.237 220.546 264.787L75.859 409.474C74.3092 411.024 71.807 411.024 70.2571 409.474C68.7073 407.924 68.7073 405.422 70.2571 403.872L214.944 259.185C215.714 258.415 216.737 258.02 217.75 258.02H217.74Z" fill="#00B7E7"/>
<path d="M170.838 304.912C171.851 304.912 172.864 305.297 173.644 306.077C175.194 307.626 175.194 310.129 173.644 311.678L28.9572 456.366C27.4073 457.915 24.9052 457.915 23.3553 456.366C21.8054 454.816 21.8054 452.314 23.3553 450.764L168.042 306.077C168.812 305.307 169.835 304.912 170.848 304.912H170.838Z" fill="#FF0A1B"/>
<path d="M231.182 252.337C233.28 252.337 234.981 250.636 234.981 248.538C234.981 246.44 233.28 244.739 231.182 244.739C229.084 244.739 227.383 246.44 227.383 248.538C227.383 250.636 229.084 252.337 231.182 252.337Z" fill="white"/>
<path d="M289.48 440.106C288.467 440.106 287.454 439.721 286.674 438.941C285.124 437.391 285.124 434.879 286.674 433.339L431.432 288.733C432.982 287.183 435.494 287.183 437.034 288.733C438.584 290.283 438.584 292.795 437.034 294.335L292.276 438.941C291.506 439.711 290.483 440.096 289.47 440.096L289.48 440.106Z" fill="#FFB325"/>
<path d="M417.068 312.64C416.055 312.64 415.042 312.255 414.262 311.475C412.712 309.925 412.712 307.413 414.262 305.873L495.991 224.225C497.541 222.675 500.053 222.675 501.593 224.225C503.143 225.775 503.143 228.287 501.593 229.827L419.864 311.475C419.094 312.245 418.071 312.63 417.058 312.63L417.068 312.64Z" fill="#00BA4F"/>
<path d="M438.319 387.297C437.306 387.297 436.294 386.912 435.513 386.132C433.964 384.582 433.964 382.08 435.513 380.53L580.201 235.853C581.75 234.303 584.253 234.303 585.802 235.853C587.352 237.403 587.352 239.905 585.802 241.455L441.115 386.132C440.345 386.902 439.322 387.297 438.309 387.297H438.319Z" fill="#FFB325"/>
<path d="M565.847 259.77C564.834 259.77 563.821 259.385 563.041 258.605C561.491 257.055 561.491 254.553 563.041 253.003L644.729 171.315C646.279 169.765 648.781 169.765 650.331 171.315C651.881 172.864 651.881 175.367 650.331 176.916L568.643 258.605C567.873 259.375 566.85 259.77 565.837 259.77H565.847Z" fill="white"/>
<path d="M448.197 314.25C447.184 314.25 446.171 313.865 445.391 313.085C443.841 311.535 443.841 309.033 445.391 307.483L590.078 162.806C591.628 161.256 594.13 161.256 595.68 162.806C597.23 164.356 597.23 166.858 595.68 168.408L450.993 313.085C450.223 313.855 449.2 314.25 448.187 314.25H448.197Z" fill="#00B7E7"/>
<path d="M495.099 267.348C494.086 267.348 493.073 266.963 492.293 266.183C490.743 264.633 490.743 262.131 492.293 260.581L636.97 115.904C638.52 114.354 641.022 114.354 642.572 115.904C644.122 117.454 644.122 119.956 642.572 121.506L497.895 266.183C497.125 266.953 496.102 267.348 495.089 267.348H495.099Z" fill="#FF0A1B"/>
<path d="M534.666 227.78C533.653 227.78 532.64 227.395 531.86 226.615C530.31 225.065 530.31 222.563 531.86 221.013L676.537 76.3262C678.087 74.7763 680.589 74.7763 682.139 76.3262C683.689 77.8761 683.689 80.3782 682.139 81.9281L537.462 226.615C536.692 227.385 535.669 227.78 534.656 227.78H534.666Z" fill="#FFB325"/>
<path d="M434.754 327.53C436.852 327.53 438.553 325.83 438.553 323.732C438.553 321.634 436.852 319.933 434.754 319.933C432.656 319.933 430.955 321.634 430.955 323.732C430.955 325.83 432.656 327.53 434.754 327.53Z" fill="#FFB325"/>
<path d="M339.622 422.824C338.609 422.824 337.596 422.439 336.816 421.659C335.266 420.109 335.266 417.607 336.816 416.057L418.505 334.368C420.055 332.818 422.557 332.818 424.107 334.368C425.657 335.918 425.657 338.42 424.107 339.97L342.418 421.659C341.648 422.428 340.625 422.824 339.612 422.824H339.622Z" fill="#FF091C"/>
<path d="M550.955 243.076C549.942 243.076 548.929 242.691 548.149 241.911C546.599 240.361 546.599 237.859 548.149 236.309L692.836 91.6221C694.386 90.0722 696.888 90.0722 698.438 91.6221C699.988 93.172 699.988 95.6741 698.438 97.224L553.751 241.911C552.981 242.681 551.958 243.076 550.945 243.076H550.955Z" fill="#FFB325"/>
<path d="M597.848 196.185C596.835 196.185 595.822 195.8 595.042 195.02C593.492 193.47 593.492 190.968 595.042 189.418L739.729 44.7308C741.279 43.1809 743.781 43.1809 745.331 44.7308C746.881 46.2807 746.881 48.7828 745.331 50.3327L600.644 195.02C599.874 195.79 598.851 196.185 597.838 196.185H597.848Z" fill="#FF0A1B"/>
<path d="M537.503 256.357C539.601 256.357 541.302 254.656 541.302 252.558C541.302 250.46 539.601 248.759 537.503 248.759C535.405 248.759 533.704 250.46 533.704 252.558C533.704 254.656 535.405 256.357 537.503 256.357Z" fill="#00BA4F"/>
<path d="M314.844 479.188C313.831 479.188 312.818 478.803 312.038 478.023C310.489 476.473 310.489 473.971 312.038 472.421L456.715 327.744C458.265 326.194 460.767 326.194 462.317 327.744C463.867 329.294 463.867 331.796 462.317 333.346L317.64 478.023C316.87 478.792 315.847 479.188 314.834 479.188H314.844Z" fill="#00B7E7"/>
<path d="M442.371 351.66C441.358 351.66 440.345 351.275 439.565 350.495C438.015 348.945 438.015 346.443 439.565 344.893L521.253 263.205C522.803 261.655 525.305 261.655 526.855 263.205C528.405 264.755 528.405 267.257 526.855 268.807L445.167 350.495C444.397 351.265 443.374 351.66 442.361 351.66H442.371Z" fill="white"/>
<path d="M441.381 168.328C440.368 168.328 439.355 167.943 438.575 167.163C437.025 165.614 437.025 163.111 438.575 161.562L583.262 16.8846C584.812 15.3347 587.314 15.3347 588.864 16.8846C590.413 18.4345 590.413 20.9366 588.864 22.4865L444.176 167.163C443.407 167.933 442.383 168.328 441.37 168.328H441.381Z" fill="#FFB325"/>
<path d="M568.908 40.7911C567.895 40.7911 566.882 40.4062 566.102 39.6262C564.552 38.0763 564.552 35.5742 566.102 34.0243L647.791 -47.6642C649.341 -49.2141 651.843 -49.2141 653.393 -47.6642C654.943 -46.1143 654.943 -43.6122 653.393 -42.0623L571.704 39.6262C570.934 40.396 569.911 40.7911 568.898 40.7911H568.908Z" fill="white"/>
<path d="M451.258 95.2801C450.245 95.2801 449.231 94.8951 448.451 94.1151C446.902 92.5652 446.902 90.0631 448.451 88.5132L593.139 -56.1638C594.688 -57.7136 597.191 -57.7136 598.74 -56.1638C600.29 -54.6139 600.29 -52.1117 598.74 -50.5619L454.053 94.1151C453.284 94.885 452.26 95.2801 451.247 95.2801H451.258Z" fill="#00B7E7"/>
<path d="M498.15 48.3779C497.137 48.3779 496.124 47.993 495.344 47.213C493.794 45.6631 493.794 43.161 495.344 41.6111L640.021 -103.066C641.57 -104.616 644.072 -104.616 645.622 -103.066C647.172 -101.516 647.172 -99.0138 645.622 -97.4639L500.945 47.213C500.176 47.9829 499.152 48.3779 498.139 48.3779H498.15Z" fill="#FF0A1B"/>
<path d="M537.717 8.80995C536.704 8.80995 535.691 8.42502 534.911 7.64502C533.362 6.09512 533.362 3.593 534.911 2.04311L679.588 -142.644C681.138 -144.194 683.64 -144.194 685.19 -142.644C686.74 -141.094 686.74 -138.592 685.19 -137.042L540.513 7.64502C539.743 8.4149 538.72 8.80995 537.707 8.80995H537.717Z" fill="#FFB325"/>
<path d="M437.805 108.56C439.903 108.56 441.604 106.859 441.604 104.761C441.604 102.663 439.903 100.963 437.805 100.963C435.707 100.963 434.006 102.663 434.006 104.761C434.006 106.859 435.707 108.56 437.805 108.56Z" fill="#FFB325"/>
<path d="M554.008 24.1056C552.995 24.1056 551.981 23.7207 551.201 22.9407C549.652 21.3908 549.652 18.8887 551.201 17.3388L695.889 -127.348C697.439 -128.898 699.941 -128.898 701.49 -127.348C703.04 -125.798 703.04 -123.296 701.49 -121.746L556.803 22.9407C556.034 23.7106 555.01 24.1056 553.997 24.1056H554.008Z" fill="#FFB325"/>
<path d="M540.564 37.3873C542.662 37.3873 544.363 35.6865 544.363 33.5886C544.363 31.4906 542.662 29.7898 540.564 29.7898C538.466 29.7898 536.765 31.4906 536.765 33.5886C536.765 35.6865 538.466 37.3873 540.564 37.3873Z" fill="white"/>
<path d="M391.45 28.8276C390.437 28.8276 389.424 28.4426 388.644 27.6626C387.094 26.1127 387.094 23.6106 388.644 22.0607L533.321 -122.626C534.871 -124.176 537.373 -124.176 538.923 -122.626C540.473 -121.077 540.473 -118.574 538.923 -117.024L394.246 27.6626C393.476 28.4325 392.453 28.8276 391.44 28.8276H391.45Z" fill="#00B7E7"/>
<path d="M378.008 42.1178C380.106 42.1178 381.806 40.417 381.806 38.319C381.806 36.221 380.106 34.5203 378.008 34.5203C375.91 34.5203 374.209 36.221 374.209 38.319C374.209 40.417 375.91 42.1178 378.008 42.1178Z" fill="#FF091C"/>
<path d="M165.217 191.89C164.204 191.89 163.19 191.505 162.41 190.725C160.861 189.176 160.861 186.673 162.41 185.124L307.098 40.4466C308.647 38.8967 311.15 38.8967 312.699 40.4466C314.249 41.9965 314.249 44.4986 312.699 46.0485L168.012 190.725C167.243 191.495 166.219 191.89 165.206 191.89H165.217Z" fill="#00B7E7"/>
<path d="M212.117 144.998C211.104 144.998 210.091 144.613 209.311 143.833C207.761 142.283 207.761 139.781 209.311 138.231L353.988 -6.44549C355.538 -7.99538 358.04 -7.99538 359.59 -6.44549C361.14 -4.8956 361.14 -2.39348 359.59 -0.843591L214.913 143.833C214.143 144.603 213.12 144.998 212.107 144.998H212.117Z" fill="#FF0A1B"/>
<path d="M251.686 105.43C250.673 105.43 249.66 105.045 248.88 104.265C247.33 102.715 247.33 100.213 248.88 98.6635L393.557 -46.0236C395.107 -47.5735 397.609 -47.5735 399.159 -46.0236C400.708 -44.4737 400.708 -41.9716 399.159 -40.4217L254.482 104.265C253.712 105.035 252.689 105.43 251.676 105.43H251.686Z" fill="#FFB325"/>
<path d="M151.774 205.18C153.872 205.18 155.573 203.48 155.573 201.382C155.573 199.284 153.872 197.583 151.774 197.583C149.676 197.583 147.975 199.284 147.975 201.382C147.975 203.48 149.676 205.18 151.774 205.18Z" fill="#FFB325"/>
<path d="M-70.8949 428.001C-71.9079 428.001 -72.9209 427.616 -73.7009 426.836C-75.2508 425.286 -75.2508 422.784 -73.7009 421.234L70.9761 276.557C72.526 275.007 75.0281 275.007 76.578 276.557C78.1279 278.107 78.1279 280.609 76.578 282.159L-68.099 426.836C-68.8688 427.605 -69.892 428.001 -70.905 428.001H-70.8949Z" fill="#FFB325"/>
<path d="M56.6428 300.474C55.6298 300.474 54.6167 300.089 53.8367 299.309C52.2868 297.759 52.2868 295.257 53.8367 293.707L135.525 212.018C137.075 210.468 139.577 210.468 141.127 212.018C142.677 213.568 142.677 216.07 141.127 217.62L59.4386 299.309C58.6688 300.079 57.6456 300.474 56.6326 300.474H56.6428Z" fill="#FF091C"/>
<path d="M267.976 120.727C266.963 120.727 265.95 120.342 265.17 119.562C263.62 118.012 263.62 115.51 265.17 113.96L409.857 -30.7267C411.407 -32.2766 413.909 -32.2766 415.459 -30.7267C417.009 -29.1768 417.009 -26.6747 415.459 -25.1248L270.772 119.562C270.002 120.332 268.979 120.727 267.966 120.727H267.976Z" fill="#FFB325"/>
<path d="M314.867 73.8248C313.854 73.8248 312.841 73.4399 312.061 72.6599C310.511 71.11 310.511 68.6079 312.061 67.058L456.748 -77.6291C458.298 -79.179 460.8 -79.179 462.35 -77.6291C463.9 -76.0792 463.9 -73.5771 462.35 -72.0272L317.663 72.6599C316.893 73.4298 315.87 73.8248 314.857 73.8248H314.867Z" fill="#FF0A1B"/>
<path d="M354.445 34.2571C353.432 34.2571 352.419 33.8721 351.639 33.0921C350.089 31.5422 350.089 29.0401 351.639 27.4902L496.326 -117.187C497.876 -118.737 500.378 -118.737 501.928 -117.187C503.478 -115.637 503.478 -113.135 501.928 -111.585L357.241 33.0921C356.471 33.862 355.448 34.2571 354.435 34.2571H354.445Z" fill="#FFB325"/>
<path d="M254.522 134.008C256.62 134.008 258.321 132.307 258.321 130.209C258.321 128.111 256.62 126.41 254.522 126.41C252.424 126.41 250.724 128.111 250.724 130.209C250.724 132.307 252.424 134.008 254.522 134.008Z" fill="white"/>
<path d="M31.8659 356.838C30.8529 356.838 29.8399 356.453 29.0599 355.673C27.51 354.123 27.51 351.621 29.0599 350.071L173.737 205.394C175.287 203.844 177.789 203.844 179.339 205.394C180.889 206.944 180.889 209.446 179.339 210.996L34.6618 355.673C33.8919 356.443 32.8688 356.838 31.8558 356.838H31.8659Z" fill="white"/>
<path d="M159.392 229.301C158.379 229.301 157.366 228.916 156.586 228.136C155.036 226.586 155.036 224.084 156.586 222.534L238.274 140.846C239.824 139.296 242.326 139.296 243.876 140.846C245.426 142.395 245.426 144.898 243.876 146.447L162.188 228.136C161.418 228.906 160.395 229.301 159.382 229.301H159.392Z" fill="#FF0A1B"/>
<path d="M87.3163 194.392C88.3293 194.392 89.3423 194.777 90.1223 195.557C91.6722 197.107 91.6722 199.609 90.1223 201.159L-54.5648 345.836C-56.1147 347.386 -58.6168 347.386 -60.1667 345.836C-61.7166 344.286 -61.7166 341.784 -60.1667 340.234L84.5204 195.557C85.2903 194.787 86.3134 194.392 87.3264 194.392H87.3163Z" fill="#00BA4F"/>
<path d="M68.8593 242.803C69.8723 242.803 70.8853 243.188 71.6653 243.968C73.2152 245.518 73.2152 248.02 71.6653 249.57L-73.0218 394.257C-74.5717 395.807 -77.0738 395.807 -78.6237 394.257C-80.1736 392.708 -80.1736 390.205 -78.6237 388.656L66.0634 243.968C66.8333 243.199 67.8564 242.803 68.8694 242.803H68.8593Z" fill="#FFB325"/>
<path d="M21.9681 289.695C22.9811 289.695 23.9941 290.08 24.7742 290.86C26.324 292.41 26.324 294.912 24.7742 296.462L-119.913 441.149C-121.463 442.699 -123.965 442.699 -125.515 441.149C-127.065 439.599 -127.065 437.097 -125.515 435.547L19.1722 290.86C19.9421 290.09 20.9653 289.695 21.9783 289.695H21.9681Z" fill="#00B7E7"/>
<path d="M82.3119 237.121C84.4099 237.121 86.1107 235.42 86.1107 233.322C86.1107 231.224 84.4099 229.523 82.3119 229.523C80.2139 229.523 78.5132 231.224 78.5132 233.322C78.5132 235.42 80.2139 237.121 82.3119 237.121Z" fill="white"/>
<path d="M248.627 -20.324C249.64 -20.324 250.653 -19.939 251.433 -19.159C252.983 -17.6091 252.983 -15.0969 251.433 -13.5571L106.675 131.049C105.125 132.599 102.613 132.599 101.073 131.049C99.5232 129.499 99.5232 126.987 101.073 125.447L245.831 -19.159C246.601 -19.9289 247.624 -20.3138 248.637 -20.3138L248.627 -20.324Z" fill="#FFB325"/>
<path d="M121.029 107.142C122.042 107.142 123.055 107.527 123.835 108.307C125.385 109.857 125.385 112.369 123.835 113.909L42.1056 195.557C40.5557 197.107 38.0435 197.107 36.5037 195.557C34.9538 194.007 34.9538 191.495 36.5037 189.955L118.233 108.307C119.003 107.537 120.026 107.152 121.039 107.152L121.029 107.142Z" fill="#00B7E7"/>
<path d="M153.202 -22.0449C154.215 -22.0449 155.228 -21.66 156.008 -20.88C157.558 -19.3301 157.558 -16.828 156.008 -15.2781L11.321 129.399C9.77107 130.949 7.26895 130.949 5.71906 129.399C4.16917 127.849 4.16917 125.347 5.71906 123.797L150.406 -20.88C151.176 -21.6499 152.199 -22.0449 153.212 -22.0449H153.202Z" fill="#00B7E7"/>
<path d="M25.6756 105.481C26.6886 105.481 27.7016 105.866 28.4816 106.646C30.0315 108.196 30.0315 110.698 28.4816 112.248L-53.2069 193.937C-54.7568 195.487 -57.2589 195.487 -58.8088 193.937C-60.3587 192.387 -60.3587 189.885 -58.8088 188.335L22.8797 106.646C23.6496 105.877 24.6727 105.481 25.6857 105.481H25.6756Z" fill="#FFB325"/>
<path d="M143.326 50.9922C144.339 50.9922 145.352 51.3771 146.132 52.1571C147.681 53.707 147.681 56.2091 146.132 57.759L1.4445 202.436C-0.105397 203.986 -2.60751 203.986 -4.1574 202.436C-5.7073 200.886 -5.7073 198.384 -4.1574 196.834L140.53 52.1571C141.3 51.3873 142.323 50.9922 143.336 50.9922H143.326Z" fill="#00B7E7"/>
<path d="M96.4336 97.8938C97.4466 97.8938 98.4596 98.2787 99.2396 99.0587C100.79 100.609 100.79 103.111 99.2396 104.661L-45.4373 249.338C-46.9872 250.887 -49.4893 250.887 -51.0392 249.338C-52.5891 247.788 -52.5891 245.286 -51.0392 243.736L93.6377 99.0587C94.4076 98.2889 95.4307 97.8938 96.4437 97.8938H96.4336Z" fill="#FFB325"/>
<path d="M56.8555 137.462C57.8685 137.462 58.8815 137.847 59.6615 138.627C61.2114 140.177 61.2114 142.679 59.6615 144.229L-85.0155 288.916C-86.5654 290.466 -89.0675 290.466 -90.6174 288.916C-92.1673 287.366 -92.1673 284.864 -90.6174 283.314L54.0596 138.627C54.8295 137.857 55.8526 137.462 56.8656 137.462H56.8555Z" fill="#FF0A1B"/>
<path d="M156.768 45.3087C158.866 45.3087 160.566 43.6079 160.566 41.5099C160.566 39.4119 158.866 37.7112 156.768 37.7112C154.67 37.7112 152.969 39.4119 152.969 41.5099C152.969 43.6079 154.67 45.3087 156.768 45.3087Z" fill="white"/>
<path d="M251.91 -57.5815C252.923 -57.5815 253.936 -57.1966 254.716 -56.4166C256.266 -54.8667 256.266 -52.3646 254.716 -50.8147L173.028 30.8738C171.478 32.4237 168.976 32.4237 167.426 30.8738C165.876 29.3239 165.876 26.8218 167.426 25.2719L249.115 -56.4166C249.884 -57.1865 250.908 -57.5815 251.921 -57.5815H251.91Z" fill="#FF091C"/>
<path d="M40.5668 122.166C41.5798 122.166 42.5928 122.551 43.3728 123.331C44.9227 124.881 44.9227 127.383 43.3728 128.933L-101.314 273.62C-102.864 275.17 -105.366 275.17 -106.916 273.62C-108.466 272.07 -108.466 269.568 -106.916 268.018L37.7709 123.331C38.5408 122.561 39.5639 122.166 40.5769 122.166H40.5668Z" fill="white"/>
<path d="M54.019 116.483C56.117 116.483 57.8177 114.782 57.8177 112.684C57.8177 110.586 56.117 108.885 54.019 108.885C51.921 108.885 50.2202 110.586 50.2202 112.684C50.2202 114.782 51.921 116.483 54.019 116.483Z" fill="#FFB325"/>
<path d="M276.677 -113.945C277.69 -113.945 278.703 -113.56 279.483 -112.78C281.033 -111.23 281.033 -108.728 279.483 -107.178L134.806 37.499C133.256 39.0489 130.754 39.0489 129.204 37.499C127.655 35.9491 127.655 33.447 129.204 31.8971L273.881 -112.78C274.651 -113.55 275.674 -113.945 276.687 -113.945H276.677Z" fill="#00B7E7"/>
<path d="M149.15 13.5923C150.163 13.5923 151.176 13.9772 151.956 14.7572C153.506 16.3071 153.506 18.8092 151.956 20.3591L70.2677 102.048C68.7178 103.598 66.2157 103.598 64.6658 102.048C63.1159 100.498 63.1159 97.9956 64.6658 96.4457L146.354 14.7572C147.124 13.9873 148.147 13.5923 149.16 13.5923H149.15Z" fill="#FF0A1B"/>
</g>
<g clip-path="url(#clip2_108_1940)">
<path d="M390.77 101V203.07C390.77 210.25 384.93 216.1 377.74 216.1H222.03C214.85 216.1 209 210.26 209 203.07V114.03C209 106.84 214.84 101 222.03 101H390.77Z" fill="#161616"/>
<path d="M222.03 103.8H387.97V171.09H211.8V114.03C211.8 108.39 216.39 103.8 222.03 103.8Z" fill="white"/>
<path d="M211.8 203.07V173.89H387.97V203.07C387.97 208.71 383.38 213.29 377.75 213.29H222.03C216.39 213.29 211.81 208.7 211.81 203.07H211.8Z" fill="white"/>
<path d="M337.51 126.23H363.56L339.49 150.3L337.51 148.32L356.79 129.04H337.51V126.23Z" fill="#FFB325"/>
<path d="M366.36 123.43H337.51V120.62H369.17L366.36 123.43Z" fill="#FF0A1B"/>
<path d="M368.35 125.41L371.15 122.61V154.27H368.35V125.41Z" fill="#00BB4F"/>
<path d="M365.54 154.27H362.74V134.98L343.45 154.27L341.47 152.28L365.54 128.21V154.27Z" fill="#00B7E7"/>
<path d="M233.17 134.91H235.61C237.17 134.91 238.31 134.54 239.05 133.8C239.79 133.06 240.16 131.91 240.16 130.37V125.7C240.16 124.14 239.79 123 239.05 122.26C238.31 121.52 237.17 121.15 235.61 121.15H233.17C231.63 121.14 230.48 121.5 229.74 122.23C229 122.96 228.62 124.11 228.62 125.68V130.37C228.62 131.92 228.99 133.06 229.73 133.8C230.47 134.54 231.62 134.91 233.16 134.91H233.17ZM233.17 133.21C232.45 133.21 231.88 133.12 231.47 132.95C231.06 132.78 230.77 132.49 230.59 132.07C230.42 131.66 230.33 131.09 230.33 130.37V125.68C230.33 124.96 230.42 124.39 230.59 123.98C230.77 123.57 231.06 123.28 231.47 123.11C231.88 122.94 232.45 122.86 233.16 122.87H235.6C236.32 122.87 236.89 122.96 237.3 123.13C237.71 123.31 238 123.6 238.18 124.01C238.35 124.42 238.44 124.99 238.44 125.7V130.37C238.44 131.09 238.35 131.66 238.18 132.07C238.01 132.48 237.71 132.77 237.3 132.95C236.89 133.12 236.32 133.21 235.6 133.21H233.16H233.17Z" fill="#161616"/>
<path d="M244.53 138.97C245.1 138.97 245.38 138.69 245.38 138.12V134.91H249.32C250.67 134.91 251.67 134.58 252.32 133.93C252.97 133.28 253.29 132.28 253.29 130.93V128.6C253.29 127.25 252.97 126.25 252.32 125.6C251.67 124.95 250.67 124.63 249.32 124.63H248.55C247.88 124.63 247.28 124.72 246.74 124.91C246.2 125.1 245.75 125.37 245.39 125.74V125.49C245.39 124.92 245.11 124.64 244.54 124.64C243.97 124.64 243.69 124.92 243.69 125.49V138.13C243.69 138.7 243.97 138.98 244.54 138.98L244.53 138.97ZM245.38 133.21V127.6C245.41 127.16 245.74 126.84 246.35 126.64C246.97 126.44 247.7 126.34 248.54 126.34H249.31C250.2 126.34 250.8 126.5 251.11 126.81C251.42 127.12 251.58 127.72 251.58 128.61V130.94C251.58 131.82 251.42 132.42 251.11 132.74C250.8 133.06 250.19 133.22 249.31 133.22H245.37L245.38 133.21Z" fill="#161616"/>
<path d="M258.05 130.46H265.11C265.68 130.46 265.96 130.18 265.96 129.61V128.6C265.96 127.24 265.64 126.24 264.99 125.59C264.34 124.94 263.34 124.62 261.99 124.62H260.33C258.98 124.61 257.98 124.92 257.33 125.57C256.68 126.22 256.35 127.23 256.35 128.6V130.95C256.35 132.29 256.68 133.28 257.33 133.93C257.98 134.58 258.98 134.9 260.33 134.9H261.99C263.14 134.9 264.04 134.69 264.69 134.28C265.34 133.87 265.74 133.24 265.89 132.4C265.94 132.12 265.89 131.9 265.75 131.75C265.6 131.6 265.38 131.53 265.1 131.53C264.82 131.53 264.63 131.6 264.5 131.73C264.37 131.87 264.27 132.06 264.19 132.32C264.08 132.64 263.86 132.87 263.53 133C263.2 133.13 262.69 133.19 262 133.19H260.34C259.46 133.19 258.86 133.03 258.54 132.72C258.22 132.41 258.06 131.81 258.06 130.94V130.45L258.05 130.46ZM260.32 126.32H261.98C262.87 126.32 263.47 126.48 263.78 126.79C264.09 127.1 264.25 127.7 264.25 128.59V128.75H258.04V128.59C258.04 127.7 258.2 127.09 258.52 126.77C258.84 126.45 259.44 126.3 260.32 126.31V126.32Z" fill="#161616"/>
<path d="M270.35 134.91C270.92 134.91 271.2 134.63 271.2 134.06V127.48C271.29 127.08 271.64 126.79 272.25 126.6C272.85 126.41 273.56 126.32 274.37 126.32H274.94C275.81 126.32 276.41 126.48 276.73 126.79C277.05 127.1 277.21 127.7 277.21 128.59V134.05C277.21 134.62 277.49 134.9 278.06 134.9C278.63 134.9 278.91 134.62 278.91 134.05V128.59C278.91 127.24 278.59 126.24 277.94 125.59C277.29 124.94 276.29 124.62 274.94 124.62H274.37C272.98 124.62 271.92 125.02 271.2 125.81V125.48C271.2 124.91 270.92 124.63 270.35 124.63C269.78 124.63 269.5 124.91 269.5 125.48V134.06C269.5 134.63 269.78 134.91 270.35 134.91Z" fill="#161616"/>
<path d="M283.58 134.91C283.88 134.91 284.09 134.84 284.23 134.7C284.37 134.56 284.43 134.35 284.43 134.06V122.03C284.43 121.73 284.36 121.52 284.23 121.38C284.09 121.24 283.88 121.18 283.58 121.18C283.28 121.18 283.07 121.25 282.94 121.38C282.8 121.52 282.73 121.73 282.73 122.03V134.06C282.73 134.35 282.8 134.57 282.94 134.7C283.08 134.83 283.29 134.91 283.58 134.91Z" fill="#161616"/>
<path d="M289.3 134.91C289.87 134.91 290.15 134.63 290.15 134.06V127.48C290.24 127.08 290.59 126.79 291.19 126.6C291.79 126.41 292.5 126.32 293.31 126.32H293.88C294.75 126.32 295.35 126.48 295.67 126.79C295.99 127.1 296.15 127.7 296.15 128.59V134.05C296.15 134.62 296.43 134.9 297 134.9C297.57 134.9 297.85 134.62 297.85 134.05V128.59C297.85 127.24 297.53 126.24 296.88 125.59C296.23 124.94 295.23 124.62 293.88 124.62H293.31C291.92 124.62 290.86 125.02 290.14 125.81V125.48C290.14 124.91 289.86 124.63 289.29 124.63C288.72 124.63 288.44 124.91 288.44 125.48V134.06C288.44 134.63 288.72 134.91 289.29 134.91H289.3Z" fill="#161616"/>
<path d="M302.92 134.91C303.49 134.91 303.77 134.63 303.77 134.06V126.33H305.86C306.43 126.33 306.71 126.05 306.71 125.48C306.71 124.91 306.43 124.63 305.86 124.63H303.77V124.55C303.77 123.68 303.93 123.1 304.24 122.79C304.55 122.49 305.13 122.33 305.99 122.33C306.48 122.33 306.72 122.05 306.72 121.48C306.72 120.91 306.48 120.63 305.99 120.63C304.66 120.63 303.68 120.95 303.04 121.59C302.4 122.23 302.08 123.22 302.08 124.55V124.63H301.33C300.76 124.63 300.48 124.91 300.48 125.48C300.48 126.05 300.76 126.33 301.33 126.33H302.08V134.06C302.08 134.63 302.36 134.91 302.93 134.91H302.92Z" fill="#161616"/>
<path d="M310.16 134.91C310.73 134.91 311.01 134.63 311.01 134.06V128.69C311.04 127.98 311.37 127.41 311.98 126.98C312.6 126.55 313.49 126.33 314.66 126.33C315.23 126.33 315.51 126.05 315.51 125.48C315.51 124.91 315.23 124.63 314.66 124.63C313.86 124.63 313.15 124.77 312.53 125.05C311.91 125.33 311.4 125.74 311 126.28V125.49C311 124.92 310.72 124.64 310.15 124.64C309.58 124.64 309.3 124.92 309.3 125.49V134.07C309.3 134.64 309.58 134.92 310.15 134.92L310.16 134.91Z" fill="#161616"/>
<path d="M320.33 134.91H321.47C322.86 134.91 323.91 134.47 324.64 133.6V134.06C324.64 134.63 324.92 134.91 325.49 134.91C326.06 134.91 326.34 134.63 326.34 134.06V128.6C326.34 127.25 326.02 126.25 325.37 125.6C324.72 124.95 323.72 124.63 322.37 124.63H321.19C320.03 124.63 319.13 124.81 318.49 125.16C317.84 125.51 317.42 126.07 317.22 126.84C317.15 127.1 317.2 127.32 317.36 127.47C317.52 127.62 317.75 127.71 318.03 127.71C318.29 127.71 318.48 127.66 318.61 127.55C318.74 127.44 318.86 127.25 318.99 126.96C319.13 126.72 319.36 126.56 319.69 126.47C320.02 126.38 320.53 126.33 321.2 126.33H322.38C323.18 126.33 323.75 126.46 324.08 126.72C324.41 126.98 324.6 127.47 324.64 128.18H320.35C319.21 128.18 318.36 128.46 317.81 129.01C317.26 129.57 316.98 130.41 316.98 131.55C316.98 132.69 317.26 133.53 317.81 134.09C318.36 134.65 319.21 134.92 320.35 134.92L320.33 134.91ZM320.33 133.21C319.66 133.21 319.22 133.1 319 132.88C318.78 132.66 318.67 132.22 318.67 131.55C318.67 130.88 318.78 130.44 319 130.22C319.22 130 319.66 129.89 320.33 129.89H324.63V131.53C324.53 131.98 324.32 132.33 324.01 132.58C323.7 132.83 323.32 132.99 322.88 133.08C322.44 133.17 321.97 133.22 321.47 133.22H320.33V133.21Z" fill="#161616"/>
<path d="M231.67 154.27H233.3C234.34 154.27 235.11 154.02 235.61 153.53C236.11 153.04 236.35 152.27 236.35 151.23V145.63C236.35 145.44 236.3 145.3 236.21 145.2C236.11 145.11 235.97 145.06 235.78 145.06C235.59 145.06 235.45 145.11 235.35 145.2C235.25 145.29 235.21 145.44 235.21 145.63V151.23C235.21 151.71 235.15 152.1 235.04 152.37C234.92 152.65 234.73 152.84 234.45 152.96C234.17 153.08 233.79 153.13 233.31 153.13H231.68C231.19 153.13 230.81 153.07 230.54 152.96C230.26 152.84 230.07 152.65 229.95 152.37C229.83 152.09 229.78 151.71 229.78 151.23V145.63C229.78 145.44 229.73 145.3 229.64 145.2C229.55 145.1 229.4 145.06 229.21 145.06C229.02 145.06 228.88 145.11 228.78 145.2C228.68 145.29 228.64 145.44 228.64 145.63V151.23C228.64 152.27 228.89 153.04 229.38 153.53C229.87 154.02 230.64 154.27 231.68 154.27H231.67Z" fill="#161616"/>
<path d="M242.64 154.27H244.6C245.5 154.27 246.16 154.06 246.6 153.63C247.04 153.2 247.25 152.54 247.25 151.63C247.25 150.72 247.03 150.05 246.59 149.62C246.15 149.19 245.49 148.97 244.59 148.97H242.9C242.36 148.97 241.99 148.87 241.8 148.67C241.61 148.47 241.51 148.1 241.51 147.57C241.51 147.04 241.6 146.68 241.79 146.49C241.98 146.3 242.34 146.2 242.89 146.2H244.51C244.92 146.2 245.22 146.25 245.43 146.35C245.63 146.45 245.77 146.63 245.84 146.9C245.87 147.08 245.93 147.22 246.02 147.31C246.11 147.4 246.25 147.45 246.43 147.45C246.63 147.45 246.78 147.4 246.88 147.3C246.98 147.2 247.02 147.05 246.99 146.85C246.88 146.24 246.62 145.79 246.21 145.5C245.8 145.21 245.23 145.06 244.51 145.06H242.89C242.03 145.06 241.4 145.27 240.99 145.68C240.58 146.09 240.37 146.73 240.37 147.58C240.37 148.43 240.58 149.08 240.99 149.5C241.4 149.92 242.04 150.13 242.9 150.13H244.59C245.16 150.13 245.56 150.24 245.77 150.45C245.99 150.67 246.1 151.07 246.1 151.65C246.1 152.23 245.99 152.62 245.78 152.83C245.57 153.04 245.17 153.15 244.59 153.15H242.63C242.17 153.15 241.82 153.09 241.6 152.98C241.38 152.86 241.23 152.65 241.16 152.34C241.13 152.15 241.07 152.01 240.98 151.92C240.89 151.83 240.75 151.78 240.56 151.78C240.37 151.78 240.22 151.83 240.12 151.93C240.02 152.03 239.98 152.18 240 152.38C240.11 153.03 240.38 153.52 240.81 153.83C241.24 154.14 241.85 154.3 242.62 154.3L242.64 154.27Z" fill="#161616"/>
<path d="M251.76 154.27H256.64C257.02 154.27 257.21 154.08 257.21 153.7C257.21 153.32 257.02 153.13 256.64 153.13H252.33V150.19H255.04C255.42 150.19 255.61 150 255.61 149.62C255.61 149.24 255.42 149.05 255.04 149.05H252.33V146.19H256.64C257.02 146.19 257.21 146 257.21 145.62C257.21 145.24 257.02 145.05 256.64 145.05H251.76C251.38 145.05 251.19 145.24 251.19 145.62V153.7C251.19 154.08 251.38 154.27 251.76 154.27Z" fill="#161616"/>
<path d="M266.95 154.29C267.27 154.09 267.34 153.83 267.17 153.51L265.39 150.54C266.02 150.44 266.51 150.17 266.85 149.74C267.19 149.31 267.35 148.74 267.35 148.02V147.61C267.35 146.78 267.13 146.14 266.69 145.7C266.25 145.26 265.61 145.04 264.78 145.04H261.6C261.22 145.04 261.03 145.23 261.03 145.61V153.69C261.03 154.07 261.22 154.26 261.6 154.26C261.98 154.26 262.17 154.07 262.17 153.69V150.59H264.07L266.18 154.1C266.27 154.25 266.39 154.34 266.53 154.38C266.67 154.42 266.81 154.38 266.96 154.29H266.95ZM262.16 149.45V146.18H264.77C265.29 146.18 265.65 146.29 265.87 146.51C266.09 146.73 266.2 147.1 266.2 147.61V148.02C266.2 148.54 266.09 148.9 265.87 149.12C265.65 149.34 265.29 149.45 264.77 149.45H262.16Z" fill="#161616"/>
<path d="M279.24 154.27H280.87C281.82 154.27 282.52 154.05 282.97 153.61C283.42 153.17 283.64 152.46 283.64 151.5V150.29C283.64 149.91 283.45 149.72 283.07 149.72H281.44C281.06 149.71 280.87 149.9 280.87 150.28C280.87 150.66 281.06 150.85 281.44 150.85H282.5V151.5C282.5 151.93 282.45 152.26 282.36 152.5C282.27 152.74 282.1 152.9 281.86 152.99C281.62 153.08 281.29 153.13 280.87 153.13H279.24C278.76 153.13 278.37 153.07 278.1 152.96C277.82 152.84 277.63 152.65 277.51 152.37C277.39 152.09 277.34 151.71 277.34 151.23V148.1C277.34 147.61 277.4 147.23 277.51 146.95C277.63 146.67 277.82 146.47 278.09 146.36C278.36 146.25 278.74 146.19 279.22 146.2H280.87C281.4 146.2 281.79 146.27 282.03 146.42C282.27 146.57 282.42 146.85 282.46 147.26C282.51 147.64 282.71 147.83 283.06 147.83C283.25 147.83 283.4 147.78 283.5 147.68C283.6 147.58 283.64 147.44 283.61 147.24C283.54 146.48 283.28 145.93 282.83 145.58C282.38 145.23 281.73 145.05 280.88 145.05H279.23C278.2 145.05 277.43 145.28 276.94 145.78C276.45 146.28 276.2 147.05 276.2 148.1V151.23C276.2 152.27 276.45 153.04 276.94 153.53C277.43 154.02 278.2 154.27 279.24 154.27Z" fill="#161616"/>
<path d="M293.24 154.29C293.56 154.09 293.63 153.83 293.46 153.51L291.68 150.54C292.31 150.44 292.8 150.17 293.14 149.74C293.48 149.31 293.64 148.74 293.64 148.02V147.61C293.64 146.78 293.42 146.14 292.98 145.7C292.54 145.26 291.9 145.04 291.07 145.04H287.89C287.51 145.04 287.32 145.23 287.32 145.61V153.69C287.32 154.07 287.51 154.26 287.89 154.26C288.27 154.26 288.46 154.07 288.46 153.69V150.59H290.36L292.47 154.1C292.56 154.25 292.68 154.34 292.82 154.38C292.96 154.42 293.1 154.38 293.25 154.29H293.24ZM288.45 149.45V146.18H291.06C291.58 146.18 291.94 146.29 292.16 146.51C292.38 146.73 292.49 147.1 292.49 147.61V148.02C292.49 148.54 292.38 148.9 292.16 149.12C291.94 149.34 291.58 149.45 291.06 149.45H288.45Z" fill="#161616"/>
<path d="M299.96 154.27H301.59C302.63 154.27 303.4 154.02 303.9 153.53C304.39 153.03 304.64 152.27 304.64 151.23V148.1C304.64 147.06 304.39 146.29 303.9 145.79C303.41 145.3 302.64 145.05 301.59 145.05H299.96C298.93 145.05 298.16 145.28 297.66 145.77C297.16 146.26 296.91 147.03 296.91 148.08V151.22C296.91 152.26 297.16 153.03 297.65 153.52C298.14 154.01 298.91 154.26 299.95 154.26L299.96 154.27ZM299.96 153.13C299.48 153.13 299.09 153.07 298.82 152.96C298.54 152.84 298.35 152.65 298.23 152.37C298.11 152.09 298.06 151.71 298.06 151.23V148.09C298.06 147.6 298.12 147.22 298.24 146.95C298.36 146.67 298.56 146.48 298.83 146.37C299.11 146.26 299.49 146.2 299.97 146.21H301.6C302.08 146.21 302.47 146.27 302.74 146.39C303.02 146.51 303.21 146.71 303.33 146.98C303.45 147.26 303.5 147.64 303.5 148.12V151.25C303.5 151.73 303.44 152.12 303.33 152.39C303.21 152.67 303.02 152.86 302.74 152.98C302.46 153.1 302.08 153.15 301.6 153.15H299.97L299.96 153.13Z" fill="#161616"/>
<path d="M311.55 154.27H313.18C314.22 154.27 314.99 154.02 315.49 153.53C315.99 153.04 316.23 152.27 316.23 151.23V145.63C316.23 145.44 316.18 145.3 316.09 145.2C315.99 145.11 315.85 145.06 315.66 145.06C315.47 145.06 315.33 145.11 315.23 145.2C315.13 145.29 315.09 145.44 315.09 145.63V151.23C315.09 151.71 315.03 152.1 314.92 152.37C314.8 152.65 314.61 152.84 314.33 152.96C314.05 153.08 313.67 153.13 313.19 153.13H311.56C311.07 153.13 310.69 153.07 310.42 152.96C310.14 152.84 309.95 152.65 309.83 152.37C309.71 152.09 309.66 151.71 309.66 151.23V145.63C309.66 145.44 309.61 145.3 309.52 145.2C309.43 145.1 309.28 145.06 309.09 145.06C308.9 145.06 308.76 145.11 308.66 145.2C308.56 145.29 308.52 145.44 308.52 145.63V151.23C308.52 152.27 308.77 153.04 309.26 153.53C309.75 154.02 310.52 154.27 311.56 154.27H311.55Z" fill="#161616"/>
<path d="M320.58 154.27C320.96 154.27 321.15 154.08 321.15 153.7V150.6H323.76C324.59 150.6 325.23 150.38 325.67 149.94C326.11 149.5 326.33 148.86 326.33 148.03V147.62C326.33 146.79 326.11 146.15 325.67 145.71C325.23 145.27 324.59 145.05 323.76 145.05H320.58C320.2 145.05 320.01 145.24 320.01 145.62V153.7C320.01 154.08 320.2 154.27 320.58 154.27ZM321.15 149.45V146.18H323.76C324.28 146.18 324.64 146.29 324.86 146.51C325.08 146.73 325.19 147.1 325.19 147.61V148.02C325.19 148.54 325.08 148.9 324.86 149.12C324.64 149.34 324.28 149.45 323.76 149.45H321.15Z" fill="#161616"/>
<path d="M274.82 197.79H270.21L269.33 200.42H266.53L271.28 187.65H273.72L278.5 200.42H275.7L274.81 197.79H274.82ZM270.92 195.66H274.11L272.5 190.88L270.91 195.66H270.92Z" fill="#161616"/>
<path d="M284.94 199.45C284.32 200.21 283.45 200.59 282.34 200.59C281.32 200.59 280.55 200.3 280.01 199.71C279.47 199.13 279.2 198.27 279.19 197.14V190.92H281.72V197.06C281.72 198.05 282.17 198.54 283.07 198.54C283.97 198.54 284.52 198.24 284.84 197.64V190.91H287.38V200.4H284.99L284.92 199.44L284.94 199.45Z" fill="#161616"/>
<path d="M288.76 195.6C288.76 194.14 289.11 192.97 289.8 192.08C290.49 191.19 291.43 190.75 292.6 190.75C293.64 190.75 294.45 191.11 295.03 191.82L295.14 190.93H297.44V200.1C297.44 200.93 297.25 201.65 296.87 202.27C296.49 202.88 295.96 203.35 295.28 203.67C294.6 203.99 293.79 204.15 292.88 204.15C292.18 204.15 291.51 204.01 290.85 203.73C290.19 203.45 289.69 203.09 289.35 202.66L290.47 201.12C291.1 201.83 291.87 202.18 292.77 202.18C293.44 202.18 293.97 202 294.34 201.64C294.71 201.28 294.9 200.77 294.9 200.11V199.6C294.32 200.26 293.55 200.59 292.59 200.59C291.45 200.59 290.53 200.14 289.82 199.25C289.11 198.36 288.76 197.18 288.76 195.7V195.59V195.6ZM291.29 195.78C291.29 196.64 291.46 197.32 291.81 197.81C292.15 198.3 292.63 198.55 293.23 198.55C294 198.55 294.55 198.26 294.89 197.68V193.67C294.55 193.09 294 192.8 293.25 192.8C292.64 192.8 292.16 193.05 291.82 193.55C291.48 194.05 291.3 194.8 291.3 195.79L291.29 195.78Z" fill="#161616"/>
<path d="M304.88 199.45C304.26 200.21 303.39 200.59 302.28 200.59C301.26 200.59 300.49 200.3 299.95 199.71C299.41 199.13 299.14 198.27 299.13 197.14V190.92H301.67V197.06C301.67 198.05 302.12 198.54 303.02 198.54C303.92 198.54 304.47 198.24 304.79 197.64V190.91H307.33V200.4H304.94L304.87 199.44L304.88 199.45Z" fill="#161616"/>
<path d="M314.21 197.79C314.21 197.48 314.06 197.24 313.75 197.06C313.44 196.88 312.95 196.72 312.27 196.58C310.01 196.11 308.88 195.15 308.88 193.7C308.88 192.86 309.23 192.16 309.93 191.59C310.63 191.03 311.54 190.74 312.67 190.74C313.87 190.74 314.84 191.02 315.56 191.59C316.28 192.16 316.64 192.89 316.64 193.8H314.11C314.11 193.44 313.99 193.14 313.76 192.9C313.53 192.66 313.16 192.55 312.66 192.55C312.23 192.55 311.9 192.65 311.67 192.84C311.44 193.03 311.32 193.28 311.32 193.58C311.32 193.86 311.45 194.09 311.72 194.26C311.99 194.43 312.43 194.58 313.07 194.71C313.71 194.84 314.23 194.98 314.67 195.14C316.01 195.63 316.68 196.48 316.68 197.69C316.68 198.56 316.31 199.26 315.57 199.79C314.83 200.33 313.87 200.59 312.69 200.59C311.89 200.59 311.19 200.45 310.57 200.16C309.95 199.88 309.47 199.49 309.12 198.99C308.77 198.5 308.59 197.96 308.59 197.39H310.99C311.01 197.84 311.18 198.18 311.49 198.43C311.8 198.67 312.21 198.79 312.74 198.79C313.23 198.79 313.59 198.7 313.84 198.51C314.09 198.33 314.21 198.08 314.21 197.79Z" fill="#161616"/>
<path d="M321.16 188.6V190.93H322.78V192.79H321.16V197.53C321.16 197.88 321.23 198.13 321.36 198.28C321.49 198.43 321.75 198.51 322.13 198.51C322.41 198.51 322.66 198.49 322.88 198.45V200.37C322.38 200.52 321.87 200.6 321.34 200.6C319.56 200.6 318.66 199.7 318.62 197.91V192.8H317.23V190.94H318.62V188.61H321.15L321.16 188.6Z" fill="#161616"/>
<path d="M329.51 200.42C329.39 200.19 329.31 199.91 329.26 199.57C328.65 200.25 327.85 200.6 326.87 200.6C325.94 200.6 325.17 200.33 324.56 199.79C323.95 199.25 323.64 198.57 323.64 197.75C323.64 196.74 324.01 195.97 324.76 195.43C325.51 194.89 326.58 194.62 327.99 194.61H329.16V194.07C329.16 193.63 329.05 193.28 328.82 193.02C328.59 192.76 328.24 192.62 327.75 192.62C327.32 192.62 326.99 192.72 326.75 192.93C326.51 193.13 326.39 193.42 326.39 193.77H323.86C323.86 193.22 324.03 192.71 324.37 192.24C324.71 191.77 325.19 191.41 325.81 191.14C326.43 190.87 327.13 190.74 327.9 190.74C329.07 190.74 330 191.03 330.69 191.62C331.38 192.21 331.72 193.03 331.72 194.1V198.21C331.72 199.11 331.85 199.79 332.1 200.25V200.4H329.54L329.51 200.42ZM327.41 198.66C327.79 198.66 328.13 198.58 328.45 198.41C328.77 198.24 329 198.02 329.15 197.74V196.11H328.2C326.93 196.11 326.26 196.55 326.17 197.43V197.58C326.17 197.9 326.27 198.16 326.49 198.36C326.71 198.56 327.02 198.67 327.4 198.67L327.41 198.66Z" fill="#161616"/>
</g>
<path d="M391 103.71H223.454C216.326 103.71 210.52 109.516 210.52 116.644V205.056C210.52 212.189 216.321 217.989 223.454 217.989H378.066C385.199 217.989 391 212.189 391 205.056V103.71Z" fill="white"/>
<path d="M223.454 106.498C217.857 106.498 213.303 111.052 213.303 116.649V173.306H388.217V106.498H223.454Z" fill="black"/>
<path d="M213.318 204.826C213.318 210.422 217.873 214.977 223.469 214.977H378.082C383.678 214.977 388.233 210.422 388.233 204.826V175.854H213.318V204.826Z" fill="black"/>
<path d="M338.111 128.766V131.548H357.259L338.111 150.696L340.082 152.662L363.978 128.766H338.111Z" fill="#F7B749"/>
<path d="M366.766 125.983L369.549 123.195H338.111V125.983H366.766Z" fill="#ED362F"/>
<path d="M368.732 127.949V156.599H371.515V125.166L368.732 127.949Z" fill="#43B85C"/>
<path d="M365.949 156.599V130.731L342.048 154.633L344.019 156.599L363.167 137.451V156.599H365.949Z" fill="#2CB4E2"/>
<path d="M234.519 137.379C232.982 137.379 231.843 137.012 231.108 136.277C230.373 135.541 230.005 134.403 230.005 132.866V128.209C230.005 126.657 230.373 125.518 231.113 124.788C231.853 124.058 232.987 123.7 234.519 123.716H236.934C238.481 123.716 239.62 124.083 240.35 124.813C241.08 125.544 241.448 126.682 241.448 128.229V132.866C241.448 134.403 241.08 135.541 240.35 136.277C239.62 137.012 238.481 137.379 236.934 137.379H234.519ZM234.519 135.684H236.934C237.654 135.684 238.215 135.597 238.629 135.429C239.038 135.255 239.329 134.969 239.502 134.556C239.676 134.147 239.758 133.581 239.758 132.861V128.224C239.758 127.514 239.671 126.953 239.502 126.544C239.329 126.136 239.038 125.845 238.629 125.666C238.221 125.492 237.654 125.406 236.934 125.406H234.519C233.809 125.401 233.247 125.482 232.834 125.646C232.42 125.809 232.134 126.1 231.955 126.514C231.782 126.922 231.695 127.489 231.695 128.209V132.866C231.695 133.586 231.782 134.147 231.95 134.561C232.124 134.969 232.415 135.26 232.823 135.434C233.232 135.608 233.799 135.689 234.519 135.689V135.684Z" fill="white"/>
<path d="M245.803 141.408C245.236 141.408 244.956 141.128 244.956 140.561V128.01C244.956 127.443 245.236 127.162 245.803 127.162C246.37 127.162 246.651 127.443 246.651 128.01V128.26C247.013 127.898 247.463 127.622 247.994 127.438C248.53 127.254 249.127 127.162 249.791 127.162H250.557C251.9 127.162 252.896 127.484 253.539 128.127C254.182 128.771 254.504 129.766 254.504 131.109V133.428C254.504 134.765 254.182 135.756 253.539 136.404C252.896 137.053 251.9 137.375 250.557 137.375H246.646V140.561C246.646 141.128 246.365 141.408 245.798 141.408H245.803ZM246.651 135.684H250.562C251.44 135.684 252.038 135.526 252.349 135.21C252.661 134.893 252.819 134.301 252.819 133.428V131.109C252.819 130.231 252.666 129.634 252.349 129.322C252.038 129.011 251.44 128.852 250.562 128.852H249.796C248.954 128.852 248.229 128.955 247.621 129.154C247.008 129.353 246.687 129.675 246.656 130.109V135.679L246.651 135.684Z" fill="white"/>
<path d="M259.222 132.968V133.453C259.222 134.321 259.38 134.908 259.697 135.22C260.013 135.531 260.606 135.69 261.479 135.69H263.133C263.817 135.69 264.323 135.628 264.655 135.501C264.981 135.373 265.201 135.148 265.308 134.827C265.38 134.571 265.487 134.377 265.615 134.245C265.747 134.112 265.947 134.04 266.212 134.04C266.478 134.04 266.707 134.117 266.855 134.26C267.003 134.408 267.049 134.622 266.993 134.903C266.845 135.735 266.452 136.358 265.804 136.767C265.16 137.175 264.267 137.38 263.123 137.38H261.468C260.131 137.38 259.14 137.058 258.492 136.415C257.843 135.771 257.521 134.781 257.521 133.453V131.114C257.521 129.751 257.843 128.75 258.492 128.107C259.14 127.464 260.131 127.152 261.468 127.162H263.123C264.466 127.162 265.461 127.484 266.105 128.122C266.748 128.766 267.07 129.761 267.07 131.109V132.115C267.07 132.682 266.789 132.963 266.222 132.963H259.212L259.222 132.968ZM261.479 128.858C260.606 128.842 260.013 128.995 259.697 129.312C259.38 129.629 259.222 130.231 259.222 131.114V131.278H265.39V131.114C265.39 130.236 265.232 129.639 264.92 129.327C264.609 129.016 264.011 128.858 263.133 128.858H261.479Z" fill="white"/>
<path d="M271.431 137.38C270.869 137.38 270.583 137.099 270.583 136.532V128.01C270.583 127.443 270.864 127.162 271.431 127.162C271.997 127.162 272.278 127.443 272.278 128.01V128.342C272.988 127.556 274.04 127.162 275.424 127.162H275.985C277.328 127.162 278.324 127.484 278.967 128.127C279.611 128.771 279.932 129.766 279.932 131.109V136.532C279.932 137.099 279.651 137.38 279.085 137.38C278.518 137.38 278.237 137.099 278.237 136.532V131.109C278.237 130.231 278.079 129.634 277.757 129.322C277.435 129.011 276.843 128.852 275.98 128.852H275.418C274.612 128.852 273.912 128.944 273.315 129.128C272.717 129.312 272.37 129.603 272.278 130.001V136.532C272.278 137.099 271.997 137.38 271.431 137.38Z" fill="white"/>
<path d="M284.569 137.38C284.283 137.38 284.068 137.313 283.93 137.175C283.792 137.037 283.726 136.823 283.726 136.537V124.589C283.726 124.293 283.798 124.078 283.93 123.945C284.068 123.813 284.283 123.746 284.569 123.746C284.855 123.746 285.079 123.813 285.212 123.945C285.345 124.078 285.411 124.293 285.411 124.589V136.537C285.411 136.828 285.345 137.037 285.212 137.175C285.079 137.313 284.865 137.38 284.569 137.38Z" fill="white"/>
<path d="M290.252 137.38C289.685 137.38 289.404 137.099 289.404 136.532V128.01C289.404 127.443 289.685 127.162 290.252 127.162C290.819 127.162 291.1 127.443 291.1 128.01V128.342C291.809 127.556 292.861 127.162 294.245 127.162H294.807C296.149 127.162 297.145 127.484 297.789 128.127C298.432 128.771 298.754 129.766 298.754 131.109V136.532C298.754 137.099 298.473 137.38 297.906 137.38C297.339 137.38 297.058 137.099 297.058 136.532V131.109C297.058 130.231 296.9 129.634 296.578 129.322C296.262 129.011 295.669 128.852 294.801 128.852H294.24C293.433 128.852 292.733 128.944 292.136 129.128C291.539 129.312 291.191 129.603 291.1 130.001V136.532C291.1 137.099 290.819 137.38 290.252 137.38Z" fill="white"/>
<path d="M303.773 137.38C303.211 137.38 302.925 137.099 302.925 136.532V128.852H302.18C301.618 128.852 301.332 128.572 301.332 128.005C301.332 127.438 301.613 127.157 302.18 127.157H302.925V127.075C302.925 125.753 303.242 124.773 303.88 124.139C304.518 123.506 305.494 123.19 306.811 123.19C307.296 123.19 307.536 123.471 307.536 124.037C307.536 124.604 307.296 124.885 306.811 124.885C305.963 124.885 305.386 125.038 305.08 125.339C304.768 125.641 304.615 126.223 304.615 127.081V127.162H306.693C307.255 127.162 307.541 127.443 307.541 128.01C307.541 128.577 307.26 128.857 306.693 128.857H304.615V136.537C304.615 137.104 304.334 137.385 303.768 137.385L303.773 137.38Z" fill="white"/>
<path d="M310.967 137.38C310.4 137.38 310.12 137.099 310.12 136.532V128.01C310.12 127.443 310.4 127.162 310.967 127.162C311.534 127.162 311.815 127.443 311.815 128.01V128.796C312.213 128.26 312.714 127.852 313.331 127.576C313.944 127.3 314.649 127.162 315.44 127.162C316.002 127.162 316.288 127.443 316.288 128.01C316.288 128.577 316.007 128.858 315.44 128.858C314.276 128.858 313.393 129.072 312.78 129.501C312.167 129.93 311.845 130.497 311.815 131.201V136.532C311.815 137.099 311.534 137.38 310.967 137.38Z" fill="white"/>
<path d="M321.062 137.379C319.933 137.379 319.091 137.104 318.544 136.552C317.998 136.001 317.717 135.163 317.717 134.035C317.717 132.906 317.993 132.069 318.539 131.518C319.086 130.966 319.928 130.69 321.062 130.69H325.325C325.285 129.986 325.101 129.506 324.769 129.245C324.442 128.985 323.875 128.857 323.079 128.857H321.909C321.235 128.857 320.735 128.903 320.408 128.995C320.076 129.087 319.847 129.251 319.714 129.485C319.591 129.766 319.469 129.96 319.341 130.067C319.213 130.175 319.024 130.231 318.769 130.231C318.488 130.231 318.264 130.154 318.105 129.996C317.947 129.838 317.896 129.628 317.962 129.368C318.162 128.607 318.585 128.056 319.224 127.698C319.867 127.346 320.761 127.167 321.909 127.167H323.079C324.422 127.167 325.417 127.489 326.061 128.132C326.704 128.776 327.026 129.771 327.026 131.114V136.537C327.026 137.104 326.745 137.385 326.178 137.385C325.611 137.385 325.33 137.104 325.33 136.537V136.082C324.611 136.951 323.564 137.385 322.185 137.385H321.057L321.062 137.379ZM321.062 135.684H322.19C322.686 135.684 323.155 135.638 323.589 135.546C324.023 135.454 324.401 135.291 324.713 135.046C325.024 134.806 325.233 134.459 325.33 134.009V132.375H321.057C320.393 132.375 319.949 132.488 319.734 132.707C319.52 132.927 319.407 133.371 319.407 134.025C319.407 134.678 319.515 135.133 319.734 135.347C319.954 135.567 320.393 135.674 321.057 135.674L321.062 135.684Z" fill="white"/>
<path d="M233.033 156.599C232.001 156.599 231.241 156.354 230.745 155.858C230.25 155.363 230.005 154.602 230.005 153.571V148.005C230.005 147.816 230.051 147.673 230.148 147.581C230.245 147.49 230.383 147.438 230.572 147.438C230.761 147.438 230.904 147.484 230.995 147.581C231.087 147.678 231.138 147.816 231.138 148.005V153.571C231.138 154.051 231.195 154.429 231.312 154.704C231.429 154.98 231.624 155.174 231.894 155.287C232.17 155.404 232.548 155.46 233.028 155.46H234.646C235.126 155.46 235.504 155.404 235.78 155.287C236.056 155.174 236.25 154.975 236.362 154.704C236.479 154.429 236.536 154.051 236.536 153.571V148.005C236.536 147.816 236.582 147.673 236.679 147.581C236.776 147.49 236.913 147.438 237.102 147.438C237.291 147.438 237.434 147.484 237.526 147.581C237.618 147.678 237.669 147.816 237.669 148.005V153.571C237.669 154.602 237.424 155.363 236.934 155.858C236.444 156.354 235.678 156.599 234.646 156.599H233.028H233.033Z" fill="white"/>
<path d="M243.924 156.599C243.153 156.599 242.556 156.446 242.127 156.134C241.698 155.823 241.427 155.343 241.32 154.694C241.3 154.495 241.34 154.347 241.443 154.25C241.54 154.153 241.688 154.102 241.877 154.102C242.066 154.102 242.203 154.148 242.29 154.235C242.377 154.327 242.438 154.465 242.469 154.653C242.535 154.965 242.683 155.179 242.903 155.292C243.128 155.409 243.465 155.465 243.924 155.465H245.87C246.452 155.465 246.845 155.363 247.054 155.154C247.264 154.944 247.366 154.556 247.366 153.985C247.366 153.413 247.258 153.004 247.044 152.795C246.83 152.58 246.436 152.473 245.87 152.473H244.195C243.342 152.473 242.714 152.264 242.3 151.85C241.887 151.437 241.683 150.798 241.683 149.951C241.683 149.103 241.887 148.475 242.295 148.067C242.704 147.658 243.332 147.454 244.185 147.454H245.793C246.508 147.454 247.07 147.602 247.478 147.893C247.886 148.184 248.142 148.633 248.249 149.236C248.275 149.43 248.239 149.578 248.142 149.68C248.045 149.782 247.892 149.833 247.698 149.833C247.519 149.833 247.381 149.787 247.294 149.69C247.202 149.593 247.146 149.461 247.121 149.277C247.049 149.011 246.911 148.827 246.707 148.735C246.503 148.638 246.201 148.587 245.793 148.587H244.185C243.643 148.587 243.281 148.684 243.097 148.873C242.913 149.062 242.821 149.425 242.821 149.951C242.821 150.477 242.913 150.849 243.102 151.043C243.291 151.243 243.659 151.34 244.195 151.34H245.87C246.758 151.34 247.417 151.554 247.851 151.988C248.285 152.422 248.504 153.086 248.504 153.99C248.504 154.893 248.29 155.547 247.856 155.971C247.422 156.395 246.763 156.609 245.87 156.609H243.924V156.599Z" fill="white"/>
<path d="M252.972 156.599C252.594 156.599 252.405 156.41 252.405 156.032V148.01C252.405 147.633 252.594 147.444 252.972 147.444H257.823C258.201 147.444 258.39 147.633 258.39 148.01C258.39 148.388 258.201 148.577 257.823 148.577H253.539V151.411H256.225C256.602 151.411 256.791 151.6 256.791 151.978C256.791 152.356 256.602 152.545 256.225 152.545H253.539V155.46H257.823C258.201 155.46 258.39 155.649 258.39 156.027C258.39 156.405 258.201 156.594 257.823 156.594H252.972V156.599Z" fill="white"/>
<path d="M268.06 156.624C267.912 156.716 267.769 156.747 267.637 156.711C267.504 156.675 267.386 156.584 267.295 156.435L265.201 152.953H263.312V156.032C263.312 156.41 263.123 156.599 262.745 156.599C262.367 156.599 262.178 156.41 262.178 156.032V148.01C262.178 147.633 262.367 147.444 262.745 147.444H265.906C266.728 147.444 267.361 147.663 267.8 148.102C268.239 148.541 268.459 149.175 268.459 149.997V150.4C268.459 151.115 268.29 151.687 267.958 152.111C267.626 152.534 267.141 152.8 266.513 152.902L268.28 155.853C268.454 156.17 268.377 156.425 268.066 156.624H268.06ZM263.307 151.814H265.901C266.411 151.814 266.779 151.707 266.993 151.493C267.208 151.278 267.32 150.911 267.32 150.4V149.997C267.32 149.486 267.213 149.124 266.993 148.904C266.779 148.684 266.411 148.577 265.901 148.577H263.307V151.82V151.814Z" fill="white"/>
<path d="M280.259 156.599C279.227 156.599 278.467 156.354 277.971 155.859C277.476 155.363 277.231 154.602 277.231 153.571V150.466C277.231 149.425 277.476 148.659 277.966 148.169C278.456 147.673 279.217 147.433 280.244 147.444H281.878C282.725 147.444 283.368 147.617 283.818 147.97C284.267 148.322 284.522 148.868 284.594 149.619C284.619 149.808 284.584 149.951 284.487 150.053C284.39 150.15 284.242 150.201 284.053 150.201C283.711 150.201 283.511 150.012 283.46 149.634C283.414 149.221 283.271 148.94 283.031 148.797C282.791 148.654 282.409 148.582 281.883 148.582H280.249C279.774 148.582 279.396 148.633 279.125 148.746C278.855 148.858 278.661 149.052 278.543 149.328C278.426 149.604 278.37 149.987 278.37 150.472V153.576C278.37 154.056 278.426 154.434 278.543 154.71C278.656 154.985 278.855 155.179 279.125 155.292C279.401 155.409 279.779 155.465 280.259 155.465H281.883C282.301 155.465 282.628 155.419 282.863 155.327C283.098 155.236 283.266 155.072 283.358 154.837C283.455 154.602 283.501 154.271 283.501 153.847V153.214L282.449 153.198C282.072 153.198 281.883 153.009 281.883 152.631C281.883 152.254 282.072 152.065 282.449 152.065L284.073 152.08C284.451 152.08 284.64 152.269 284.64 152.647V153.847C284.64 154.807 284.415 155.506 283.971 155.945C283.527 156.384 282.832 156.604 281.883 156.604H280.259V156.599Z" fill="white"/>
<path d="M294.163 156.624C294.015 156.716 293.872 156.747 293.739 156.711C293.606 156.675 293.489 156.584 293.397 156.435L291.304 152.953H289.414V156.032C289.414 156.41 289.225 156.599 288.848 156.599C288.47 156.599 288.281 156.41 288.281 156.032V148.01C288.281 147.633 288.47 147.444 288.848 147.444H292.008C292.83 147.444 293.463 147.663 293.903 148.102C294.342 148.541 294.561 149.175 294.561 149.997V150.4C294.561 151.115 294.393 151.687 294.061 152.111C293.729 152.534 293.244 152.8 292.616 152.902L294.383 155.853C294.556 156.17 294.48 156.425 294.168 156.624H294.163ZM289.409 151.814H292.003C292.514 151.814 292.881 151.707 293.096 151.493C293.31 151.278 293.423 150.911 293.423 150.4V149.997C293.423 149.486 293.315 149.124 293.096 148.904C292.881 148.684 292.514 148.577 292.003 148.577H289.409V151.82V151.814Z" fill="white"/>
<path d="M300.837 156.599C299.805 156.599 299.044 156.354 298.549 155.858C298.054 155.363 297.809 154.602 297.809 153.571V150.451C297.809 149.409 298.059 148.649 298.554 148.159C299.049 147.668 299.81 147.428 300.837 147.439H302.46C303.497 147.439 304.258 147.684 304.748 148.174C305.238 148.664 305.483 149.43 305.483 150.461V153.566C305.483 154.597 305.238 155.358 304.748 155.853C304.258 156.349 303.492 156.594 302.46 156.594H300.837V156.599ZM300.837 155.465H302.46C302.94 155.465 303.318 155.409 303.594 155.292C303.87 155.179 304.064 154.98 304.176 154.71C304.293 154.434 304.349 154.056 304.349 153.576V150.472C304.349 149.997 304.293 149.619 304.176 149.343C304.058 149.067 303.864 148.873 303.594 148.756C303.318 148.638 302.94 148.582 302.46 148.582H300.837C300.362 148.582 299.984 148.633 299.708 148.746C299.432 148.858 299.238 149.052 299.121 149.328C299.003 149.604 298.947 149.981 298.947 150.461V153.581C298.947 154.061 299.003 154.439 299.121 154.715C299.233 154.99 299.432 155.184 299.703 155.297C299.979 155.414 300.357 155.47 300.837 155.47V155.465Z" fill="white"/>
<path d="M312.34 156.599C311.309 156.599 310.548 156.354 310.053 155.858C309.558 155.363 309.312 154.602 309.312 153.571V148.005C309.312 147.816 309.358 147.673 309.455 147.581C309.552 147.49 309.69 147.438 309.879 147.438C310.068 147.438 310.211 147.484 310.303 147.581C310.395 147.678 310.446 147.816 310.446 148.005V153.571C310.446 154.051 310.502 154.429 310.62 154.704C310.737 154.98 310.931 155.174 311.202 155.287C311.477 155.404 311.855 155.46 312.335 155.46H313.954C314.434 155.46 314.812 155.404 315.087 155.287C315.363 155.174 315.557 154.975 315.67 154.704C315.787 154.429 315.843 154.051 315.843 153.571V148.005C315.843 147.816 315.889 147.673 315.986 147.581C316.083 147.49 316.221 147.438 316.41 147.438C316.599 147.438 316.742 147.484 316.834 147.581C316.926 147.678 316.977 147.816 316.977 148.005V153.571C316.977 154.602 316.732 155.363 316.241 155.858C315.751 156.354 314.985 156.599 313.954 156.599H312.335H312.34Z" fill="white"/>
<path d="M321.312 156.599C320.934 156.599 320.745 156.41 320.745 156.032V148.01C320.745 147.633 320.934 147.444 321.312 147.444H324.473C325.295 147.444 325.928 147.663 326.367 148.102C326.806 148.541 327.026 149.175 327.026 149.997V150.4C327.026 151.222 326.806 151.855 326.367 152.294C325.928 152.734 325.295 152.953 324.473 152.953H321.879V156.032C321.879 156.41 321.69 156.599 321.312 156.599ZM321.879 151.82H324.473C324.983 151.82 325.351 151.712 325.565 151.498C325.78 151.283 325.892 150.916 325.892 150.405V150.002C325.892 149.491 325.785 149.129 325.565 148.909C325.351 148.689 324.983 148.582 324.473 148.582H321.879V151.825V151.82Z" fill="white"/>
<path d="M264.93 201.452C263.785 201.452 262.938 201.18 262.388 200.635C261.843 200.085 261.57 199.237 261.57 198.092V194.642C261.57 193.487 261.843 192.637 262.388 192.092C262.933 191.542 263.775 191.272 264.915 191.282H266.73C267.67 191.282 268.388 191.477 268.883 191.867C269.378 192.252 269.665 192.862 269.745 193.697C269.775 193.907 269.735 194.067 269.625 194.177C269.515 194.287 269.355 194.342 269.145 194.342C268.765 194.342 268.545 194.132 268.485 193.712C268.435 193.252 268.275 192.942 268.005 192.782C267.74 192.622 267.315 192.542 266.73 192.542H264.915C264.385 192.537 263.968 192.597 263.663 192.722C263.363 192.847 263.148 193.065 263.018 193.375C262.893 193.68 262.83 194.102 262.83 194.642V198.092C262.83 198.627 262.893 199.047 263.018 199.352C263.148 199.657 263.365 199.875 263.67 200.005C263.975 200.13 264.395 200.192 264.93 200.192H266.73C267.315 200.192 267.74 200.112 268.005 199.952C268.275 199.787 268.435 199.477 268.485 199.022C268.545 198.602 268.765 198.392 269.145 198.392C269.355 198.392 269.515 198.447 269.625 198.557C269.735 198.667 269.775 198.827 269.745 199.037C269.665 199.877 269.378 200.49 268.883 200.875C268.388 201.26 267.67 201.452 266.73 201.452H264.93ZM275.825 201.452C274.68 201.452 273.832 201.18 273.282 200.635C272.737 200.085 272.465 199.237 272.465 198.092V194.627C272.465 193.472 272.74 192.625 273.29 192.085C273.84 191.54 274.685 191.272 275.825 191.282H277.625C278.775 191.282 279.622 191.555 280.167 192.1C280.712 192.645 280.985 193.492 280.985 194.642V198.092C280.985 199.237 280.712 200.085 280.167 200.635C279.622 201.18 278.775 201.452 277.625 201.452H275.825ZM275.825 200.192H277.625C278.16 200.192 278.58 200.13 278.885 200.005C279.19 199.875 279.405 199.657 279.53 199.352C279.66 199.047 279.725 198.627 279.725 198.092V194.642C279.725 194.112 279.66 193.695 279.53 193.39C279.405 193.085 279.19 192.867 278.885 192.737C278.58 192.607 278.16 192.542 277.625 192.542H275.825C275.295 192.537 274.877 192.597 274.572 192.722C274.267 192.847 274.05 193.062 273.92 193.367C273.79 193.672 273.725 194.092 273.725 194.627V198.092C273.725 198.627 273.787 199.047 273.912 199.352C274.042 199.657 274.26 199.875 274.565 200.005C274.87 200.13 275.29 200.192 275.825 200.192ZM284.818 201.452C284.398 201.452 284.188 201.242 284.188 200.822V191.912C284.188 191.492 284.398 191.282 284.818 191.282C285.238 191.282 285.448 191.492 285.448 191.912V200.192H289.603C290.023 200.192 290.233 200.402 290.233 200.822C290.233 201.242 290.023 201.452 289.603 201.452H284.818ZM295.46 201.452C294.315 201.452 293.467 201.18 292.917 200.635C292.372 200.085 292.1 199.237 292.1 198.092V194.627C292.1 193.472 292.375 192.625 292.925 192.085C293.475 191.54 294.32 191.272 295.46 191.282H297.26C298.41 191.282 299.258 191.555 299.802 192.1C300.347 192.645 300.62 193.492 300.62 194.642V198.092C300.62 199.237 300.347 200.085 299.802 200.635C299.258 201.18 298.41 201.452 297.26 201.452H295.46ZM295.46 200.192H297.26C297.795 200.192 298.215 200.13 298.52 200.005C298.825 199.875 299.04 199.657 299.165 199.352C299.295 199.047 299.36 198.627 299.36 198.092V194.642C299.36 194.112 299.295 193.695 299.165 193.39C299.04 193.085 298.825 192.867 298.52 192.737C298.215 192.607 297.795 192.542 297.26 192.542H295.46C294.93 192.537 294.512 192.597 294.207 192.722C293.902 192.847 293.685 193.062 293.555 193.367C293.425 193.672 293.36 194.092 293.36 194.627V198.092C293.36 198.627 293.422 199.047 293.547 199.352C293.677 199.657 293.895 199.875 294.2 200.005C294.505 200.13 294.925 200.192 295.46 200.192ZM304.453 201.452C304.033 201.452 303.823 201.242 303.823 200.822V191.912C303.823 191.492 304.033 191.282 304.453 191.282C304.728 191.282 304.958 191.417 305.143 191.687L308.683 197.012L308.413 197.057L311.983 191.687C312.153 191.417 312.408 191.282 312.748 191.282C313.088 191.282 313.258 191.492 313.258 191.912V200.822C313.258 201.242 313.048 201.452 312.628 201.452C312.208 201.452 311.998 201.242 311.998 200.822V193.172L312.388 193.307L309.238 197.942C309.053 198.212 308.798 198.347 308.473 198.347C308.248 198.347 308.043 198.212 307.858 197.942L304.708 193.307L305.083 193.412V200.822C305.083 201.242 304.873 201.452 304.453 201.452ZM317.457 201.452C317.037 201.452 316.827 201.242 316.827 200.822V191.912C316.827 191.492 317.037 191.282 317.457 191.282H321.372C322.167 191.282 322.777 191.492 323.202 191.912C323.632 192.332 323.847 192.932 323.847 193.712V194.117C323.847 194.792 323.634 195.315 323.209 195.685C324.004 196.13 324.402 196.942 324.402 198.122V198.632C324.402 199.552 324.157 200.252 323.667 200.732C323.182 201.212 322.482 201.452 321.567 201.452H317.457ZM318.087 200.192H321.567C322.132 200.192 322.534 200.072 322.774 199.832C323.019 199.587 323.142 199.187 323.142 198.632V198.122C323.142 197.567 323.024 197.172 322.789 196.937C322.554 196.697 322.147 196.577 321.567 196.577H318.087V200.192ZM318.087 195.317H321.642C322.007 195.317 322.254 195.205 322.384 194.98C322.519 194.755 322.587 194.467 322.587 194.117V193.712C322.587 193.277 322.497 192.975 322.317 192.805C322.137 192.63 321.822 192.542 321.372 192.542H318.087V195.317ZM328 201.452C327.785 201.452 327.625 201.402 327.52 201.302C327.42 201.197 327.37 201.037 327.37 200.822V191.927C327.37 191.707 327.42 191.547 327.52 191.447C327.625 191.347 327.785 191.297 328 191.297C328.22 191.297 328.38 191.347 328.48 191.447C328.58 191.547 328.63 191.707 328.63 191.927V200.822C328.63 201.037 328.58 201.197 328.48 201.302C328.38 201.402 328.22 201.452 328 201.452ZM331.719 201.392C331.319 201.237 331.199 200.962 331.359 200.567L334.929 191.777C335.079 191.447 335.314 191.282 335.634 191.282H335.664C335.989 191.297 336.209 191.462 336.324 191.777L339.954 200.567C340.114 200.962 339.999 201.237 339.609 201.392C339.214 201.547 338.939 201.432 338.784 201.047L337.974 199.082H333.302L332.529 201.047C332.374 201.437 332.104 201.552 331.719 201.392ZM333.797 197.822H337.457L335.589 193.277L333.797 197.822Z" fill="white"/>
</g>
<defs>
<clipPath id="clip0_108_1940">
<rect width="600" height="338" fill="white"/>
</clipPath>
<clipPath id="clip1_108_1940">
<rect width="1305.9" height="991.648" fill="white" transform="translate(-383.901 -306.861)"/>
</clipPath>
<clipPath id="clip2_108_1940">
<rect width="181.77" height="115.1" fill="white" transform="translate(209 101)"/>
</clipPath>
</defs>
</svg>
