<svg width="600" height="338" viewBox="0 0 600 338" fill="none" xmlns="http://www.w3.org/2000/svg">
<g clip-path="url(#clip0_108_1430)">
<rect width="600" height="338" fill="black"/>
<path d="M461.27 262.57C462.441 262.57 463.39 261.621 463.39 260.45C463.39 259.279 462.441 258.33 461.27 258.33C460.099 258.33 459.15 259.279 459.15 260.45C459.15 261.621 460.099 262.57 461.27 262.57Z" fill="white"/>
<path d="M153.43 238.02C155.147 238.02 156.54 236.628 156.54 234.91C156.54 233.192 155.147 231.8 153.43 231.8C151.712 231.8 150.32 233.192 150.32 234.91C150.32 236.628 151.712 238.02 153.43 238.02Z" fill="white"/>
<path d="M72.76 143.52C73.732 143.52 74.52 142.732 74.52 141.76C74.52 140.788 73.732 140 72.76 140C71.788 140 71 140.788 71 141.76C71 142.732 71.788 143.52 72.76 143.52Z" fill="#ECB85E"/>
<path d="M170.64 83.03C171.612 83.03 172.4 82.242 172.4 81.27C172.4 80.298 171.612 79.51 170.64 79.51C169.668 79.51 168.88 80.298 168.88 81.27C168.88 82.242 169.668 83.03 170.64 83.03Z" fill="#59B1DD"/>
<path d="M425.77 177.57C426.753 177.57 427.55 176.773 427.55 175.79C427.55 174.807 426.753 174.01 425.77 174.01C424.787 174.01 423.99 174.807 423.99 175.79C423.99 176.773 424.787 177.57 425.77 177.57Z" fill="#00B6E6"/>
<path d="M480.47 82.7101C481.265 82.7101 481.91 82.0654 481.91 81.2701C481.91 80.4748 481.265 79.8301 480.47 79.8301C479.674 79.8301 479.03 80.4748 479.03 81.2701C479.03 82.0654 479.674 82.7101 480.47 82.7101Z" fill="#EBB85D"/>
<path d="M511.07 261.98C506.87 261.98 503.47 265.38 503.47 269.58C503.47 273.78 506.87 277.18 511.07 277.18C515.27 277.18 518.67 273.78 518.67 269.58C518.67 265.38 515.27 261.98 511.07 261.98ZM511.07 273.25C509.04 273.25 507.4 271.61 507.4 269.58C507.4 267.55 509.04 265.91 511.07 265.91C513.1 265.91 514.74 267.55 514.74 269.58C514.74 271.61 513.1 273.25 511.07 273.25Z" fill="#ED362F"/>
<path d="M215.18 56.3501C212.58 56.3501 210.48 58.4501 210.48 61.0501C210.48 63.6501 212.58 65.7501 215.18 65.7501C217.78 65.7501 219.88 63.6501 219.88 61.0501C219.88 58.4501 217.78 56.3501 215.18 56.3501ZM215.18 63.3201C213.93 63.3201 212.91 62.3001 212.91 61.0501C212.91 59.8001 213.93 58.7801 215.18 58.7801C216.43 58.7801 217.45 59.8001 217.45 61.0501C217.45 62.3001 216.43 63.3201 215.18 63.3201Z" fill="white"/>
<path d="M237.843 240C237.493 240 237.318 239.825 237.318 239.475V232.044C237.318 231.693 237.493 231.518 237.843 231.518H241.108C241.771 231.518 242.28 231.693 242.634 232.044C242.993 232.394 243.172 232.894 243.172 233.545V233.883C243.172 234.446 242.995 234.881 242.641 235.19C243.304 235.561 243.635 236.239 243.635 237.223V237.648C243.635 238.415 243.431 238.999 243.022 239.4C242.618 239.8 242.034 240 241.271 240H237.843ZM238.369 238.949H241.271C241.742 238.949 242.078 238.849 242.278 238.649C242.482 238.445 242.584 238.111 242.584 237.648V237.223C242.584 236.76 242.486 236.43 242.29 236.234C242.094 236.034 241.755 235.934 241.271 235.934H238.369V238.949ZM238.369 234.883H241.333C241.638 234.883 241.844 234.79 241.953 234.602C242.065 234.414 242.122 234.175 242.122 233.883V233.545C242.122 233.182 242.046 232.93 241.896 232.788C241.746 232.642 241.484 232.569 241.108 232.569H238.369V234.883ZM248.612 240C247.657 240 246.951 239.773 246.492 239.318C246.037 238.86 245.81 238.153 245.81 237.198V234.308C245.81 233.345 246.039 232.638 246.498 232.188C246.957 231.733 247.662 231.51 248.612 231.518H250.114C251.073 231.518 251.779 231.745 252.234 232.2C252.689 232.655 252.916 233.361 252.916 234.32V237.198C252.916 238.153 252.689 238.86 252.234 239.318C251.779 239.773 251.073 240 250.114 240H248.612ZM248.612 238.949H250.114C250.56 238.949 250.91 238.897 251.164 238.793C251.419 238.684 251.598 238.503 251.702 238.249C251.811 237.994 251.865 237.644 251.865 237.198V234.32C251.865 233.878 251.811 233.53 251.702 233.276C251.598 233.022 251.419 232.84 251.164 232.732C250.91 232.623 250.56 232.569 250.114 232.569H248.612C248.17 232.565 247.822 232.615 247.568 232.719C247.313 232.823 247.132 233.003 247.024 233.257C246.915 233.511 246.861 233.862 246.861 234.308V237.198C246.861 237.644 246.913 237.994 247.017 238.249C247.126 238.503 247.307 238.684 247.562 238.793C247.816 238.897 248.166 238.949 248.612 238.949ZM258.089 240C257.134 240 256.427 239.773 255.969 239.318C255.514 238.86 255.287 238.153 255.287 237.198V234.32C255.287 233.357 255.514 232.648 255.969 232.194C256.423 231.735 257.126 231.51 258.077 231.518H259.59C260.374 231.518 260.973 231.681 261.386 232.006C261.798 232.327 262.038 232.836 262.105 233.532C262.13 233.707 262.097 233.841 262.005 233.933C261.913 234.024 261.78 234.07 261.604 234.07C261.288 234.07 261.104 233.895 261.054 233.545C261.012 233.161 260.879 232.903 260.654 232.769C260.433 232.636 260.078 232.569 259.59 232.569H258.077C257.635 232.565 257.286 232.615 257.032 232.719C256.782 232.823 256.603 233.005 256.494 233.263C256.39 233.518 256.338 233.87 256.338 234.32V237.198C256.338 237.644 256.39 237.994 256.494 238.249C256.603 238.503 256.784 238.684 257.038 238.793C257.293 238.897 257.643 238.949 258.089 238.949H259.59C259.978 238.949 260.28 238.907 260.497 238.824C260.718 238.736 260.873 238.584 260.96 238.367C261.048 238.151 261.092 237.844 261.092 237.448V236.86L260.116 236.847C259.766 236.847 259.59 236.672 259.59 236.322C259.59 235.972 259.766 235.797 260.116 235.797L261.617 235.809C261.967 235.809 262.142 235.984 262.142 236.335V237.448C262.142 238.336 261.936 238.985 261.523 239.393C261.11 239.798 260.466 240 259.59 240H258.089ZM267.199 240C266.245 240 265.538 239.773 265.079 239.318C264.624 238.86 264.397 238.153 264.397 237.198V234.308C264.397 233.345 264.627 232.638 265.085 232.188C265.544 231.733 266.249 231.51 267.199 231.518H268.701C269.66 231.518 270.367 231.745 270.821 232.2C271.276 232.655 271.503 233.361 271.503 234.32V237.198C271.503 238.153 271.276 238.86 270.821 239.318C270.367 239.773 269.66 240 268.701 240H267.199ZM267.199 238.949H268.701C269.147 238.949 269.497 238.897 269.752 238.793C270.006 238.684 270.185 238.503 270.289 238.249C270.398 237.994 270.452 237.644 270.452 237.198V234.32C270.452 233.878 270.398 233.53 270.289 233.276C270.185 233.022 270.006 232.84 269.752 232.732C269.497 232.623 269.147 232.569 268.701 232.569H267.199C266.757 232.565 266.409 232.615 266.155 232.719C265.901 232.823 265.719 233.003 265.611 233.257C265.502 233.511 265.448 233.862 265.448 234.308V237.198C265.448 237.644 265.5 237.994 265.604 238.249C265.713 238.503 265.894 238.684 266.149 238.793C266.403 238.897 266.753 238.949 267.199 238.949ZM276.213 240C276.038 240 275.906 239.956 275.819 239.869C275.731 239.781 275.688 239.65 275.688 239.475V232.582H273.261C273.085 232.582 272.954 232.538 272.867 232.45C272.779 232.363 272.735 232.231 272.735 232.056C272.735 231.881 272.779 231.75 272.867 231.662C272.954 231.575 273.085 231.531 273.261 231.531H279.165C279.34 231.531 279.472 231.575 279.559 231.662C279.647 231.75 279.691 231.881 279.691 232.056C279.691 232.231 279.647 232.363 279.559 232.45C279.472 232.538 279.34 232.582 279.165 232.582H276.738V239.475C276.738 239.641 276.692 239.771 276.601 239.862C276.513 239.954 276.384 240 276.213 240ZM280.331 239.95C279.997 239.821 279.897 239.591 280.031 239.262L283.008 231.931C283.133 231.656 283.329 231.518 283.596 231.518H283.621C283.892 231.531 284.076 231.668 284.172 231.931L287.199 239.262C287.332 239.591 287.236 239.821 286.911 239.95C286.582 240.079 286.352 239.983 286.223 239.662L285.548 238.023H281.651L281.007 239.662C280.877 239.987 280.652 240.083 280.331 239.95ZM282.064 236.973H285.116L283.559 233.182L282.064 236.973ZM289.126 241.589C288.976 241.589 288.859 241.551 288.775 241.476C288.696 241.401 288.667 241.293 288.688 241.151L289.038 239.156C289.051 238.851 289.217 238.699 289.539 238.699H289.839C290.156 238.699 290.314 238.862 290.314 239.187V239.5C290.314 239.57 290.302 239.641 290.277 239.712C290.256 239.779 290.229 239.846 290.195 239.912L289.539 241.314C289.438 241.497 289.301 241.589 289.126 241.589ZM299.85 240C298.895 240 298.188 239.773 297.73 239.318C297.275 238.86 297.048 238.153 297.048 237.198V234.32C297.048 233.357 297.275 232.648 297.73 232.194C298.184 231.735 298.887 231.51 299.838 231.518H301.351C302.135 231.518 302.734 231.681 303.146 232.006C303.559 232.327 303.799 232.836 303.866 233.532C303.891 233.707 303.857 233.841 303.766 233.933C303.674 234.024 303.541 234.07 303.365 234.07C303.048 234.07 302.865 233.895 302.815 233.545C302.773 233.161 302.64 232.903 302.415 232.769C302.194 232.636 301.839 232.569 301.351 232.569H299.838C299.396 232.565 299.047 232.615 298.793 232.719C298.543 232.823 298.363 233.005 298.255 233.263C298.151 233.518 298.099 233.87 298.099 234.32V237.198C298.099 237.644 298.151 237.994 298.255 238.249C298.363 238.503 298.545 238.684 298.799 238.793C299.054 238.897 299.404 238.949 299.85 238.949H301.351C301.839 238.949 302.194 238.882 302.415 238.749C302.64 238.611 302.773 238.353 302.815 237.973C302.865 237.623 303.048 237.448 303.365 237.448C303.541 237.448 303.674 237.494 303.766 237.586C303.857 237.677 303.891 237.811 303.866 237.986C303.799 238.686 303.559 239.197 303.146 239.518C302.734 239.839 302.135 240 301.351 240H299.85ZM308.936 240C307.981 240 307.274 239.773 306.816 239.318C306.361 238.86 306.134 238.153 306.134 237.198V234.308C306.134 233.345 306.363 232.638 306.822 232.188C307.28 231.733 307.985 231.51 308.936 231.518H310.437C311.396 231.518 312.103 231.745 312.558 232.2C313.012 232.655 313.239 233.361 313.239 234.32V237.198C313.239 238.153 313.012 238.86 312.558 239.318C312.103 239.773 311.396 240 310.437 240H308.936ZM308.936 238.949H310.437C310.883 238.949 311.234 238.897 311.488 238.793C311.742 238.684 311.922 238.503 312.026 238.249C312.134 237.994 312.189 237.644 312.189 237.198V234.32C312.189 233.878 312.134 233.53 312.026 233.276C311.922 233.022 311.742 232.84 311.488 232.732C311.234 232.623 310.883 232.569 310.437 232.569H308.936C308.494 232.565 308.146 232.615 307.891 232.719C307.637 232.823 307.456 233.003 307.347 233.257C307.239 233.511 307.185 233.862 307.185 234.308V237.198C307.185 237.644 307.237 237.994 307.341 238.249C307.449 238.503 307.631 238.684 307.885 238.793C308.139 238.897 308.49 238.949 308.936 238.949ZM316.436 240C316.086 240 315.911 239.825 315.911 239.475V232.044C315.911 231.693 316.086 231.518 316.436 231.518C316.786 231.518 316.962 231.693 316.962 232.044V238.949H320.427C320.777 238.949 320.952 239.124 320.952 239.475C320.952 239.825 320.777 240 320.427 240H316.436ZM325.312 240C324.357 240 323.65 239.773 323.191 239.318C322.737 238.86 322.51 238.153 322.51 237.198V234.308C322.51 233.345 322.739 232.638 323.198 232.188C323.656 231.733 324.361 231.51 325.312 231.518H326.813C327.772 231.518 328.479 231.745 328.933 232.2C329.388 232.655 329.615 233.361 329.615 234.32V237.198C329.615 238.153 329.388 238.86 328.933 239.318C328.479 239.773 327.772 240 326.813 240H325.312ZM325.312 238.949H326.813C327.259 238.949 327.61 238.897 327.864 238.793C328.118 238.684 328.298 238.503 328.402 238.249C328.51 237.994 328.564 237.644 328.564 237.198V234.32C328.564 233.878 328.51 233.53 328.402 233.276C328.298 233.022 328.118 232.84 327.864 232.732C327.61 232.623 327.259 232.569 326.813 232.569H325.312C324.87 232.565 324.522 232.615 324.267 232.719C324.013 232.823 323.831 233.003 323.723 233.257C323.615 233.511 323.56 233.862 323.56 234.308V237.198C323.56 237.644 323.613 237.994 323.717 238.249C323.825 238.503 324.007 238.684 324.261 238.793C324.515 238.897 324.866 238.949 325.312 238.949ZM332.812 240C332.462 240 332.287 239.825 332.287 239.475V232.044C332.287 231.693 332.462 231.518 332.812 231.518C333.041 231.518 333.233 231.631 333.388 231.856L336.34 236.297L336.115 236.335L339.092 231.856C339.234 231.631 339.447 231.518 339.73 231.518C340.014 231.518 340.155 231.693 340.155 232.044V239.475C340.155 239.825 339.98 240 339.63 240C339.28 240 339.105 239.825 339.105 239.475V233.094L339.43 233.207L336.803 237.073C336.648 237.298 336.436 237.41 336.165 237.41C335.977 237.41 335.806 237.298 335.652 237.073L333.025 233.207L333.338 233.295V239.475C333.338 239.825 333.162 240 332.812 240ZM343.657 240C343.307 240 343.132 239.825 343.132 239.475V232.044C343.132 231.693 343.307 231.518 343.657 231.518H346.922C347.585 231.518 348.094 231.693 348.449 232.044C348.807 232.394 348.986 232.894 348.986 233.545V233.883C348.986 234.446 348.809 234.881 348.455 235.19C349.118 235.561 349.449 236.239 349.449 237.223V237.648C349.449 238.415 349.245 238.999 348.836 239.4C348.432 239.8 347.848 240 347.085 240H343.657ZM344.183 238.949H347.085C347.556 238.949 347.892 238.849 348.092 238.649C348.296 238.445 348.398 238.111 348.398 237.648V237.223C348.398 236.76 348.3 236.43 348.104 236.234C347.908 236.034 347.569 235.934 347.085 235.934H344.183V238.949ZM344.183 234.883H347.147C347.452 234.883 347.658 234.79 347.767 234.602C347.879 234.414 347.936 234.175 347.936 233.883V233.545C347.936 233.182 347.861 232.93 347.71 232.788C347.56 232.642 347.298 232.569 346.922 232.569H344.183V234.883ZM352.45 240C352.271 240 352.137 239.958 352.05 239.875C351.966 239.787 351.924 239.654 351.924 239.475V232.056C351.924 231.873 351.966 231.739 352.05 231.656C352.137 231.572 352.271 231.531 352.45 231.531C352.633 231.531 352.767 231.572 352.85 231.656C352.934 231.739 352.975 231.873 352.975 232.056V239.475C352.975 239.654 352.934 239.787 352.85 239.875C352.767 239.958 352.633 240 352.45 240ZM355.552 239.95C355.219 239.821 355.119 239.591 355.252 239.262L358.229 231.931C358.354 231.656 358.55 231.518 358.817 231.518H358.842C359.113 231.531 359.297 231.668 359.393 231.931L362.42 239.262C362.554 239.591 362.458 239.821 362.132 239.95C361.803 240.079 361.574 239.983 361.444 239.662L360.769 238.023H356.872L356.228 239.662C356.098 239.987 355.873 240.083 355.552 239.95ZM357.285 236.973H360.337L358.78 233.182L357.285 236.973Z" fill="#FFB325"/>
<g clip-path="url(#clip1_108_1430)">
<path d="M390.77 101V203.07C390.77 210.25 384.93 216.1 377.74 216.1H222.03C214.85 216.1 209 210.26 209 203.07V114.03C209 106.84 214.84 101 222.03 101H390.77Z" fill="#161616"/>
<path d="M222.03 103.8H387.97V171.09H211.8V114.03C211.8 108.39 216.39 103.8 222.03 103.8Z" fill="white"/>
<path d="M211.8 203.07V173.89H387.97V203.07C387.97 208.71 383.38 213.29 377.75 213.29H222.03C216.39 213.29 211.81 208.7 211.81 203.07H211.8Z" fill="white"/>
<path d="M337.51 126.23H363.56L339.49 150.3L337.51 148.32L356.79 129.04H337.51V126.23Z" fill="#FFB325"/>
<path d="M366.36 123.43H337.51V120.62H369.17L366.36 123.43Z" fill="#FF0A1B"/>
<path d="M368.35 125.41L371.15 122.61V154.27H368.35V125.41Z" fill="#00BB4F"/>
<path d="M365.54 154.27H362.74V134.98L343.45 154.27L341.47 152.28L365.54 128.21V154.27Z" fill="#00B7E7"/>
<path d="M233.17 134.91H235.61C237.17 134.91 238.31 134.54 239.05 133.8C239.79 133.06 240.16 131.91 240.16 130.37V125.7C240.16 124.14 239.79 123 239.05 122.26C238.31 121.52 237.17 121.15 235.61 121.15H233.17C231.63 121.14 230.48 121.5 229.74 122.23C229 122.96 228.62 124.11 228.62 125.68V130.37C228.62 131.92 228.99 133.06 229.73 133.8C230.47 134.54 231.62 134.91 233.16 134.91H233.17ZM233.17 133.21C232.45 133.21 231.88 133.12 231.47 132.95C231.06 132.78 230.77 132.49 230.59 132.07C230.42 131.66 230.33 131.09 230.33 130.37V125.68C230.33 124.96 230.42 124.39 230.59 123.98C230.77 123.57 231.06 123.28 231.47 123.11C231.88 122.94 232.45 122.86 233.16 122.87H235.6C236.32 122.87 236.89 122.96 237.3 123.13C237.71 123.31 238 123.6 238.18 124.01C238.35 124.42 238.44 124.99 238.44 125.7V130.37C238.44 131.09 238.35 131.66 238.18 132.07C238.01 132.48 237.71 132.77 237.3 132.95C236.89 133.12 236.32 133.21 235.6 133.21H233.16H233.17Z" fill="#161616"/>
<path d="M244.53 138.97C245.1 138.97 245.38 138.69 245.38 138.12V134.91H249.32C250.67 134.91 251.67 134.58 252.32 133.93C252.97 133.28 253.29 132.28 253.29 130.93V128.6C253.29 127.25 252.97 126.25 252.32 125.6C251.67 124.95 250.67 124.63 249.32 124.63H248.55C247.88 124.63 247.28 124.72 246.74 124.91C246.2 125.1 245.75 125.37 245.39 125.74V125.49C245.39 124.92 245.11 124.64 244.54 124.64C243.97 124.64 243.69 124.92 243.69 125.49V138.13C243.69 138.7 243.97 138.98 244.54 138.98L244.53 138.97ZM245.38 133.21V127.6C245.41 127.16 245.74 126.84 246.35 126.64C246.97 126.44 247.7 126.34 248.54 126.34H249.31C250.2 126.34 250.8 126.5 251.11 126.81C251.42 127.12 251.58 127.72 251.58 128.61V130.94C251.58 131.82 251.42 132.42 251.11 132.74C250.8 133.06 250.19 133.22 249.31 133.22H245.37L245.38 133.21Z" fill="#161616"/>
<path d="M258.05 130.46H265.11C265.68 130.46 265.96 130.18 265.96 129.61V128.6C265.96 127.24 265.64 126.24 264.99 125.59C264.34 124.94 263.34 124.62 261.99 124.62H260.33C258.98 124.61 257.98 124.92 257.33 125.57C256.68 126.22 256.35 127.23 256.35 128.6V130.95C256.35 132.29 256.68 133.28 257.33 133.93C257.98 134.58 258.98 134.9 260.33 134.9H261.99C263.14 134.9 264.04 134.69 264.69 134.28C265.34 133.87 265.74 133.24 265.89 132.4C265.94 132.12 265.89 131.9 265.75 131.75C265.6 131.6 265.38 131.53 265.1 131.53C264.82 131.53 264.63 131.6 264.5 131.73C264.37 131.87 264.27 132.06 264.19 132.32C264.08 132.64 263.86 132.87 263.53 133C263.2 133.13 262.69 133.19 262 133.19H260.34C259.46 133.19 258.86 133.03 258.54 132.72C258.22 132.41 258.06 131.81 258.06 130.94V130.45L258.05 130.46ZM260.32 126.32H261.98C262.87 126.32 263.47 126.48 263.78 126.79C264.09 127.1 264.25 127.7 264.25 128.59V128.75H258.04V128.59C258.04 127.7 258.2 127.09 258.52 126.77C258.84 126.45 259.44 126.3 260.32 126.31V126.32Z" fill="#161616"/>
<path d="M270.35 134.91C270.92 134.91 271.2 134.63 271.2 134.06V127.48C271.29 127.08 271.64 126.79 272.25 126.6C272.85 126.41 273.56 126.32 274.37 126.32H274.94C275.81 126.32 276.41 126.48 276.73 126.79C277.05 127.1 277.21 127.7 277.21 128.59V134.05C277.21 134.62 277.49 134.9 278.06 134.9C278.63 134.9 278.91 134.62 278.91 134.05V128.59C278.91 127.24 278.59 126.24 277.94 125.59C277.29 124.94 276.29 124.62 274.94 124.62H274.37C272.98 124.62 271.92 125.02 271.2 125.81V125.48C271.2 124.91 270.92 124.63 270.35 124.63C269.78 124.63 269.5 124.91 269.5 125.48V134.06C269.5 134.63 269.78 134.91 270.35 134.91Z" fill="#161616"/>
<path d="M283.58 134.91C283.88 134.91 284.09 134.84 284.23 134.7C284.37 134.56 284.43 134.35 284.43 134.06V122.03C284.43 121.73 284.36 121.52 284.23 121.38C284.09 121.24 283.88 121.18 283.58 121.18C283.28 121.18 283.07 121.25 282.94 121.38C282.8 121.52 282.73 121.73 282.73 122.03V134.06C282.73 134.35 282.8 134.57 282.94 134.7C283.08 134.83 283.29 134.91 283.58 134.91Z" fill="#161616"/>
<path d="M289.3 134.91C289.87 134.91 290.15 134.63 290.15 134.06V127.48C290.24 127.08 290.59 126.79 291.19 126.6C291.79 126.41 292.5 126.32 293.31 126.32H293.88C294.75 126.32 295.35 126.48 295.67 126.79C295.99 127.1 296.15 127.7 296.15 128.59V134.05C296.15 134.62 296.43 134.9 297 134.9C297.57 134.9 297.85 134.62 297.85 134.05V128.59C297.85 127.24 297.53 126.24 296.88 125.59C296.23 124.94 295.23 124.62 293.88 124.62H293.31C291.92 124.62 290.86 125.02 290.14 125.81V125.48C290.14 124.91 289.86 124.63 289.29 124.63C288.72 124.63 288.44 124.91 288.44 125.48V134.06C288.44 134.63 288.72 134.91 289.29 134.91H289.3Z" fill="#161616"/>
<path d="M302.92 134.91C303.49 134.91 303.77 134.63 303.77 134.06V126.33H305.86C306.43 126.33 306.71 126.05 306.71 125.48C306.71 124.91 306.43 124.63 305.86 124.63H303.77V124.55C303.77 123.68 303.93 123.1 304.24 122.79C304.55 122.49 305.13 122.33 305.99 122.33C306.48 122.33 306.72 122.05 306.72 121.48C306.72 120.91 306.48 120.63 305.99 120.63C304.66 120.63 303.68 120.95 303.04 121.59C302.4 122.23 302.08 123.22 302.08 124.55V124.63H301.33C300.76 124.63 300.48 124.91 300.48 125.48C300.48 126.05 300.76 126.33 301.33 126.33H302.08V134.06C302.08 134.63 302.36 134.91 302.93 134.91H302.92Z" fill="#161616"/>
<path d="M310.16 134.91C310.73 134.91 311.01 134.63 311.01 134.06V128.69C311.04 127.98 311.37 127.41 311.98 126.98C312.6 126.55 313.49 126.33 314.66 126.33C315.23 126.33 315.51 126.05 315.51 125.48C315.51 124.91 315.23 124.63 314.66 124.63C313.86 124.63 313.15 124.77 312.53 125.05C311.91 125.33 311.4 125.74 311 126.28V125.49C311 124.92 310.72 124.64 310.15 124.64C309.58 124.64 309.3 124.92 309.3 125.49V134.07C309.3 134.64 309.58 134.92 310.15 134.92L310.16 134.91Z" fill="#161616"/>
<path d="M320.33 134.91H321.47C322.86 134.91 323.91 134.47 324.64 133.6V134.06C324.64 134.63 324.92 134.91 325.49 134.91C326.06 134.91 326.34 134.63 326.34 134.06V128.6C326.34 127.25 326.02 126.25 325.37 125.6C324.72 124.95 323.72 124.63 322.37 124.63H321.19C320.03 124.63 319.13 124.81 318.49 125.16C317.84 125.51 317.42 126.07 317.22 126.84C317.15 127.1 317.2 127.32 317.36 127.47C317.52 127.62 317.75 127.71 318.03 127.71C318.29 127.71 318.48 127.66 318.61 127.55C318.74 127.44 318.86 127.25 318.99 126.96C319.13 126.72 319.36 126.56 319.69 126.47C320.02 126.38 320.53 126.33 321.2 126.33H322.38C323.18 126.33 323.75 126.46 324.08 126.72C324.41 126.98 324.6 127.47 324.64 128.18H320.35C319.21 128.18 318.36 128.46 317.81 129.01C317.26 129.57 316.98 130.41 316.98 131.55C316.98 132.69 317.26 133.53 317.81 134.09C318.36 134.65 319.21 134.92 320.35 134.92L320.33 134.91ZM320.33 133.21C319.66 133.21 319.22 133.1 319 132.88C318.78 132.66 318.67 132.22 318.67 131.55C318.67 130.88 318.78 130.44 319 130.22C319.22 130 319.66 129.89 320.33 129.89H324.63V131.53C324.53 131.98 324.32 132.33 324.01 132.58C323.7 132.83 323.32 132.99 322.88 133.08C322.44 133.17 321.97 133.22 321.47 133.22H320.33V133.21Z" fill="#161616"/>
<path d="M231.67 154.27H233.3C234.34 154.27 235.11 154.02 235.61 153.53C236.11 153.04 236.35 152.27 236.35 151.23V145.63C236.35 145.44 236.3 145.3 236.21 145.2C236.11 145.11 235.97 145.06 235.78 145.06C235.59 145.06 235.45 145.11 235.35 145.2C235.25 145.29 235.21 145.44 235.21 145.63V151.23C235.21 151.71 235.15 152.1 235.04 152.37C234.92 152.65 234.73 152.84 234.45 152.96C234.17 153.08 233.79 153.13 233.31 153.13H231.68C231.19 153.13 230.81 153.07 230.54 152.96C230.26 152.84 230.07 152.65 229.95 152.37C229.83 152.09 229.78 151.71 229.78 151.23V145.63C229.78 145.44 229.73 145.3 229.64 145.2C229.55 145.1 229.4 145.06 229.21 145.06C229.02 145.06 228.88 145.11 228.78 145.2C228.68 145.29 228.64 145.44 228.64 145.63V151.23C228.64 152.27 228.89 153.04 229.38 153.53C229.87 154.02 230.64 154.27 231.68 154.27H231.67Z" fill="#161616"/>
<path d="M242.64 154.27H244.6C245.5 154.27 246.16 154.06 246.6 153.63C247.04 153.2 247.25 152.54 247.25 151.63C247.25 150.72 247.03 150.05 246.59 149.62C246.15 149.19 245.49 148.97 244.59 148.97H242.9C242.36 148.97 241.99 148.87 241.8 148.67C241.61 148.47 241.51 148.1 241.51 147.57C241.51 147.04 241.6 146.68 241.79 146.49C241.98 146.3 242.34 146.2 242.89 146.2H244.51C244.92 146.2 245.22 146.25 245.43 146.35C245.63 146.45 245.77 146.63 245.84 146.9C245.87 147.08 245.93 147.22 246.02 147.31C246.11 147.4 246.25 147.45 246.43 147.45C246.63 147.45 246.78 147.4 246.88 147.3C246.98 147.2 247.02 147.05 246.99 146.85C246.88 146.24 246.62 145.79 246.21 145.5C245.8 145.21 245.23 145.06 244.51 145.06H242.89C242.03 145.06 241.4 145.27 240.99 145.68C240.58 146.09 240.37 146.73 240.37 147.58C240.37 148.43 240.58 149.08 240.99 149.5C241.4 149.92 242.04 150.13 242.9 150.13H244.59C245.16 150.13 245.56 150.24 245.77 150.45C245.99 150.67 246.1 151.07 246.1 151.65C246.1 152.23 245.99 152.62 245.78 152.83C245.57 153.04 245.17 153.15 244.59 153.15H242.63C242.17 153.15 241.82 153.09 241.6 152.98C241.38 152.86 241.23 152.65 241.16 152.34C241.13 152.15 241.07 152.01 240.98 151.92C240.89 151.83 240.75 151.78 240.56 151.78C240.37 151.78 240.22 151.83 240.12 151.93C240.02 152.03 239.98 152.18 240 152.38C240.11 153.03 240.38 153.52 240.81 153.83C241.24 154.14 241.85 154.3 242.62 154.3L242.64 154.27Z" fill="#161616"/>
<path d="M251.76 154.27H256.64C257.02 154.27 257.21 154.08 257.21 153.7C257.21 153.32 257.02 153.13 256.64 153.13H252.33V150.19H255.04C255.42 150.19 255.61 150 255.61 149.62C255.61 149.24 255.42 149.05 255.04 149.05H252.33V146.19H256.64C257.02 146.19 257.21 146 257.21 145.62C257.21 145.24 257.02 145.05 256.64 145.05H251.76C251.38 145.05 251.19 145.24 251.19 145.62V153.7C251.19 154.08 251.38 154.27 251.76 154.27Z" fill="#161616"/>
<path d="M266.95 154.29C267.27 154.09 267.34 153.83 267.17 153.51L265.39 150.54C266.02 150.44 266.51 150.17 266.85 149.74C267.19 149.31 267.35 148.74 267.35 148.02V147.61C267.35 146.78 267.13 146.14 266.69 145.7C266.25 145.26 265.61 145.04 264.78 145.04H261.6C261.22 145.04 261.03 145.23 261.03 145.61V153.69C261.03 154.07 261.22 154.26 261.6 154.26C261.98 154.26 262.17 154.07 262.17 153.69V150.59H264.07L266.18 154.1C266.27 154.25 266.39 154.34 266.53 154.38C266.67 154.42 266.81 154.38 266.96 154.29H266.95ZM262.16 149.45V146.18H264.77C265.29 146.18 265.65 146.29 265.87 146.51C266.09 146.73 266.2 147.1 266.2 147.61V148.02C266.2 148.54 266.09 148.9 265.87 149.12C265.65 149.34 265.29 149.45 264.77 149.45H262.16Z" fill="#161616"/>
<path d="M279.24 154.27H280.87C281.82 154.27 282.52 154.05 282.97 153.61C283.42 153.17 283.64 152.46 283.64 151.5V150.29C283.64 149.91 283.45 149.72 283.07 149.72H281.44C281.06 149.71 280.87 149.9 280.87 150.28C280.87 150.66 281.06 150.85 281.44 150.85H282.5V151.5C282.5 151.93 282.45 152.26 282.36 152.5C282.27 152.74 282.1 152.9 281.86 152.99C281.62 153.08 281.29 153.13 280.87 153.13H279.24C278.76 153.13 278.37 153.07 278.1 152.96C277.82 152.84 277.63 152.65 277.51 152.37C277.39 152.09 277.34 151.71 277.34 151.23V148.1C277.34 147.61 277.4 147.23 277.51 146.95C277.63 146.67 277.82 146.47 278.09 146.36C278.36 146.25 278.74 146.19 279.22 146.2H280.87C281.4 146.2 281.79 146.27 282.03 146.42C282.27 146.57 282.42 146.85 282.46 147.26C282.51 147.64 282.71 147.83 283.06 147.83C283.25 147.83 283.4 147.78 283.5 147.68C283.6 147.58 283.64 147.44 283.61 147.24C283.54 146.48 283.28 145.93 282.83 145.58C282.38 145.23 281.73 145.05 280.88 145.05H279.23C278.2 145.05 277.43 145.28 276.94 145.78C276.45 146.28 276.2 147.05 276.2 148.1V151.23C276.2 152.27 276.45 153.04 276.94 153.53C277.43 154.02 278.2 154.27 279.24 154.27Z" fill="#161616"/>
<path d="M293.24 154.29C293.56 154.09 293.63 153.83 293.46 153.51L291.68 150.54C292.31 150.44 292.8 150.17 293.14 149.74C293.48 149.31 293.64 148.74 293.64 148.02V147.61C293.64 146.78 293.42 146.14 292.98 145.7C292.54 145.26 291.9 145.04 291.07 145.04H287.89C287.51 145.04 287.32 145.23 287.32 145.61V153.69C287.32 154.07 287.51 154.26 287.89 154.26C288.27 154.26 288.46 154.07 288.46 153.69V150.59H290.36L292.47 154.1C292.56 154.25 292.68 154.34 292.82 154.38C292.96 154.42 293.1 154.38 293.25 154.29H293.24ZM288.45 149.45V146.18H291.06C291.58 146.18 291.94 146.29 292.16 146.51C292.38 146.73 292.49 147.1 292.49 147.61V148.02C292.49 148.54 292.38 148.9 292.16 149.12C291.94 149.34 291.58 149.45 291.06 149.45H288.45Z" fill="#161616"/>
<path d="M299.96 154.27H301.59C302.63 154.27 303.4 154.02 303.9 153.53C304.39 153.03 304.64 152.27 304.64 151.23V148.1C304.64 147.06 304.39 146.29 303.9 145.79C303.41 145.3 302.64 145.05 301.59 145.05H299.96C298.93 145.05 298.16 145.28 297.66 145.77C297.16 146.26 296.91 147.03 296.91 148.08V151.22C296.91 152.26 297.16 153.03 297.65 153.52C298.14 154.01 298.91 154.26 299.95 154.26L299.96 154.27ZM299.96 153.13C299.48 153.13 299.09 153.07 298.82 152.96C298.54 152.84 298.35 152.65 298.23 152.37C298.11 152.09 298.06 151.71 298.06 151.23V148.09C298.06 147.6 298.12 147.22 298.24 146.95C298.36 146.67 298.56 146.48 298.83 146.37C299.11 146.26 299.49 146.2 299.97 146.21H301.6C302.08 146.21 302.47 146.27 302.74 146.39C303.02 146.51 303.21 146.71 303.33 146.98C303.45 147.26 303.5 147.64 303.5 148.12V151.25C303.5 151.73 303.44 152.12 303.33 152.39C303.21 152.67 303.02 152.86 302.74 152.98C302.46 153.1 302.08 153.15 301.6 153.15H299.97L299.96 153.13Z" fill="#161616"/>
<path d="M311.55 154.27H313.18C314.22 154.27 314.99 154.02 315.49 153.53C315.99 153.04 316.23 152.27 316.23 151.23V145.63C316.23 145.44 316.18 145.3 316.09 145.2C315.99 145.11 315.85 145.06 315.66 145.06C315.47 145.06 315.33 145.11 315.23 145.2C315.13 145.29 315.09 145.44 315.09 145.63V151.23C315.09 151.71 315.03 152.1 314.92 152.37C314.8 152.65 314.61 152.84 314.33 152.96C314.05 153.08 313.67 153.13 313.19 153.13H311.56C311.07 153.13 310.69 153.07 310.42 152.96C310.14 152.84 309.95 152.65 309.83 152.37C309.71 152.09 309.66 151.71 309.66 151.23V145.63C309.66 145.44 309.61 145.3 309.52 145.2C309.43 145.1 309.28 145.06 309.09 145.06C308.9 145.06 308.76 145.11 308.66 145.2C308.56 145.29 308.52 145.44 308.52 145.63V151.23C308.52 152.27 308.77 153.04 309.26 153.53C309.75 154.02 310.52 154.27 311.56 154.27H311.55Z" fill="#161616"/>
<path d="M320.58 154.27C320.96 154.27 321.15 154.08 321.15 153.7V150.6H323.76C324.59 150.6 325.23 150.38 325.67 149.94C326.11 149.5 326.33 148.86 326.33 148.03V147.62C326.33 146.79 326.11 146.15 325.67 145.71C325.23 145.27 324.59 145.05 323.76 145.05H320.58C320.2 145.05 320.01 145.24 320.01 145.62V153.7C320.01 154.08 320.2 154.27 320.58 154.27ZM321.15 149.45V146.18H323.76C324.28 146.18 324.64 146.29 324.86 146.51C325.08 146.73 325.19 147.1 325.19 147.61V148.02C325.19 148.54 325.08 148.9 324.86 149.12C324.64 149.34 324.28 149.45 323.76 149.45H321.15Z" fill="#161616"/>
<path d="M274.82 197.79H270.21L269.33 200.42H266.53L271.28 187.65H273.72L278.5 200.42H275.7L274.81 197.79H274.82ZM270.92 195.66H274.11L272.5 190.88L270.91 195.66H270.92Z" fill="#161616"/>
<path d="M284.94 199.45C284.32 200.21 283.45 200.59 282.34 200.59C281.32 200.59 280.55 200.3 280.01 199.71C279.47 199.13 279.2 198.27 279.19 197.14V190.92H281.72V197.06C281.72 198.05 282.17 198.54 283.07 198.54C283.97 198.54 284.52 198.24 284.84 197.64V190.91H287.38V200.4H284.99L284.92 199.44L284.94 199.45Z" fill="#161616"/>
<path d="M288.76 195.6C288.76 194.14 289.11 192.97 289.8 192.08C290.49 191.19 291.43 190.75 292.6 190.75C293.64 190.75 294.45 191.11 295.03 191.82L295.14 190.93H297.44V200.1C297.44 200.93 297.25 201.65 296.87 202.27C296.49 202.88 295.96 203.35 295.28 203.67C294.6 203.99 293.79 204.15 292.88 204.15C292.18 204.15 291.51 204.01 290.85 203.73C290.19 203.45 289.69 203.09 289.35 202.66L290.47 201.12C291.1 201.83 291.87 202.18 292.77 202.18C293.44 202.18 293.97 202 294.34 201.64C294.71 201.28 294.9 200.77 294.9 200.11V199.6C294.32 200.26 293.55 200.59 292.59 200.59C291.45 200.59 290.53 200.14 289.82 199.25C289.11 198.36 288.76 197.18 288.76 195.7V195.59V195.6ZM291.29 195.78C291.29 196.64 291.46 197.32 291.81 197.81C292.15 198.3 292.63 198.55 293.23 198.55C294 198.55 294.55 198.26 294.89 197.68V193.67C294.55 193.09 294 192.8 293.25 192.8C292.64 192.8 292.16 193.05 291.82 193.55C291.48 194.05 291.3 194.8 291.3 195.79L291.29 195.78Z" fill="#161616"/>
<path d="M304.88 199.45C304.26 200.21 303.39 200.59 302.28 200.59C301.26 200.59 300.49 200.3 299.95 199.71C299.41 199.13 299.14 198.27 299.13 197.14V190.92H301.67V197.06C301.67 198.05 302.12 198.54 303.02 198.54C303.92 198.54 304.47 198.24 304.79 197.64V190.91H307.33V200.4H304.94L304.87 199.44L304.88 199.45Z" fill="#161616"/>
<path d="M314.21 197.79C314.21 197.48 314.06 197.24 313.75 197.06C313.44 196.88 312.95 196.72 312.27 196.58C310.01 196.11 308.88 195.15 308.88 193.7C308.88 192.86 309.23 192.16 309.93 191.59C310.63 191.03 311.54 190.74 312.67 190.74C313.87 190.74 314.84 191.02 315.56 191.59C316.28 192.16 316.64 192.89 316.64 193.8H314.11C314.11 193.44 313.99 193.14 313.76 192.9C313.53 192.66 313.16 192.55 312.66 192.55C312.23 192.55 311.9 192.65 311.67 192.84C311.44 193.03 311.32 193.28 311.32 193.58C311.32 193.86 311.45 194.09 311.72 194.26C311.99 194.43 312.43 194.58 313.07 194.71C313.71 194.84 314.23 194.98 314.67 195.14C316.01 195.63 316.68 196.48 316.68 197.69C316.68 198.56 316.31 199.26 315.57 199.79C314.83 200.33 313.87 200.59 312.69 200.59C311.89 200.59 311.19 200.45 310.57 200.16C309.95 199.88 309.47 199.49 309.12 198.99C308.77 198.5 308.59 197.96 308.59 197.39H310.99C311.01 197.84 311.18 198.18 311.49 198.43C311.8 198.67 312.21 198.79 312.74 198.79C313.23 198.79 313.59 198.7 313.84 198.51C314.09 198.33 314.21 198.08 314.21 197.79Z" fill="#161616"/>
<path d="M321.16 188.6V190.93H322.78V192.79H321.16V197.53C321.16 197.88 321.23 198.13 321.36 198.28C321.49 198.43 321.75 198.51 322.13 198.51C322.41 198.51 322.66 198.49 322.88 198.45V200.37C322.38 200.52 321.87 200.6 321.34 200.6C319.56 200.6 318.66 199.7 318.62 197.91V192.8H317.23V190.94H318.62V188.61H321.15L321.16 188.6Z" fill="#161616"/>
<path d="M329.51 200.42C329.39 200.19 329.31 199.91 329.26 199.57C328.65 200.25 327.85 200.6 326.87 200.6C325.94 200.6 325.17 200.33 324.56 199.79C323.95 199.25 323.64 198.57 323.64 197.75C323.64 196.74 324.01 195.97 324.76 195.43C325.51 194.89 326.58 194.62 327.99 194.61H329.16V194.07C329.16 193.63 329.05 193.28 328.82 193.02C328.59 192.76 328.24 192.62 327.75 192.62C327.32 192.62 326.99 192.72 326.75 192.93C326.51 193.13 326.39 193.42 326.39 193.77H323.86C323.86 193.22 324.03 192.71 324.37 192.24C324.71 191.77 325.19 191.41 325.81 191.14C326.43 190.87 327.13 190.74 327.9 190.74C329.07 190.74 330 191.03 330.69 191.62C331.38 192.21 331.72 193.03 331.72 194.1V198.21C331.72 199.11 331.85 199.79 332.1 200.25V200.4H329.54L329.51 200.42ZM327.41 198.66C327.79 198.66 328.13 198.58 328.45 198.41C328.77 198.24 329 198.02 329.15 197.74V196.11H328.2C326.93 196.11 326.26 196.55 326.17 197.43V197.58C326.17 197.9 326.27 198.16 326.49 198.36C326.71 198.56 327.02 198.67 327.4 198.67L327.41 198.66Z" fill="#161616"/>
</g>
<path d="M391 103.71H223.454C216.326 103.71 210.52 109.516 210.52 116.644V205.056C210.52 212.189 216.321 217.989 223.454 217.989H378.066C385.199 217.989 391 212.189 391 205.056V103.71Z" fill="white"/>
<path d="M223.454 106.498C217.857 106.498 213.303 111.052 213.303 116.649V173.306H388.217V106.498H223.454Z" fill="black"/>
<path d="M213.318 204.826C213.318 210.422 217.873 214.977 223.469 214.977H378.082C383.678 214.977 388.233 210.422 388.233 204.826V175.854H213.318V204.826Z" fill="black"/>
<path d="M338.111 128.766V131.548H357.259L338.111 150.696L340.082 152.662L363.978 128.766H338.111Z" fill="#F7B749"/>
<path d="M366.766 125.983L369.549 123.195H338.111V125.983H366.766Z" fill="#ED362F"/>
<path d="M368.732 127.949V156.599H371.515V125.166L368.732 127.949Z" fill="#43B85C"/>
<path d="M365.949 156.599V130.731L342.048 154.633L344.019 156.599L363.167 137.451V156.599H365.949Z" fill="#2CB4E2"/>
<path d="M234.519 137.379C232.982 137.379 231.843 137.012 231.108 136.277C230.373 135.541 230.005 134.403 230.005 132.866V128.209C230.005 126.657 230.373 125.518 231.113 124.788C231.853 124.058 232.987 123.7 234.519 123.716H236.934C238.481 123.716 239.62 124.083 240.35 124.813C241.08 125.544 241.448 126.682 241.448 128.229V132.866C241.448 134.403 241.08 135.541 240.35 136.277C239.62 137.012 238.481 137.379 236.934 137.379H234.519ZM234.519 135.684H236.934C237.654 135.684 238.215 135.597 238.629 135.429C239.038 135.255 239.329 134.969 239.502 134.556C239.676 134.147 239.758 133.581 239.758 132.861V128.224C239.758 127.514 239.671 126.953 239.502 126.544C239.329 126.136 239.038 125.845 238.629 125.666C238.221 125.492 237.654 125.406 236.934 125.406H234.519C233.809 125.401 233.247 125.482 232.834 125.646C232.42 125.809 232.134 126.1 231.955 126.514C231.782 126.922 231.695 127.489 231.695 128.209V132.866C231.695 133.586 231.782 134.147 231.95 134.561C232.124 134.969 232.415 135.26 232.823 135.434C233.232 135.608 233.799 135.689 234.519 135.689V135.684Z" fill="white"/>
<path d="M245.803 141.408C245.236 141.408 244.956 141.128 244.956 140.561V128.01C244.956 127.443 245.236 127.162 245.803 127.162C246.37 127.162 246.651 127.443 246.651 128.01V128.26C247.013 127.898 247.463 127.622 247.994 127.438C248.53 127.254 249.127 127.162 249.791 127.162H250.557C251.9 127.162 252.896 127.484 253.539 128.127C254.182 128.771 254.504 129.766 254.504 131.109V133.428C254.504 134.765 254.182 135.756 253.539 136.404C252.896 137.053 251.9 137.375 250.557 137.375H246.646V140.561C246.646 141.128 246.365 141.408 245.798 141.408H245.803ZM246.651 135.684H250.562C251.44 135.684 252.038 135.526 252.349 135.21C252.661 134.893 252.819 134.301 252.819 133.428V131.109C252.819 130.231 252.666 129.634 252.349 129.322C252.038 129.011 251.44 128.852 250.562 128.852H249.796C248.954 128.852 248.229 128.955 247.621 129.154C247.008 129.353 246.687 129.675 246.656 130.109V135.679L246.651 135.684Z" fill="white"/>
<path d="M259.222 132.968V133.453C259.222 134.321 259.38 134.908 259.697 135.22C260.013 135.531 260.606 135.69 261.479 135.69H263.133C263.817 135.69 264.323 135.628 264.655 135.501C264.981 135.373 265.201 135.148 265.308 134.827C265.38 134.571 265.487 134.377 265.615 134.245C265.747 134.112 265.947 134.04 266.212 134.04C266.478 134.04 266.707 134.117 266.855 134.26C267.003 134.408 267.049 134.622 266.993 134.903C266.845 135.735 266.452 136.358 265.804 136.767C265.16 137.175 264.267 137.38 263.123 137.38H261.468C260.131 137.38 259.14 137.058 258.492 136.415C257.843 135.771 257.521 134.781 257.521 133.453V131.114C257.521 129.751 257.843 128.75 258.492 128.107C259.14 127.464 260.131 127.152 261.468 127.162H263.123C264.466 127.162 265.461 127.484 266.105 128.122C266.748 128.766 267.07 129.761 267.07 131.109V132.115C267.07 132.682 266.789 132.963 266.222 132.963H259.212L259.222 132.968ZM261.479 128.858C260.606 128.842 260.013 128.995 259.697 129.312C259.38 129.629 259.222 130.231 259.222 131.114V131.278H265.39V131.114C265.39 130.236 265.232 129.639 264.92 129.327C264.609 129.016 264.011 128.858 263.133 128.858H261.479Z" fill="white"/>
<path d="M271.431 137.38C270.869 137.38 270.583 137.099 270.583 136.532V128.01C270.583 127.443 270.864 127.162 271.431 127.162C271.997 127.162 272.278 127.443 272.278 128.01V128.342C272.988 127.556 274.04 127.162 275.424 127.162H275.985C277.328 127.162 278.324 127.484 278.967 128.127C279.611 128.771 279.932 129.766 279.932 131.109V136.532C279.932 137.099 279.651 137.38 279.085 137.38C278.518 137.38 278.237 137.099 278.237 136.532V131.109C278.237 130.231 278.079 129.634 277.757 129.322C277.435 129.011 276.843 128.852 275.98 128.852H275.418C274.612 128.852 273.912 128.944 273.315 129.128C272.717 129.312 272.37 129.603 272.278 130.001V136.532C272.278 137.099 271.997 137.38 271.431 137.38Z" fill="white"/>
<path d="M284.569 137.38C284.283 137.38 284.068 137.313 283.93 137.175C283.792 137.037 283.726 136.823 283.726 136.537V124.589C283.726 124.293 283.798 124.078 283.93 123.945C284.068 123.813 284.283 123.746 284.569 123.746C284.855 123.746 285.079 123.813 285.212 123.945C285.345 124.078 285.411 124.293 285.411 124.589V136.537C285.411 136.828 285.345 137.037 285.212 137.175C285.079 137.313 284.865 137.38 284.569 137.38Z" fill="white"/>
<path d="M290.252 137.38C289.685 137.38 289.404 137.099 289.404 136.532V128.01C289.404 127.443 289.685 127.162 290.252 127.162C290.819 127.162 291.1 127.443 291.1 128.01V128.342C291.809 127.556 292.861 127.162 294.245 127.162H294.807C296.149 127.162 297.145 127.484 297.789 128.127C298.432 128.771 298.754 129.766 298.754 131.109V136.532C298.754 137.099 298.473 137.38 297.906 137.38C297.339 137.38 297.058 137.099 297.058 136.532V131.109C297.058 130.231 296.9 129.634 296.578 129.322C296.262 129.011 295.669 128.852 294.801 128.852H294.24C293.433 128.852 292.733 128.944 292.136 129.128C291.539 129.312 291.191 129.603 291.1 130.001V136.532C291.1 137.099 290.819 137.38 290.252 137.38Z" fill="white"/>
<path d="M303.773 137.38C303.211 137.38 302.925 137.099 302.925 136.532V128.852H302.18C301.618 128.852 301.332 128.572 301.332 128.005C301.332 127.438 301.613 127.157 302.18 127.157H302.925V127.075C302.925 125.753 303.242 124.773 303.88 124.139C304.518 123.506 305.494 123.19 306.811 123.19C307.296 123.19 307.536 123.471 307.536 124.037C307.536 124.604 307.296 124.885 306.811 124.885C305.963 124.885 305.386 125.038 305.08 125.339C304.768 125.641 304.615 126.223 304.615 127.081V127.162H306.693C307.255 127.162 307.541 127.443 307.541 128.01C307.541 128.577 307.26 128.857 306.693 128.857H304.615V136.537C304.615 137.104 304.334 137.385 303.768 137.385L303.773 137.38Z" fill="white"/>
<path d="M310.967 137.38C310.4 137.38 310.12 137.099 310.12 136.532V128.01C310.12 127.443 310.4 127.162 310.967 127.162C311.534 127.162 311.815 127.443 311.815 128.01V128.796C312.213 128.26 312.714 127.852 313.331 127.576C313.944 127.3 314.649 127.162 315.44 127.162C316.002 127.162 316.288 127.443 316.288 128.01C316.288 128.577 316.007 128.858 315.44 128.858C314.276 128.858 313.393 129.072 312.78 129.501C312.167 129.93 311.845 130.497 311.815 131.201V136.532C311.815 137.099 311.534 137.38 310.967 137.38Z" fill="white"/>
<path d="M321.062 137.379C319.933 137.379 319.091 137.104 318.544 136.552C317.998 136.001 317.717 135.163 317.717 134.035C317.717 132.906 317.993 132.069 318.539 131.518C319.086 130.966 319.928 130.69 321.062 130.69H325.325C325.285 129.986 325.101 129.506 324.769 129.245C324.442 128.985 323.875 128.857 323.079 128.857H321.909C321.235 128.857 320.735 128.903 320.408 128.995C320.076 129.087 319.847 129.251 319.714 129.485C319.591 129.766 319.469 129.96 319.341 130.067C319.213 130.175 319.024 130.231 318.769 130.231C318.488 130.231 318.264 130.154 318.105 129.996C317.947 129.838 317.896 129.628 317.962 129.368C318.162 128.607 318.585 128.056 319.224 127.698C319.867 127.346 320.761 127.167 321.909 127.167H323.079C324.422 127.167 325.417 127.489 326.061 128.132C326.704 128.776 327.026 129.771 327.026 131.114V136.537C327.026 137.104 326.745 137.385 326.178 137.385C325.611 137.385 325.33 137.104 325.33 136.537V136.082C324.611 136.951 323.564 137.385 322.185 137.385H321.057L321.062 137.379ZM321.062 135.684H322.19C322.686 135.684 323.155 135.638 323.589 135.546C324.023 135.454 324.401 135.291 324.713 135.046C325.024 134.806 325.233 134.459 325.33 134.009V132.375H321.057C320.393 132.375 319.949 132.488 319.734 132.707C319.52 132.927 319.407 133.371 319.407 134.025C319.407 134.678 319.515 135.133 319.734 135.347C319.954 135.567 320.393 135.674 321.057 135.674L321.062 135.684Z" fill="white"/>
<path d="M233.033 156.599C232.001 156.599 231.241 156.354 230.745 155.858C230.25 155.363 230.005 154.602 230.005 153.571V148.005C230.005 147.816 230.051 147.673 230.148 147.581C230.245 147.49 230.383 147.438 230.572 147.438C230.761 147.438 230.904 147.484 230.995 147.581C231.087 147.678 231.138 147.816 231.138 148.005V153.571C231.138 154.051 231.195 154.429 231.312 154.704C231.429 154.98 231.624 155.174 231.894 155.287C232.17 155.404 232.548 155.46 233.028 155.46H234.646C235.126 155.46 235.504 155.404 235.78 155.287C236.056 155.174 236.25 154.975 236.362 154.704C236.479 154.429 236.536 154.051 236.536 153.571V148.005C236.536 147.816 236.582 147.673 236.679 147.581C236.776 147.49 236.913 147.438 237.102 147.438C237.291 147.438 237.434 147.484 237.526 147.581C237.618 147.678 237.669 147.816 237.669 148.005V153.571C237.669 154.602 237.424 155.363 236.934 155.858C236.444 156.354 235.678 156.599 234.646 156.599H233.028H233.033Z" fill="white"/>
<path d="M243.924 156.599C243.153 156.599 242.556 156.446 242.127 156.134C241.698 155.823 241.427 155.343 241.32 154.694C241.3 154.495 241.34 154.347 241.443 154.25C241.54 154.153 241.688 154.102 241.877 154.102C242.066 154.102 242.203 154.148 242.29 154.235C242.377 154.327 242.438 154.465 242.469 154.653C242.535 154.965 242.683 155.179 242.903 155.292C243.128 155.409 243.465 155.465 243.924 155.465H245.87C246.452 155.465 246.845 155.363 247.054 155.154C247.264 154.944 247.366 154.556 247.366 153.985C247.366 153.413 247.258 153.004 247.044 152.795C246.83 152.58 246.436 152.473 245.87 152.473H244.195C243.342 152.473 242.714 152.264 242.3 151.85C241.887 151.437 241.683 150.798 241.683 149.951C241.683 149.103 241.887 148.475 242.295 148.067C242.704 147.658 243.332 147.454 244.185 147.454H245.793C246.508 147.454 247.07 147.602 247.478 147.893C247.886 148.184 248.142 148.633 248.249 149.236C248.275 149.43 248.239 149.578 248.142 149.68C248.045 149.782 247.892 149.833 247.698 149.833C247.519 149.833 247.381 149.787 247.294 149.69C247.202 149.593 247.146 149.461 247.121 149.277C247.049 149.011 246.911 148.827 246.707 148.735C246.503 148.638 246.201 148.587 245.793 148.587H244.185C243.643 148.587 243.281 148.684 243.097 148.873C242.913 149.062 242.821 149.425 242.821 149.951C242.821 150.477 242.913 150.849 243.102 151.043C243.291 151.243 243.659 151.34 244.195 151.34H245.87C246.758 151.34 247.417 151.554 247.851 151.988C248.285 152.422 248.504 153.086 248.504 153.99C248.504 154.893 248.29 155.547 247.856 155.971C247.422 156.395 246.763 156.609 245.87 156.609H243.924V156.599Z" fill="white"/>
<path d="M252.972 156.599C252.594 156.599 252.405 156.41 252.405 156.032V148.01C252.405 147.633 252.594 147.444 252.972 147.444H257.823C258.201 147.444 258.39 147.633 258.39 148.01C258.39 148.388 258.201 148.577 257.823 148.577H253.539V151.411H256.225C256.602 151.411 256.791 151.6 256.791 151.978C256.791 152.356 256.602 152.545 256.225 152.545H253.539V155.46H257.823C258.201 155.46 258.39 155.649 258.39 156.027C258.39 156.405 258.201 156.594 257.823 156.594H252.972V156.599Z" fill="white"/>
<path d="M268.06 156.624C267.912 156.716 267.769 156.747 267.637 156.711C267.504 156.675 267.386 156.584 267.295 156.435L265.201 152.953H263.312V156.032C263.312 156.41 263.123 156.599 262.745 156.599C262.367 156.599 262.178 156.41 262.178 156.032V148.01C262.178 147.633 262.367 147.444 262.745 147.444H265.906C266.728 147.444 267.361 147.663 267.8 148.102C268.239 148.541 268.459 149.175 268.459 149.997V150.4C268.459 151.115 268.29 151.687 267.958 152.111C267.626 152.534 267.141 152.8 266.513 152.902L268.28 155.853C268.454 156.17 268.377 156.425 268.066 156.624H268.06ZM263.307 151.814H265.901C266.411 151.814 266.779 151.707 266.993 151.493C267.208 151.278 267.32 150.911 267.32 150.4V149.997C267.32 149.486 267.213 149.124 266.993 148.904C266.779 148.684 266.411 148.577 265.901 148.577H263.307V151.82V151.814Z" fill="white"/>
<path d="M280.259 156.599C279.227 156.599 278.467 156.354 277.971 155.859C277.476 155.363 277.231 154.602 277.231 153.571V150.466C277.231 149.425 277.476 148.659 277.966 148.169C278.456 147.673 279.217 147.433 280.244 147.444H281.878C282.725 147.444 283.368 147.617 283.818 147.97C284.267 148.322 284.522 148.868 284.594 149.619C284.619 149.808 284.584 149.951 284.487 150.053C284.39 150.15 284.242 150.201 284.053 150.201C283.711 150.201 283.511 150.012 283.46 149.634C283.414 149.221 283.271 148.94 283.031 148.797C282.791 148.654 282.409 148.582 281.883 148.582H280.249C279.774 148.582 279.396 148.633 279.125 148.746C278.855 148.858 278.661 149.052 278.543 149.328C278.426 149.604 278.37 149.987 278.37 150.472V153.576C278.37 154.056 278.426 154.434 278.543 154.71C278.656 154.985 278.855 155.179 279.125 155.292C279.401 155.409 279.779 155.465 280.259 155.465H281.883C282.301 155.465 282.628 155.419 282.863 155.327C283.098 155.236 283.266 155.072 283.358 154.837C283.455 154.602 283.501 154.271 283.501 153.847V153.214L282.449 153.198C282.072 153.198 281.883 153.009 281.883 152.631C281.883 152.254 282.072 152.065 282.449 152.065L284.073 152.08C284.451 152.08 284.64 152.269 284.64 152.647V153.847C284.64 154.807 284.415 155.506 283.971 155.945C283.527 156.384 282.832 156.604 281.883 156.604H280.259V156.599Z" fill="white"/>
<path d="M294.163 156.624C294.015 156.716 293.872 156.747 293.739 156.711C293.606 156.675 293.489 156.584 293.397 156.435L291.304 152.953H289.414V156.032C289.414 156.41 289.225 156.599 288.848 156.599C288.47 156.599 288.281 156.41 288.281 156.032V148.01C288.281 147.633 288.47 147.444 288.848 147.444H292.008C292.83 147.444 293.463 147.663 293.903 148.102C294.342 148.541 294.561 149.175 294.561 149.997V150.4C294.561 151.115 294.393 151.687 294.061 152.111C293.729 152.534 293.244 152.8 292.616 152.902L294.383 155.853C294.556 156.17 294.48 156.425 294.168 156.624H294.163ZM289.409 151.814H292.003C292.514 151.814 292.881 151.707 293.096 151.493C293.31 151.278 293.423 150.911 293.423 150.4V149.997C293.423 149.486 293.315 149.124 293.096 148.904C292.881 148.684 292.514 148.577 292.003 148.577H289.409V151.82V151.814Z" fill="white"/>
<path d="M300.837 156.599C299.805 156.599 299.044 156.354 298.549 155.858C298.054 155.363 297.809 154.602 297.809 153.571V150.451C297.809 149.409 298.059 148.649 298.554 148.159C299.049 147.668 299.81 147.428 300.837 147.439H302.46C303.497 147.439 304.258 147.684 304.748 148.174C305.238 148.664 305.483 149.43 305.483 150.461V153.566C305.483 154.597 305.238 155.358 304.748 155.853C304.258 156.349 303.492 156.594 302.46 156.594H300.837V156.599ZM300.837 155.465H302.46C302.94 155.465 303.318 155.409 303.594 155.292C303.87 155.179 304.064 154.98 304.176 154.71C304.293 154.434 304.349 154.056 304.349 153.576V150.472C304.349 149.997 304.293 149.619 304.176 149.343C304.058 149.067 303.864 148.873 303.594 148.756C303.318 148.638 302.94 148.582 302.46 148.582H300.837C300.362 148.582 299.984 148.633 299.708 148.746C299.432 148.858 299.238 149.052 299.121 149.328C299.003 149.604 298.947 149.981 298.947 150.461V153.581C298.947 154.061 299.003 154.439 299.121 154.715C299.233 154.99 299.432 155.184 299.703 155.297C299.979 155.414 300.357 155.47 300.837 155.47V155.465Z" fill="white"/>
<path d="M312.34 156.599C311.309 156.599 310.548 156.354 310.053 155.858C309.558 155.363 309.312 154.602 309.312 153.571V148.005C309.312 147.816 309.358 147.673 309.455 147.581C309.552 147.49 309.69 147.438 309.879 147.438C310.068 147.438 310.211 147.484 310.303 147.581C310.395 147.678 310.446 147.816 310.446 148.005V153.571C310.446 154.051 310.502 154.429 310.62 154.704C310.737 154.98 310.931 155.174 311.202 155.287C311.477 155.404 311.855 155.46 312.335 155.46H313.954C314.434 155.46 314.812 155.404 315.087 155.287C315.363 155.174 315.557 154.975 315.67 154.704C315.787 154.429 315.843 154.051 315.843 153.571V148.005C315.843 147.816 315.889 147.673 315.986 147.581C316.083 147.49 316.221 147.438 316.41 147.438C316.599 147.438 316.742 147.484 316.834 147.581C316.926 147.678 316.977 147.816 316.977 148.005V153.571C316.977 154.602 316.732 155.363 316.241 155.858C315.751 156.354 314.985 156.599 313.954 156.599H312.335H312.34Z" fill="white"/>
<path d="M321.312 156.599C320.934 156.599 320.745 156.41 320.745 156.032V148.01C320.745 147.633 320.934 147.444 321.312 147.444H324.473C325.295 147.444 325.928 147.663 326.367 148.102C326.806 148.541 327.026 149.175 327.026 149.997V150.4C327.026 151.222 326.806 151.855 326.367 152.294C325.928 152.734 325.295 152.953 324.473 152.953H321.879V156.032C321.879 156.41 321.69 156.599 321.312 156.599ZM321.879 151.82H324.473C324.983 151.82 325.351 151.712 325.565 151.498C325.78 151.283 325.892 150.916 325.892 150.405V150.002C325.892 149.491 325.785 149.129 325.565 148.909C325.351 148.689 324.983 148.582 324.473 148.582H321.879V151.825V151.82Z" fill="white"/>
<path d="M264.93 200.452C263.785 200.452 262.938 200.18 262.388 199.635C261.843 199.085 261.57 198.237 261.57 197.092V193.642C261.57 192.487 261.843 191.637 262.388 191.092C262.933 190.542 263.775 190.272 264.915 190.282H266.73C267.67 190.282 268.388 190.477 268.883 190.867C269.378 191.252 269.665 191.862 269.745 192.697C269.775 192.907 269.735 193.067 269.625 193.177C269.515 193.287 269.355 193.342 269.145 193.342C268.765 193.342 268.545 193.132 268.485 192.712C268.435 192.252 268.275 191.942 268.005 191.782C267.74 191.622 267.315 191.542 266.73 191.542H264.915C264.385 191.537 263.968 191.597 263.663 191.722C263.363 191.847 263.148 192.065 263.018 192.375C262.893 192.68 262.83 193.102 262.83 193.642V197.092C262.83 197.627 262.893 198.047 263.018 198.352C263.148 198.657 263.365 198.875 263.67 199.005C263.975 199.13 264.395 199.192 264.93 199.192H266.73C267.315 199.192 267.74 199.112 268.005 198.952C268.275 198.787 268.435 198.477 268.485 198.022C268.545 197.602 268.765 197.392 269.145 197.392C269.355 197.392 269.515 197.447 269.625 197.557C269.735 197.667 269.775 197.827 269.745 198.037C269.665 198.877 269.378 199.49 268.883 199.875C268.388 200.26 267.67 200.452 266.73 200.452H264.93ZM275.825 200.452C274.68 200.452 273.832 200.18 273.282 199.635C272.737 199.085 272.465 198.237 272.465 197.092V193.627C272.465 192.472 272.74 191.625 273.29 191.085C273.84 190.54 274.685 190.272 275.825 190.282H277.625C278.775 190.282 279.622 190.555 280.167 191.1C280.712 191.645 280.985 192.492 280.985 193.642V197.092C280.985 198.237 280.712 199.085 280.167 199.635C279.622 200.18 278.775 200.452 277.625 200.452H275.825ZM275.825 199.192H277.625C278.16 199.192 278.58 199.13 278.885 199.005C279.19 198.875 279.405 198.657 279.53 198.352C279.66 198.047 279.725 197.627 279.725 197.092V193.642C279.725 193.112 279.66 192.695 279.53 192.39C279.405 192.085 279.19 191.867 278.885 191.737C278.58 191.607 278.16 191.542 277.625 191.542H275.825C275.295 191.537 274.877 191.597 274.572 191.722C274.267 191.847 274.05 192.062 273.92 192.367C273.79 192.672 273.725 193.092 273.725 193.627V197.092C273.725 197.627 273.787 198.047 273.912 198.352C274.042 198.657 274.26 198.875 274.565 199.005C274.87 199.13 275.29 199.192 275.825 199.192ZM284.818 200.452C284.398 200.452 284.188 200.242 284.188 199.822V190.912C284.188 190.492 284.398 190.282 284.818 190.282C285.238 190.282 285.448 190.492 285.448 190.912V199.192H289.603C290.023 199.192 290.233 199.402 290.233 199.822C290.233 200.242 290.023 200.452 289.603 200.452H284.818ZM295.46 200.452C294.315 200.452 293.467 200.18 292.917 199.635C292.372 199.085 292.1 198.237 292.1 197.092V193.627C292.1 192.472 292.375 191.625 292.925 191.085C293.475 190.54 294.32 190.272 295.46 190.282H297.26C298.41 190.282 299.258 190.555 299.802 191.1C300.347 191.645 300.62 192.492 300.62 193.642V197.092C300.62 198.237 300.347 199.085 299.802 199.635C299.258 200.18 298.41 200.452 297.26 200.452H295.46ZM295.46 199.192H297.26C297.795 199.192 298.215 199.13 298.52 199.005C298.825 198.875 299.04 198.657 299.165 198.352C299.295 198.047 299.36 197.627 299.36 197.092V193.642C299.36 193.112 299.295 192.695 299.165 192.39C299.04 192.085 298.825 191.867 298.52 191.737C298.215 191.607 297.795 191.542 297.26 191.542H295.46C294.93 191.537 294.512 191.597 294.207 191.722C293.902 191.847 293.685 192.062 293.555 192.367C293.425 192.672 293.36 193.092 293.36 193.627V197.092C293.36 197.627 293.422 198.047 293.547 198.352C293.677 198.657 293.895 198.875 294.2 199.005C294.505 199.13 294.925 199.192 295.46 199.192ZM304.453 200.452C304.033 200.452 303.823 200.242 303.823 199.822V190.912C303.823 190.492 304.033 190.282 304.453 190.282C304.728 190.282 304.958 190.417 305.143 190.687L308.683 196.012L308.413 196.057L311.983 190.687C312.153 190.417 312.408 190.282 312.748 190.282C313.088 190.282 313.258 190.492 313.258 190.912V199.822C313.258 200.242 313.048 200.452 312.628 200.452C312.208 200.452 311.998 200.242 311.998 199.822V192.172L312.388 192.307L309.238 196.942C309.053 197.212 308.798 197.347 308.473 197.347C308.248 197.347 308.043 197.212 307.858 196.942L304.708 192.307L305.083 192.412V199.822C305.083 200.242 304.873 200.452 304.453 200.452ZM317.457 200.452C317.037 200.452 316.827 200.242 316.827 199.822V190.912C316.827 190.492 317.037 190.282 317.457 190.282H321.372C322.167 190.282 322.777 190.492 323.202 190.912C323.632 191.332 323.847 191.932 323.847 192.712V193.117C323.847 193.792 323.634 194.315 323.209 194.685C324.004 195.13 324.402 195.942 324.402 197.122V197.632C324.402 198.552 324.157 199.252 323.667 199.732C323.182 200.212 322.482 200.452 321.567 200.452H317.457ZM318.087 199.192H321.567C322.132 199.192 322.534 199.072 322.774 198.832C323.019 198.587 323.142 198.187 323.142 197.632V197.122C323.142 196.567 323.024 196.172 322.789 195.937C322.554 195.697 322.147 195.577 321.567 195.577H318.087V199.192ZM318.087 194.317H321.642C322.007 194.317 322.254 194.205 322.384 193.98C322.519 193.755 322.587 193.467 322.587 193.117V192.712C322.587 192.277 322.497 191.975 322.317 191.805C322.137 191.63 321.822 191.542 321.372 191.542H318.087V194.317ZM328 200.452C327.785 200.452 327.625 200.402 327.52 200.302C327.42 200.197 327.37 200.037 327.37 199.822V190.927C327.37 190.707 327.42 190.547 327.52 190.447C327.625 190.347 327.785 190.297 328 190.297C328.22 190.297 328.38 190.347 328.48 190.447C328.58 190.547 328.63 190.707 328.63 190.927V199.822C328.63 200.037 328.58 200.197 328.48 200.302C328.38 200.402 328.22 200.452 328 200.452ZM331.719 200.392C331.319 200.237 331.199 199.962 331.359 199.567L334.929 190.777C335.079 190.447 335.314 190.282 335.634 190.282H335.664C335.989 190.297 336.209 190.462 336.324 190.777L339.954 199.567C340.114 199.962 339.999 200.237 339.609 200.392C339.214 200.547 338.939 200.432 338.784 200.047L337.974 198.082H333.302L332.529 200.047C332.374 200.437 332.104 200.552 331.719 200.392ZM333.797 196.822H337.457L335.589 192.277L333.797 196.822Z" fill="white"/>
</g>
<defs>
<clipPath id="clip0_108_1430">
<rect width="600" height="338" fill="white"/>
</clipPath>
<clipPath id="clip1_108_1430">
<rect width="181.77" height="115.1" fill="white" transform="translate(209 101)"/>
</clipPath>
</defs>
</svg>
