<svg width="400" height="400" viewBox="0 0 400 400" fill="none" xmlns="http://www.w3.org/2000/svg">
<g clip-path="url(#clip0_406_26)">
<rect width="400" height="400" fill="black"/>
<g clip-path="url(#clip1_406_26)">
<path d="M14.1481 325.079C12.606 325.079 11.1047 324.323 10.2059 322.924C-13.1819 286.443 -26.2648 244.335 -27.6334 201.154C-27.7151 198.57 -25.6929 196.415 -23.109 196.333C-20.5251 196.252 -18.3701 198.274 -18.2884 200.858C-16.971 242.353 -4.39873 282.817 18.0801 317.879C19.4691 320.054 18.8461 322.944 16.6707 324.343C15.8843 324.844 15.0162 325.079 14.1481 325.079Z" fill="#FF0A1B"/>
<path d="M212.628 401.309C197.819 401.309 182.908 399.726 168.151 396.499C130.74 388.318 96.4041 370.026 68.8392 343.595C66.9702 341.808 66.9089 338.846 68.6962 336.987C70.4835 335.118 73.4452 335.057 75.304 336.844C101.623 362.081 134.417 379.545 170.132 387.358C227.59 399.92 287.357 386.449 334.112 350.377C336.155 348.804 339.096 349.182 340.669 351.224C342.242 353.267 341.864 356.208 339.821 357.781C302.881 386.275 258.178 401.309 212.608 401.309H212.628Z" fill="#00BB4F"/>
<path d="M212.639 369.035C200.067 369.035 187.495 367.677 175.055 364.95C143.242 357.995 114.073 342.39 90.7058 319.819C88.847 318.021 88.796 315.059 90.5934 313.201C92.3909 311.342 95.3527 311.291 97.2013 313.088C119.323 334.444 146.928 349.222 177.057 355.809C196.635 360.089 216.54 360.824 236.231 357.985C255.248 355.238 273.539 349.253 290.605 340.184C324.993 321.912 352.006 292.152 366.672 256.396C367.652 254.006 370.379 252.862 372.769 253.843C375.159 254.823 376.303 257.55 375.322 259.94C359.839 297.708 331.314 329.143 294.997 348.436C276.981 358.015 257.658 364.337 237.569 367.238C229.286 368.433 220.963 369.025 212.649 369.025L212.639 369.035Z" fill="#00B7E7"/>
<path d="M-22.9558 205.678C-25.4682 205.678 -27.5516 203.677 -27.6231 201.154C-28.9202 160.251 -19.7285 119.399 -1.03862 83.0097C18.2231 45.487 47.2281 13.5815 82.8614 -9.26499C85.0368 -10.6642 87.927 -10.031 89.3262 -7.85559C90.7152 -5.68022 90.0922 -2.78993 87.9168 -1.39075C53.6828 20.557 25.791 51.2165 7.28501 87.2685C-10.6797 122.258 -19.514 161.527 -18.268 200.848C-18.1863 203.431 -20.2085 205.586 -22.7924 205.668C-22.8434 205.668 -22.8945 205.668 -22.9456 205.668L-22.9558 205.678Z" fill="#00B7E7"/>
<path d="M72.0874 344.902C70.9231 344.902 69.7588 344.473 68.8499 343.605C43.5522 319.349 24.6071 288.874 14.0672 255.477C3.19035 221.028 1.54605 184.108 9.28752 148.69C9.83902 146.167 12.331 144.574 14.8536 145.125C17.3762 145.677 18.9797 148.169 18.4282 150.691C11.0339 184.507 12.6067 219.772 22.9934 252.658C33.0634 284.564 51.1609 313.681 75.3249 336.844C77.1939 338.631 77.2552 341.593 75.4679 343.452C74.5487 344.412 73.3232 344.892 72.0874 344.892V344.902Z" fill="#FFB325"/>
<path d="M23.5033 132.614C27.9649 132.614 31.5818 128.997 31.5818 124.536C31.5818 120.074 27.9649 116.457 23.5033 116.457C19.0417 116.457 15.4248 120.074 15.4248 124.536C15.4248 128.997 19.0417 132.614 23.5033 132.614Z" fill="#00B7E7"/>
<path d="M387.425 90.0468C393.308 90.0468 398.077 85.2777 398.077 79.3946C398.077 73.5116 393.308 68.7424 387.425 68.7424C381.542 68.7424 376.772 73.5116 376.772 79.3946C376.772 85.2777 381.542 90.0468 387.425 90.0468Z" fill="#FFB325"/>
<path d="M305.863 -0.869751C305.863 26.2765 327.872 48.2855 355.018 48.2855C382.164 48.2855 404.173 26.2765 404.173 -0.869751H305.863Z" fill="#00BA4F"/>
</g>
<g clip-path="url(#clip2_406_26)">
<path d="M328.674 98.1868V242.879C328.674 253.058 320.395 261.35 310.203 261.35H89.4711C79.2929 261.35 71 253.072 71 242.879V116.658C71 106.465 79.2787 98.1868 89.4711 98.1868H328.674Z" fill="#161616"/>
<path d="M89.6914 102H328V198H75V116.595C75 108.548 81.5918 102 89.6914 102Z" fill="white"/>
<path d="M74.9692 242.879V201.514H324.705V242.879C324.705 250.875 318.198 257.367 310.217 257.367H89.4711C81.4759 257.367 74.9834 250.86 74.9834 242.879H74.9692Z" fill="white"/>
<path d="M253.173 133.952H290.101L255.98 168.074L253.173 165.267L280.504 137.936H253.173V133.952Z" fill="#FFB325"/>
<path d="M294.071 129.983H253.173V126H298.054L294.071 129.983Z" fill="#FF0A1B"/>
<path d="M296.892 132.79L300.861 128.821V173.701H296.892V132.79Z" fill="#00BB4F"/>
<path d="M292.908 173.701H288.939V146.356L261.594 173.701L258.787 170.88L292.908 136.759V173.701Z" fill="#00B7E7"/>
<path d="M105.263 146.257H108.722C110.933 146.257 112.549 145.732 113.598 144.683C114.647 143.634 115.172 142.004 115.172 139.821V133.201C115.172 130.99 114.647 129.374 113.598 128.325C112.549 127.276 110.933 126.751 108.722 126.751H105.263C103.08 126.737 101.45 127.247 100.401 128.282C99.3517 129.317 98.813 130.947 98.813 133.173V139.821C98.813 142.018 99.3375 143.634 100.387 144.683C101.436 145.732 103.066 146.257 105.249 146.257H105.263ZM105.263 143.847C104.242 143.847 103.434 143.719 102.853 143.478C102.272 143.238 101.861 142.826 101.606 142.231C101.365 141.65 101.237 140.842 101.237 139.821V133.173C101.237 132.152 101.365 131.344 101.606 130.763C101.861 130.182 102.272 129.77 102.853 129.529C103.434 129.288 104.242 129.175 105.249 129.189H108.708C109.728 129.189 110.536 129.317 111.118 129.558C111.699 129.813 112.11 130.224 112.365 130.805C112.606 131.387 112.734 132.195 112.734 133.201V139.821C112.734 140.842 112.606 141.65 112.365 142.231C112.124 142.812 111.699 143.223 111.118 143.478C110.536 143.719 109.728 143.847 108.708 143.847H105.249H105.263Z" fill="#161616"/>
<path d="M121.367 152.012C122.175 152.012 122.571 151.615 122.571 150.807V146.257H128.157C130.071 146.257 131.488 145.789 132.41 144.868C133.331 143.946 133.785 142.529 133.785 140.615V137.312C133.785 135.398 133.331 133.981 132.41 133.059C131.488 132.138 130.071 131.684 128.157 131.684H127.065C126.115 131.684 125.265 131.812 124.499 132.081C123.734 132.35 123.096 132.733 122.586 133.258V132.903C122.586 132.095 122.189 131.698 121.381 131.698C120.573 131.698 120.176 132.095 120.176 132.903V150.822C120.176 151.63 120.573 152.027 121.381 152.027L121.367 152.012ZM122.571 143.847V135.894C122.614 135.271 123.082 134.817 123.947 134.534C124.825 134.25 125.86 134.108 127.051 134.108H128.143C129.404 134.108 130.255 134.335 130.694 134.775C131.134 135.214 131.361 136.065 131.361 137.326V140.629C131.361 141.877 131.134 142.727 130.694 143.181C130.255 143.634 129.39 143.861 128.143 143.861H122.557L122.571 143.847Z" fill="#161616"/>
<path d="M140.532 139.949H150.541C151.349 139.949 151.746 139.552 151.746 138.744V137.312C151.746 135.384 151.292 133.967 150.37 133.045C149.449 132.124 148.031 131.67 146.118 131.67H143.765C141.851 131.656 140.433 132.095 139.512 133.017C138.59 133.938 138.123 135.37 138.123 137.312V140.643C138.123 142.543 138.59 143.946 139.512 144.868C140.433 145.789 141.851 146.243 143.765 146.243H146.118C147.748 146.243 149.024 145.945 149.945 145.364C150.867 144.783 151.434 143.89 151.646 142.699C151.717 142.302 151.646 141.99 151.448 141.777C151.235 141.565 150.923 141.466 150.526 141.466C150.129 141.466 149.86 141.565 149.676 141.749C149.492 141.948 149.35 142.217 149.236 142.586C149.08 143.039 148.769 143.365 148.301 143.549C147.833 143.734 147.11 143.819 146.132 143.819H143.779C142.531 143.819 141.681 143.592 141.227 143.153C140.773 142.713 140.547 141.863 140.547 140.629V139.935L140.532 139.949ZM143.75 134.08H146.104C147.365 134.08 148.216 134.307 148.655 134.746C149.095 135.186 149.321 136.036 149.321 137.298V137.525H140.518V137.298C140.518 136.036 140.745 135.172 141.199 134.718C141.652 134.264 142.503 134.052 143.75 134.066V134.08Z" fill="#161616"/>
<path d="M157.969 146.257C158.777 146.257 159.174 145.86 159.174 145.052V135.724C159.301 135.157 159.797 134.746 160.662 134.477C161.513 134.208 162.519 134.08 163.667 134.08H164.475C165.709 134.08 166.559 134.307 167.013 134.746C167.466 135.186 167.693 136.036 167.693 137.298V145.038C167.693 145.846 168.09 146.243 168.898 146.243C169.706 146.243 170.103 145.846 170.103 145.038V137.298C170.103 135.384 169.649 133.967 168.728 133.045C167.807 132.124 166.389 131.67 164.475 131.67H163.667C161.697 131.67 160.194 132.237 159.174 133.357V132.889C159.174 132.081 158.777 131.684 157.969 131.684C157.161 131.684 156.764 132.081 156.764 132.889V145.052C156.764 145.86 157.161 146.257 157.969 146.257Z" fill="#161616"/>
<path d="M176.723 146.257C177.149 146.257 177.446 146.158 177.645 145.959C177.843 145.761 177.928 145.463 177.928 145.052V127.999C177.928 127.573 177.829 127.276 177.645 127.077C177.446 126.879 177.149 126.794 176.723 126.794C176.298 126.794 176.001 126.893 175.816 127.077C175.618 127.276 175.519 127.573 175.519 127.999V145.052C175.519 145.463 175.618 145.775 175.816 145.959C176.015 146.144 176.312 146.257 176.723 146.257Z" fill="#161616"/>
<path d="M184.832 146.257C185.64 146.257 186.037 145.86 186.037 145.052V135.724C186.164 135.157 186.661 134.746 187.511 134.477C188.362 134.208 189.368 134.08 190.516 134.08H191.324C192.558 134.08 193.408 134.307 193.862 134.746C194.316 135.186 194.542 136.036 194.542 137.298V145.038C194.542 145.846 194.939 146.243 195.747 146.243C196.555 146.243 196.952 145.846 196.952 145.038V137.298C196.952 135.384 196.499 133.967 195.577 133.045C194.656 132.124 193.238 131.67 191.324 131.67H190.516C188.546 131.67 187.043 132.237 186.023 133.357V132.889C186.023 132.081 185.626 131.684 184.818 131.684C184.01 131.684 183.613 132.081 183.613 132.889V145.052C183.613 145.86 184.01 146.257 184.818 146.257H184.832Z" fill="#161616"/>
<path d="M204.14 146.257C204.948 146.257 205.345 145.86 205.345 145.052V134.094H208.307C209.115 134.094 209.512 133.697 209.512 132.889C209.512 132.081 209.115 131.684 208.307 131.684H205.345V131.571C205.345 130.338 205.571 129.515 206.011 129.076C206.45 128.651 207.272 128.424 208.492 128.424C209.186 128.424 209.526 128.027 209.526 127.219C209.526 126.411 209.186 126.014 208.492 126.014C206.606 126.014 205.217 126.468 204.31 127.375C203.402 128.282 202.949 129.685 202.949 131.571V131.684H201.886C201.078 131.684 200.681 132.081 200.681 132.889C200.681 133.697 201.078 134.094 201.886 134.094H202.949V145.052C202.949 145.86 203.346 146.257 204.154 146.257H204.14Z" fill="#161616"/>
<path d="M214.403 146.257C215.211 146.257 215.608 145.86 215.608 145.052V137.44C215.65 136.433 216.118 135.625 216.983 135.016C217.862 134.406 219.123 134.094 220.782 134.094C221.59 134.094 221.987 133.697 221.987 132.889C221.987 132.081 221.59 131.684 220.782 131.684C219.648 131.684 218.641 131.883 217.762 132.28C216.883 132.677 216.161 133.258 215.593 134.023V132.903C215.593 132.095 215.197 131.698 214.389 131.698C213.581 131.698 213.184 132.095 213.184 132.903V145.066C213.184 145.874 213.581 146.271 214.389 146.271L214.403 146.257Z" fill="#161616"/>
<path d="M228.82 146.257H230.436C232.406 146.257 233.895 145.633 234.929 144.4V145.052C234.929 145.86 235.326 146.257 236.134 146.257C236.942 146.257 237.339 145.86 237.339 145.052V137.312C237.339 135.398 236.886 133.981 235.964 133.059C235.043 132.138 233.625 131.684 231.712 131.684H230.039C228.394 131.684 227.119 131.939 226.211 132.436C225.29 132.932 224.695 133.726 224.411 134.817C224.312 135.186 224.383 135.498 224.609 135.71C224.836 135.923 225.162 136.05 225.559 136.05C225.928 136.05 226.197 135.979 226.381 135.824C226.566 135.668 226.736 135.398 226.92 134.987C227.119 134.647 227.445 134.42 227.912 134.293C228.38 134.165 229.103 134.094 230.053 134.094H231.726C232.86 134.094 233.668 134.278 234.136 134.647C234.603 135.016 234.873 135.71 234.929 136.717H228.848C227.232 136.717 226.027 137.114 225.247 137.893C224.468 138.687 224.071 139.878 224.071 141.494C224.071 143.11 224.468 144.301 225.247 145.095C226.027 145.888 227.232 146.271 228.848 146.271L228.82 146.257ZM228.82 143.847C227.87 143.847 227.246 143.691 226.934 143.379C226.622 143.067 226.467 142.444 226.467 141.494C226.467 140.544 226.622 139.92 226.934 139.608C227.246 139.297 227.87 139.141 228.82 139.141H234.915V141.466C234.774 142.103 234.476 142.6 234.036 142.954C233.597 143.308 233.058 143.535 232.435 143.663C231.811 143.79 231.145 143.861 230.436 143.861H228.82V143.847Z" fill="#161616"/>
<path d="M103.137 173.702H105.447C106.922 173.702 108.013 173.347 108.722 172.653C109.431 171.958 109.771 170.866 109.771 169.392V161.454C109.771 161.184 109.7 160.986 109.572 160.844C109.431 160.717 109.232 160.646 108.963 160.646C108.694 160.646 108.495 160.717 108.353 160.844C108.212 160.972 108.155 161.184 108.155 161.454V169.392C108.155 170.073 108.07 170.625 107.914 171.008C107.744 171.405 107.474 171.674 107.077 171.845C106.681 172.015 106.142 172.086 105.461 172.086H103.151C102.456 172.086 101.917 172 101.535 171.845C101.138 171.674 100.868 171.405 100.698 171.008C100.528 170.611 100.457 170.073 100.457 169.392V161.454C100.457 161.184 100.386 160.986 100.259 160.844C100.131 160.702 99.9187 160.646 99.6493 160.646C99.38 160.646 99.1815 160.717 99.0398 160.844C98.898 160.972 98.8413 161.184 98.8413 161.454V169.392C98.8413 170.866 99.1957 171.958 99.8903 172.653C100.585 173.347 101.676 173.702 103.151 173.702H103.137Z" fill="#161616"/>
<path d="M118.687 173.701H121.466C122.742 173.701 123.677 173.404 124.301 172.794C124.925 172.185 125.223 171.249 125.223 169.959C125.223 168.669 124.911 167.719 124.287 167.11C123.663 166.5 122.728 166.188 121.452 166.188H119.056C118.291 166.188 117.766 166.046 117.497 165.763C117.227 165.479 117.086 164.955 117.086 164.204C117.086 163.452 117.213 162.942 117.483 162.673C117.752 162.403 118.262 162.261 119.042 162.261H121.338C121.92 162.261 122.345 162.332 122.643 162.474C122.926 162.616 123.125 162.871 123.224 163.254C123.266 163.509 123.351 163.707 123.479 163.835C123.607 163.963 123.805 164.033 124.06 164.033C124.344 164.033 124.556 163.963 124.698 163.821C124.84 163.679 124.897 163.466 124.854 163.183C124.698 162.318 124.329 161.68 123.748 161.269C123.167 160.858 122.359 160.645 121.338 160.645H119.042C117.823 160.645 116.93 160.943 116.348 161.524C115.767 162.105 115.47 163.013 115.47 164.218C115.47 165.423 115.767 166.344 116.348 166.939C116.93 167.535 117.837 167.833 119.056 167.833H121.452C122.26 167.833 122.827 167.988 123.125 168.286C123.436 168.598 123.592 169.165 123.592 169.987C123.592 170.809 123.436 171.362 123.139 171.66C122.841 171.958 122.274 172.114 121.452 172.114H118.673C118.021 172.114 117.525 172.029 117.213 171.873C116.901 171.703 116.689 171.405 116.589 170.965C116.547 170.696 116.462 170.498 116.334 170.37C116.207 170.242 116.008 170.172 115.739 170.172C115.47 170.172 115.257 170.242 115.115 170.384C114.973 170.526 114.917 170.739 114.945 171.022C115.101 171.944 115.484 172.638 116.093 173.078C116.703 173.517 117.568 173.744 118.659 173.744L118.687 173.701Z" fill="#161616"/>
<path d="M131.616 173.701H138.533C139.072 173.701 139.341 173.432 139.341 172.893C139.341 172.355 139.072 172.085 138.533 172.085H132.424V167.918H136.265C136.804 167.918 137.073 167.648 137.073 167.11C137.073 166.571 136.804 166.302 136.265 166.302H132.424V162.247H138.533C139.072 162.247 139.341 161.978 139.341 161.439C139.341 160.901 139.072 160.631 138.533 160.631H131.616C131.077 160.631 130.808 160.901 130.808 161.439V172.893C130.808 173.432 131.077 173.701 131.616 173.701Z" fill="#161616"/>
<path d="M153.149 173.73C153.603 173.446 153.702 173.078 153.461 172.624L150.937 168.414C151.831 168.272 152.525 167.889 153.007 167.28C153.489 166.67 153.716 165.862 153.716 164.841V164.26C153.716 163.084 153.404 162.176 152.78 161.553C152.157 160.929 151.249 160.617 150.073 160.617H145.565C145.026 160.617 144.757 160.886 144.757 161.425V172.879C144.757 173.418 145.026 173.687 145.565 173.687C146.104 173.687 146.373 173.418 146.373 172.879V168.485H149.066L152.057 173.46C152.185 173.673 152.355 173.801 152.554 173.857C152.752 173.914 152.95 173.857 153.163 173.73H153.149ZM146.359 166.869V162.233H150.059C150.796 162.233 151.306 162.389 151.618 162.701C151.93 163.013 152.086 163.537 152.086 164.26V164.841C152.086 165.579 151.93 166.089 151.618 166.401C151.306 166.713 150.796 166.869 150.059 166.869H146.359Z" fill="#161616"/>
<path d="M170.571 173.701H172.882C174.229 173.701 175.221 173.389 175.859 172.766C176.497 172.142 176.809 171.136 176.809 169.775V168.059C176.809 167.521 176.539 167.251 176.001 167.251H173.69C173.151 167.237 172.882 167.506 172.882 168.045C172.882 168.584 173.151 168.853 173.69 168.853H175.192V169.775C175.192 170.384 175.122 170.852 174.994 171.192C174.866 171.532 174.625 171.759 174.285 171.887C173.945 172.014 173.477 172.085 172.882 172.085H170.571C169.891 172.085 169.338 172 168.955 171.844C168.558 171.674 168.289 171.405 168.119 171.008C167.949 170.611 167.878 170.072 167.878 169.392V164.955C167.878 164.26 167.963 163.722 168.119 163.325C168.289 162.928 168.558 162.644 168.941 162.488C169.324 162.332 169.862 162.247 170.543 162.261H172.882C173.633 162.261 174.186 162.361 174.526 162.573C174.866 162.786 175.079 163.183 175.136 163.764C175.207 164.303 175.49 164.572 175.986 164.572C176.256 164.572 176.468 164.501 176.61 164.359C176.752 164.218 176.809 164.019 176.766 163.736C176.667 162.658 176.298 161.879 175.66 161.383C175.022 160.886 174.101 160.631 172.896 160.631H170.557C169.097 160.631 168.005 160.957 167.311 161.666C166.616 162.375 166.262 163.466 166.262 164.955V169.392C166.262 170.866 166.616 171.958 167.311 172.652C168.005 173.347 169.097 173.701 170.571 173.701Z" fill="#161616"/>
<path d="M190.417 173.73C190.871 173.446 190.97 173.078 190.729 172.624L188.206 168.414C189.099 168.272 189.793 167.889 190.275 167.28C190.757 166.67 190.984 165.862 190.984 164.841V164.26C190.984 163.084 190.672 162.176 190.048 161.553C189.425 160.929 188.517 160.617 187.341 160.617H182.833C182.294 160.617 182.025 160.886 182.025 161.425V172.879C182.025 173.418 182.294 173.687 182.833 173.687C183.372 173.687 183.641 173.418 183.641 172.879V168.485H186.334L189.325 173.46C189.453 173.673 189.623 173.801 189.822 173.857C190.02 173.914 190.219 173.857 190.431 173.73H190.417ZM183.627 166.869V162.233H187.327C188.064 162.233 188.574 162.389 188.886 162.701C189.198 163.013 189.354 163.537 189.354 164.26V164.841C189.354 165.579 189.198 166.089 188.886 166.401C188.574 166.713 188.064 166.869 187.327 166.869H183.627Z" fill="#161616"/>
<path d="M199.943 173.701H202.254C203.728 173.701 204.82 173.347 205.529 172.652C206.223 171.944 206.578 170.866 206.578 169.392V164.955C206.578 163.481 206.223 162.389 205.529 161.68C204.834 160.986 203.742 160.631 202.254 160.631H199.943C198.483 160.631 197.392 160.957 196.683 161.652C195.974 162.347 195.62 163.438 195.62 164.927V169.378C195.62 170.852 195.974 171.944 196.669 172.638C197.363 173.333 198.455 173.687 199.929 173.687L199.943 173.701ZM199.943 172.085C199.263 172.085 198.71 172 198.327 171.844C197.93 171.674 197.661 171.405 197.491 171.008C197.321 170.611 197.25 170.072 197.25 169.392V164.941C197.25 164.246 197.335 163.707 197.505 163.325C197.675 162.928 197.959 162.658 198.341 162.502C198.738 162.346 199.277 162.261 199.957 162.276H202.268C202.949 162.276 203.501 162.361 203.884 162.531C204.281 162.701 204.55 162.984 204.721 163.367C204.891 163.764 204.961 164.303 204.961 164.983V169.42C204.961 170.101 204.876 170.654 204.721 171.036C204.55 171.433 204.281 171.703 203.884 171.873C203.487 172.043 202.949 172.114 202.268 172.114H199.957L199.943 172.085Z" fill="#161616"/>
<path d="M216.373 173.701H218.684C220.158 173.701 221.249 173.347 221.958 172.652C222.667 171.958 223.007 170.866 223.007 169.392V161.453C223.007 161.184 222.936 160.986 222.809 160.844C222.667 160.716 222.469 160.645 222.199 160.645C221.93 160.645 221.731 160.716 221.59 160.844C221.448 160.971 221.391 161.184 221.391 161.453V169.392C221.391 170.072 221.306 170.625 221.15 171.008C220.98 171.405 220.711 171.674 220.314 171.844C219.917 172.014 219.378 172.085 218.698 172.085H216.387C215.692 172.085 215.154 172 214.771 171.844C214.374 171.674 214.105 171.405 213.935 171.008C213.765 170.611 213.694 170.072 213.694 169.392V161.453C213.694 161.184 213.623 160.986 213.495 160.844C213.368 160.702 213.155 160.645 212.886 160.645C212.616 160.645 212.418 160.716 212.276 160.844C212.134 160.971 212.078 161.184 212.078 161.453V169.392C212.078 170.866 212.432 171.958 213.127 172.652C213.821 173.347 214.913 173.701 216.387 173.701H216.373Z" fill="#161616"/>
<path d="M229.174 173.701C229.712 173.701 229.982 173.432 229.982 172.893V168.499H233.682C234.858 168.499 235.765 168.187 236.389 167.563C237.013 166.939 237.325 166.032 237.325 164.856V164.274C237.325 163.098 237.013 162.191 236.389 161.567C235.765 160.943 234.858 160.631 233.682 160.631H229.174C228.635 160.631 228.366 160.901 228.366 161.439V172.893C228.366 173.432 228.635 173.701 229.174 173.701ZM229.982 166.869V162.233H233.682C234.419 162.233 234.929 162.389 235.241 162.701C235.553 163.013 235.709 163.537 235.709 164.26V164.841C235.709 165.579 235.553 166.089 235.241 166.401C234.929 166.713 234.419 166.869 233.682 166.869H229.982Z" fill="#161616"/>
<path d="M164.305 235.395H157.77L156.523 239.123H152.554L159.287 221.02H162.746L169.522 239.123H165.553L164.291 235.395H164.305ZM158.777 232.375H163.299L161.017 225.599L158.763 232.375H158.777Z" fill="#161616"/>
<path d="M178.652 237.748C177.773 238.825 176.539 239.364 174.966 239.364C173.52 239.364 172.428 238.953 171.663 238.116C170.897 237.294 170.515 236.075 170.5 234.473V225.656H174.087V234.36C174.087 235.763 174.725 236.458 176.001 236.458C177.277 236.458 178.056 236.032 178.51 235.182V225.642H182.11V239.094H178.722L178.623 237.734L178.652 237.748Z" fill="#161616"/>
<path d="M184.066 232.29C184.066 230.22 184.563 228.562 185.541 227.3C186.519 226.039 187.851 225.415 189.51 225.415C190.984 225.415 192.132 225.925 192.955 226.932L193.111 225.67H196.371V238.669C196.371 239.846 196.102 240.866 195.563 241.745C195.024 242.61 194.273 243.276 193.309 243.73C192.345 244.184 191.197 244.41 189.907 244.41C188.915 244.41 187.965 244.212 187.029 243.815C186.094 243.418 185.385 242.908 184.903 242.298L186.49 240.115C187.384 241.122 188.475 241.618 189.751 241.618C190.701 241.618 191.452 241.363 191.977 240.852C192.501 240.342 192.77 239.619 192.77 238.683V237.96C191.948 238.896 190.857 239.364 189.496 239.364C187.88 239.364 186.576 238.726 185.569 237.464C184.563 236.203 184.066 234.53 184.066 232.432V232.276V232.29ZM187.653 232.545C187.653 233.764 187.894 234.728 188.39 235.423C188.872 236.118 189.552 236.472 190.403 236.472C191.495 236.472 192.274 236.061 192.756 235.239V229.554C192.274 228.732 191.495 228.321 190.431 228.321C189.567 228.321 188.886 228.675 188.404 229.384C187.922 230.093 187.667 231.156 187.667 232.559L187.653 232.545Z" fill="#161616"/>
<path d="M206.918 237.748C206.039 238.825 204.806 239.364 203.232 239.364C201.787 239.364 200.695 238.953 199.93 238.116C199.164 237.294 198.781 236.075 198.767 234.473V225.656H202.368V234.36C202.368 235.763 203.006 236.458 204.281 236.458C205.557 236.458 206.337 236.032 206.791 235.182V225.642H210.391V239.094H207.003L206.904 237.734L206.918 237.748Z" fill="#161616"/>
<path d="M220.144 235.395C220.144 234.955 219.931 234.615 219.492 234.36C219.053 234.105 218.358 233.878 217.394 233.679C214.19 233.013 212.588 231.652 212.588 229.597C212.588 228.406 213.085 227.414 214.077 226.606C215.069 225.812 216.359 225.401 217.961 225.401C219.662 225.401 221.037 225.798 222.058 226.606C223.078 227.414 223.589 228.448 223.589 229.738H220.002C220.002 229.228 219.832 228.803 219.506 228.463C219.18 228.122 218.656 227.966 217.947 227.966C217.337 227.966 216.869 228.108 216.543 228.378C216.217 228.647 216.047 229.001 216.047 229.427C216.047 229.823 216.232 230.15 216.614 230.391C216.997 230.632 217.621 230.844 218.528 231.028C219.435 231.213 220.172 231.411 220.796 231.638C222.696 232.333 223.645 233.538 223.645 235.253C223.645 236.486 223.121 237.478 222.072 238.23C221.023 238.995 219.662 239.364 217.989 239.364C216.855 239.364 215.863 239.165 214.984 238.754C214.105 238.357 213.425 237.804 212.929 237.096C212.432 236.401 212.177 235.636 212.177 234.828H215.579C215.608 235.465 215.849 235.947 216.288 236.302C216.728 236.642 217.309 236.812 218.06 236.812C218.755 236.812 219.265 236.685 219.62 236.415C219.974 236.16 220.144 235.806 220.144 235.395Z" fill="#161616"/>
<path d="M229.996 222.367V225.67H232.293V228.307H229.996V235.026C229.996 235.522 230.096 235.877 230.28 236.089C230.464 236.302 230.833 236.415 231.371 236.415C231.768 236.415 232.123 236.387 232.435 236.33V239.052C231.726 239.265 231.003 239.378 230.252 239.378C227.728 239.378 226.452 238.102 226.396 235.565V228.321H224.425V225.684H226.396V222.381H229.982L229.996 222.367Z" fill="#161616"/>
<path d="M241.833 239.123C241.663 238.797 241.549 238.4 241.479 237.918C240.614 238.882 239.48 239.378 238.091 239.378C236.772 239.378 235.681 238.995 234.816 238.23C233.951 237.464 233.512 236.5 233.512 235.338C233.512 233.906 234.036 232.815 235.099 232.049C236.163 231.284 237.679 230.901 239.678 230.887H241.337V230.121C241.337 229.497 241.181 229.001 240.855 228.633C240.529 228.264 240.033 228.066 239.338 228.066C238.728 228.066 238.261 228.207 237.92 228.505C237.58 228.789 237.41 229.2 237.41 229.696H233.824C233.824 228.916 234.065 228.193 234.547 227.527C235.029 226.861 235.709 226.35 236.588 225.968C237.467 225.585 238.459 225.401 239.551 225.401C241.209 225.401 242.528 225.812 243.506 226.648C244.484 227.484 244.966 228.647 244.966 230.164V235.99C244.966 237.266 245.15 238.23 245.504 238.882V239.094H241.875L241.833 239.123ZM238.856 236.628C239.395 236.628 239.877 236.514 240.33 236.273C240.784 236.033 241.11 235.721 241.323 235.324V233.013H239.976C238.176 233.013 237.226 233.637 237.098 234.884V235.097C237.098 235.551 237.24 235.919 237.552 236.203C237.864 236.486 238.303 236.642 238.842 236.642L238.856 236.628Z" fill="#161616"/>
</g>
<path d="M138.678 285.967C138.328 285.967 138.153 285.792 138.153 285.442V278.011C138.153 277.66 138.328 277.485 138.678 277.485H141.943C142.606 277.485 143.115 277.66 143.469 278.011C143.828 278.361 144.007 278.861 144.007 279.512V279.85C144.007 280.413 143.83 280.848 143.476 281.157C144.139 281.528 144.47 282.206 144.47 283.19V283.615C144.47 284.382 144.266 284.966 143.857 285.367C143.453 285.767 142.869 285.967 142.106 285.967H138.678ZM139.203 284.916H142.106C142.577 284.916 142.913 284.816 143.113 284.616C143.317 284.412 143.419 284.078 143.419 283.615V283.19C143.419 282.727 143.321 282.398 143.125 282.202C142.929 282.001 142.59 281.901 142.106 281.901H139.203V284.916ZM139.203 280.85H142.168C142.473 280.85 142.679 280.757 142.788 280.569C142.9 280.381 142.956 280.142 142.956 279.85V279.512C142.956 279.149 142.881 278.897 142.731 278.755C142.581 278.609 142.318 278.536 141.943 278.536H139.203V280.85ZM149.447 285.967C148.492 285.967 147.786 285.74 147.327 285.285C146.872 284.827 146.645 284.12 146.645 283.165V280.275C146.645 279.312 146.874 278.605 147.333 278.155C147.792 277.7 148.497 277.477 149.447 277.485H150.949C151.908 277.485 152.614 277.713 153.069 278.167C153.523 278.622 153.751 279.328 153.751 280.288V283.165C153.751 284.12 153.523 284.827 153.069 285.285C152.614 285.74 151.908 285.967 150.949 285.967H149.447ZM149.447 284.916H150.949C151.395 284.916 151.745 284.864 151.999 284.76C152.254 284.651 152.433 284.47 152.537 284.216C152.646 283.961 152.7 283.611 152.7 283.165V280.288C152.7 279.845 152.646 279.497 152.537 279.243C152.433 278.989 152.254 278.807 151.999 278.699C151.745 278.59 151.395 278.536 150.949 278.536H149.447C149.005 278.532 148.657 278.582 148.403 278.686C148.148 278.79 147.967 278.97 147.859 279.224C147.75 279.479 147.696 279.829 147.696 280.275V283.165C147.696 283.611 147.748 283.961 147.852 284.216C147.961 284.47 148.142 284.651 148.396 284.76C148.651 284.864 149.001 284.916 149.447 284.916ZM158.924 285.967C157.969 285.967 157.262 285.74 156.804 285.285C156.349 284.827 156.122 284.12 156.122 283.165V280.288C156.122 279.324 156.349 278.615 156.804 278.161C157.258 277.702 157.961 277.477 158.912 277.485H160.425C161.209 277.485 161.808 277.648 162.221 277.973C162.633 278.294 162.873 278.803 162.94 279.499C162.965 279.675 162.931 279.808 162.84 279.9C162.748 279.991 162.615 280.037 162.439 280.037C162.123 280.037 161.939 279.862 161.889 279.512C161.847 279.128 161.714 278.87 161.489 278.736C161.268 278.603 160.913 278.536 160.425 278.536H158.912C158.47 278.532 158.121 278.582 157.867 278.686C157.617 278.79 157.438 278.972 157.329 279.23C157.225 279.485 157.173 279.837 157.173 280.288V283.165C157.173 283.611 157.225 283.961 157.329 284.216C157.438 284.47 157.619 284.651 157.873 284.76C158.128 284.864 158.478 284.916 158.924 284.916H160.425C160.813 284.916 161.115 284.875 161.332 284.791C161.553 284.704 161.708 284.551 161.795 284.334C161.883 284.118 161.927 283.811 161.927 283.415V282.827L160.951 282.815C160.6 282.815 160.425 282.639 160.425 282.289C160.425 281.939 160.6 281.764 160.951 281.764L162.452 281.776C162.802 281.776 162.977 281.951 162.977 282.302V283.415C162.977 284.303 162.771 284.952 162.358 285.36C161.945 285.765 161.301 285.967 160.425 285.967H158.924ZM168.034 285.967C167.08 285.967 166.373 285.74 165.914 285.285C165.459 284.827 165.232 284.12 165.232 283.165V280.275C165.232 279.312 165.462 278.605 165.92 278.155C166.379 277.7 167.084 277.477 168.034 277.485H169.536C170.495 277.485 171.202 277.713 171.656 278.167C172.111 278.622 172.338 279.328 172.338 280.288V283.165C172.338 284.12 172.111 284.827 171.656 285.285C171.202 285.74 170.495 285.967 169.536 285.967H168.034ZM168.034 284.916H169.536C169.982 284.916 170.332 284.864 170.586 284.76C170.841 284.651 171.02 284.47 171.124 284.216C171.233 283.961 171.287 283.611 171.287 283.165V280.288C171.287 279.845 171.233 279.497 171.124 279.243C171.02 278.989 170.841 278.807 170.586 278.699C170.332 278.59 169.982 278.536 169.536 278.536H168.034C167.592 278.532 167.244 278.582 166.99 278.686C166.735 278.79 166.554 278.97 166.446 279.224C166.337 279.479 166.283 279.829 166.283 280.275V283.165C166.283 283.611 166.335 283.961 166.439 284.216C166.548 284.47 166.729 284.651 166.984 284.76C167.238 284.864 167.588 284.916 168.034 284.916ZM177.048 285.967C176.873 285.967 176.741 285.923 176.654 285.836C176.566 285.748 176.522 285.617 176.522 285.442V278.549H174.096C173.92 278.549 173.789 278.505 173.701 278.417C173.614 278.33 173.57 278.198 173.57 278.023C173.57 277.848 173.614 277.717 173.701 277.629C173.789 277.542 173.92 277.498 174.096 277.498H180C180.175 277.498 180.307 277.542 180.394 277.629C180.482 277.717 180.526 277.848 180.526 278.023C180.526 278.198 180.482 278.33 180.394 278.417C180.307 278.505 180.175 278.549 180 278.549H177.573V285.442C177.573 285.608 177.527 285.738 177.436 285.829C177.348 285.921 177.219 285.967 177.048 285.967ZM181.166 285.917C180.832 285.788 180.732 285.558 180.866 285.229L183.843 277.898C183.968 277.623 184.164 277.485 184.431 277.485H184.456C184.727 277.498 184.911 277.635 185.006 277.898L188.034 285.229C188.167 285.558 188.071 285.788 187.746 285.917C187.417 286.046 187.187 285.95 187.058 285.629L186.383 283.99H182.486L181.841 285.629C181.712 285.955 181.487 286.05 181.166 285.917ZM182.899 282.94H185.951L184.394 279.149L182.899 282.94ZM189.961 287.556C189.811 287.556 189.694 287.518 189.61 287.443C189.531 287.368 189.502 287.26 189.523 287.118L189.873 285.123C189.886 284.818 190.052 284.666 190.373 284.666H190.674C190.991 284.666 191.149 284.829 191.149 285.154V285.467C191.149 285.538 191.137 285.608 191.112 285.679C191.091 285.746 191.064 285.813 191.03 285.879L190.373 287.281C190.273 287.464 190.136 287.556 189.961 287.556ZM200.685 285.967C199.73 285.967 199.023 285.74 198.565 285.285C198.11 284.827 197.883 284.12 197.883 283.165V280.288C197.883 279.324 198.11 278.615 198.565 278.161C199.019 277.702 199.722 277.477 200.673 277.485H202.186C202.97 277.485 203.569 277.648 203.981 277.973C204.394 278.294 204.634 278.803 204.701 279.499C204.726 279.675 204.692 279.808 204.601 279.9C204.509 279.991 204.375 280.037 204.2 280.037C203.883 280.037 203.7 279.862 203.65 279.512C203.608 279.128 203.475 278.87 203.25 278.736C203.029 278.603 202.674 278.536 202.186 278.536H200.673C200.231 278.532 199.882 278.582 199.628 278.686C199.378 278.79 199.198 278.972 199.09 279.23C198.986 279.485 198.934 279.837 198.934 280.288V283.165C198.934 283.611 198.986 283.961 199.09 284.216C199.198 284.47 199.38 284.651 199.634 284.76C199.889 284.864 200.239 284.916 200.685 284.916H202.186C202.674 284.916 203.029 284.849 203.25 284.716C203.475 284.578 203.608 284.32 203.65 283.94C203.7 283.59 203.883 283.415 204.2 283.415C204.375 283.415 204.509 283.461 204.601 283.553C204.692 283.644 204.726 283.778 204.701 283.953C204.634 284.653 204.394 285.164 203.981 285.485C203.569 285.806 202.97 285.967 202.186 285.967H200.685ZM209.771 285.967C208.816 285.967 208.109 285.74 207.65 285.285C207.196 284.827 206.969 284.12 206.969 283.165V280.275C206.969 279.312 207.198 278.605 207.657 278.155C208.115 277.7 208.82 277.477 209.771 277.485H211.272C212.231 277.485 212.938 277.713 213.393 278.167C213.847 278.622 214.074 279.328 214.074 280.288V283.165C214.074 284.12 213.847 284.827 213.393 285.285C212.938 285.74 212.231 285.967 211.272 285.967H209.771ZM209.771 284.916H211.272C211.718 284.916 212.069 284.864 212.323 284.76C212.577 284.651 212.757 284.47 212.861 284.216C212.969 283.961 213.024 283.611 213.024 283.165V280.288C213.024 279.845 212.969 279.497 212.861 279.243C212.757 278.989 212.577 278.807 212.323 278.699C212.069 278.59 211.718 278.536 211.272 278.536H209.771C209.329 278.532 208.981 278.582 208.726 278.686C208.472 278.79 208.291 278.97 208.182 279.224C208.074 279.479 208.02 279.829 208.02 280.275V283.165C208.02 283.611 208.072 283.961 208.176 284.216C208.284 284.47 208.466 284.651 208.72 284.76C208.974 284.864 209.325 284.916 209.771 284.916ZM217.271 285.967C216.921 285.967 216.746 285.792 216.746 285.442V278.011C216.746 277.66 216.921 277.485 217.271 277.485C217.621 277.485 217.797 277.66 217.797 278.011V284.916H221.262C221.612 284.916 221.787 285.091 221.787 285.442C221.787 285.792 221.612 285.967 221.262 285.967H217.271ZM226.147 285.967C225.192 285.967 224.485 285.74 224.026 285.285C223.572 284.827 223.345 284.12 223.345 283.165V280.275C223.345 279.312 223.574 278.605 224.033 278.155C224.491 277.7 225.196 277.477 226.147 277.485H227.648C228.607 277.485 229.314 277.713 229.768 278.167C230.223 278.622 230.45 279.328 230.45 280.288V283.165C230.45 284.12 230.223 284.827 229.768 285.285C229.314 285.74 228.607 285.967 227.648 285.967H226.147ZM226.147 284.916H227.648C228.094 284.916 228.444 284.864 228.699 284.76C228.953 284.651 229.133 284.47 229.237 284.216C229.345 283.961 229.399 283.611 229.399 283.165V280.288C229.399 279.845 229.345 279.497 229.237 279.243C229.133 278.989 228.953 278.807 228.699 278.699C228.444 278.59 228.094 278.536 227.648 278.536H226.147C225.705 278.532 225.357 278.582 225.102 278.686C224.848 278.79 224.666 278.97 224.558 279.224C224.45 279.479 224.395 279.829 224.395 280.275V283.165C224.395 283.611 224.448 283.961 224.552 284.216C224.66 284.47 224.842 284.651 225.096 284.76C225.35 284.864 225.701 284.916 226.147 284.916ZM233.647 285.967C233.297 285.967 233.122 285.792 233.122 285.442V278.011C233.122 277.66 233.297 277.485 233.647 277.485C233.876 277.485 234.068 277.598 234.223 277.823L237.175 282.264L236.95 282.302L239.927 277.823C240.069 277.598 240.282 277.485 240.565 277.485C240.849 277.485 240.99 277.66 240.99 278.011V285.442C240.99 285.792 240.815 285.967 240.465 285.967C240.115 285.967 239.94 285.792 239.94 285.442V279.062L240.265 279.174L237.638 283.04C237.483 283.265 237.271 283.377 237 283.377C236.812 283.377 236.641 283.265 236.487 283.04L233.86 279.174L234.172 279.262V285.442C234.172 285.792 233.997 285.967 233.647 285.967ZM244.492 285.967C244.142 285.967 243.967 285.792 243.967 285.442V278.011C243.967 277.66 244.142 277.485 244.492 277.485H247.757C248.42 277.485 248.929 277.66 249.283 278.011C249.642 278.361 249.821 278.861 249.821 279.512V279.85C249.821 280.413 249.644 280.848 249.29 281.157C249.953 281.528 250.284 282.206 250.284 283.19V283.615C250.284 284.382 250.08 284.966 249.671 285.367C249.267 285.767 248.683 285.967 247.92 285.967H244.492ZM245.018 284.916H247.92C248.391 284.916 248.727 284.816 248.927 284.616C249.131 284.412 249.233 284.078 249.233 283.615V283.19C249.233 282.727 249.135 282.398 248.939 282.202C248.743 282.001 248.404 281.901 247.92 281.901H245.018V284.916ZM245.018 280.85H247.982C248.287 280.85 248.493 280.757 248.602 280.569C248.714 280.381 248.771 280.142 248.771 279.85V279.512C248.771 279.149 248.696 278.897 248.545 278.755C248.395 278.609 248.133 278.536 247.757 278.536H245.018V280.85ZM253.285 285.967C253.105 285.967 252.972 285.925 252.884 285.842C252.801 285.754 252.759 285.621 252.759 285.442V278.023C252.759 277.84 252.801 277.706 252.884 277.623C252.972 277.539 253.105 277.498 253.285 277.498C253.468 277.498 253.602 277.539 253.685 277.623C253.769 277.706 253.81 277.84 253.81 278.023V285.442C253.81 285.621 253.769 285.754 253.685 285.842C253.602 285.925 253.468 285.967 253.285 285.967ZM256.387 285.917C256.054 285.788 255.954 285.558 256.087 285.229L259.064 277.898C259.189 277.623 259.385 277.485 259.652 277.485H259.677C259.948 277.498 260.132 277.635 260.228 277.898L263.255 285.229C263.389 285.558 263.293 285.788 262.967 285.917C262.638 286.046 262.409 285.95 262.279 285.629L261.604 283.99H257.707L257.063 285.629C256.933 285.955 256.708 286.05 256.387 285.917ZM258.12 282.94H261.172L259.615 279.149L258.12 282.94Z" fill="#FFB325"/>
<path d="M327.912 102.949H93.0528C83.0609 102.949 74.9229 111.035 74.9229 120.962V244.096C74.9229 254.031 83.0538 262.11 93.0528 262.11H309.782C319.781 262.11 327.912 254.031 327.912 244.096V102.949Z" fill="white"/>
<path d="M93.0528 106.832C85.2082 106.832 78.8237 113.175 78.8237 120.97V199.878H324.011V106.832H93.0528Z" fill="black"/>
<path d="M78.8452 243.776C78.8452 251.571 85.2297 257.914 93.0743 257.914H309.803C317.648 257.914 324.032 251.571 324.032 243.776V203.426H78.8452V243.776Z" fill="black"/>
<path d="M253.774 137.845V141.721H280.615L253.774 168.388L256.537 171.126L290.034 137.845H253.774Z" fill="#F7B749"/>
<path d="M293.942 133.969L297.843 130.086H253.774V133.969H293.942Z" fill="#ED362F"/>
<path d="M296.698 136.707V176.609H300.599V132.831L296.698 136.707Z" fill="#43B85C"/>
<path d="M292.797 176.609V140.583L259.293 173.871L262.056 176.609L288.896 149.941V176.609H292.797Z" fill="#2CB4E2"/>
<path d="M108.563 149.842C106.409 149.842 104.813 149.33 103.782 148.306C102.751 147.282 102.236 145.696 102.236 143.555V137.07C102.236 134.908 102.751 133.322 103.789 132.305C104.827 131.288 106.416 130.79 108.563 130.812H111.949C114.117 130.812 115.713 131.324 116.737 132.341C117.76 133.358 118.276 134.943 118.276 137.098V143.555C118.276 145.696 117.76 147.282 116.737 148.306C115.713 149.33 114.117 149.842 111.949 149.842H108.563ZM108.563 147.481H111.949C112.958 147.481 113.745 147.36 114.325 147.125C114.897 146.883 115.305 146.485 115.549 145.909C115.792 145.34 115.907 144.551 115.907 143.548V137.091C115.907 136.103 115.785 135.32 115.549 134.751C115.305 134.183 114.897 133.777 114.325 133.528C113.752 133.286 112.958 133.166 111.949 133.166H108.563C107.568 133.158 106.781 133.272 106.201 133.5C105.621 133.727 105.221 134.133 104.97 134.709C104.727 135.278 104.605 136.067 104.605 137.07V143.555C104.605 144.558 104.727 145.34 104.963 145.916C105.206 146.485 105.614 146.891 106.187 147.132C106.759 147.374 107.554 147.488 108.563 147.488V147.481Z" fill="white"/>
<path d="M124.381 155.453C123.587 155.453 123.193 155.062 123.193 154.272V136.792C123.193 136.003 123.587 135.612 124.381 135.612C125.176 135.612 125.569 136.003 125.569 136.792V137.141C126.077 136.636 126.707 136.252 127.452 135.996C128.203 135.74 129.041 135.612 129.971 135.612H131.045C132.927 135.612 134.323 136.06 135.225 136.956C136.126 137.852 136.577 139.239 136.577 141.109V144.338C136.577 146.201 136.126 147.58 135.225 148.484C134.323 149.387 132.927 149.835 131.045 149.835H125.562V154.272C125.562 155.062 125.168 155.453 124.374 155.453H124.381ZM125.569 147.481H131.052C132.283 147.481 133.12 147.26 133.557 146.82C133.994 146.379 134.215 145.554 134.215 144.338V141.109C134.215 139.886 134.001 139.054 133.557 138.62C133.12 138.186 132.283 137.966 131.052 137.966H129.978C128.797 137.966 127.781 138.108 126.929 138.385C126.07 138.663 125.619 139.111 125.576 139.715V147.474L125.569 147.481Z" fill="white"/>
<path d="M143.191 143.698V144.373C143.191 145.582 143.413 146.4 143.857 146.834C144.3 147.268 145.131 147.488 146.355 147.488H148.674C149.633 147.488 150.341 147.403 150.807 147.225C151.265 147.047 151.572 146.734 151.723 146.286C151.823 145.931 151.973 145.66 152.152 145.475C152.338 145.291 152.617 145.191 152.99 145.191C153.362 145.191 153.684 145.298 153.892 145.497C154.099 145.703 154.164 146.002 154.085 146.393C153.877 147.552 153.326 148.42 152.417 148.988C151.515 149.557 150.263 149.842 148.659 149.842H146.34C144.465 149.842 143.077 149.394 142.168 148.498C141.259 147.602 140.808 146.222 140.808 144.373V141.116C140.808 139.217 141.259 137.824 142.168 136.928C143.077 136.031 144.465 135.598 146.34 135.612H148.659C150.542 135.612 151.938 136.06 152.839 136.949C153.741 137.845 154.192 139.232 154.192 141.109V142.51C154.192 143.299 153.798 143.69 153.004 143.69H143.177L143.191 143.698ZM146.355 137.973C145.131 137.952 144.3 138.165 143.857 138.606C143.413 139.047 143.191 139.886 143.191 141.116V141.344H151.837V141.116C151.837 139.893 151.615 139.061 151.179 138.627C150.742 138.193 149.905 137.973 148.674 137.973H146.355Z" fill="white"/>
<path d="M160.305 149.842C159.518 149.842 159.117 149.451 159.117 148.661V136.792C159.117 136.003 159.51 135.612 160.305 135.612C161.099 135.612 161.493 136.003 161.493 136.792V137.255C162.488 136.16 163.962 135.612 165.902 135.612H166.689C168.572 135.612 169.967 136.06 170.869 136.956C171.771 137.852 172.222 139.239 172.222 141.109V148.661C172.222 149.451 171.828 149.842 171.034 149.842C170.239 149.842 169.846 149.451 169.846 148.661V141.109C169.846 139.886 169.624 139.054 169.173 138.62C168.722 138.186 167.892 137.966 166.682 137.966H165.895C164.764 137.966 163.783 138.094 162.946 138.35C162.109 138.606 161.622 139.011 161.493 139.566V148.661C161.493 149.451 161.099 149.842 160.305 149.842Z" fill="white"/>
<path d="M178.721 149.842C178.32 149.842 178.02 149.749 177.826 149.557C177.633 149.365 177.54 149.067 177.54 148.668V132.028C177.54 131.615 177.64 131.317 177.826 131.132C178.02 130.947 178.32 130.854 178.721 130.854C179.122 130.854 179.437 130.947 179.623 131.132C179.809 131.317 179.902 131.615 179.902 132.028V148.668C179.902 149.074 179.809 149.365 179.623 149.557C179.437 149.749 179.136 149.842 178.721 149.842Z" fill="white"/>
<path d="M186.687 149.842C185.893 149.842 185.499 149.451 185.499 148.661V136.792C185.499 136.003 185.893 135.612 186.687 135.612C187.482 135.612 187.875 136.003 187.875 136.792V137.255C188.87 136.16 190.345 135.612 192.284 135.612H193.072C194.954 135.612 196.35 136.06 197.252 136.956C198.153 137.852 198.604 139.239 198.604 141.109V148.661C198.604 149.451 198.211 149.842 197.416 149.842C196.622 149.842 196.228 149.451 196.228 148.661V141.109C196.228 139.886 196.006 139.054 195.555 138.62C195.112 138.186 194.281 137.966 193.065 137.966H192.277C191.146 137.966 190.166 138.094 189.328 138.35C188.491 138.606 188.004 139.011 187.875 139.566V148.661C187.875 149.451 187.482 149.842 186.687 149.842Z" fill="white"/>
<path d="M205.64 149.842C204.853 149.842 204.452 149.451 204.452 148.661V137.966H203.407C202.62 137.966 202.219 137.575 202.219 136.785C202.219 135.996 202.612 135.605 203.407 135.605H204.452V135.491C204.452 133.649 204.896 132.284 205.79 131.402C206.685 130.52 208.052 130.079 209.899 130.079C210.579 130.079 210.915 130.47 210.915 131.26C210.915 132.049 210.579 132.44 209.899 132.44C208.711 132.44 207.902 132.654 207.472 133.073C207.036 133.493 206.821 134.303 206.821 135.498V135.612H209.734C210.521 135.612 210.922 136.003 210.922 136.792C210.922 137.582 210.529 137.973 209.734 137.973H206.821V148.668C206.821 149.458 206.427 149.849 205.633 149.849L205.64 149.842Z" fill="white"/>
<path d="M215.725 149.842C214.931 149.842 214.537 149.451 214.537 148.661V136.792C214.537 136.003 214.931 135.612 215.725 135.612C216.52 135.612 216.913 136.003 216.913 136.792V137.888C217.472 137.141 218.173 136.572 219.039 136.188C219.898 135.804 220.886 135.612 221.995 135.612C222.783 135.612 223.183 136.003 223.183 136.792C223.183 137.582 222.79 137.973 221.995 137.973C220.363 137.973 219.125 138.272 218.266 138.869C217.407 139.466 216.956 140.256 216.913 141.237V148.661C216.913 149.451 216.52 149.842 215.725 149.842Z" fill="white"/>
<path d="M229.876 149.842C228.294 149.842 227.113 149.458 226.347 148.69C225.581 147.922 225.188 146.755 225.188 145.184C225.188 143.612 225.574 142.446 226.34 141.678C227.106 140.91 228.287 140.526 229.876 140.526H235.852C235.795 139.545 235.537 138.876 235.072 138.513C234.614 138.151 233.819 137.973 232.703 137.973H231.064C230.119 137.973 229.418 138.037 228.959 138.165C228.494 138.293 228.172 138.52 227.986 138.848C227.814 139.239 227.643 139.509 227.464 139.658C227.285 139.808 227.02 139.886 226.662 139.886C226.268 139.886 225.953 139.779 225.731 139.559C225.51 139.338 225.438 139.047 225.531 138.684C225.81 137.624 226.404 136.856 227.299 136.359C228.201 135.868 229.453 135.619 231.064 135.619H232.703C234.585 135.619 235.981 136.067 236.883 136.963C237.785 137.859 238.236 139.246 238.236 141.116V148.668C238.236 149.458 237.842 149.849 237.047 149.849C236.253 149.849 235.859 149.458 235.859 148.668V148.036C234.85 149.244 233.383 149.849 231.45 149.849H229.868L229.876 149.842ZM229.876 147.481H231.457C232.152 147.481 232.81 147.417 233.419 147.289C234.027 147.161 234.557 146.933 234.993 146.592C235.43 146.258 235.723 145.774 235.859 145.148V142.873H229.868C228.938 142.873 228.315 143.029 228.015 143.335C227.714 143.641 227.557 144.259 227.557 145.17C227.557 146.08 227.707 146.713 228.015 147.011C228.322 147.317 228.938 147.467 229.868 147.467L229.876 147.481Z" fill="white"/>
<path d="M106.48 176.609C105.034 176.609 103.968 176.268 103.274 175.578C102.579 174.888 102.236 173.829 102.236 172.392V164.641C102.236 164.377 102.3 164.178 102.436 164.05C102.572 163.922 102.765 163.851 103.03 163.851C103.295 163.851 103.496 163.915 103.624 164.05C103.753 164.185 103.825 164.377 103.825 164.641V172.392C103.825 173.06 103.904 173.587 104.068 173.971C104.233 174.355 104.505 174.625 104.884 174.781C105.271 174.945 105.8 175.023 106.473 175.023H108.742C109.415 175.023 109.944 174.945 110.331 174.781C110.717 174.625 110.989 174.348 111.147 173.971C111.312 173.587 111.39 173.06 111.39 172.392V164.641C111.39 164.377 111.455 164.178 111.591 164.05C111.727 163.922 111.92 163.851 112.185 163.851C112.45 163.851 112.65 163.915 112.779 164.05C112.908 164.185 112.979 164.377 112.979 164.641V172.392C112.979 173.829 112.636 174.888 111.949 175.578C111.261 176.268 110.188 176.609 108.742 176.609H106.473H106.48Z" fill="white"/>
<path d="M121.747 176.609C120.667 176.609 119.829 176.396 119.228 175.962C118.627 175.528 118.247 174.86 118.097 173.957C118.068 173.679 118.126 173.473 118.269 173.338C118.405 173.203 118.612 173.132 118.877 173.132C119.142 173.132 119.335 173.196 119.457 173.317C119.579 173.445 119.664 173.637 119.707 173.9C119.8 174.333 120.008 174.632 120.316 174.789C120.631 174.952 121.103 175.03 121.747 175.03H124.474C125.29 175.03 125.841 174.888 126.135 174.597C126.428 174.305 126.571 173.765 126.571 172.968C126.571 172.172 126.421 171.603 126.121 171.311C125.82 171.012 125.269 170.863 124.474 170.863H122.127C120.931 170.863 120.051 170.572 119.471 169.995C118.891 169.419 118.605 168.531 118.605 167.35C118.605 166.17 118.891 165.295 119.464 164.726C120.037 164.157 120.917 163.873 122.112 163.873H124.367C125.369 163.873 126.156 164.079 126.729 164.484C127.302 164.889 127.659 165.515 127.81 166.354C127.846 166.625 127.795 166.831 127.659 166.973C127.523 167.115 127.309 167.186 127.037 167.186C126.786 167.186 126.593 167.122 126.471 166.987C126.342 166.852 126.264 166.667 126.228 166.411C126.128 166.042 125.934 165.786 125.648 165.658C125.362 165.522 124.94 165.451 124.367 165.451H122.112C121.354 165.451 120.845 165.586 120.588 165.85C120.33 166.113 120.201 166.618 120.201 167.35C120.201 168.083 120.33 168.602 120.595 168.872C120.86 169.149 121.375 169.284 122.127 169.284H124.474C125.72 169.284 126.643 169.583 127.251 170.187C127.86 170.792 128.168 171.716 128.168 172.975C128.168 174.234 127.867 175.144 127.259 175.734C126.65 176.325 125.727 176.623 124.474 176.623H121.747V176.609Z" fill="white"/>
<path d="M134.43 176.609C133.901 176.609 133.636 176.346 133.636 175.82V164.648C133.636 164.122 133.901 163.858 134.43 163.858H141.23C141.76 163.858 142.024 164.122 142.024 164.648C142.024 165.174 141.76 165.437 141.23 165.437H135.225V169.384H138.99C139.519 169.384 139.784 169.647 139.784 170.173C139.784 170.7 139.519 170.963 138.99 170.963H135.225V175.023H141.23C141.76 175.023 142.024 175.286 142.024 175.813C142.024 176.339 141.76 176.602 141.23 176.602H134.43V176.609Z" fill="white"/>
<path d="M155.581 176.645C155.373 176.773 155.173 176.815 154.987 176.766C154.801 176.716 154.636 176.588 154.507 176.382L151.573 171.532H148.924V175.82C148.924 176.346 148.66 176.609 148.13 176.609C147.6 176.609 147.335 176.346 147.335 175.82V164.648C147.335 164.122 147.6 163.858 148.13 163.858H152.56C153.713 163.858 154.6 164.164 155.216 164.776C155.831 165.387 156.139 166.269 156.139 167.414V167.976C156.139 168.972 155.903 169.768 155.438 170.358C154.973 170.948 154.293 171.318 153.412 171.46L155.889 175.571C156.132 176.012 156.025 176.367 155.588 176.645H155.581ZM148.917 169.946H152.553C153.269 169.946 153.784 169.796 154.085 169.498C154.386 169.199 154.543 168.687 154.543 167.976V167.414C154.543 166.703 154.393 166.198 154.085 165.892C153.784 165.586 153.269 165.437 152.553 165.437H148.917V169.953V169.946Z" fill="white"/>
<path d="M172.68 176.609C171.234 176.609 170.168 176.268 169.473 175.578C168.779 174.888 168.436 173.829 168.436 172.392V168.068C168.436 166.618 168.779 165.551 169.466 164.868C170.153 164.178 171.22 163.844 172.658 163.858H174.949C176.137 163.858 177.039 164.1 177.669 164.591C178.299 165.082 178.656 165.842 178.757 166.888C178.792 167.151 178.742 167.35 178.606 167.492C178.47 167.627 178.263 167.699 177.998 167.699C177.518 167.699 177.239 167.435 177.168 166.909C177.103 166.333 176.903 165.942 176.566 165.743C176.23 165.544 175.693 165.444 174.956 165.444H172.666C172 165.444 171.47 165.515 171.091 165.672C170.712 165.828 170.44 166.098 170.275 166.482C170.11 166.866 170.032 167.4 170.032 168.075V172.399C170.032 173.068 170.11 173.594 170.275 173.978C170.432 174.362 170.712 174.632 171.091 174.789C171.477 174.952 172.007 175.03 172.68 175.03H174.956C175.543 175.03 176.001 174.966 176.33 174.838C176.66 174.71 176.896 174.483 177.025 174.156C177.161 173.829 177.225 173.366 177.225 172.776V171.894L175.751 171.873C175.221 171.873 174.956 171.61 174.956 171.084C174.956 170.557 175.221 170.294 175.751 170.294L178.027 170.316C178.556 170.316 178.821 170.579 178.821 171.105V172.776C178.821 174.113 178.506 175.087 177.883 175.699C177.261 176.31 176.287 176.616 174.956 176.616H172.68V176.609Z" fill="white"/>
<path d="M192.17 176.645C191.962 176.773 191.762 176.815 191.576 176.766C191.39 176.716 191.225 176.588 191.096 176.382L188.162 171.532H185.513V175.82C185.513 176.346 185.248 176.609 184.719 176.609C184.189 176.609 183.924 176.346 183.924 175.82V164.648C183.924 164.122 184.189 163.858 184.719 163.858H189.149C190.302 163.858 191.189 164.164 191.805 164.776C192.42 165.387 192.728 166.269 192.728 167.414V167.976C192.728 168.972 192.492 169.768 192.027 170.358C191.561 170.948 190.881 171.318 190.001 171.46L192.478 175.571C192.721 176.012 192.614 176.367 192.177 176.645H192.17ZM185.506 169.946H189.142C189.858 169.946 190.373 169.796 190.674 169.498C190.974 169.199 191.132 168.687 191.132 167.976V167.414C191.132 166.703 190.982 166.198 190.674 165.892C190.373 165.586 189.858 165.437 189.142 165.437H185.506V169.953V169.946Z" fill="white"/>
<path d="M201.525 176.609C200.079 176.609 199.012 176.268 198.318 175.578C197.624 174.888 197.28 173.829 197.28 172.392V168.047C197.28 166.596 197.631 165.537 198.325 164.854C199.02 164.171 200.086 163.837 201.525 163.851H203.801C205.254 163.851 206.32 164.193 207.007 164.875C207.694 165.558 208.038 166.625 208.038 168.061V172.385C208.038 173.821 207.694 174.881 207.007 175.571C206.32 176.261 205.247 176.602 203.801 176.602H201.525V176.609ZM201.525 175.03H203.801C204.474 175.03 205.003 174.952 205.39 174.789C205.776 174.632 206.048 174.355 206.206 173.978C206.37 173.594 206.449 173.068 206.449 172.399V168.075C206.449 167.414 206.37 166.888 206.206 166.504C206.041 166.12 205.769 165.85 205.39 165.686C205.003 165.522 204.474 165.444 203.801 165.444H201.525C200.859 165.444 200.329 165.515 199.943 165.672C199.556 165.828 199.284 166.098 199.12 166.482C198.955 166.867 198.876 167.393 198.876 168.061V172.406C198.876 173.075 198.955 173.601 199.12 173.985C199.277 174.369 199.556 174.639 199.936 174.796C200.322 174.959 200.852 175.038 201.525 175.038V175.03Z" fill="white"/>
<path d="M217.651 176.609C216.205 176.609 215.138 176.268 214.444 175.578C213.75 174.888 213.406 173.829 213.406 172.392V164.641C213.406 164.378 213.471 164.178 213.607 164.05C213.743 163.922 213.936 163.851 214.201 163.851C214.466 163.851 214.666 163.915 214.795 164.05C214.924 164.186 214.995 164.378 214.995 164.641V172.392C214.995 173.061 215.074 173.587 215.239 173.971C215.403 174.355 215.675 174.625 216.055 174.782C216.441 174.945 216.971 175.023 217.643 175.023H219.912C220.585 175.023 221.115 174.945 221.501 174.782C221.888 174.625 222.16 174.348 222.317 173.971C222.482 173.587 222.561 173.061 222.561 172.392V164.641C222.561 164.378 222.625 164.178 222.761 164.05C222.897 163.922 223.09 163.851 223.355 163.851C223.62 163.851 223.82 163.915 223.949 164.05C224.078 164.186 224.15 164.378 224.15 164.641V172.392C224.15 173.829 223.806 174.888 223.119 175.578C222.432 176.268 221.358 176.609 219.912 176.609H217.643H217.651Z" fill="white"/>
<path d="M230.226 176.609C229.696 176.609 229.432 176.346 229.432 175.82V164.648C229.432 164.122 229.696 163.858 230.226 163.858H234.657C235.809 163.858 236.696 164.164 237.312 164.776C237.928 165.387 238.235 166.269 238.235 167.414V167.976C238.235 169.121 237.928 170.003 237.312 170.614C236.696 171.226 235.809 171.532 234.657 171.532H231.021V175.82C231.021 176.346 230.756 176.609 230.226 176.609ZM231.021 169.953H234.657C235.372 169.953 235.888 169.804 236.188 169.505C236.489 169.206 236.646 168.694 236.646 167.983V167.421C236.646 166.71 236.496 166.205 236.188 165.899C235.888 165.594 235.372 165.444 234.657 165.444H231.021V169.96V169.953Z" fill="white"/>
<path d="M153.574 237.19C152.047 237.19 150.917 236.827 150.184 236.1C149.457 235.367 149.094 234.237 149.094 232.71V228.11C149.094 226.57 149.457 225.437 150.184 224.71C150.91 223.977 152.034 223.617 153.554 223.63H155.974C157.227 223.63 158.184 223.89 158.844 224.41C159.504 224.924 159.887 225.737 159.994 226.85C160.034 227.13 159.98 227.344 159.834 227.49C159.687 227.637 159.474 227.71 159.194 227.71C158.687 227.71 158.394 227.43 158.314 226.87C158.247 226.257 158.034 225.844 157.674 225.63C157.32 225.417 156.754 225.31 155.974 225.31H153.554C152.847 225.304 152.29 225.384 151.884 225.55C151.484 225.717 151.197 226.007 151.024 226.42C150.857 226.827 150.774 227.39 150.774 228.11V232.71C150.774 233.424 150.857 233.984 151.024 234.39C151.197 234.797 151.487 235.087 151.894 235.26C152.3 235.427 152.86 235.51 153.574 235.51H155.974C156.754 235.51 157.32 235.404 157.674 235.19C158.034 234.97 158.247 234.557 158.314 233.95C158.394 233.39 158.687 233.11 159.194 233.11C159.474 233.11 159.687 233.184 159.834 233.33C159.98 233.477 160.034 233.69 159.994 233.97C159.887 235.09 159.504 235.907 158.844 236.42C158.184 236.934 157.227 237.19 155.974 237.19H153.574ZM168.1 237.19C166.573 237.19 165.443 236.827 164.71 236.1C163.983 235.367 163.62 234.237 163.62 232.71V228.09C163.62 226.55 163.986 225.42 164.72 224.7C165.453 223.974 166.58 223.617 168.1 223.63H170.5C172.033 223.63 173.163 223.994 173.89 224.72C174.616 225.447 174.98 226.577 174.98 228.11V232.71C174.98 234.237 174.616 235.367 173.89 236.1C173.163 236.827 172.033 237.19 170.5 237.19H168.1ZM168.1 235.51H170.5C171.213 235.51 171.773 235.427 172.18 235.26C172.586 235.087 172.873 234.797 173.04 234.39C173.213 233.984 173.3 233.424 173.3 232.71V228.11C173.3 227.404 173.213 226.847 173.04 226.44C172.873 226.034 172.586 225.744 172.18 225.57C171.773 225.397 171.213 225.31 170.5 225.31H168.1C167.393 225.304 166.836 225.384 166.43 225.55C166.023 225.717 165.733 226.004 165.56 226.41C165.386 226.817 165.3 227.377 165.3 228.09V232.71C165.3 233.424 165.383 233.984 165.55 234.39C165.723 234.797 166.013 235.087 166.42 235.26C166.826 235.427 167.386 235.51 168.1 235.51ZM180.09 237.19C179.53 237.19 179.25 236.91 179.25 236.35V224.47C179.25 223.91 179.53 223.63 180.09 223.63C180.65 223.63 180.93 223.91 180.93 224.47V235.51H186.47C187.03 235.51 187.31 235.79 187.31 236.35C187.31 236.91 187.03 237.19 186.47 237.19H180.09ZM194.28 237.19C192.753 237.19 191.623 236.827 190.89 236.1C190.163 235.367 189.8 234.237 189.8 232.71V228.09C189.8 226.55 190.167 225.42 190.9 224.7C191.633 223.974 192.76 223.617 194.28 223.63H196.68C198.213 223.63 199.343 223.994 200.07 224.72C200.797 225.447 201.16 226.577 201.16 228.11V232.71C201.16 234.237 200.797 235.367 200.07 236.1C199.343 236.827 198.213 237.19 196.68 237.19H194.28ZM194.28 235.51H196.68C197.393 235.51 197.953 235.427 198.36 235.26C198.767 235.087 199.053 234.797 199.22 234.39C199.393 233.984 199.48 233.424 199.48 232.71V228.11C199.48 227.404 199.393 226.847 199.22 226.44C199.053 226.034 198.767 225.744 198.36 225.57C197.953 225.397 197.393 225.31 196.68 225.31H194.28C193.573 225.304 193.017 225.384 192.61 225.55C192.203 225.717 191.913 226.004 191.74 226.41C191.567 226.817 191.48 227.377 191.48 228.09V232.71C191.48 233.424 191.563 233.984 191.73 234.39C191.903 234.797 192.193 235.087 192.6 235.26C193.007 235.427 193.567 235.51 194.28 235.51ZM206.271 237.19C205.711 237.19 205.431 236.91 205.431 236.35V224.47C205.431 223.91 205.711 223.63 206.271 223.63C206.637 223.63 206.944 223.81 207.191 224.17L211.911 231.27L211.551 231.33L216.311 224.17C216.537 223.81 216.877 223.63 217.331 223.63C217.784 223.63 218.011 223.91 218.011 224.47V236.35C218.011 236.91 217.731 237.19 217.171 237.19C216.611 237.19 216.331 236.91 216.331 236.35V226.15L216.851 226.33L212.651 232.51C212.404 232.87 212.064 233.05 211.631 233.05C211.331 233.05 211.057 232.87 210.811 232.51L206.611 226.33L207.111 226.47V236.35C207.111 236.91 206.831 237.19 206.271 237.19ZM223.609 237.19C223.049 237.19 222.769 236.91 222.769 236.35V224.47C222.769 223.91 223.049 223.63 223.609 223.63H228.829C229.889 223.63 230.702 223.91 231.269 224.47C231.842 225.03 232.129 225.83 232.129 226.87V227.41C232.129 228.31 231.846 229.007 231.279 229.5C232.339 230.094 232.869 231.177 232.869 232.75V233.43C232.869 234.657 232.542 235.59 231.889 236.23C231.242 236.87 230.309 237.19 229.089 237.19H223.609ZM224.449 235.51H229.089C229.842 235.51 230.379 235.35 230.699 235.03C231.026 234.704 231.189 234.17 231.189 233.43V232.75C231.189 232.01 231.032 231.484 230.719 231.17C230.406 230.85 229.862 230.69 229.089 230.69H224.449V235.51ZM224.449 229.01H229.189C229.676 229.01 230.006 228.86 230.179 228.56C230.359 228.26 230.449 227.877 230.449 227.41V226.87C230.449 226.29 230.329 225.887 230.089 225.66C229.849 225.427 229.429 225.31 228.829 225.31H224.449V229.01ZM237.666 237.19C237.379 237.19 237.166 237.124 237.026 236.99C236.893 236.85 236.826 236.637 236.826 236.35V224.49C236.826 224.197 236.893 223.984 237.026 223.85C237.166 223.717 237.379 223.65 237.666 223.65C237.959 223.65 238.173 223.717 238.306 223.85C238.439 223.984 238.506 224.197 238.506 224.49V236.35C238.506 236.637 238.439 236.85 238.306 236.99C238.173 237.124 237.959 237.19 237.666 237.19ZM242.626 237.11C242.093 236.904 241.933 236.537 242.146 236.01L246.906 224.29C247.106 223.85 247.419 223.63 247.846 223.63H247.886C248.319 223.65 248.613 223.87 248.766 224.29L253.606 236.01C253.819 236.537 253.666 236.904 253.146 237.11C252.619 237.317 252.253 237.164 252.046 236.65L250.966 234.03H244.736L243.706 236.65C243.499 237.17 243.139 237.324 242.626 237.11ZM245.396 232.35H250.276L247.786 226.29L245.396 232.35Z" fill="white"/>
</g>
<defs>
<clipPath id="clip0_406_26">
<rect width="400" height="400" fill="white"/>
</clipPath>
<clipPath id="clip1_406_26">
<rect width="571" height="411.309" fill="white" transform="translate(-132 -10)"/>
</clipPath>
<clipPath id="clip2_406_26">
<rect width="257.674" height="163.164" fill="white" transform="translate(71 98.1868)"/>
</clipPath>
</defs>
</svg>
