<svg width="600" height="338" viewBox="0 0 600 338" fill="none" xmlns="http://www.w3.org/2000/svg">
<g clip-path="url(#clip0_108_1573)">
<rect width="600" height="338" fill="black"/>
<g clip-path="url(#clip1_108_1573)">
<path d="M144.148 325.079C142.606 325.079 141.105 324.323 140.206 322.924C116.818 286.443 103.735 244.335 102.367 201.154C102.285 198.57 104.307 196.415 106.891 196.333C109.475 196.252 111.63 198.274 111.712 200.858C113.029 242.353 125.601 282.817 148.08 317.879C149.469 320.054 148.846 322.944 146.671 324.343C145.884 324.844 145.016 325.079 144.148 325.079Z" fill="#FF0A1B"/>
<path d="M342.628 401.309C327.819 401.309 312.908 399.726 298.151 396.498C260.74 388.318 226.404 370.026 198.839 343.595C196.97 341.808 196.909 338.846 198.696 336.987C200.483 335.118 203.445 335.057 205.304 336.844C231.623 362.081 264.417 379.545 300.132 387.358C357.59 399.92 417.357 386.449 464.112 350.376C466.155 348.804 469.096 349.181 470.669 351.224C472.242 353.267 471.864 356.208 469.821 357.781C432.881 386.275 388.178 401.309 342.608 401.309H342.628Z" fill="#00BB4F"/>
<path d="M342.639 369.035C330.067 369.035 317.495 367.677 305.055 364.95C273.242 357.995 244.073 342.39 220.706 319.819C218.847 318.021 218.796 315.06 220.593 313.201C222.391 311.342 225.353 311.291 227.201 313.089C249.323 334.444 276.928 349.222 307.057 355.81C326.635 360.089 346.54 360.824 366.231 357.985C385.248 355.238 403.539 349.253 420.605 340.184C454.993 321.913 482.006 292.152 496.672 256.396C497.652 254.006 500.379 252.862 502.769 253.843C505.159 254.823 506.303 257.55 505.322 259.94C489.839 297.708 461.314 329.143 424.997 348.436C406.981 358.016 387.658 364.337 367.569 367.238C359.286 368.433 350.963 369.025 342.649 369.025L342.639 369.035Z" fill="#00B7E7"/>
<path d="M107.044 205.678C104.532 205.678 102.448 203.677 102.377 201.154C101.08 160.251 110.272 119.399 128.961 83.0097C148.223 45.487 177.228 13.5815 212.861 -9.26499C215.037 -10.6642 217.927 -10.031 219.326 -7.85559C220.715 -5.68022 220.092 -2.78993 217.917 -1.39075C183.683 20.557 155.791 51.2165 137.285 87.2685C119.32 122.258 110.486 161.527 111.732 200.848C111.814 203.431 109.792 205.586 107.208 205.668C107.157 205.668 107.106 205.668 107.054 205.668L107.044 205.678Z" fill="#00B7E7"/>
<path d="M202.087 344.902C200.923 344.902 199.759 344.473 198.85 343.605C173.552 319.349 154.607 288.874 144.067 255.477C133.19 221.028 131.546 184.108 139.288 148.69C139.839 146.167 142.331 144.574 144.854 145.125C147.376 145.677 148.98 148.169 148.428 150.691C141.034 184.507 142.607 219.772 152.993 252.658C163.063 284.564 181.161 313.681 205.325 336.844C207.194 338.631 207.255 341.593 205.468 343.452C204.549 344.412 203.323 344.892 202.087 344.892V344.902Z" fill="#FFB325"/>
<path d="M153.503 132.614C157.965 132.614 161.582 128.997 161.582 124.536C161.582 120.074 157.965 116.457 153.503 116.457C149.042 116.457 145.425 120.074 145.425 124.536C145.425 128.997 149.042 132.614 153.503 132.614Z" fill="#00B7E7"/>
<path d="M51.7513 168.074C57.6343 168.074 62.4035 163.305 62.4035 157.422C62.4035 151.539 57.6343 146.77 51.7513 146.77C45.8683 146.77 41.0991 151.539 41.0991 157.422C41.0991 163.305 45.8683 168.074 51.7513 168.074Z" fill="#FF0A1B"/>
<path d="M517.425 90.0468C523.308 90.0468 528.077 85.2777 528.077 79.3946C528.077 73.5116 523.308 68.7424 517.425 68.7424C511.542 68.7424 506.772 73.5116 506.772 79.3946C506.772 85.2777 511.542 90.0468 517.425 90.0468Z" fill="#FFB325"/>
<path d="M563.679 242.64C566.618 242.64 569 240.257 569 237.319C569 234.38 566.618 231.998 563.679 231.998C560.74 231.998 558.358 234.38 558.358 237.319C558.358 240.257 560.74 242.64 563.679 242.64Z" fill="#FFB325"/>
<path d="M435.863 -0.869629C435.863 26.2766 457.872 48.2857 485.018 48.2857C512.164 48.2857 534.173 26.2766 534.173 -0.869629H435.863Z" fill="#00BA4F"/>
<path d="M-2 293.919C25.1462 293.919 47.1553 315.929 47.1553 343.075H-2V293.919Z" fill="#00B7E7"/>
</g>
<g clip-path="url(#clip2_108_1573)">
<path d="M390.77 101V203.07C390.77 210.25 384.93 216.1 377.74 216.1H222.03C214.85 216.1 209 210.26 209 203.07V114.03C209 106.84 214.84 101 222.03 101H390.77Z" fill="#161616"/>
<path d="M222.03 103.8H387.97V171.09H211.8V114.03C211.8 108.39 216.39 103.8 222.03 103.8Z" fill="white"/>
<path d="M211.8 203.07V173.89H387.97V203.07C387.97 208.71 383.38 213.29 377.75 213.29H222.03C216.39 213.29 211.81 208.7 211.81 203.07H211.8Z" fill="white"/>
<path d="M337.51 126.23H363.56L339.49 150.3L337.51 148.32L356.79 129.04H337.51V126.23Z" fill="#FFB325"/>
<path d="M366.36 123.43H337.51V120.62H369.17L366.36 123.43Z" fill="#FF0A1B"/>
<path d="M368.35 125.41L371.15 122.61V154.27H368.35V125.41Z" fill="#00BB4F"/>
<path d="M365.54 154.27H362.74V134.98L343.45 154.27L341.47 152.28L365.54 128.21V154.27Z" fill="#00B7E7"/>
<path d="M233.17 134.91H235.61C237.17 134.91 238.31 134.54 239.05 133.8C239.79 133.06 240.16 131.91 240.16 130.37V125.7C240.16 124.14 239.79 123 239.05 122.26C238.31 121.52 237.17 121.15 235.61 121.15H233.17C231.63 121.14 230.48 121.5 229.74 122.23C229 122.96 228.62 124.11 228.62 125.68V130.37C228.62 131.92 228.99 133.06 229.73 133.8C230.47 134.54 231.62 134.91 233.16 134.91H233.17ZM233.17 133.21C232.45 133.21 231.88 133.12 231.47 132.95C231.06 132.78 230.77 132.49 230.59 132.07C230.42 131.66 230.33 131.09 230.33 130.37V125.68C230.33 124.96 230.42 124.39 230.59 123.98C230.77 123.57 231.06 123.28 231.47 123.11C231.88 122.94 232.45 122.86 233.16 122.87H235.6C236.32 122.87 236.89 122.96 237.3 123.13C237.71 123.31 238 123.6 238.18 124.01C238.35 124.42 238.44 124.99 238.44 125.7V130.37C238.44 131.09 238.35 131.66 238.18 132.07C238.01 132.48 237.71 132.77 237.3 132.95C236.89 133.12 236.32 133.21 235.6 133.21H233.16H233.17Z" fill="#161616"/>
<path d="M244.53 138.97C245.1 138.97 245.38 138.69 245.38 138.12V134.91H249.32C250.67 134.91 251.67 134.58 252.32 133.93C252.97 133.28 253.29 132.28 253.29 130.93V128.6C253.29 127.25 252.97 126.25 252.32 125.6C251.67 124.95 250.67 124.63 249.32 124.63H248.55C247.88 124.63 247.28 124.72 246.74 124.91C246.2 125.1 245.75 125.37 245.39 125.74V125.49C245.39 124.92 245.11 124.64 244.54 124.64C243.97 124.64 243.69 124.92 243.69 125.49V138.13C243.69 138.7 243.97 138.98 244.54 138.98L244.53 138.97ZM245.38 133.21V127.6C245.41 127.16 245.74 126.84 246.35 126.64C246.97 126.44 247.7 126.34 248.54 126.34H249.31C250.2 126.34 250.8 126.5 251.11 126.81C251.42 127.12 251.58 127.72 251.58 128.61V130.94C251.58 131.82 251.42 132.42 251.11 132.74C250.8 133.06 250.19 133.22 249.31 133.22H245.37L245.38 133.21Z" fill="#161616"/>
<path d="M258.05 130.46H265.11C265.68 130.46 265.96 130.18 265.96 129.61V128.6C265.96 127.24 265.64 126.24 264.99 125.59C264.34 124.94 263.34 124.62 261.99 124.62H260.33C258.98 124.61 257.98 124.92 257.33 125.57C256.68 126.22 256.35 127.23 256.35 128.6V130.95C256.35 132.29 256.68 133.28 257.33 133.93C257.98 134.58 258.98 134.9 260.33 134.9H261.99C263.14 134.9 264.04 134.69 264.69 134.28C265.34 133.87 265.74 133.24 265.89 132.4C265.94 132.12 265.89 131.9 265.75 131.75C265.6 131.6 265.38 131.53 265.1 131.53C264.82 131.53 264.63 131.6 264.5 131.73C264.37 131.87 264.27 132.06 264.19 132.32C264.08 132.64 263.86 132.87 263.53 133C263.2 133.13 262.69 133.19 262 133.19H260.34C259.46 133.19 258.86 133.03 258.54 132.72C258.22 132.41 258.06 131.81 258.06 130.94V130.45L258.05 130.46ZM260.32 126.32H261.98C262.87 126.32 263.47 126.48 263.78 126.79C264.09 127.1 264.25 127.7 264.25 128.59V128.75H258.04V128.59C258.04 127.7 258.2 127.09 258.52 126.77C258.84 126.45 259.44 126.3 260.32 126.31V126.32Z" fill="#161616"/>
<path d="M270.35 134.91C270.92 134.91 271.2 134.63 271.2 134.06V127.48C271.29 127.08 271.64 126.79 272.25 126.6C272.85 126.41 273.56 126.32 274.37 126.32H274.94C275.81 126.32 276.41 126.48 276.73 126.79C277.05 127.1 277.21 127.7 277.21 128.59V134.05C277.21 134.62 277.49 134.9 278.06 134.9C278.63 134.9 278.91 134.62 278.91 134.05V128.59C278.91 127.24 278.59 126.24 277.94 125.59C277.29 124.94 276.29 124.62 274.94 124.62H274.37C272.98 124.62 271.92 125.02 271.2 125.81V125.48C271.2 124.91 270.92 124.63 270.35 124.63C269.78 124.63 269.5 124.91 269.5 125.48V134.06C269.5 134.63 269.78 134.91 270.35 134.91Z" fill="#161616"/>
<path d="M283.58 134.91C283.88 134.91 284.09 134.84 284.23 134.7C284.37 134.56 284.43 134.35 284.43 134.06V122.03C284.43 121.73 284.36 121.52 284.23 121.38C284.09 121.24 283.88 121.18 283.58 121.18C283.28 121.18 283.07 121.25 282.94 121.38C282.8 121.52 282.73 121.73 282.73 122.03V134.06C282.73 134.35 282.8 134.57 282.94 134.7C283.08 134.83 283.29 134.91 283.58 134.91Z" fill="#161616"/>
<path d="M289.3 134.91C289.87 134.91 290.15 134.63 290.15 134.06V127.48C290.24 127.08 290.59 126.79 291.19 126.6C291.79 126.41 292.5 126.32 293.31 126.32H293.88C294.75 126.32 295.35 126.48 295.67 126.79C295.99 127.1 296.15 127.7 296.15 128.59V134.05C296.15 134.62 296.43 134.9 297 134.9C297.57 134.9 297.85 134.62 297.85 134.05V128.59C297.85 127.24 297.53 126.24 296.88 125.59C296.23 124.94 295.23 124.62 293.88 124.62H293.31C291.92 124.62 290.86 125.02 290.14 125.81V125.48C290.14 124.91 289.86 124.63 289.29 124.63C288.72 124.63 288.44 124.91 288.44 125.48V134.06C288.44 134.63 288.72 134.91 289.29 134.91H289.3Z" fill="#161616"/>
<path d="M302.92 134.91C303.49 134.91 303.77 134.63 303.77 134.06V126.33H305.86C306.43 126.33 306.71 126.05 306.71 125.48C306.71 124.91 306.43 124.63 305.86 124.63H303.77V124.55C303.77 123.68 303.93 123.1 304.24 122.79C304.55 122.49 305.13 122.33 305.99 122.33C306.48 122.33 306.72 122.05 306.72 121.48C306.72 120.91 306.48 120.63 305.99 120.63C304.66 120.63 303.68 120.95 303.04 121.59C302.4 122.23 302.08 123.22 302.08 124.55V124.63H301.33C300.76 124.63 300.48 124.91 300.48 125.48C300.48 126.05 300.76 126.33 301.33 126.33H302.08V134.06C302.08 134.63 302.36 134.91 302.93 134.91H302.92Z" fill="#161616"/>
<path d="M310.16 134.91C310.73 134.91 311.01 134.63 311.01 134.06V128.69C311.04 127.98 311.37 127.41 311.98 126.98C312.6 126.55 313.49 126.33 314.66 126.33C315.23 126.33 315.51 126.05 315.51 125.48C315.51 124.91 315.23 124.63 314.66 124.63C313.86 124.63 313.15 124.77 312.53 125.05C311.91 125.33 311.4 125.74 311 126.28V125.49C311 124.92 310.72 124.64 310.15 124.64C309.58 124.64 309.3 124.92 309.3 125.49V134.07C309.3 134.64 309.58 134.92 310.15 134.92L310.16 134.91Z" fill="#161616"/>
<path d="M320.33 134.91H321.47C322.86 134.91 323.91 134.47 324.64 133.6V134.06C324.64 134.63 324.92 134.91 325.49 134.91C326.06 134.91 326.34 134.63 326.34 134.06V128.6C326.34 127.25 326.02 126.25 325.37 125.6C324.72 124.95 323.72 124.63 322.37 124.63H321.19C320.03 124.63 319.13 124.81 318.49 125.16C317.84 125.51 317.42 126.07 317.22 126.84C317.15 127.1 317.2 127.32 317.36 127.47C317.52 127.62 317.75 127.71 318.03 127.71C318.29 127.71 318.48 127.66 318.61 127.55C318.74 127.44 318.86 127.25 318.99 126.96C319.13 126.72 319.36 126.56 319.69 126.47C320.02 126.38 320.53 126.33 321.2 126.33H322.38C323.18 126.33 323.75 126.46 324.08 126.72C324.41 126.98 324.6 127.47 324.64 128.18H320.35C319.21 128.18 318.36 128.46 317.81 129.01C317.26 129.57 316.98 130.41 316.98 131.55C316.98 132.69 317.26 133.53 317.81 134.09C318.36 134.65 319.21 134.92 320.35 134.92L320.33 134.91ZM320.33 133.21C319.66 133.21 319.22 133.1 319 132.88C318.78 132.66 318.67 132.22 318.67 131.55C318.67 130.88 318.78 130.44 319 130.22C319.22 130 319.66 129.89 320.33 129.89H324.63V131.53C324.53 131.98 324.32 132.33 324.01 132.58C323.7 132.83 323.32 132.99 322.88 133.08C322.44 133.17 321.97 133.22 321.47 133.22H320.33V133.21Z" fill="#161616"/>
<path d="M231.67 154.27H233.3C234.34 154.27 235.11 154.02 235.61 153.53C236.11 153.04 236.35 152.27 236.35 151.23V145.63C236.35 145.44 236.3 145.3 236.21 145.2C236.11 145.11 235.97 145.06 235.78 145.06C235.59 145.06 235.45 145.11 235.35 145.2C235.25 145.29 235.21 145.44 235.21 145.63V151.23C235.21 151.71 235.15 152.1 235.04 152.37C234.92 152.65 234.73 152.84 234.45 152.96C234.17 153.08 233.79 153.13 233.31 153.13H231.68C231.19 153.13 230.81 153.07 230.54 152.96C230.26 152.84 230.07 152.65 229.95 152.37C229.83 152.09 229.78 151.71 229.78 151.23V145.63C229.78 145.44 229.73 145.3 229.64 145.2C229.55 145.1 229.4 145.06 229.21 145.06C229.02 145.06 228.88 145.11 228.78 145.2C228.68 145.29 228.64 145.44 228.64 145.63V151.23C228.64 152.27 228.89 153.04 229.38 153.53C229.87 154.02 230.64 154.27 231.68 154.27H231.67Z" fill="#161616"/>
<path d="M242.64 154.27H244.6C245.5 154.27 246.16 154.06 246.6 153.63C247.04 153.2 247.25 152.54 247.25 151.63C247.25 150.72 247.03 150.05 246.59 149.62C246.15 149.19 245.49 148.97 244.59 148.97H242.9C242.36 148.97 241.99 148.87 241.8 148.67C241.61 148.47 241.51 148.1 241.51 147.57C241.51 147.04 241.6 146.68 241.79 146.49C241.98 146.3 242.34 146.2 242.89 146.2H244.51C244.92 146.2 245.22 146.25 245.43 146.35C245.63 146.45 245.77 146.63 245.84 146.9C245.87 147.08 245.93 147.22 246.02 147.31C246.11 147.4 246.25 147.45 246.43 147.45C246.63 147.45 246.78 147.4 246.88 147.3C246.98 147.2 247.02 147.05 246.99 146.85C246.88 146.24 246.62 145.79 246.21 145.5C245.8 145.21 245.23 145.06 244.51 145.06H242.89C242.03 145.06 241.4 145.27 240.99 145.68C240.58 146.09 240.37 146.73 240.37 147.58C240.37 148.43 240.58 149.08 240.99 149.5C241.4 149.92 242.04 150.13 242.9 150.13H244.59C245.16 150.13 245.56 150.24 245.77 150.45C245.99 150.67 246.1 151.07 246.1 151.65C246.1 152.23 245.99 152.62 245.78 152.83C245.57 153.04 245.17 153.15 244.59 153.15H242.63C242.17 153.15 241.82 153.09 241.6 152.98C241.38 152.86 241.23 152.65 241.16 152.34C241.13 152.15 241.07 152.01 240.98 151.92C240.89 151.83 240.75 151.78 240.56 151.78C240.37 151.78 240.22 151.83 240.12 151.93C240.02 152.03 239.98 152.18 240 152.38C240.11 153.03 240.38 153.52 240.81 153.83C241.24 154.14 241.85 154.3 242.62 154.3L242.64 154.27Z" fill="#161616"/>
<path d="M251.76 154.27H256.64C257.02 154.27 257.21 154.08 257.21 153.7C257.21 153.32 257.02 153.13 256.64 153.13H252.33V150.19H255.04C255.42 150.19 255.61 150 255.61 149.62C255.61 149.24 255.42 149.05 255.04 149.05H252.33V146.19H256.64C257.02 146.19 257.21 146 257.21 145.62C257.21 145.24 257.02 145.05 256.64 145.05H251.76C251.38 145.05 251.19 145.24 251.19 145.62V153.7C251.19 154.08 251.38 154.27 251.76 154.27Z" fill="#161616"/>
<path d="M266.95 154.29C267.27 154.09 267.34 153.83 267.17 153.51L265.39 150.54C266.02 150.44 266.51 150.17 266.85 149.74C267.19 149.31 267.35 148.74 267.35 148.02V147.61C267.35 146.78 267.13 146.14 266.69 145.7C266.25 145.26 265.61 145.04 264.78 145.04H261.6C261.22 145.04 261.03 145.23 261.03 145.61V153.69C261.03 154.07 261.22 154.26 261.6 154.26C261.98 154.26 262.17 154.07 262.17 153.69V150.59H264.07L266.18 154.1C266.27 154.25 266.39 154.34 266.53 154.38C266.67 154.42 266.81 154.38 266.96 154.29H266.95ZM262.16 149.45V146.18H264.77C265.29 146.18 265.65 146.29 265.87 146.51C266.09 146.73 266.2 147.1 266.2 147.61V148.02C266.2 148.54 266.09 148.9 265.87 149.12C265.65 149.34 265.29 149.45 264.77 149.45H262.16Z" fill="#161616"/>
<path d="M279.24 154.27H280.87C281.82 154.27 282.52 154.05 282.97 153.61C283.42 153.17 283.64 152.46 283.64 151.5V150.29C283.64 149.91 283.45 149.72 283.07 149.72H281.44C281.06 149.71 280.87 149.9 280.87 150.28C280.87 150.66 281.06 150.85 281.44 150.85H282.5V151.5C282.5 151.93 282.45 152.26 282.36 152.5C282.27 152.74 282.1 152.9 281.86 152.99C281.62 153.08 281.29 153.13 280.87 153.13H279.24C278.76 153.13 278.37 153.07 278.1 152.96C277.82 152.84 277.63 152.65 277.51 152.37C277.39 152.09 277.34 151.71 277.34 151.23V148.1C277.34 147.61 277.4 147.23 277.51 146.95C277.63 146.67 277.82 146.47 278.09 146.36C278.36 146.25 278.74 146.19 279.22 146.2H280.87C281.4 146.2 281.79 146.27 282.03 146.42C282.27 146.57 282.42 146.85 282.46 147.26C282.51 147.64 282.71 147.83 283.06 147.83C283.25 147.83 283.4 147.78 283.5 147.68C283.6 147.58 283.64 147.44 283.61 147.24C283.54 146.48 283.28 145.93 282.83 145.58C282.38 145.23 281.73 145.05 280.88 145.05H279.23C278.2 145.05 277.43 145.28 276.94 145.78C276.45 146.28 276.2 147.05 276.2 148.1V151.23C276.2 152.27 276.45 153.04 276.94 153.53C277.43 154.02 278.2 154.27 279.24 154.27Z" fill="#161616"/>
<path d="M293.24 154.29C293.56 154.09 293.63 153.83 293.46 153.51L291.68 150.54C292.31 150.44 292.8 150.17 293.14 149.74C293.48 149.31 293.64 148.74 293.64 148.02V147.61C293.64 146.78 293.42 146.14 292.98 145.7C292.54 145.26 291.9 145.04 291.07 145.04H287.89C287.51 145.04 287.32 145.23 287.32 145.61V153.69C287.32 154.07 287.51 154.26 287.89 154.26C288.27 154.26 288.46 154.07 288.46 153.69V150.59H290.36L292.47 154.1C292.56 154.25 292.68 154.34 292.82 154.38C292.96 154.42 293.1 154.38 293.25 154.29H293.24ZM288.45 149.45V146.18H291.06C291.58 146.18 291.94 146.29 292.16 146.51C292.38 146.73 292.49 147.1 292.49 147.61V148.02C292.49 148.54 292.38 148.9 292.16 149.12C291.94 149.34 291.58 149.45 291.06 149.45H288.45Z" fill="#161616"/>
<path d="M299.96 154.27H301.59C302.63 154.27 303.4 154.02 303.9 153.53C304.39 153.03 304.64 152.27 304.64 151.23V148.1C304.64 147.06 304.39 146.29 303.9 145.79C303.41 145.3 302.64 145.05 301.59 145.05H299.96C298.93 145.05 298.16 145.28 297.66 145.77C297.16 146.26 296.91 147.03 296.91 148.08V151.22C296.91 152.26 297.16 153.03 297.65 153.52C298.14 154.01 298.91 154.26 299.95 154.26L299.96 154.27ZM299.96 153.13C299.48 153.13 299.09 153.07 298.82 152.96C298.54 152.84 298.35 152.65 298.23 152.37C298.11 152.09 298.06 151.71 298.06 151.23V148.09C298.06 147.6 298.12 147.22 298.24 146.95C298.36 146.67 298.56 146.48 298.83 146.37C299.11 146.26 299.49 146.2 299.97 146.21H301.6C302.08 146.21 302.47 146.27 302.74 146.39C303.02 146.51 303.21 146.71 303.33 146.98C303.45 147.26 303.5 147.64 303.5 148.12V151.25C303.5 151.73 303.44 152.12 303.33 152.39C303.21 152.67 303.02 152.86 302.74 152.98C302.46 153.1 302.08 153.15 301.6 153.15H299.97L299.96 153.13Z" fill="#161616"/>
<path d="M311.55 154.27H313.18C314.22 154.27 314.99 154.02 315.49 153.53C315.99 153.04 316.23 152.27 316.23 151.23V145.63C316.23 145.44 316.18 145.3 316.09 145.2C315.99 145.11 315.85 145.06 315.66 145.06C315.47 145.06 315.33 145.11 315.23 145.2C315.13 145.29 315.09 145.44 315.09 145.63V151.23C315.09 151.71 315.03 152.1 314.92 152.37C314.8 152.65 314.61 152.84 314.33 152.96C314.05 153.08 313.67 153.13 313.19 153.13H311.56C311.07 153.13 310.69 153.07 310.42 152.96C310.14 152.84 309.95 152.65 309.83 152.37C309.71 152.09 309.66 151.71 309.66 151.23V145.63C309.66 145.44 309.61 145.3 309.52 145.2C309.43 145.1 309.28 145.06 309.09 145.06C308.9 145.06 308.76 145.11 308.66 145.2C308.56 145.29 308.52 145.44 308.52 145.63V151.23C308.52 152.27 308.77 153.04 309.26 153.53C309.75 154.02 310.52 154.27 311.56 154.27H311.55Z" fill="#161616"/>
<path d="M320.58 154.27C320.96 154.27 321.15 154.08 321.15 153.7V150.6H323.76C324.59 150.6 325.23 150.38 325.67 149.94C326.11 149.5 326.33 148.86 326.33 148.03V147.62C326.33 146.79 326.11 146.15 325.67 145.71C325.23 145.27 324.59 145.05 323.76 145.05H320.58C320.2 145.05 320.01 145.24 320.01 145.62V153.7C320.01 154.08 320.2 154.27 320.58 154.27ZM321.15 149.45V146.18H323.76C324.28 146.18 324.64 146.29 324.86 146.51C325.08 146.73 325.19 147.1 325.19 147.61V148.02C325.19 148.54 325.08 148.9 324.86 149.12C324.64 149.34 324.28 149.45 323.76 149.45H321.15Z" fill="#161616"/>
<path d="M274.82 197.79H270.21L269.33 200.42H266.53L271.28 187.65H273.72L278.5 200.42H275.7L274.81 197.79H274.82ZM270.92 195.66H274.11L272.5 190.88L270.91 195.66H270.92Z" fill="#161616"/>
<path d="M284.94 199.45C284.32 200.21 283.45 200.59 282.34 200.59C281.32 200.59 280.55 200.3 280.01 199.71C279.47 199.13 279.2 198.27 279.19 197.14V190.92H281.72V197.06C281.72 198.05 282.17 198.54 283.07 198.54C283.97 198.54 284.52 198.24 284.84 197.64V190.91H287.38V200.4H284.99L284.92 199.44L284.94 199.45Z" fill="#161616"/>
<path d="M288.76 195.6C288.76 194.14 289.11 192.97 289.8 192.08C290.49 191.19 291.43 190.75 292.6 190.75C293.64 190.75 294.45 191.11 295.03 191.82L295.14 190.93H297.44V200.1C297.44 200.93 297.25 201.65 296.87 202.27C296.49 202.88 295.96 203.35 295.28 203.67C294.6 203.99 293.79 204.15 292.88 204.15C292.18 204.15 291.51 204.01 290.85 203.73C290.19 203.45 289.69 203.09 289.35 202.66L290.47 201.12C291.1 201.83 291.87 202.18 292.77 202.18C293.44 202.18 293.97 202 294.34 201.64C294.71 201.28 294.9 200.77 294.9 200.11V199.6C294.32 200.26 293.55 200.59 292.59 200.59C291.45 200.59 290.53 200.14 289.82 199.25C289.11 198.36 288.76 197.18 288.76 195.7V195.59V195.6ZM291.29 195.78C291.29 196.64 291.46 197.32 291.81 197.81C292.15 198.3 292.63 198.55 293.23 198.55C294 198.55 294.55 198.26 294.89 197.68V193.67C294.55 193.09 294 192.8 293.25 192.8C292.64 192.8 292.16 193.05 291.82 193.55C291.48 194.05 291.3 194.8 291.3 195.79L291.29 195.78Z" fill="#161616"/>
<path d="M304.88 199.45C304.26 200.21 303.39 200.59 302.28 200.59C301.26 200.59 300.49 200.3 299.95 199.71C299.41 199.13 299.14 198.27 299.13 197.14V190.92H301.67V197.06C301.67 198.05 302.12 198.54 303.02 198.54C303.92 198.54 304.47 198.24 304.79 197.64V190.91H307.33V200.4H304.94L304.87 199.44L304.88 199.45Z" fill="#161616"/>
<path d="M314.21 197.79C314.21 197.48 314.06 197.24 313.75 197.06C313.44 196.88 312.95 196.72 312.27 196.58C310.01 196.11 308.88 195.15 308.88 193.7C308.88 192.86 309.23 192.16 309.93 191.59C310.63 191.03 311.54 190.74 312.67 190.74C313.87 190.74 314.84 191.02 315.56 191.59C316.28 192.16 316.64 192.89 316.64 193.8H314.11C314.11 193.44 313.99 193.14 313.76 192.9C313.53 192.66 313.16 192.55 312.66 192.55C312.23 192.55 311.9 192.65 311.67 192.84C311.44 193.03 311.32 193.28 311.32 193.58C311.32 193.86 311.45 194.09 311.72 194.26C311.99 194.43 312.43 194.58 313.07 194.71C313.71 194.84 314.23 194.98 314.67 195.14C316.01 195.63 316.68 196.48 316.68 197.69C316.68 198.56 316.31 199.26 315.57 199.79C314.83 200.33 313.87 200.59 312.69 200.59C311.89 200.59 311.19 200.45 310.57 200.16C309.95 199.88 309.47 199.49 309.12 198.99C308.77 198.5 308.59 197.96 308.59 197.39H310.99C311.01 197.84 311.18 198.18 311.49 198.43C311.8 198.67 312.21 198.79 312.74 198.79C313.23 198.79 313.59 198.7 313.84 198.51C314.09 198.33 314.21 198.08 314.21 197.79Z" fill="#161616"/>
<path d="M321.16 188.6V190.93H322.78V192.79H321.16V197.53C321.16 197.88 321.23 198.13 321.36 198.28C321.49 198.43 321.75 198.51 322.13 198.51C322.41 198.51 322.66 198.49 322.88 198.45V200.37C322.38 200.52 321.87 200.6 321.34 200.6C319.56 200.6 318.66 199.7 318.62 197.91V192.8H317.23V190.94H318.62V188.61H321.15L321.16 188.6Z" fill="#161616"/>
<path d="M329.51 200.42C329.39 200.19 329.31 199.91 329.26 199.57C328.65 200.25 327.85 200.6 326.87 200.6C325.94 200.6 325.17 200.33 324.56 199.79C323.95 199.25 323.64 198.57 323.64 197.75C323.64 196.74 324.01 195.97 324.76 195.43C325.51 194.89 326.58 194.62 327.99 194.61H329.16V194.07C329.16 193.63 329.05 193.28 328.82 193.02C328.59 192.76 328.24 192.62 327.75 192.62C327.32 192.62 326.99 192.72 326.75 192.93C326.51 193.13 326.39 193.42 326.39 193.77H323.86C323.86 193.22 324.03 192.71 324.37 192.24C324.71 191.77 325.19 191.41 325.81 191.14C326.43 190.87 327.13 190.74 327.9 190.74C329.07 190.74 330 191.03 330.69 191.62C331.38 192.21 331.72 193.03 331.72 194.1V198.21C331.72 199.11 331.85 199.79 332.1 200.25V200.4H329.54L329.51 200.42ZM327.41 198.66C327.79 198.66 328.13 198.58 328.45 198.41C328.77 198.24 329 198.02 329.15 197.74V196.11H328.2C326.93 196.11 326.26 196.55 326.17 197.43V197.58C326.17 197.9 326.27 198.16 326.49 198.36C326.71 198.56 327.02 198.67 327.4 198.67L327.41 198.66Z" fill="#161616"/>
</g>
<path d="M238.843 237C238.493 237 238.318 236.825 238.318 236.475V229.044C238.318 228.693 238.493 228.518 238.843 228.518H242.108C242.771 228.518 243.28 228.693 243.634 229.044C243.993 229.394 244.172 229.894 244.172 230.545V230.883C244.172 231.446 243.995 231.881 243.641 232.19C244.304 232.561 244.635 233.239 244.635 234.223V234.648C244.635 235.415 244.431 235.999 244.022 236.4C243.618 236.8 243.034 237 242.271 237H238.843ZM239.369 235.949H242.271C242.742 235.949 243.078 235.849 243.278 235.649C243.482 235.445 243.584 235.111 243.584 234.648V234.223C243.584 233.76 243.486 233.43 243.29 233.234C243.094 233.034 242.755 232.934 242.271 232.934H239.369V235.949ZM239.369 231.883H242.333C242.638 231.883 242.844 231.79 242.953 231.602C243.065 231.414 243.122 231.175 243.122 230.883V230.545C243.122 230.182 243.046 229.93 242.896 229.788C242.746 229.642 242.484 229.569 242.108 229.569H239.369V231.883ZM249.612 237C248.657 237 247.951 236.773 247.492 236.318C247.037 235.86 246.81 235.153 246.81 234.198V231.308C246.81 230.345 247.039 229.638 247.498 229.188C247.957 228.733 248.662 228.51 249.612 228.518H251.114C252.073 228.518 252.779 228.745 253.234 229.2C253.689 229.655 253.916 230.361 253.916 231.32V234.198C253.916 235.153 253.689 235.86 253.234 236.318C252.779 236.773 252.073 237 251.114 237H249.612ZM249.612 235.949H251.114C251.56 235.949 251.91 235.897 252.164 235.793C252.419 235.684 252.598 235.503 252.702 235.249C252.811 234.994 252.865 234.644 252.865 234.198V231.32C252.865 230.878 252.811 230.53 252.702 230.276C252.598 230.022 252.419 229.84 252.164 229.732C251.91 229.623 251.56 229.569 251.114 229.569H249.612C249.17 229.565 248.822 229.615 248.568 229.719C248.313 229.823 248.132 230.003 248.024 230.257C247.915 230.511 247.861 230.862 247.861 231.308V234.198C247.861 234.644 247.913 234.994 248.017 235.249C248.126 235.503 248.307 235.684 248.562 235.793C248.816 235.897 249.166 235.949 249.612 235.949ZM259.089 237C258.134 237 257.427 236.773 256.969 236.318C256.514 235.86 256.287 235.153 256.287 234.198V231.32C256.287 230.357 256.514 229.648 256.969 229.194C257.423 228.735 258.126 228.51 259.077 228.518H260.59C261.374 228.518 261.973 228.681 262.386 229.006C262.798 229.327 263.038 229.836 263.105 230.532C263.13 230.707 263.097 230.841 263.005 230.933C262.913 231.024 262.78 231.07 262.604 231.07C262.288 231.07 262.104 230.895 262.054 230.545C262.012 230.161 261.879 229.903 261.654 229.769C261.433 229.636 261.078 229.569 260.59 229.569H259.077C258.635 229.565 258.286 229.615 258.032 229.719C257.782 229.823 257.603 230.005 257.494 230.263C257.39 230.518 257.338 230.87 257.338 231.32V234.198C257.338 234.644 257.39 234.994 257.494 235.249C257.603 235.503 257.784 235.684 258.038 235.793C258.293 235.897 258.643 235.949 259.089 235.949H260.59C260.978 235.949 261.28 235.907 261.497 235.824C261.718 235.736 261.873 235.584 261.96 235.367C262.048 235.151 262.092 234.844 262.092 234.448V233.86L261.116 233.847C260.766 233.847 260.59 233.672 260.59 233.322C260.59 232.972 260.766 232.797 261.116 232.797L262.617 232.809C262.967 232.809 263.142 232.984 263.142 233.335V234.448C263.142 235.336 262.936 235.985 262.523 236.393C262.11 236.798 261.466 237 260.59 237H259.089ZM268.199 237C267.245 237 266.538 236.773 266.079 236.318C265.624 235.86 265.397 235.153 265.397 234.198V231.308C265.397 230.345 265.627 229.638 266.085 229.188C266.544 228.733 267.249 228.51 268.199 228.518H269.701C270.66 228.518 271.367 228.745 271.821 229.2C272.276 229.655 272.503 230.361 272.503 231.32V234.198C272.503 235.153 272.276 235.86 271.821 236.318C271.367 236.773 270.66 237 269.701 237H268.199ZM268.199 235.949H269.701C270.147 235.949 270.497 235.897 270.752 235.793C271.006 235.684 271.185 235.503 271.289 235.249C271.398 234.994 271.452 234.644 271.452 234.198V231.32C271.452 230.878 271.398 230.53 271.289 230.276C271.185 230.022 271.006 229.84 270.752 229.732C270.497 229.623 270.147 229.569 269.701 229.569H268.199C267.757 229.565 267.409 229.615 267.155 229.719C266.901 229.823 266.719 230.003 266.611 230.257C266.502 230.511 266.448 230.862 266.448 231.308V234.198C266.448 234.644 266.5 234.994 266.604 235.249C266.713 235.503 266.894 235.684 267.149 235.793C267.403 235.897 267.753 235.949 268.199 235.949ZM277.213 237C277.038 237 276.906 236.956 276.819 236.869C276.731 236.781 276.688 236.65 276.688 236.475V229.582H274.261C274.085 229.582 273.954 229.538 273.867 229.45C273.779 229.363 273.735 229.231 273.735 229.056C273.735 228.881 273.779 228.75 273.867 228.662C273.954 228.575 274.085 228.531 274.261 228.531H280.165C280.34 228.531 280.472 228.575 280.559 228.662C280.647 228.75 280.691 228.881 280.691 229.056C280.691 229.231 280.647 229.363 280.559 229.45C280.472 229.538 280.34 229.582 280.165 229.582H277.738V236.475C277.738 236.641 277.692 236.771 277.601 236.862C277.513 236.954 277.384 237 277.213 237ZM281.331 236.95C280.997 236.821 280.897 236.591 281.031 236.262L284.008 228.931C284.133 228.656 284.329 228.518 284.596 228.518H284.621C284.892 228.531 285.076 228.668 285.172 228.931L288.199 236.262C288.332 236.591 288.236 236.821 287.911 236.95C287.582 237.079 287.352 236.983 287.223 236.662L286.548 235.023H282.651L282.007 236.662C281.877 236.987 281.652 237.083 281.331 236.95ZM283.064 233.973H286.116L284.559 230.182L283.064 233.973ZM290.126 238.589C289.976 238.589 289.859 238.551 289.775 238.476C289.696 238.401 289.667 238.293 289.688 238.151L290.038 236.156C290.051 235.851 290.217 235.699 290.539 235.699H290.839C291.156 235.699 291.314 235.862 291.314 236.187V236.5C291.314 236.57 291.302 236.641 291.277 236.712C291.256 236.779 291.229 236.846 291.195 236.912L290.539 238.314C290.438 238.497 290.301 238.589 290.126 238.589ZM300.85 237C299.895 237 299.188 236.773 298.73 236.318C298.275 235.86 298.048 235.153 298.048 234.198V231.32C298.048 230.357 298.275 229.648 298.73 229.194C299.184 228.735 299.887 228.51 300.838 228.518H302.351C303.135 228.518 303.734 228.681 304.146 229.006C304.559 229.327 304.799 229.836 304.866 230.532C304.891 230.707 304.857 230.841 304.766 230.933C304.674 231.024 304.541 231.07 304.365 231.07C304.048 231.07 303.865 230.895 303.815 230.545C303.773 230.161 303.64 229.903 303.415 229.769C303.194 229.636 302.839 229.569 302.351 229.569H300.838C300.396 229.565 300.047 229.615 299.793 229.719C299.543 229.823 299.363 230.005 299.255 230.263C299.151 230.518 299.099 230.87 299.099 231.32V234.198C299.099 234.644 299.151 234.994 299.255 235.249C299.363 235.503 299.545 235.684 299.799 235.793C300.054 235.897 300.404 235.949 300.85 235.949H302.351C302.839 235.949 303.194 235.882 303.415 235.749C303.64 235.611 303.773 235.353 303.815 234.973C303.865 234.623 304.048 234.448 304.365 234.448C304.541 234.448 304.674 234.494 304.766 234.586C304.857 234.677 304.891 234.811 304.866 234.986C304.799 235.686 304.559 236.197 304.146 236.518C303.734 236.839 303.135 237 302.351 237H300.85ZM309.936 237C308.981 237 308.274 236.773 307.816 236.318C307.361 235.86 307.134 235.153 307.134 234.198V231.308C307.134 230.345 307.363 229.638 307.822 229.188C308.28 228.733 308.985 228.51 309.936 228.518H311.437C312.396 228.518 313.103 228.745 313.558 229.2C314.012 229.655 314.239 230.361 314.239 231.32V234.198C314.239 235.153 314.012 235.86 313.558 236.318C313.103 236.773 312.396 237 311.437 237H309.936ZM309.936 235.949H311.437C311.883 235.949 312.234 235.897 312.488 235.793C312.742 235.684 312.922 235.503 313.026 235.249C313.134 234.994 313.189 234.644 313.189 234.198V231.32C313.189 230.878 313.134 230.53 313.026 230.276C312.922 230.022 312.742 229.84 312.488 229.732C312.234 229.623 311.883 229.569 311.437 229.569H309.936C309.494 229.565 309.146 229.615 308.891 229.719C308.637 229.823 308.456 230.003 308.347 230.257C308.239 230.511 308.185 230.862 308.185 231.308V234.198C308.185 234.644 308.237 234.994 308.341 235.249C308.449 235.503 308.631 235.684 308.885 235.793C309.139 235.897 309.49 235.949 309.936 235.949ZM317.436 237C317.086 237 316.911 236.825 316.911 236.475V229.044C316.911 228.693 317.086 228.518 317.436 228.518C317.786 228.518 317.962 228.693 317.962 229.044V235.949H321.427C321.777 235.949 321.952 236.124 321.952 236.475C321.952 236.825 321.777 237 321.427 237H317.436ZM326.312 237C325.357 237 324.65 236.773 324.191 236.318C323.737 235.86 323.51 235.153 323.51 234.198V231.308C323.51 230.345 323.739 229.638 324.198 229.188C324.656 228.733 325.361 228.51 326.312 228.518H327.813C328.772 228.518 329.479 228.745 329.933 229.2C330.388 229.655 330.615 230.361 330.615 231.32V234.198C330.615 235.153 330.388 235.86 329.933 236.318C329.479 236.773 328.772 237 327.813 237H326.312ZM326.312 235.949H327.813C328.259 235.949 328.61 235.897 328.864 235.793C329.118 235.684 329.298 235.503 329.402 235.249C329.51 234.994 329.564 234.644 329.564 234.198V231.32C329.564 230.878 329.51 230.53 329.402 230.276C329.298 230.022 329.118 229.84 328.864 229.732C328.61 229.623 328.259 229.569 327.813 229.569H326.312C325.87 229.565 325.522 229.615 325.267 229.719C325.013 229.823 324.831 230.003 324.723 230.257C324.615 230.511 324.56 230.862 324.56 231.308V234.198C324.56 234.644 324.613 234.994 324.717 235.249C324.825 235.503 325.007 235.684 325.261 235.793C325.515 235.897 325.866 235.949 326.312 235.949ZM333.812 237C333.462 237 333.287 236.825 333.287 236.475V229.044C333.287 228.693 333.462 228.518 333.812 228.518C334.041 228.518 334.233 228.631 334.388 228.856L337.34 233.297L337.115 233.335L340.092 228.856C340.234 228.631 340.447 228.518 340.73 228.518C341.014 228.518 341.155 228.693 341.155 229.044V236.475C341.155 236.825 340.98 237 340.63 237C340.28 237 340.105 236.825 340.105 236.475V230.094L340.43 230.207L337.803 234.073C337.648 234.298 337.436 234.41 337.165 234.41C336.977 234.41 336.806 234.298 336.652 234.073L334.025 230.207L334.338 230.295V236.475C334.338 236.825 334.162 237 333.812 237ZM344.657 237C344.307 237 344.132 236.825 344.132 236.475V229.044C344.132 228.693 344.307 228.518 344.657 228.518H347.922C348.585 228.518 349.094 228.693 349.449 229.044C349.807 229.394 349.986 229.894 349.986 230.545V230.883C349.986 231.446 349.809 231.881 349.455 232.19C350.118 232.561 350.449 233.239 350.449 234.223V234.648C350.449 235.415 350.245 235.999 349.836 236.4C349.432 236.8 348.848 237 348.085 237H344.657ZM345.183 235.949H348.085C348.556 235.949 348.892 235.849 349.092 235.649C349.296 235.445 349.398 235.111 349.398 234.648V234.223C349.398 233.76 349.3 233.43 349.104 233.234C348.908 233.034 348.569 232.934 348.085 232.934H345.183V235.949ZM345.183 231.883H348.147C348.452 231.883 348.658 231.79 348.767 231.602C348.879 231.414 348.936 231.175 348.936 230.883V230.545C348.936 230.182 348.861 229.93 348.71 229.788C348.56 229.642 348.298 229.569 347.922 229.569H345.183V231.883ZM353.45 237C353.271 237 353.137 236.958 353.05 236.875C352.966 236.787 352.924 236.654 352.924 236.475V229.056C352.924 228.873 352.966 228.739 353.05 228.656C353.137 228.572 353.271 228.531 353.45 228.531C353.633 228.531 353.767 228.572 353.85 228.656C353.934 228.739 353.975 228.873 353.975 229.056V236.475C353.975 236.654 353.934 236.787 353.85 236.875C353.767 236.958 353.633 237 353.45 237ZM356.552 236.95C356.219 236.821 356.119 236.591 356.252 236.262L359.229 228.931C359.354 228.656 359.55 228.518 359.817 228.518H359.842C360.113 228.531 360.297 228.668 360.393 228.931L363.42 236.262C363.554 236.591 363.458 236.821 363.132 236.95C362.803 237.079 362.574 236.983 362.444 236.662L361.769 235.023H357.872L357.228 236.662C357.098 236.987 356.873 237.083 356.552 236.95ZM358.285 233.973H361.337L359.78 230.182L358.285 233.973Z" fill="#FFB325"/>
<path d="M390.233 104.359H224.557C217.508 104.359 211.768 110.063 211.768 117.066V203.928C211.768 210.937 217.503 216.635 224.557 216.635H377.443C384.497 216.635 390.233 210.937 390.233 203.928V104.359Z" fill="white"/>
<path d="M224.557 107.098C219.023 107.098 214.52 111.573 214.52 117.071V172.735H387.481V107.098H224.557Z" fill="black"/>
<path d="M214.535 203.703C214.535 209.201 219.038 213.676 224.572 213.676H377.459C382.992 213.676 387.496 209.201 387.496 203.703V175.239H214.535V203.703Z" fill="black"/>
<path d="M337.935 128.976V131.71H356.869L337.935 150.522L339.884 152.453L363.513 128.976H337.935Z" fill="#F7B749"/>
<path d="M366.27 126.242L369.022 123.503H337.935V126.242H366.27Z" fill="#ED362F"/>
<path d="M368.214 128.173V156.321H370.966V125.439L368.214 128.173Z" fill="#43B85C"/>
<path d="M365.462 156.321V130.907L341.828 154.39L343.777 156.321L362.711 137.509V156.321H365.462Z" fill="#2CB4E2"/>
<path d="M235.499 137.439C233.979 137.439 232.853 137.078 232.126 136.355C231.399 135.633 231.035 134.514 231.035 133.004V128.429C231.035 126.904 231.399 125.785 232.131 125.068C232.863 124.35 233.984 123.999 235.499 124.014H237.887C239.417 124.014 240.543 124.376 241.265 125.093C241.987 125.81 242.35 126.929 242.35 128.449V133.004C242.35 134.514 241.987 135.633 241.265 136.355C240.543 137.078 239.417 137.439 237.887 137.439H235.499ZM235.499 135.773H237.887C238.599 135.773 239.154 135.688 239.563 135.522C239.967 135.352 240.255 135.071 240.426 134.665C240.598 134.263 240.679 133.706 240.679 132.999V128.444C240.679 127.747 240.593 127.195 240.426 126.794C240.255 126.392 239.967 126.106 239.563 125.931C239.159 125.76 238.599 125.675 237.887 125.675H235.499C234.797 125.67 234.241 125.75 233.832 125.911C233.423 126.071 233.141 126.357 232.964 126.763C232.792 127.165 232.706 127.722 232.706 128.429V133.004C232.706 133.711 232.792 134.263 232.959 134.67C233.131 135.071 233.418 135.357 233.822 135.527C234.226 135.698 234.787 135.778 235.499 135.778V135.773Z" fill="white"/>
<path d="M246.657 141.397C246.097 141.397 245.819 141.121 245.819 140.564V128.233C245.819 127.676 246.097 127.4 246.657 127.4C247.217 127.4 247.495 127.676 247.495 128.233V128.479C247.854 128.123 248.298 127.852 248.823 127.671C249.353 127.491 249.944 127.4 250.6 127.4H251.358C252.686 127.4 253.67 127.716 254.306 128.349C254.943 128.981 255.261 129.959 255.261 131.278V133.556C255.261 134.87 254.943 135.843 254.306 136.48C253.67 137.117 252.686 137.434 251.358 137.434H247.49V140.564C247.49 141.121 247.212 141.397 246.652 141.397H246.657ZM247.495 135.773H251.363C252.231 135.773 252.822 135.618 253.13 135.307C253.438 134.995 253.594 134.414 253.594 133.556V131.278C253.594 130.415 253.443 129.828 253.13 129.522C252.822 129.216 252.231 129.061 251.363 129.061H250.605C249.772 129.061 249.055 129.161 248.454 129.357C247.849 129.553 247.53 129.869 247.5 130.295V135.768L247.495 135.773Z" fill="white"/>
<path d="M259.926 133.104V133.581C259.926 134.434 260.082 135.011 260.396 135.317C260.709 135.623 261.294 135.778 262.158 135.778H263.794C264.47 135.778 264.97 135.718 265.298 135.592C265.621 135.467 265.838 135.246 265.944 134.93C266.015 134.679 266.121 134.489 266.247 134.358C266.379 134.228 266.576 134.158 266.838 134.158C267.101 134.158 267.328 134.233 267.474 134.373C267.621 134.519 267.666 134.73 267.611 135.006C267.464 135.823 267.075 136.435 266.434 136.837C265.798 137.238 264.914 137.439 263.783 137.439H262.148C260.825 137.439 259.845 137.123 259.204 136.49C258.563 135.858 258.245 134.885 258.245 133.581V131.283C258.245 129.944 258.563 128.961 259.204 128.328C259.845 127.696 260.825 127.39 262.148 127.4H263.783C265.111 127.4 266.096 127.716 266.732 128.344C267.368 128.976 267.686 129.954 267.686 131.278V132.266C267.686 132.823 267.409 133.099 266.848 133.099H259.916L259.926 133.104ZM262.158 129.066C261.294 129.051 260.709 129.201 260.396 129.512C260.082 129.823 259.926 130.415 259.926 131.283V131.444H266.025V131.283C266.025 130.42 265.869 129.833 265.561 129.527C265.253 129.221 264.662 129.066 263.794 129.066H262.158Z" fill="white"/>
<path d="M271.998 137.439C271.443 137.439 271.16 137.163 271.16 136.606V128.233C271.16 127.676 271.438 127.4 271.998 127.4C272.559 127.4 272.836 127.676 272.836 128.233V128.559C273.538 127.787 274.578 127.4 275.947 127.4H276.502C277.83 127.4 278.815 127.716 279.451 128.349C280.087 128.981 280.405 129.959 280.405 131.278V136.606C280.405 137.163 280.127 137.439 279.567 137.439C279.006 137.439 278.729 137.163 278.729 136.606V131.278C278.729 130.415 278.572 129.828 278.254 129.522C277.936 129.216 277.35 129.061 276.497 129.061H275.942C275.144 129.061 274.452 129.151 273.861 129.332C273.271 129.512 272.927 129.798 272.836 130.19V136.606C272.836 137.163 272.559 137.439 271.998 137.439Z" fill="white"/>
<path d="M284.99 137.439C284.707 137.439 284.495 137.373 284.359 137.238C284.222 137.103 284.157 136.892 284.157 136.611V124.872C284.157 124.581 284.227 124.371 284.359 124.24C284.495 124.11 284.707 124.044 284.99 124.044C285.273 124.044 285.495 124.11 285.626 124.24C285.757 124.371 285.823 124.581 285.823 124.872V136.611C285.823 136.897 285.757 137.103 285.626 137.238C285.495 137.373 285.283 137.439 284.99 137.439Z" fill="white"/>
<path d="M290.609 137.439C290.049 137.439 289.771 137.163 289.771 136.606V128.233C289.771 127.676 290.049 127.4 290.609 127.4C291.17 127.4 291.447 127.676 291.447 128.233V128.559C292.149 127.787 293.189 127.4 294.558 127.4H295.113C296.441 127.4 297.425 127.716 298.062 128.349C298.698 128.981 299.016 129.959 299.016 131.278V136.606C299.016 137.163 298.738 137.439 298.178 137.439C297.617 137.439 297.34 137.163 297.34 136.606V131.278C297.34 130.415 297.183 129.828 296.865 129.522C296.552 129.216 295.966 129.061 295.108 129.061H294.552C293.755 129.061 293.063 129.151 292.472 129.332C291.882 129.512 291.538 129.798 291.447 130.19V136.606C291.447 137.163 291.17 137.439 290.609 137.439Z" fill="white"/>
<path d="M303.979 137.439C303.424 137.439 303.141 137.163 303.141 136.606V129.061H302.404C301.849 129.061 301.566 128.785 301.566 128.228C301.566 127.671 301.844 127.395 302.404 127.395H303.141V127.315C303.141 126.016 303.454 125.053 304.085 124.431C304.717 123.809 305.681 123.498 306.984 123.498C307.463 123.498 307.701 123.773 307.701 124.33C307.701 124.887 307.463 125.163 306.984 125.163C306.145 125.163 305.575 125.314 305.272 125.61C304.964 125.906 304.812 126.477 304.812 127.32V127.4H306.867C307.423 127.4 307.706 127.676 307.706 128.233C307.706 128.79 307.428 129.066 306.867 129.066H304.812V136.611C304.812 137.168 304.535 137.444 303.974 137.444L303.979 137.439Z" fill="white"/>
<path d="M311.094 137.439C310.533 137.439 310.255 137.163 310.255 136.606V128.233C310.255 127.676 310.533 127.4 311.094 127.4C311.654 127.4 311.932 127.676 311.932 128.233V129.006C312.325 128.479 312.82 128.078 313.431 127.807C314.037 127.536 314.734 127.4 315.517 127.4C316.072 127.4 316.355 127.676 316.355 128.233C316.355 128.79 316.077 129.066 315.517 129.066C314.365 129.066 313.492 129.277 312.886 129.698C312.28 130.119 311.962 130.676 311.932 131.369V136.606C311.932 137.163 311.654 137.439 311.094 137.439Z" fill="white"/>
<path d="M321.076 137.439C319.96 137.439 319.127 137.168 318.587 136.626C318.046 136.084 317.769 135.261 317.769 134.153C317.769 133.044 318.041 132.221 318.581 131.68C319.122 131.138 319.955 130.867 321.076 130.867H325.292C325.251 130.175 325.07 129.703 324.741 129.447C324.418 129.191 323.858 129.066 323.07 129.066H321.914C321.247 129.066 320.753 129.111 320.429 129.201C320.101 129.292 319.874 129.452 319.743 129.683C319.622 129.959 319.5 130.15 319.374 130.255C319.248 130.36 319.061 130.415 318.809 130.415C318.531 130.415 318.309 130.34 318.152 130.185C317.996 130.029 317.945 129.824 318.011 129.568C318.208 128.82 318.627 128.278 319.258 127.927C319.894 127.581 320.778 127.406 321.914 127.406H323.07C324.398 127.406 325.383 127.722 326.019 128.354C326.655 128.986 326.973 129.964 326.973 131.283V136.611C326.973 137.168 326.695 137.444 326.135 137.444C325.574 137.444 325.297 137.168 325.297 136.611V136.164C324.585 137.017 323.55 137.444 322.187 137.444H321.071L321.076 137.439ZM321.076 135.773H322.192C322.681 135.773 323.146 135.728 323.575 135.638C324.004 135.547 324.378 135.387 324.686 135.146C324.994 134.91 325.201 134.569 325.297 134.128V132.522H321.071C320.414 132.522 319.975 132.633 319.763 132.849C319.551 133.064 319.44 133.501 319.44 134.143C319.44 134.785 319.546 135.231 319.763 135.442C319.98 135.658 320.414 135.763 321.071 135.763L321.076 135.773Z" fill="white"/>
<path d="M234.029 156.321C233.009 156.321 232.257 156.08 231.767 155.594C231.278 155.107 231.035 154.36 231.035 153.346V147.878C231.035 147.693 231.081 147.552 231.177 147.462C231.272 147.371 231.409 147.321 231.596 147.321C231.782 147.321 231.924 147.366 232.015 147.462C232.106 147.557 232.156 147.693 232.156 147.878V153.346C232.156 153.818 232.212 154.189 232.328 154.46C232.444 154.731 232.636 154.921 232.903 155.032C233.176 155.147 233.55 155.202 234.024 155.202H235.625C236.099 155.202 236.473 155.147 236.746 155.032C237.018 154.921 237.21 154.726 237.321 154.46C237.437 154.189 237.493 153.818 237.493 153.346V147.878C237.493 147.693 237.538 147.552 237.634 147.462C237.73 147.371 237.867 147.321 238.053 147.321C238.24 147.321 238.382 147.366 238.472 147.462C238.563 147.557 238.614 147.693 238.614 147.878V153.346C238.614 154.36 238.371 155.107 237.887 155.594C237.402 156.08 236.645 156.321 235.625 156.321H234.024H234.029Z" fill="white"/>
<path d="M244.799 156.321C244.036 156.321 243.446 156.171 243.022 155.865C242.597 155.559 242.33 155.087 242.224 154.45C242.204 154.254 242.244 154.109 242.345 154.013C242.441 153.918 242.587 153.868 242.774 153.868C242.961 153.868 243.097 153.913 243.183 153.998C243.269 154.089 243.33 154.224 243.36 154.41C243.425 154.716 243.572 154.927 243.789 155.037C244.011 155.152 244.344 155.207 244.799 155.207H246.723C247.298 155.207 247.687 155.107 247.894 154.901C248.101 154.696 248.202 154.314 248.202 153.753C248.202 153.191 248.096 152.789 247.884 152.584C247.672 152.373 247.283 152.268 246.723 152.268H245.066C244.223 152.268 243.602 152.062 243.193 151.656C242.784 151.249 242.582 150.622 242.582 149.79C242.582 148.957 242.784 148.34 243.188 147.938C243.592 147.537 244.213 147.336 245.056 147.336H246.647C247.354 147.336 247.909 147.482 248.313 147.768C248.717 148.054 248.969 148.495 249.075 149.087C249.101 149.278 249.065 149.423 248.969 149.524C248.873 149.624 248.722 149.674 248.53 149.674C248.353 149.674 248.217 149.629 248.131 149.534C248.04 149.438 247.985 149.308 247.96 149.127C247.889 148.866 247.753 148.686 247.551 148.596C247.349 148.5 247.051 148.45 246.647 148.45H245.056C244.521 148.45 244.163 148.545 243.981 148.731C243.799 148.917 243.708 149.273 243.708 149.79C243.708 150.306 243.799 150.672 243.986 150.863C244.173 151.059 244.536 151.154 245.066 151.154H246.723C247.601 151.154 248.252 151.365 248.682 151.791C249.111 152.218 249.328 152.87 249.328 153.758C249.328 154.646 249.116 155.288 248.687 155.704C248.257 156.12 247.606 156.331 246.723 156.331H244.799V156.321Z" fill="white"/>
<path d="M253.746 156.321C253.372 156.321 253.186 156.136 253.186 155.764V147.883C253.186 147.512 253.372 147.326 253.746 147.326H258.543C258.916 147.326 259.103 147.512 259.103 147.883C259.103 148.254 258.916 148.44 258.543 148.44H254.306V151.224H256.962C257.336 151.224 257.523 151.41 257.523 151.781C257.523 152.152 257.336 152.338 256.962 152.338H254.306V155.202H258.543C258.916 155.202 259.103 155.388 259.103 155.759C259.103 156.131 258.916 156.316 258.543 156.316H253.746V156.321Z" fill="white"/>
<path d="M268.666 156.346C268.52 156.437 268.378 156.467 268.247 156.432C268.116 156.396 268 156.306 267.909 156.161L265.839 152.739H263.971V155.764C263.971 156.136 263.784 156.321 263.41 156.321C263.036 156.321 262.85 156.136 262.85 155.764V147.883C262.85 147.512 263.036 147.326 263.41 147.326H266.535C267.348 147.326 267.974 147.542 268.409 147.974C268.843 148.405 269.06 149.027 269.06 149.835V150.231C269.06 150.933 268.893 151.495 268.565 151.912C268.237 152.328 267.757 152.589 267.136 152.689L268.883 155.589C269.055 155.9 268.979 156.151 268.671 156.346H268.666ZM263.965 151.621H266.53C267.035 151.621 267.399 151.515 267.611 151.305C267.823 151.094 267.934 150.733 267.934 150.231V149.835C267.934 149.333 267.828 148.977 267.611 148.761C267.399 148.545 267.035 148.44 266.53 148.44H263.965V151.626V151.621Z" fill="white"/>
<path d="M280.728 156.321C279.709 156.321 278.956 156.08 278.466 155.594C277.977 155.107 277.734 154.36 277.734 153.346V150.296C277.734 149.273 277.977 148.52 278.461 148.039C278.946 147.552 279.698 147.316 280.713 147.326H282.329C283.167 147.326 283.803 147.497 284.248 147.843C284.692 148.189 284.944 148.726 285.015 149.464C285.04 149.649 285.005 149.79 284.909 149.89C284.813 149.985 284.667 150.035 284.48 150.035C284.142 150.035 283.945 149.85 283.894 149.479C283.849 149.072 283.707 148.796 283.47 148.656C283.233 148.515 282.854 148.445 282.334 148.445H280.718C280.249 148.445 279.875 148.495 279.608 148.606C279.34 148.716 279.148 148.907 279.032 149.178C278.916 149.448 278.86 149.825 278.86 150.301V153.351C278.86 153.823 278.916 154.194 279.032 154.465C279.143 154.736 279.34 154.927 279.608 155.037C279.88 155.152 280.254 155.208 280.728 155.208H282.334C282.748 155.208 283.071 155.162 283.304 155.072C283.536 154.982 283.702 154.821 283.793 154.59C283.889 154.36 283.935 154.034 283.935 153.617V152.995L282.895 152.98C282.521 152.98 282.334 152.795 282.334 152.423C282.334 152.052 282.521 151.866 282.895 151.866L284.5 151.882C284.874 151.882 285.061 152.067 285.061 152.438V153.617C285.061 154.56 284.838 155.248 284.399 155.679C283.96 156.111 283.273 156.326 282.334 156.326H280.728V156.321Z" fill="white"/>
<path d="M294.477 156.346C294.331 156.437 294.189 156.467 294.058 156.432C293.927 156.396 293.811 156.306 293.72 156.161L291.65 152.739H289.782V155.764C289.782 156.136 289.595 156.321 289.221 156.321C288.847 156.321 288.661 156.136 288.661 155.764V147.883C288.661 147.512 288.847 147.326 289.221 147.326H292.346C293.159 147.326 293.785 147.542 294.22 147.974C294.654 148.405 294.871 149.027 294.871 149.835V150.231C294.871 150.933 294.704 151.495 294.376 151.912C294.048 152.328 293.568 152.589 292.947 152.689L294.694 155.589C294.866 155.9 294.79 156.151 294.482 156.346H294.477ZM289.776 151.621H292.341C292.846 151.621 293.21 151.515 293.422 151.305C293.634 151.094 293.745 150.733 293.745 150.231V149.835C293.745 149.333 293.639 148.977 293.422 148.761C293.21 148.545 292.846 148.44 292.341 148.44H289.776V151.626V151.621Z" fill="white"/>
<path d="M301.076 156.321C300.056 156.321 299.304 156.08 298.814 155.594C298.324 155.107 298.082 154.36 298.082 153.346V150.281C298.082 149.258 298.329 148.51 298.819 148.029C299.309 147.547 300.061 147.311 301.076 147.321H302.682C303.707 147.321 304.459 147.562 304.944 148.044C305.428 148.525 305.671 149.278 305.671 150.291V153.341C305.671 154.355 305.428 155.102 304.944 155.589C304.459 156.075 303.702 156.316 302.682 156.316H301.076V156.321ZM301.076 155.207H302.682C303.156 155.207 303.53 155.152 303.803 155.037C304.075 154.926 304.267 154.731 304.378 154.465C304.494 154.194 304.55 153.823 304.55 153.351V150.301C304.55 149.835 304.494 149.463 304.378 149.193C304.262 148.922 304.07 148.731 303.803 148.616C303.53 148.5 303.156 148.445 302.682 148.445H301.076C300.607 148.445 300.233 148.495 299.96 148.606C299.688 148.716 299.496 148.907 299.38 149.177C299.264 149.448 299.208 149.82 299.208 150.291V153.356C299.208 153.828 299.264 154.199 299.38 154.47C299.491 154.741 299.688 154.932 299.955 155.042C300.228 155.157 300.602 155.212 301.076 155.212V155.207Z" fill="white"/>
<path d="M312.452 156.321C311.432 156.321 310.679 156.08 310.19 155.594C309.7 155.107 309.458 154.36 309.458 153.346V147.878C309.458 147.693 309.503 147.552 309.599 147.462C309.695 147.371 309.831 147.321 310.018 147.321C310.205 147.321 310.346 147.366 310.437 147.462C310.528 147.557 310.578 147.693 310.578 147.878V153.346C310.578 153.818 310.634 154.189 310.75 154.46C310.866 154.731 311.058 154.921 311.326 155.032C311.598 155.147 311.972 155.202 312.447 155.202H314.047C314.522 155.202 314.895 155.147 315.168 155.032C315.441 154.921 315.633 154.726 315.744 154.46C315.86 154.189 315.915 153.818 315.915 153.346V147.878C315.915 147.693 315.961 147.552 316.057 147.462C316.153 147.371 316.289 147.321 316.476 147.321C316.663 147.321 316.804 147.366 316.895 147.462C316.986 147.557 317.036 147.693 317.036 147.878V153.346C317.036 154.36 316.794 155.107 316.309 155.594C315.824 156.08 315.067 156.321 314.047 156.321H312.447H312.452Z" fill="white"/>
<path d="M321.323 156.321C320.95 156.321 320.763 156.136 320.763 155.764V147.883C320.763 147.512 320.95 147.326 321.323 147.326H324.449C325.261 147.326 325.888 147.542 326.322 147.974C326.756 148.405 326.973 149.027 326.973 149.835V150.231C326.973 151.039 326.756 151.661 326.322 152.092C325.888 152.524 325.261 152.739 324.449 152.739H321.884V155.764C321.884 156.136 321.697 156.321 321.323 156.321ZM321.884 151.626H324.449C324.953 151.626 325.317 151.52 325.529 151.31C325.741 151.099 325.852 150.738 325.852 150.236V149.84C325.852 149.338 325.746 148.982 325.529 148.766C325.317 148.55 324.953 148.445 324.449 148.445H321.884V151.631V151.626Z" fill="white"/>
<path d="M265.93 200.452C264.785 200.452 263.938 200.18 263.388 199.635C262.843 199.085 262.57 198.237 262.57 197.092V193.642C262.57 192.487 262.843 191.637 263.388 191.092C263.933 190.542 264.775 190.272 265.915 190.282H267.73C268.67 190.282 269.388 190.477 269.883 190.867C270.378 191.252 270.665 191.862 270.745 192.697C270.775 192.907 270.735 193.067 270.625 193.177C270.515 193.287 270.355 193.342 270.145 193.342C269.765 193.342 269.545 193.132 269.485 192.712C269.435 192.252 269.275 191.942 269.005 191.782C268.74 191.622 268.315 191.542 267.73 191.542H265.915C265.385 191.537 264.968 191.597 264.663 191.722C264.363 191.847 264.148 192.065 264.018 192.375C263.893 192.68 263.83 193.102 263.83 193.642V197.092C263.83 197.627 263.893 198.047 264.018 198.352C264.148 198.657 264.365 198.875 264.67 199.005C264.975 199.13 265.395 199.192 265.93 199.192H267.73C268.315 199.192 268.74 199.112 269.005 198.952C269.275 198.787 269.435 198.477 269.485 198.022C269.545 197.602 269.765 197.392 270.145 197.392C270.355 197.392 270.515 197.447 270.625 197.557C270.735 197.667 270.775 197.827 270.745 198.037C270.665 198.877 270.378 199.49 269.883 199.875C269.388 200.26 268.67 200.452 267.73 200.452H265.93ZM276.825 200.452C275.68 200.452 274.832 200.18 274.282 199.635C273.737 199.085 273.465 198.237 273.465 197.092V193.627C273.465 192.472 273.74 191.625 274.29 191.085C274.84 190.54 275.685 190.272 276.825 190.282H278.625C279.775 190.282 280.622 190.555 281.167 191.1C281.712 191.645 281.985 192.492 281.985 193.642V197.092C281.985 198.237 281.712 199.085 281.167 199.635C280.622 200.18 279.775 200.452 278.625 200.452H276.825ZM276.825 199.192H278.625C279.16 199.192 279.58 199.13 279.885 199.005C280.19 198.875 280.405 198.657 280.53 198.352C280.66 198.047 280.725 197.627 280.725 197.092V193.642C280.725 193.112 280.66 192.695 280.53 192.39C280.405 192.085 280.19 191.867 279.885 191.737C279.58 191.607 279.16 191.542 278.625 191.542H276.825C276.295 191.537 275.877 191.597 275.572 191.722C275.267 191.847 275.05 192.062 274.92 192.367C274.79 192.672 274.725 193.092 274.725 193.627V197.092C274.725 197.627 274.787 198.047 274.912 198.352C275.042 198.657 275.26 198.875 275.565 199.005C275.87 199.13 276.29 199.192 276.825 199.192ZM285.818 200.452C285.398 200.452 285.188 200.242 285.188 199.822V190.912C285.188 190.492 285.398 190.282 285.818 190.282C286.238 190.282 286.448 190.492 286.448 190.912V199.192H290.603C291.023 199.192 291.233 199.402 291.233 199.822C291.233 200.242 291.023 200.452 290.603 200.452H285.818ZM296.46 200.452C295.315 200.452 294.467 200.18 293.917 199.635C293.372 199.085 293.1 198.237 293.1 197.092V193.627C293.1 192.472 293.375 191.625 293.925 191.085C294.475 190.54 295.32 190.272 296.46 190.282H298.26C299.41 190.282 300.258 190.555 300.802 191.1C301.347 191.645 301.62 192.492 301.62 193.642V197.092C301.62 198.237 301.347 199.085 300.802 199.635C300.258 200.18 299.41 200.452 298.26 200.452H296.46ZM296.46 199.192H298.26C298.795 199.192 299.215 199.13 299.52 199.005C299.825 198.875 300.04 198.657 300.165 198.352C300.295 198.047 300.36 197.627 300.36 197.092V193.642C300.36 193.112 300.295 192.695 300.165 192.39C300.04 192.085 299.825 191.867 299.52 191.737C299.215 191.607 298.795 191.542 298.26 191.542H296.46C295.93 191.537 295.512 191.597 295.207 191.722C294.902 191.847 294.685 192.062 294.555 192.367C294.425 192.672 294.36 193.092 294.36 193.627V197.092C294.36 197.627 294.422 198.047 294.547 198.352C294.677 198.657 294.895 198.875 295.2 199.005C295.505 199.13 295.925 199.192 296.46 199.192ZM305.453 200.452C305.033 200.452 304.823 200.242 304.823 199.822V190.912C304.823 190.492 305.033 190.282 305.453 190.282C305.728 190.282 305.958 190.417 306.143 190.687L309.683 196.012L309.413 196.057L312.983 190.687C313.153 190.417 313.408 190.282 313.748 190.282C314.088 190.282 314.258 190.492 314.258 190.912V199.822C314.258 200.242 314.048 200.452 313.628 200.452C313.208 200.452 312.998 200.242 312.998 199.822V192.172L313.388 192.307L310.238 196.942C310.053 197.212 309.798 197.347 309.473 197.347C309.248 197.347 309.043 197.212 308.858 196.942L305.708 192.307L306.083 192.412V199.822C306.083 200.242 305.873 200.452 305.453 200.452ZM318.457 200.452C318.037 200.452 317.827 200.242 317.827 199.822V190.912C317.827 190.492 318.037 190.282 318.457 190.282H322.372C323.167 190.282 323.777 190.492 324.202 190.912C324.632 191.332 324.847 191.932 324.847 192.712V193.117C324.847 193.792 324.634 194.315 324.209 194.685C325.004 195.13 325.402 195.942 325.402 197.122V197.632C325.402 198.552 325.157 199.252 324.667 199.732C324.182 200.212 323.482 200.452 322.567 200.452H318.457ZM319.087 199.192H322.567C323.132 199.192 323.534 199.072 323.774 198.832C324.019 198.587 324.142 198.187 324.142 197.632V197.122C324.142 196.567 324.024 196.172 323.789 195.937C323.554 195.697 323.147 195.577 322.567 195.577H319.087V199.192ZM319.087 194.317H322.642C323.007 194.317 323.254 194.205 323.384 193.98C323.519 193.755 323.587 193.467 323.587 193.117V192.712C323.587 192.277 323.497 191.975 323.317 191.805C323.137 191.63 322.822 191.542 322.372 191.542H319.087V194.317ZM329 200.452C328.785 200.452 328.625 200.402 328.52 200.302C328.42 200.197 328.37 200.037 328.37 199.822V190.927C328.37 190.707 328.42 190.547 328.52 190.447C328.625 190.347 328.785 190.297 329 190.297C329.22 190.297 329.38 190.347 329.48 190.447C329.58 190.547 329.63 190.707 329.63 190.927V199.822C329.63 200.037 329.58 200.197 329.48 200.302C329.38 200.402 329.22 200.452 329 200.452ZM332.719 200.392C332.319 200.237 332.199 199.962 332.359 199.567L335.929 190.777C336.079 190.447 336.314 190.282 336.634 190.282H336.664C336.989 190.297 337.209 190.462 337.324 190.777L340.954 199.567C341.114 199.962 340.999 200.237 340.609 200.392C340.214 200.547 339.939 200.432 339.784 200.047L338.974 198.082H334.302L333.529 200.047C333.374 200.437 333.104 200.552 332.719 200.392ZM334.797 196.822H338.457L336.589 192.277L334.797 196.822Z" fill="white"/>
</g>
<defs>
<clipPath id="clip0_108_1573">
<rect width="600" height="338" fill="white"/>
</clipPath>
<clipPath id="clip1_108_1573">
<rect width="571" height="411.309" fill="white" transform="translate(-2 -10)"/>
</clipPath>
<clipPath id="clip2_108_1573">
<rect width="181.77" height="115.1" fill="white" transform="translate(209 101)"/>
</clipPath>
</defs>
</svg>
