<svg width="348" height="218" viewBox="0 0 348 218" fill="none" xmlns="http://www.w3.org/2000/svg">
<path d="M22.5997 2.55005C11.6397 2.55005 2.71973 11.47 2.71973 22.43V133.39H345.28V2.55005H22.5997Z" fill="white"/>
<path d="M3 195.74C3 206.7 11.92 215.62 22.88 215.62H325.68C336.64 215.62 345.56 206.7 345.56 195.74V139H3V195.74Z" fill="white"/>
<path d="M247.15 46.1599V51.6099H284.65L247.15 89.1099L251.01 92.9699L297.81 46.1599H247.15Z" fill="#F7B749"/>
<path d="M303.27 40.71L308.72 35.26H247.15V40.71H303.27Z" fill="#ED362F"/>
<path d="M307.12 44.5601V100.67H312.57V39.1101L307.12 44.5601Z" fill="#43B85C"/>
<path d="M301.67 100.67V50.01L254.86 96.82L258.72 100.67L296.22 63.18V100.67H301.67Z" fill="#2CB4E2"/>
<path d="M44.2697 63.03C41.2597 63.03 39.0297 62.31 37.5897 60.87C36.1497 59.43 35.4297 57.2 35.4297 54.19V45.07C35.4297 42.03 36.1497 39.8 37.5997 38.37C39.0497 36.94 41.2697 36.24 44.2697 36.27H48.9997C52.0297 36.27 54.2597 36.99 55.6897 38.42C57.1197 39.85 57.8397 42.08 57.8397 45.11V54.19C57.8397 57.2 57.1197 59.43 55.6897 60.87C54.2597 62.31 52.0297 63.03 48.9997 63.03H44.2697ZM44.2697 59.71H48.9997C50.4097 59.71 51.5097 59.54 52.3197 59.21C53.1197 58.87 53.6897 58.31 54.0297 57.5C54.3697 56.7 54.5297 55.59 54.5297 54.18V45.1C54.5297 43.71 54.3597 42.61 54.0297 41.81C53.6897 41.01 53.1197 40.44 52.3197 40.09C51.5197 39.75 50.4097 39.58 48.9997 39.58H44.2697C42.8797 39.57 41.7797 39.73 40.9697 40.05C40.1597 40.37 39.5997 40.94 39.2497 41.75C38.9097 42.55 38.7397 43.66 38.7397 45.07V54.19C38.7397 55.6 38.9097 56.7 39.2397 57.51C39.5797 58.31 40.1497 58.88 40.9497 59.22C41.7497 59.56 42.8597 59.72 44.2697 59.72V59.71Z" fill="black"/>
<path d="M66.3695 70.92C65.2595 70.92 64.7095 70.37 64.7095 69.26V44.68C64.7095 43.57 65.2595 43.02 66.3695 43.02C67.4795 43.02 68.0295 43.57 68.0295 44.68V45.17C68.7395 44.46 69.6195 43.92 70.6595 43.56C71.7095 43.2 72.8795 43.02 74.1795 43.02H75.6795C78.3095 43.02 80.2595 43.65 81.5195 44.91C82.7795 46.17 83.4095 48.12 83.4095 50.75V55.29C83.4095 57.91 82.7795 59.85 81.5195 61.12C80.2595 62.39 78.3095 63.02 75.6795 63.02H68.0195V69.26C68.0195 70.37 67.4695 70.92 66.3595 70.92H66.3695ZM68.0295 59.71H75.6895C77.4095 59.71 78.5795 59.4 79.1895 58.78C79.7995 58.16 80.1095 57 80.1095 55.29V50.75C80.1095 49.03 79.8095 47.86 79.1895 47.25C78.5695 46.64 77.4095 46.33 75.6895 46.33H74.1895C72.5395 46.33 71.1195 46.53 69.9295 46.92C68.7295 47.31 68.0995 47.94 68.0395 48.79V59.7L68.0295 59.71Z" fill="black"/>
<path d="M92.6498 54.39V55.34C92.6498 57.04 92.9598 58.19 93.5798 58.8C94.1998 59.41 95.3598 59.72 97.0698 59.72H100.31C101.65 59.72 102.64 59.6 103.29 59.35C103.93 59.1 104.36 58.66 104.57 58.03C104.71 57.53 104.92 57.15 105.17 56.89C105.43 56.63 105.82 56.49 106.34 56.49C106.86 56.49 107.31 56.64 107.6 56.92C107.89 57.21 107.98 57.63 107.87 58.18C107.58 59.81 106.81 61.03 105.54 61.83C104.28 62.63 102.53 63.03 100.29 63.03H97.0498C94.4298 63.03 92.4898 62.4 91.2198 61.14C89.9498 59.88 89.3198 57.94 89.3198 55.34V50.76C89.3198 48.09 89.9498 46.13 91.2198 44.87C92.4898 43.61 94.4298 43 97.0498 43.02H100.29C102.92 43.02 104.87 43.65 106.13 44.9C107.39 46.16 108.02 48.11 108.02 50.75V52.72C108.02 53.83 107.47 54.38 106.36 54.38H92.6298L92.6498 54.39ZM97.0698 46.34C95.3598 46.31 94.1998 46.61 93.5798 47.23C92.9598 47.85 92.6498 49.03 92.6498 50.76V51.08H104.73V50.76C104.73 49.04 104.42 47.87 103.81 47.26C103.2 46.65 102.03 46.34 100.31 46.34H97.0698Z" fill="black"/>
<path d="M116.56 63.03C115.46 63.03 114.9 62.48 114.9 61.37V44.68C114.9 43.57 115.45 43.02 116.56 43.02C117.67 43.02 118.22 43.57 118.22 44.68V45.33C119.61 43.79 121.67 43.02 124.38 43.02H125.48C128.11 43.02 130.06 43.65 131.32 44.91C132.58 46.17 133.21 48.12 133.21 50.75V61.37C133.21 62.48 132.66 63.03 131.55 63.03C130.44 63.03 129.89 62.48 129.89 61.37V50.75C129.89 49.03 129.58 47.86 128.95 47.25C128.32 46.64 127.16 46.33 125.47 46.33H124.37C122.79 46.33 121.42 46.51 120.25 46.87C119.08 47.23 118.4 47.8 118.22 48.58V61.37C118.22 62.48 117.67 63.03 116.56 63.03Z" fill="black"/>
<path d="M142.29 63.0301C141.73 63.0301 141.31 62.9001 141.04 62.6301C140.77 62.3601 140.64 61.9401 140.64 61.3801V37.9801C140.64 37.4001 140.78 36.9801 141.04 36.7201C141.31 36.4601 141.73 36.3301 142.29 36.3301C142.85 36.3301 143.29 36.4601 143.55 36.7201C143.81 36.9801 143.94 37.4001 143.94 37.9801V61.3801C143.94 61.9501 143.81 62.3601 143.55 62.6301C143.29 62.9001 142.87 63.0301 142.29 63.0301Z" fill="black"/>
<path d="M153.42 63.03C152.31 63.03 151.76 62.48 151.76 61.37V44.68C151.76 43.57 152.31 43.02 153.42 43.02C154.53 43.02 155.08 43.57 155.08 44.68V45.33C156.47 43.79 158.53 43.02 161.24 43.02H162.34C164.97 43.02 166.92 43.65 168.18 44.91C169.44 46.17 170.07 48.12 170.07 50.75V61.37C170.07 62.48 169.52 63.03 168.41 63.03C167.3 63.03 166.75 62.48 166.75 61.37V50.75C166.75 49.03 166.44 47.86 165.81 47.25C165.19 46.64 164.03 46.33 162.33 46.33H161.23C159.65 46.33 158.28 46.51 157.11 46.87C155.94 47.23 155.26 47.8 155.08 48.58V61.37C155.08 62.48 154.53 63.03 153.42 63.03Z" fill="black"/>
<path d="M179.9 63.03C178.8 63.03 178.24 62.48 178.24 61.37V46.33H176.78C175.68 46.33 175.12 45.78 175.12 44.67C175.12 43.56 175.67 43.01 176.78 43.01H178.24V42.85C178.24 40.26 178.86 38.34 180.11 37.1C181.36 35.86 183.27 35.24 185.85 35.24C186.8 35.24 187.27 35.79 187.27 36.9C187.27 38.01 186.8 38.56 185.85 38.56C184.19 38.56 183.06 38.86 182.46 39.45C181.85 40.04 181.55 41.18 181.55 42.86V43.02H185.62C186.72 43.02 187.28 43.57 187.28 44.68C187.28 45.79 186.73 46.34 185.62 46.34H181.55V61.38C181.55 62.49 181 63.04 179.89 63.04L179.9 63.03Z" fill="black"/>
<path d="M193.99 63.03C192.88 63.03 192.33 62.48 192.33 61.37V44.68C192.33 43.57 192.88 43.02 193.99 43.02C195.1 43.02 195.65 43.57 195.65 44.68V46.22C196.43 45.17 197.41 44.37 198.62 43.83C199.82 43.29 201.2 43.02 202.75 43.02C203.85 43.02 204.41 43.57 204.41 44.68C204.41 45.79 203.86 46.34 202.75 46.34C200.47 46.34 198.74 46.76 197.54 47.6C196.34 48.44 195.71 49.55 195.65 50.93V61.37C195.65 62.48 195.1 63.03 193.99 63.03Z" fill="black"/>
<path d="M213.759 63.03C211.549 63.03 209.899 62.49 208.829 61.41C207.759 60.33 207.209 58.69 207.209 56.48C207.209 54.27 207.749 52.63 208.819 51.55C209.889 50.47 211.539 49.93 213.759 49.93H222.109C222.029 48.55 221.669 47.61 221.019 47.1C220.379 46.59 219.269 46.34 217.709 46.34H215.419C214.099 46.34 213.119 46.43 212.479 46.61C211.829 46.79 211.379 47.11 211.119 47.57C210.879 48.12 210.639 48.5 210.389 48.71C210.139 48.92 209.769 49.03 209.269 49.03C208.719 49.03 208.279 48.88 207.969 48.57C207.659 48.26 207.559 47.85 207.689 47.34C208.079 45.85 208.909 44.77 210.159 44.07C211.419 43.38 213.169 43.03 215.419 43.03H217.709C220.339 43.03 222.289 43.66 223.549 44.92C224.809 46.18 225.439 48.13 225.439 50.76V61.38C225.439 62.49 224.889 63.04 223.779 63.04C222.669 63.04 222.119 62.49 222.119 61.38V60.49C220.709 62.19 218.659 63.04 215.959 63.04H213.749L213.759 63.03ZM213.759 59.71H215.969C216.939 59.71 217.859 59.62 218.709 59.44C219.559 59.26 220.299 58.94 220.909 58.46C221.519 57.99 221.929 57.31 222.119 56.43V53.23H213.749C212.449 53.23 211.579 53.45 211.159 53.88C210.739 54.31 210.519 55.18 210.519 56.46C210.519 57.74 210.729 58.63 211.159 59.05C211.589 59.48 212.449 59.69 213.749 59.69L213.759 59.71Z" fill="black"/>
<path d="M41.3597 100.67C39.3397 100.67 37.8497 100.19 36.8797 99.22C35.9097 98.25 35.4297 96.76 35.4297 94.74V83.84C35.4297 83.47 35.5197 83.19 35.7097 83.01C35.8997 82.83 36.1697 82.73 36.5397 82.73C36.9097 82.73 37.1897 82.82 37.3697 83.01C37.5497 83.2 37.6497 83.47 37.6497 83.84V94.74C37.6497 95.68 37.7597 96.42 37.9897 96.96C38.2197 97.5 38.5997 97.88 39.1297 98.1C39.6697 98.33 40.4097 98.44 41.3497 98.44H44.5197C45.4597 98.44 46.1997 98.33 46.7397 98.1C47.2797 97.88 47.6597 97.49 47.8797 96.96C48.1097 96.42 48.2197 95.68 48.2197 94.74V83.84C48.2197 83.47 48.3097 83.19 48.4997 83.01C48.6897 82.83 48.9597 82.73 49.3297 82.73C49.6997 82.73 49.9797 82.82 50.1597 83.01C50.3397 83.2 50.4397 83.47 50.4397 83.84V94.74C50.4397 96.76 49.9597 98.25 48.9997 99.22C48.0397 100.19 46.5397 100.67 44.5197 100.67H41.3497H41.3597Z" fill="black"/>
<path d="M62.6896 100.67C61.1796 100.67 60.0096 100.37 59.1696 99.76C58.3296 99.15 57.7996 98.21 57.5896 96.94C57.5496 96.55 57.6296 96.26 57.8296 96.07C58.0196 95.88 58.3096 95.78 58.6796 95.78C59.0496 95.78 59.3196 95.87 59.4896 96.04C59.6596 96.22 59.7796 96.49 59.8396 96.86C59.9696 97.47 60.2596 97.89 60.6896 98.11C61.1296 98.34 61.7896 98.45 62.6896 98.45H66.4996C67.6396 98.45 68.4096 98.25 68.8196 97.84C69.2296 97.43 69.4296 96.67 69.4296 95.55C69.4296 94.43 69.2196 93.63 68.7996 93.22C68.3796 92.8 67.6096 92.59 66.4996 92.59H63.2196C61.5496 92.59 60.3196 92.18 59.5096 91.37C58.6996 90.56 58.2996 89.31 58.2996 87.65C58.2996 85.99 58.6996 84.76 59.4996 83.96C60.2996 83.16 61.5296 82.76 63.1996 82.76H66.3496C67.7496 82.76 68.8496 83.05 69.6496 83.62C70.4496 84.19 70.9496 85.07 71.1596 86.25C71.2096 86.63 71.1396 86.92 70.9496 87.12C70.7596 87.32 70.4596 87.42 70.0796 87.42C69.7296 87.42 69.4596 87.33 69.2896 87.14C69.1096 86.95 68.9996 86.69 68.9496 86.33C68.8096 85.81 68.5396 85.45 68.1396 85.27C67.7396 85.08 67.1496 84.98 66.3496 84.98H63.1996C62.1396 84.98 61.4296 85.17 61.0696 85.54C60.7096 85.91 60.5296 86.62 60.5296 87.65C60.5296 88.68 60.7096 89.41 61.0796 89.79C61.4496 90.18 62.1696 90.37 63.2196 90.37H66.4996C68.2396 90.37 69.5296 90.79 70.3796 91.64C71.2296 92.49 71.6596 93.79 71.6596 95.56C71.6596 97.33 71.2396 98.61 70.3896 99.44C69.5396 100.27 68.2496 100.69 66.4996 100.69H62.6896V100.67Z" fill="black"/>
<path d="M80.4098 100.67C79.6698 100.67 79.2998 100.3 79.2998 99.56V83.85C79.2998 83.11 79.6698 82.74 80.4098 82.74H89.9098C90.6498 82.74 91.0198 83.11 91.0198 83.85C91.0198 84.59 90.6498 84.96 89.9098 84.96H81.5198V90.51H86.7798C87.5198 90.51 87.8898 90.88 87.8898 91.62C87.8898 92.36 87.5198 92.73 86.7798 92.73H81.5198V98.44H89.9098C90.6498 98.44 91.0198 98.81 91.0198 99.55C91.0198 100.29 90.6498 100.66 89.9098 100.66H80.4098V100.67Z" fill="black"/>
<path d="M109.959 100.72C109.669 100.9 109.389 100.96 109.129 100.89C108.869 100.82 108.639 100.64 108.459 100.35L104.359 93.53H100.659V99.56C100.659 100.3 100.289 100.67 99.5495 100.67C98.8095 100.67 98.4395 100.3 98.4395 99.56V83.85C98.4395 83.11 98.8095 82.74 99.5495 82.74H105.739C107.349 82.74 108.589 83.17 109.449 84.03C110.309 84.89 110.739 86.13 110.739 87.74V88.53C110.739 89.93 110.409 91.05 109.759 91.88C109.109 92.71 108.159 93.23 106.929 93.43L110.389 99.21C110.729 99.83 110.579 100.33 109.969 100.72H109.959ZM100.649 91.3H105.729C106.729 91.3 107.449 91.09 107.869 90.67C108.289 90.25 108.509 89.53 108.509 88.53V87.74C108.509 86.74 108.299 86.03 107.869 85.6C107.449 85.17 106.729 84.96 105.729 84.96H100.649V91.31V91.3Z" fill="black"/>
<path d="M133.85 100.67C131.83 100.67 130.34 100.19 129.37 99.2201C128.4 98.2501 127.92 96.7601 127.92 94.7401V88.6601C127.92 86.6201 128.4 85.1201 129.36 84.1601C130.32 83.1901 131.81 82.7201 133.82 82.7401H137.02C138.68 82.7401 139.94 83.0801 140.82 83.7701C141.7 84.4601 142.2 85.5301 142.34 87.0001C142.39 87.3701 142.32 87.6501 142.13 87.8501C141.94 88.0401 141.65 88.1401 141.28 88.1401C140.61 88.1401 140.22 87.7701 140.12 87.0301C140.03 86.2201 139.75 85.6701 139.28 85.3901C138.81 85.1101 138.06 84.9701 137.03 84.9701H133.83C132.9 84.9701 132.16 85.0701 131.63 85.2901C131.1 85.5101 130.72 85.8901 130.49 86.4301C130.26 86.9701 130.15 87.7201 130.15 88.6701V94.7501C130.15 95.6901 130.26 96.4301 130.49 96.9701C130.71 97.5101 131.1 97.8901 131.63 98.1101C132.17 98.3401 132.91 98.4501 133.85 98.4501H137.03C137.85 98.4501 138.49 98.3601 138.95 98.1801C139.41 98.0001 139.74 97.6801 139.92 97.2201C140.11 96.7601 140.2 96.1101 140.2 95.2801V94.0401L138.14 94.0101C137.4 94.0101 137.03 93.6401 137.03 92.9001C137.03 92.1601 137.4 91.7901 138.14 91.7901L141.32 91.8201C142.06 91.8201 142.43 92.1901 142.43 92.9301V95.2801C142.43 97.1601 141.99 98.5301 141.12 99.3901C140.25 100.25 138.89 100.68 137.03 100.68H133.85V100.67Z" fill="black"/>
<path d="M161.08 100.72C160.79 100.9 160.51 100.96 160.25 100.89C159.99 100.82 159.76 100.64 159.58 100.35L155.48 93.53H151.78V99.56C151.78 100.3 151.41 100.67 150.67 100.67C149.93 100.67 149.56 100.3 149.56 99.56V83.85C149.56 83.11 149.93 82.74 150.67 82.74H156.86C158.47 82.74 159.71 83.17 160.57 84.03C161.43 84.89 161.86 86.13 161.86 87.74V88.53C161.86 89.93 161.53 91.05 160.88 91.88C160.23 92.71 159.28 93.23 158.05 93.43L161.51 99.21C161.85 99.83 161.7 100.33 161.09 100.72H161.08ZM151.77 91.3H156.85C157.85 91.3 158.57 91.09 158.99 90.67C159.41 90.25 159.63 89.53 159.63 88.53V87.74C159.63 86.74 159.42 86.03 158.99 85.6C158.57 85.17 157.85 84.96 156.85 84.96H151.77V91.31V91.3Z" fill="black"/>
<path d="M174.15 100.67C172.13 100.67 170.64 100.19 169.67 99.2201C168.7 98.2501 168.22 96.7601 168.22 94.7401V88.6301C168.22 86.5901 168.71 85.1001 169.68 84.1401C170.65 83.1801 172.14 82.7101 174.15 82.7301H177.33C179.36 82.7301 180.85 83.2101 181.81 84.1701C182.77 85.1301 183.25 86.6301 183.25 88.6501V94.7301C183.25 96.7501 182.77 98.2401 181.81 99.2101C180.85 100.18 179.35 100.66 177.33 100.66H174.15V100.67ZM174.15 98.4501H177.33C178.27 98.4501 179.01 98.3401 179.55 98.1101C180.09 97.8901 180.47 97.5001 180.69 96.9701C180.92 96.4301 181.03 95.6901 181.03 94.7501V88.6701C181.03 87.7401 180.92 87.0001 180.69 86.4601C180.46 85.9201 180.08 85.5401 179.55 85.3101C179.01 85.0801 178.27 84.9701 177.33 84.9701H174.15C173.22 84.9701 172.48 85.0701 171.94 85.2901C171.4 85.5101 171.02 85.8901 170.79 86.4301C170.56 86.9701 170.45 87.7101 170.45 88.6501V94.7601C170.45 95.7001 170.56 96.4401 170.79 96.9801C171.01 97.5201 171.4 97.9001 171.93 98.1201C172.47 98.3501 173.21 98.4601 174.15 98.4601V98.4501Z" fill="black"/>
<path d="M196.68 100.67C194.66 100.67 193.17 100.19 192.2 99.22C191.23 98.25 190.75 96.76 190.75 94.74V83.84C190.75 83.47 190.84 83.19 191.03 83.01C191.22 82.83 191.49 82.73 191.86 82.73C192.23 82.73 192.51 82.82 192.69 83.01C192.87 83.2 192.97 83.47 192.97 83.84V94.74C192.97 95.68 193.08 96.42 193.31 96.96C193.54 97.5 193.92 97.88 194.45 98.1C194.99 98.33 195.73 98.44 196.67 98.44H199.84C200.78 98.44 201.52 98.33 202.06 98.1C202.6 97.88 202.98 97.49 203.2 96.96C203.43 96.42 203.54 95.68 203.54 94.74V83.84C203.54 83.47 203.63 83.19 203.82 83.01C204.01 82.83 204.28 82.73 204.65 82.73C205.02 82.73 205.3 82.82 205.48 83.01C205.66 83.2 205.76 83.47 205.76 83.84V94.74C205.76 96.76 205.28 98.25 204.32 99.22C203.36 100.19 201.86 100.67 199.84 100.67H196.67H196.68Z" fill="black"/>
<path d="M214.25 100.67C213.51 100.67 213.14 100.3 213.14 99.56V83.85C213.14 83.11 213.51 82.74 214.25 82.74H220.44C222.05 82.74 223.29 83.17 224.15 84.03C225.01 84.89 225.44 86.13 225.44 87.74V88.53C225.44 90.14 225.01 91.38 224.15 92.24C223.29 93.1 222.05 93.53 220.44 93.53H215.36V99.56C215.36 100.3 214.99 100.67 214.25 100.67ZM215.36 91.31H220.44C221.44 91.31 222.16 91.1 222.58 90.68C223 90.26 223.22 89.54 223.22 88.54V87.75C223.22 86.75 223.01 86.04 222.58 85.61C222.16 85.18 221.44 84.97 220.44 84.97H215.36V91.32V91.31Z" fill="black"/>
<path d="M103.361 184C101.071 184 99.3756 183.455 98.2756 182.365C97.1856 181.265 96.6406 179.57 96.6406 177.28V170.38C96.6406 168.07 97.1856 166.37 98.2756 165.28C99.3656 164.18 101.051 163.64 103.331 163.66H106.961C108.841 163.66 110.276 164.05 111.266 164.83C112.256 165.6 112.831 166.82 112.991 168.49C113.051 168.91 112.971 169.23 112.751 169.45C112.531 169.67 112.211 169.78 111.791 169.78C111.031 169.78 110.591 169.36 110.471 168.52C110.371 167.6 110.051 166.98 109.511 166.66C108.981 166.34 108.131 166.18 106.961 166.18H103.331C102.271 166.17 101.436 166.29 100.826 166.54C100.226 166.79 99.7956 167.225 99.5356 167.845C99.2856 168.455 99.1606 169.3 99.1606 170.38V177.28C99.1606 178.35 99.2856 179.19 99.5356 179.8C99.7956 180.41 100.231 180.845 100.841 181.105C101.451 181.355 102.291 181.48 103.361 181.48H106.961C108.131 181.48 108.981 181.32 109.511 181C110.051 180.67 110.371 180.05 110.471 179.14C110.591 178.3 111.031 177.88 111.791 177.88C112.211 177.88 112.531 177.99 112.751 178.21C112.971 178.43 113.051 178.75 112.991 179.17C112.831 180.85 112.256 182.075 111.266 182.845C110.276 183.615 108.841 184 106.961 184H103.361ZM125.149 184C122.859 184 121.164 183.455 120.064 182.365C118.974 181.265 118.429 179.57 118.429 177.28V170.35C118.429 168.04 118.979 166.345 120.079 165.265C121.179 164.175 122.869 163.64 125.149 163.66H128.749C131.049 163.66 132.744 164.205 133.834 165.295C134.924 166.385 135.469 168.08 135.469 170.38V177.28C135.469 179.57 134.924 181.265 133.834 182.365C132.744 183.455 131.049 184 128.749 184H125.149ZM125.149 181.48H128.749C129.819 181.48 130.659 181.355 131.269 181.105C131.879 180.845 132.309 180.41 132.559 179.8C132.819 179.19 132.949 178.35 132.949 177.28V170.38C132.949 169.32 132.819 168.485 132.559 167.875C132.309 167.265 131.879 166.83 131.269 166.57C130.659 166.31 129.819 166.18 128.749 166.18H125.149C124.089 166.17 123.254 166.29 122.644 166.54C122.034 166.79 121.599 167.22 121.339 167.83C121.079 168.44 120.949 169.28 120.949 170.35V177.28C120.949 178.35 121.074 179.19 121.324 179.8C121.584 180.41 122.019 180.845 122.629 181.105C123.239 181.355 124.079 181.48 125.149 181.48ZM143.135 184C142.295 184 141.875 183.58 141.875 182.74V164.92C141.875 164.08 142.295 163.66 143.135 163.66C143.975 163.66 144.395 164.08 144.395 164.92V181.48H152.705C153.545 181.48 153.965 181.9 153.965 182.74C153.965 183.58 153.545 184 152.705 184H143.135ZM164.42 184C162.13 184 160.435 183.455 159.335 182.365C158.245 181.265 157.7 179.57 157.7 177.28V170.35C157.7 168.04 158.25 166.345 159.35 165.265C160.45 164.175 162.14 163.64 164.42 163.66H168.02C170.32 163.66 172.015 164.205 173.105 165.295C174.195 166.385 174.74 168.08 174.74 170.38V177.28C174.74 179.57 174.195 181.265 173.105 182.365C172.015 183.455 170.32 184 168.02 184H164.42ZM164.42 181.48H168.02C169.09 181.48 169.93 181.355 170.54 181.105C171.15 180.845 171.58 180.41 171.83 179.8C172.09 179.19 172.22 178.35 172.22 177.28V170.38C172.22 169.32 172.09 168.485 171.83 167.875C171.58 167.265 171.15 166.83 170.54 166.57C169.93 166.31 169.09 166.18 168.02 166.18H164.42C163.36 166.17 162.525 166.29 161.915 166.54C161.305 166.79 160.87 167.22 160.61 167.83C160.35 168.44 160.22 169.28 160.22 170.35V177.28C160.22 178.35 160.345 179.19 160.595 179.8C160.855 180.41 161.29 180.845 161.9 181.105C162.51 181.355 163.35 181.48 164.42 181.48ZM182.406 184C181.566 184 181.146 183.58 181.146 182.74V164.92C181.146 164.08 181.566 163.66 182.406 163.66C182.956 163.66 183.416 163.93 183.786 164.47L190.866 175.12L190.326 175.21L197.466 164.47C197.806 163.93 198.316 163.66 198.996 163.66C199.676 163.66 200.016 164.08 200.016 164.92V182.74C200.016 183.58 199.596 184 198.756 184C197.916 184 197.496 183.58 197.496 182.74V167.44L198.276 167.71L191.976 176.98C191.606 177.52 191.096 177.79 190.446 177.79C189.996 177.79 189.586 177.52 189.216 176.98L182.916 167.71L183.666 167.92V182.74C183.666 183.58 183.246 184 182.406 184ZM208.414 184C207.574 184 207.154 183.58 207.154 182.74V164.92C207.154 164.08 207.574 163.66 208.414 163.66H216.244C217.834 163.66 219.054 164.08 219.904 164.92C220.764 165.76 221.194 166.96 221.194 168.52V169.33C221.194 170.68 220.769 171.725 219.919 172.465C221.509 173.355 222.304 174.98 222.304 177.34V178.36C222.304 180.2 221.814 181.6 220.834 182.56C219.864 183.52 218.464 184 216.634 184H208.414ZM209.674 181.48H216.634C217.764 181.48 218.569 181.24 219.049 180.76C219.539 180.27 219.784 179.47 219.784 178.36V177.34C219.784 176.23 219.549 175.44 219.079 174.97C218.609 174.49 217.794 174.25 216.634 174.25H209.674V181.48ZM209.674 171.73H216.784C217.514 171.73 218.009 171.505 218.269 171.055C218.539 170.605 218.674 170.03 218.674 169.33V168.52C218.674 167.65 218.494 167.045 218.134 166.705C217.774 166.355 217.144 166.18 216.244 166.18H209.674V171.73ZM229.499 184C229.069 184 228.749 183.9 228.539 183.7C228.339 183.49 228.239 183.17 228.239 182.74V164.95C228.239 164.51 228.339 164.19 228.539 163.99C228.749 163.79 229.069 163.69 229.499 163.69C229.939 163.69 230.259 163.79 230.459 163.99C230.659 164.19 230.759 164.51 230.759 164.95V182.74C230.759 183.17 230.659 183.49 230.459 183.7C230.259 183.9 229.939 184 229.499 184ZM236.939 183.88C236.139 183.57 235.899 183.02 236.219 182.23L243.359 164.65C243.659 163.99 244.129 163.66 244.769 163.66H244.829C245.479 163.69 245.919 164.02 246.149 164.65L253.409 182.23C253.729 183.02 253.499 183.57 252.719 183.88C251.929 184.19 251.379 183.96 251.069 183.19L249.449 179.26H240.104L238.559 183.19C238.249 183.97 237.709 184.2 236.939 183.88ZM241.094 176.74H248.414L244.679 167.65L241.094 176.74Z" fill="black"/>
</svg>
