<svg width="1500" height="500" viewBox="0 0 1500 500" fill="none" xmlns="http://www.w3.org/2000/svg">
<g clip-path="url(#clip0_328_52)">
<rect width="1500" height="500" fill="black"/>
<g clip-path="url(#clip1_328_52)">
<path d="M528.249 428.191C526.133 428.191 524.074 427.154 522.841 425.235C490.761 375.195 472.816 317.437 470.939 258.208C470.827 254.664 473.6 251.708 477.145 251.596C480.689 251.484 483.645 254.258 483.757 257.802C485.564 314.719 502.809 370.222 533.642 418.314C535.547 421.298 534.693 425.263 531.709 427.182C530.63 427.868 529.439 428.191 528.249 428.191Z" fill="#FF0A1B"/>
<path d="M800.496 532.752C780.183 532.752 759.73 530.581 739.488 526.154C688.174 514.933 641.076 489.843 603.266 453.588C600.703 451.137 600.619 447.074 603.07 444.525C605.522 441.961 609.584 441.877 612.134 444.329C648.235 478.944 693.217 502.899 742.205 513.616C821.019 530.847 902.998 512.369 967.13 462.89C969.932 460.733 973.967 461.251 976.124 464.053C978.281 466.855 977.763 470.889 974.961 473.047C924.291 512.131 862.975 532.752 800.468 532.752H800.496Z" fill="#00BB4F"/>
<path d="M800.51 488.484C783.265 488.484 766.021 486.621 748.958 482.88C705.321 473.34 665.312 451.935 633.259 420.976C630.71 418.51 630.64 414.447 633.105 411.898C635.571 409.348 639.633 409.278 642.169 411.744C672.512 441.036 710.378 461.307 751.704 470.342C778.558 476.212 805.862 477.221 832.87 473.326C858.955 469.558 884.045 461.349 907.453 448.909C954.621 423.847 991.674 383.026 1011.79 333.981C1013.14 330.703 1016.88 329.134 1020.15 330.479C1023.43 331.824 1025 335.564 1023.66 338.842C1002.42 390.647 963.292 433.766 913.477 460.228C888.766 473.368 862.261 482.04 834.706 486.018C823.345 487.657 811.927 488.47 800.524 488.47L800.51 488.484Z" fill="#00B7E7"/>
<path d="M477.355 264.414C473.909 264.414 471.051 261.668 470.953 258.208C469.174 202.103 481.782 146.068 507.418 96.1545C533.838 44.6862 573.623 0.922806 622.5 -30.4148C625.484 -32.334 629.448 -31.4655 631.367 -28.4816C633.273 -25.4977 632.418 -21.5333 629.434 -19.6141C582.477 10.4908 544.219 52.5451 518.835 101.996C494.193 149.99 482.076 203.854 483.785 257.788C483.897 261.332 481.123 264.288 477.579 264.4C477.509 264.4 477.439 264.4 477.369 264.4L477.355 264.414Z" fill="#00B7E7"/>
<path d="M607.722 455.381C606.125 455.381 604.528 454.793 603.281 453.602C568.581 420.331 542.595 378.529 528.138 332.721C513.218 285.469 510.963 234.827 521.582 186.245C522.338 182.785 525.756 180.599 529.216 181.356C532.677 182.112 534.876 185.53 534.119 188.99C523.977 235.374 526.134 283.746 540.381 328.854C554.194 372.618 579.018 412.557 612.162 444.328C614.726 446.78 614.81 450.842 612.358 453.392C611.098 454.709 609.417 455.367 607.722 455.367V455.381Z" fill="#FFB325"/>
<path d="M541.081 164.195C547.201 164.195 552.162 159.234 552.162 153.114C552.162 146.994 547.201 142.033 541.081 142.033C534.961 142.033 530 146.994 530 153.114C530 159.234 534.961 164.195 541.081 164.195Z" fill="#00B7E7"/>
<path d="M401.512 212.834C409.582 212.834 416.123 206.292 416.123 198.222C416.123 190.153 409.582 183.611 401.512 183.611C393.443 183.611 386.901 190.153 386.901 198.222C386.901 206.292 393.443 212.834 401.512 212.834Z" fill="#FF0A1B"/>
<path d="M1040.26 105.807C1048.33 105.807 1054.87 99.2654 1054.87 91.1959C1054.87 83.1264 1048.33 76.5847 1040.26 76.5847C1032.19 76.5847 1025.65 83.1264 1025.65 91.1959C1025.65 99.2654 1032.19 105.807 1040.26 105.807Z" fill="#FFB325"/>
<path d="M1103.7 315.112C1107.73 315.112 1111 311.844 1111 307.813C1111 303.783 1107.73 300.515 1103.7 300.515C1099.67 300.515 1096.4 303.783 1096.4 307.813C1096.4 311.844 1099.67 315.112 1103.7 315.112Z" fill="#FFB325"/>
<path d="M1246 -8C1246 22.9262 1270.85 48 1301.5 48C1332.15 48 1357 22.9262 1357 -8H1246Z" fill="#00BA4F"/>
<path d="M-5 445C28.1353 445 55 471.865 55 505H-5V445Z" fill="#00B7E7"/>
<path d="M250.92 20.1499C249.907 20.1499 248.894 19.765 248.114 18.985C246.564 17.4351 246.564 14.933 248.114 13.3831L392.79 -131.294C394.34 -132.844 396.843 -132.844 398.392 -131.294C399.942 -129.744 399.942 -127.242 398.392 -125.692L253.716 18.985C252.946 19.7549 251.922 20.1499 250.909 20.1499H250.92Z" fill="#00B7E7"/>
<path d="M237.478 33.4293C239.576 33.4293 241.277 31.7285 241.277 29.6305C241.277 27.5325 239.576 25.8318 237.478 25.8318C235.38 25.8318 233.679 27.5325 233.679 29.6305C233.679 31.7285 235.38 33.4293 237.478 33.4293Z" fill="#FF091C"/>
<path d="M14.8097 256.26C13.7967 256.26 12.7837 255.875 12.0037 255.095C10.4538 253.545 10.4538 251.043 12.0037 249.493L156.691 104.816C158.241 103.266 160.743 103.266 162.293 104.816C163.843 106.366 163.843 108.868 162.293 110.418L17.6056 255.095C16.8357 255.865 15.8126 256.26 14.7996 256.26H14.8097Z" fill="white"/>
<path d="M142.338 128.723C141.325 128.723 140.312 128.338 139.532 127.558C137.982 126.008 137.982 123.506 139.532 121.956L221.22 40.2674C222.77 38.7175 225.273 38.7175 226.822 40.2674C228.372 41.8173 228.372 44.3194 226.822 45.8693L145.134 127.558C144.364 128.328 143.341 128.723 142.328 128.723H142.338Z" fill="#FF091C"/>
<path d="M23.2668 207.848C22.2538 207.848 21.2408 207.463 20.4608 206.683C18.9109 205.133 18.9109 202.631 20.4608 201.081L165.148 56.3939C166.698 54.844 169.2 54.844 170.75 56.3939C172.3 57.9438 172.3 60.4459 170.75 61.9958L26.0627 206.683C25.2928 207.453 24.2697 207.848 23.2567 207.848H23.2668Z" fill="#00B7E7"/>
<path d="M70.1687 160.945C69.1556 160.945 68.1426 160.56 67.3626 159.78C65.8127 158.23 65.8127 155.728 67.3626 154.178L212.05 9.49128C213.6 7.94138 216.102 7.94138 217.652 9.49128C219.201 11.0412 219.201 13.5433 217.652 15.0932L72.9645 159.78C72.1947 160.55 71.1715 160.945 70.1585 160.945H70.1687Z" fill="#FF0A1B"/>
<path d="M109.737 121.378C108.724 121.378 107.711 120.993 106.931 120.213C105.381 118.663 105.381 116.161 106.931 114.611L251.618 -30.0662C253.168 -31.6161 255.67 -31.6161 257.22 -30.0662C258.77 -28.5163 258.77 -26.0142 257.22 -24.4643L112.533 120.213C111.763 120.983 110.74 121.378 109.727 121.378H109.737Z" fill="#FFB325"/>
<path d="M19.8241 221.128C21.9221 221.128 23.6229 219.428 23.6229 217.33C23.6229 215.232 21.9221 213.531 19.8241 213.531C17.7262 213.531 16.0254 215.232 16.0254 217.33C16.0254 219.428 17.7262 221.128 19.8241 221.128Z" fill="#FF091C"/>
<path d="M-146.492 470.964C-147.505 470.964 -148.518 470.58 -149.298 469.8C-150.847 468.25 -150.847 465.737 -149.298 464.198L-4.53954 319.592C-2.98964 318.042 -0.477371 318.042 1.06239 319.592C2.61229 321.142 2.61229 323.654 1.06239 325.193L-143.696 469.8C-144.465 470.569 -145.489 470.954 -146.502 470.954L-146.492 470.964Z" fill="#FFB325"/>
<path d="M-18.9036 343.498C-19.9166 343.498 -20.9296 343.113 -21.7097 342.333C-23.2595 340.784 -23.2595 338.271 -21.7097 336.731L60.0193 255.084C61.5692 253.534 64.0815 253.534 65.6213 255.084C67.1712 256.633 67.1712 259.146 65.6213 260.685L-16.1077 342.333C-16.8776 343.103 -17.9008 343.488 -18.9138 343.488L-18.9036 343.498Z" fill="#00BA4F"/>
<path d="M208.457 182.036C207.444 182.036 206.431 181.651 205.651 180.871C204.101 179.321 204.101 176.819 205.651 175.269L350.328 30.5817C351.878 29.0318 354.38 29.0318 355.93 30.5817C357.48 32.1316 357.48 34.6337 355.93 36.1836L211.253 180.871C210.483 181.641 209.46 182.036 208.447 182.036H208.457Z" fill="#00B7E7"/>
<path d="M255.35 135.143C254.337 135.143 253.324 134.759 252.544 133.979C250.994 132.429 250.994 129.927 252.544 128.377L397.221 -16.3105C398.771 -17.8604 401.273 -17.8604 402.823 -16.3105C404.372 -14.7606 404.372 -12.2585 402.823 -10.7086L258.146 133.979C257.376 134.748 256.353 135.143 255.34 135.143H255.35Z" fill="#FF0A1B"/>
<path d="M294.927 95.5654C293.914 95.5654 292.901 95.1805 292.121 94.4005C290.572 92.8506 290.572 90.3485 292.121 88.7986L436.798 -55.8784C438.348 -57.4282 440.85 -57.4282 442.4 -55.8784C443.95 -54.3285 443.95 -51.8263 442.4 -50.2765L297.723 94.4005C296.953 95.1704 295.93 95.5654 294.917 95.5654H294.927Z" fill="#FFB325"/>
<path d="M195.015 195.316C197.113 195.316 198.814 193.615 198.814 191.517C198.814 189.419 197.113 187.719 195.015 187.719C192.917 187.719 191.216 189.419 191.216 191.517C191.216 193.615 192.917 195.316 195.015 195.316Z" fill="#FF091C"/>
<path d="M-27.6532 418.146C-28.6662 418.146 -29.6792 417.761 -30.4592 416.981C-32.0091 415.431 -32.0091 412.929 -30.4592 411.379L114.228 266.702C115.778 265.152 118.28 265.152 119.83 266.702C121.38 268.252 121.38 270.754 119.83 272.304L-24.8573 416.981C-25.6272 417.751 -26.6503 418.146 -27.6633 418.146H-27.6532Z" fill="#FFB325"/>
<path d="M99.8742 290.619C98.8612 290.619 97.8482 290.234 97.0682 289.454C95.5183 287.904 95.5183 285.402 97.0682 283.852L178.757 202.164C180.307 200.614 182.809 200.614 184.359 202.164C185.909 203.714 185.909 206.216 184.359 207.766L102.67 289.454C101.9 290.224 100.877 290.619 99.8641 290.619H99.8742Z" fill="white"/>
<path d="M-17.7757 345.099C-18.7887 345.099 -19.8017 344.714 -20.5817 343.934C-22.1316 342.384 -22.1316 339.882 -20.5817 338.332L124.105 193.655C125.655 192.105 128.157 192.105 129.707 193.655C131.257 195.205 131.257 197.707 129.707 199.257L-14.9799 343.934C-15.7497 344.704 -16.7729 345.099 -17.7859 345.099H-17.7757Z" fill="#00B7E7"/>
<path d="M29.1261 298.197C28.1131 298.197 27.1001 297.812 26.3201 297.032C24.7702 295.482 24.7702 292.98 26.3201 291.43L170.997 146.753C172.547 145.203 175.049 145.203 176.599 146.753C178.149 148.303 178.149 150.805 176.599 152.355L31.922 297.032C31.1521 297.802 30.129 298.197 29.116 298.197H29.1261Z" fill="#FF0A1B"/>
<path d="M68.6936 258.629C67.6806 258.629 66.6675 258.244 65.8875 257.464C64.3376 255.914 64.3376 253.412 65.8875 251.862L210.564 107.175C212.114 105.625 214.616 105.625 216.166 107.175C217.716 108.725 217.716 111.227 216.166 112.777L71.4894 257.464C70.7195 258.234 69.6964 258.629 68.6834 258.629H68.6936Z" fill="#FFB325"/>
<path d="M84.9826 273.925C83.9696 273.925 82.9566 273.54 82.1766 272.76C80.6267 271.211 80.6267 268.708 82.1766 267.159L226.864 122.472C228.414 120.922 230.916 120.922 232.465 122.472C234.015 124.021 234.015 126.524 232.465 128.073L87.7784 272.76C87.0086 273.53 85.9854 273.925 84.9724 273.925H84.9826Z" fill="#FFB325"/>
<path d="M131.875 227.034C130.862 227.034 129.849 226.649 129.069 225.869C127.519 224.319 127.519 221.817 129.069 220.267L273.756 75.5801C275.306 74.0303 277.808 74.0303 279.358 75.5801C280.908 77.13 280.908 79.6322 279.358 81.182L134.671 225.869C133.901 226.639 132.878 227.034 131.865 227.034H131.875Z" fill="#FF0A1B"/>
<path d="M171.452 187.456C170.439 187.456 169.426 187.071 168.646 186.291C167.096 184.741 167.096 182.239 168.646 180.689L313.333 36.0119C314.883 34.462 317.385 34.462 318.935 36.0119C320.485 37.5618 320.485 40.0639 318.935 41.6138L174.248 186.291C173.478 187.061 172.455 187.456 171.442 187.456H171.452Z" fill="#FFB325"/>
<path d="M71.5302 287.206C73.6282 287.206 75.329 285.505 75.329 283.407C75.329 281.309 73.6282 279.608 71.5302 279.608C69.4322 279.608 67.7314 281.309 67.7314 283.407C67.7314 285.505 69.4322 287.206 71.5302 287.206Z" fill="#00BA4F"/>
<path d="M-23.6019 382.51C-24.6149 382.51 -25.6279 382.125 -26.4079 381.345C-27.9578 379.795 -27.9578 377.293 -26.4079 375.743L55.2805 294.054C56.8304 292.504 59.3326 292.504 60.8825 294.054C62.4324 295.604 62.4324 298.106 60.8825 299.656L-20.806 381.345C-21.5759 382.115 -22.5991 382.51 -23.6121 382.51H-23.6019Z" fill="white"/>
<path d="M-24.5906 199.187C-25.6036 199.187 -26.6167 198.802 -27.3967 198.022C-28.9466 196.472 -28.9466 193.97 -27.3967 192.42L117.29 47.7429C118.84 46.193 121.342 46.193 122.892 47.7429C124.442 49.2928 124.442 51.7949 122.892 53.3448L-21.7947 198.022C-22.5646 198.792 -23.5878 199.187 -24.6008 199.187H-24.5906Z" fill="#FFB325"/>
<path d="M102.937 71.6493C101.924 71.6493 100.911 71.2643 100.131 70.4843C98.5813 68.9344 98.5813 66.4323 100.131 64.8824L181.82 -16.8061C183.37 -18.356 185.872 -18.356 187.422 -16.8061C188.971 -15.2562 188.971 -12.7541 187.422 -11.2042L105.733 70.4843C104.963 71.2542 103.94 71.6493 102.927 71.6493H102.937Z" fill="white"/>
<path d="M-14.7137 126.139C-15.7267 126.139 -16.7397 125.754 -17.5197 124.974C-19.0696 123.424 -19.0696 120.922 -17.5197 119.372L127.167 -25.3052C128.717 -26.8551 131.219 -26.8551 132.769 -25.3052C134.319 -23.7553 134.319 -21.2532 132.769 -19.7033L-11.9178 124.974C-12.6877 125.743 -13.7108 126.139 -14.7238 126.139H-14.7137Z" fill="#00B7E7"/>
<path d="M32.1784 79.2366C31.1654 79.2366 30.1524 78.8517 29.3724 78.0716C27.8225 76.5217 27.8225 74.0196 29.3724 72.4697L174.049 -72.2072C175.599 -73.7571 178.101 -73.7571 179.651 -72.2072C181.201 -70.6573 181.201 -68.1552 179.651 -66.6053L34.9742 78.0716C34.2044 78.8415 33.1812 79.2366 32.1682 79.2366H32.1784Z" fill="#FF0A1B"/>
<path d="M71.7462 39.6687C70.7332 39.6687 69.7203 39.2838 68.9403 38.5038C67.3904 36.9539 67.3904 34.4518 68.9403 32.9019L213.617 -111.785C215.167 -113.335 217.669 -113.335 219.219 -111.785C220.769 -110.235 220.769 -107.733 219.219 -106.183L74.5421 38.5038C73.7722 39.2737 72.7491 39.6687 71.7361 39.6687H71.7462Z" fill="#FFB325"/>
<path d="M88.0363 54.9639C87.0233 54.9639 86.0103 54.5789 85.2303 53.799C83.6804 52.2491 83.6804 49.7469 85.2303 48.197L229.917 -96.49C231.467 -98.0399 233.969 -98.0399 235.519 -96.49C237.069 -94.9402 237.069 -92.438 235.519 -90.8881L90.8322 53.799C90.0623 54.5688 89.0392 54.9639 88.0262 54.9639H88.0363Z" fill="#FFB325"/>
<path d="M134.938 8.0735C133.925 8.0735 132.912 7.68857 132.132 6.90857C130.582 5.35867 130.582 2.85655 132.132 1.30666L276.819 -143.38C278.369 -144.93 280.871 -144.93 282.421 -143.38C283.971 -141.831 283.971 -139.328 282.421 -137.779L137.734 6.90857C136.964 7.67845 135.941 8.0735 134.928 8.0735H134.938Z" fill="#FF0A1B"/>
<path d="M74.5927 68.2457C76.6907 68.2457 78.3915 66.5449 78.3915 64.447C78.3915 62.349 76.6907 60.6482 74.5927 60.6482C72.4947 60.6482 70.7939 62.349 70.7939 64.447C70.7939 66.5449 72.4947 68.2457 74.5927 68.2457Z" fill="white"/>
<path d="M1317 488.859C1315.99 488.859 1314.98 488.474 1314.2 487.694C1312.65 486.144 1312.65 483.642 1314.2 482.092L1458.88 337.415C1460.42 335.865 1462.93 335.865 1464.48 337.415C1466.03 338.965 1466.03 341.467 1464.48 343.017L1319.8 487.694C1319.03 488.464 1318.01 488.859 1316.99 488.859H1317Z" fill="#FFB325"/>
<path d="M1444.54 361.332C1443.53 361.332 1442.52 360.947 1441.74 360.167C1440.19 358.617 1440.19 356.115 1441.74 354.565L1523.42 272.877C1524.97 271.327 1527.48 271.327 1529.03 272.877C1530.58 274.427 1530.58 276.929 1529.03 278.479L1447.34 360.167C1446.57 360.937 1445.54 361.332 1444.53 361.332H1444.54Z" fill="#FF091C"/>
<path d="M1419.77 417.696C1418.75 417.696 1417.74 417.311 1416.96 416.531C1415.41 414.981 1415.41 412.479 1416.96 410.929L1561.64 266.252C1563.19 264.702 1565.69 264.702 1567.24 266.252C1568.79 267.802 1568.79 270.304 1567.24 271.854L1422.56 416.531C1421.79 417.301 1420.77 417.696 1419.76 417.696H1419.77Z" fill="white"/>
<path d="M1239.1 491.361C1240.12 491.361 1241.13 491.746 1241.91 492.526C1243.46 494.076 1243.46 496.578 1241.91 498.128L1097.23 642.805C1095.68 644.355 1093.18 644.355 1091.63 642.805C1090.08 641.255 1090.08 638.753 1091.63 637.203L1236.31 492.526C1237.08 491.756 1238.1 491.361 1239.11 491.361H1239.1Z" fill="#00B7E7"/>
<path d="M1252.56 485.668C1254.66 485.668 1256.36 483.968 1256.36 481.87C1256.36 479.772 1254.66 478.071 1252.56 478.071C1250.46 478.071 1248.76 479.772 1248.76 481.87C1248.76 483.968 1250.46 485.668 1252.56 485.668Z" fill="#FF091C"/>
<path d="M1475.22 255.251C1476.23 255.251 1477.24 255.636 1478.02 256.416C1479.57 257.965 1479.57 260.468 1478.02 262.017L1333.33 406.694C1331.78 408.244 1329.28 408.244 1327.73 406.694C1326.18 405.145 1326.18 402.642 1327.73 401.092L1472.42 256.416C1473.19 255.646 1474.21 255.251 1475.23 255.251H1475.22Z" fill="#00BA4F"/>
<path d="M1347.69 382.778C1348.7 382.778 1349.71 383.163 1350.49 383.943C1352.04 385.493 1352.04 387.995 1350.49 389.545L1268.81 471.234C1267.26 472.784 1264.75 472.784 1263.2 471.234C1261.65 469.684 1261.65 467.182 1263.2 465.632L1344.89 383.943C1345.66 383.173 1346.69 382.778 1347.7 382.778H1347.69Z" fill="#FF091C"/>
<path d="M1456.76 303.662C1457.77 303.662 1458.78 304.047 1459.56 304.827C1461.11 306.377 1461.11 308.879 1459.56 310.429L1314.88 455.116C1313.33 456.666 1310.83 456.666 1309.28 455.116C1307.73 453.566 1307.73 451.064 1309.28 449.514L1453.96 304.827C1454.73 304.057 1455.76 303.662 1456.77 303.662H1456.76Z" fill="#FFB325"/>
<path d="M1409.87 350.554C1410.88 350.554 1411.89 350.939 1412.67 351.719C1414.22 353.269 1414.22 355.771 1412.67 357.321L1267.99 502.008C1266.44 503.558 1263.93 503.558 1262.38 502.008C1260.83 500.458 1260.83 497.956 1262.38 496.406L1407.07 351.719C1407.84 350.949 1408.86 350.554 1409.88 350.554H1409.87Z" fill="#00B7E7"/>
<path d="M1370.3 390.131C1371.31 390.131 1372.33 390.516 1373.11 391.296C1374.66 392.846 1374.66 395.348 1373.11 396.898L1228.42 541.575C1226.87 543.125 1224.37 543.125 1222.82 541.575C1221.27 540.025 1221.27 537.523 1222.82 535.973L1367.5 391.296C1368.27 390.527 1369.3 390.131 1370.31 390.131H1370.3Z" fill="#FFB325"/>
<path d="M1470.21 297.979C1472.31 297.979 1474.01 296.279 1474.01 294.181C1474.01 292.083 1472.31 290.382 1470.21 290.382C1468.11 290.382 1466.41 292.083 1466.41 294.181C1466.41 296.279 1468.11 297.979 1470.21 297.979Z" fill="white"/>
<path d="M1636.53 40.5348C1637.54 40.5348 1638.55 40.9198 1639.33 41.6998C1640.88 43.2497 1640.88 45.7619 1639.33 47.3017L1494.57 191.908C1493.02 193.458 1490.51 193.458 1488.97 191.908C1487.42 190.358 1487.42 187.846 1488.97 186.306L1633.73 41.6998C1634.5 40.9299 1635.52 40.5449 1636.54 40.5449L1636.53 40.5348Z" fill="#FFB325"/>
<path d="M1508.93 168.001C1509.94 168.001 1510.95 168.386 1511.73 169.166C1513.28 170.716 1513.28 173.228 1511.73 174.768L1430 256.416C1428.45 257.965 1425.94 257.965 1424.4 256.416C1422.85 254.866 1422.85 252.353 1424.4 250.814L1506.13 169.166C1506.9 168.396 1507.92 168.011 1508.94 168.011L1508.93 168.001Z" fill="#00B7E7"/>
<path d="M1304.99 274.913C1306 274.913 1307.02 275.298 1307.8 276.078C1309.35 277.628 1309.35 280.13 1307.8 281.68L1163.12 426.367C1161.57 427.917 1159.07 427.917 1157.52 426.367C1155.97 424.817 1155.97 422.315 1157.52 420.765L1302.19 276.078C1302.96 275.308 1303.99 274.913 1305 274.913H1304.99Z" fill="#00B7E7"/>
<path d="M1258.1 321.815C1259.11 321.815 1260.12 322.2 1260.9 322.98C1262.45 324.53 1262.45 327.032 1260.9 328.582L1116.23 473.269C1114.68 474.819 1112.18 474.819 1110.63 473.269C1109.08 471.719 1109.08 469.217 1110.63 467.667L1255.3 322.98C1256.07 322.21 1257.1 321.815 1258.11 321.815H1258.1Z" fill="#FF0A1B"/>
<path d="M1218.52 361.383C1219.53 361.383 1220.55 361.768 1221.33 362.548C1222.88 364.097 1222.88 366.6 1221.33 368.15L1076.65 512.826C1075.1 514.376 1072.6 514.376 1071.05 512.826C1069.5 511.277 1069.5 508.774 1071.05 507.225L1215.73 362.548C1216.49 361.778 1217.52 361.383 1218.53 361.383H1218.52Z" fill="#FFB325"/>
<path d="M1318.43 269.23C1320.53 269.23 1322.23 267.53 1322.23 265.432C1322.23 263.334 1320.53 261.633 1318.43 261.633C1316.33 261.633 1314.63 263.334 1314.63 265.432C1314.63 267.53 1316.33 269.23 1318.43 269.23Z" fill="#FF091C"/>
<path d="M1541.1 38.8131C1542.11 38.8131 1543.13 39.198 1543.91 39.9781C1545.46 41.5279 1545.46 44.0301 1543.91 45.58L1399.22 190.257C1397.67 191.807 1395.17 191.807 1393.62 190.257C1392.07 188.707 1392.07 186.205 1393.62 184.655L1538.31 39.9781C1539.07 39.2082 1540.1 38.8131 1541.11 38.8131H1541.1Z" fill="#00B7E7"/>
<path d="M1413.57 166.339C1414.59 166.339 1415.6 166.724 1416.38 167.504C1417.93 169.054 1417.93 171.556 1416.38 173.106L1334.69 254.795C1333.14 256.345 1330.64 256.345 1329.09 254.795C1327.54 253.245 1327.54 250.743 1329.09 249.193L1410.78 167.504C1411.55 166.735 1412.57 166.339 1413.58 166.339H1413.57Z" fill="#FFB325"/>
<path d="M1531.22 111.851C1532.24 111.851 1533.25 112.236 1534.03 113.016C1535.58 114.566 1535.58 117.068 1534.03 118.618L1389.34 263.295C1387.79 264.845 1385.29 264.845 1383.74 263.295C1382.19 261.745 1382.19 259.243 1383.74 257.693L1528.43 113.016C1529.2 112.246 1530.22 111.851 1531.23 111.851H1531.22Z" fill="#00B7E7"/>
<path d="M1484.33 158.752C1485.35 158.752 1486.36 159.137 1487.14 159.917C1488.69 161.467 1488.69 163.969 1487.14 165.519L1342.46 310.196C1340.91 311.746 1338.41 311.746 1336.86 310.196C1335.31 308.646 1335.31 306.144 1336.86 304.594L1481.54 159.917C1482.31 159.147 1483.33 158.752 1484.34 158.752H1484.33Z" fill="#FFB325"/>
<path d="M1444.75 198.321C1445.77 198.321 1446.78 198.705 1447.56 199.486C1449.11 201.035 1449.11 203.538 1447.56 205.087L1302.88 349.775C1301.33 351.324 1298.83 351.324 1297.28 349.775C1295.73 348.225 1295.73 345.722 1297.28 344.173L1441.96 199.486C1442.73 198.716 1443.75 198.321 1444.76 198.321H1444.75Z" fill="#FF0A1B"/>
<path d="M1428.47 183.024C1429.48 183.024 1430.49 183.409 1431.27 184.189C1432.82 185.739 1432.82 188.241 1431.27 189.791L1286.58 334.478C1285.03 336.028 1282.53 336.028 1280.98 334.478C1279.43 332.928 1279.43 330.426 1280.98 328.876L1425.67 184.189C1426.44 183.419 1427.46 183.024 1428.48 183.024H1428.47Z" fill="white"/>
<path d="M1381.57 229.926C1382.59 229.926 1383.6 230.311 1384.38 231.091C1385.93 232.641 1385.93 235.143 1384.38 236.693L1239.69 381.38C1238.14 382.93 1235.64 382.93 1234.09 381.38C1232.54 379.83 1232.54 377.328 1234.09 375.778L1378.78 231.091C1379.55 230.321 1380.57 229.926 1381.58 229.926H1381.57Z" fill="#FF0A1B"/>
<path d="M1342.01 269.494C1343.02 269.494 1344.03 269.879 1344.81 270.659C1346.36 272.208 1346.36 274.711 1344.81 276.26L1200.12 420.937C1198.57 422.487 1196.07 422.487 1194.52 420.937C1192.97 419.388 1192.97 416.885 1194.52 415.336L1339.21 270.659C1339.98 269.889 1341 269.494 1342.02 269.494H1342.01Z" fill="#FFB325"/>
<path d="M1441.92 177.341C1444.02 177.341 1445.72 175.64 1445.72 173.542C1445.72 171.444 1444.02 169.744 1441.92 169.744C1439.82 169.744 1438.12 171.444 1438.12 173.542C1438.12 175.64 1439.82 177.341 1441.92 177.341Z" fill="#FFB325"/>
<path d="M1537.05 74.4509C1538.06 74.4509 1539.08 74.8359 1539.86 75.6159C1541.41 77.1658 1541.41 79.6679 1539.86 81.2178L1458.17 162.906C1456.62 164.456 1454.11 164.456 1452.56 162.906C1451.01 161.356 1451.01 158.854 1452.56 157.304L1534.25 75.6159C1535.02 74.846 1536.05 74.4509 1537.06 74.4509H1537.05Z" fill="#FF0A1B"/>
</g>
<g clip-path="url(#clip2_328_52)">
<path d="M886.654 146.121V299.787C886.654 310.596 877.862 319.403 867.037 319.403H632.617C621.807 319.403 613 310.611 613 299.787V165.737C613 154.913 621.792 146.121 632.617 146.121H886.654Z" fill="#161616"/>
<path d="M632.617 150.336H882.438V251.641H617.215V165.737C617.215 157.246 624.126 150.336 632.617 150.336Z" fill="white"/>
<path d="M617.215 299.787V255.856H882.438V299.787C882.438 308.278 875.528 315.173 867.052 315.173H632.617C624.126 315.173 617.23 308.263 617.23 299.787H617.215Z" fill="white"/>
<path d="M806.471 184.104H845.689L809.452 220.342L806.471 217.361L835.497 188.335H806.471V184.104Z" fill="#FFB325"/>
<path d="M849.904 179.889H806.471V175.659H854.135L849.904 179.889Z" fill="#FF0A1B"/>
<path d="M852.9 182.87L857.116 178.655V226.319H852.9V182.87Z" fill="#00BB4F"/>
<path d="M848.67 226.319H844.454V197.278L815.413 226.319L812.433 223.323L848.67 187.085V226.319Z" fill="#00B7E7"/>
<path d="M649.388 197.172H653.061C655.41 197.172 657.126 196.615 658.24 195.501C659.354 194.387 659.911 192.656 659.911 190.337V183.307C659.911 180.958 659.354 179.242 658.24 178.128C657.126 177.014 655.41 176.457 653.061 176.457H649.388C647.069 176.442 645.338 176.984 644.224 178.083C643.11 179.182 642.538 180.913 642.538 183.276V190.337C642.538 192.671 643.095 194.387 644.209 195.501C645.323 196.615 647.054 197.172 649.373 197.172H649.388ZM649.388 194.613C648.304 194.613 647.446 194.477 646.828 194.221C646.211 193.966 645.774 193.529 645.503 192.897C645.247 192.279 645.112 191.421 645.112 190.337V183.276C645.112 182.193 645.247 181.334 645.503 180.717C645.774 180.1 646.211 179.663 646.828 179.407C647.446 179.151 648.304 179.031 649.373 179.046H653.046C654.13 179.046 654.988 179.182 655.605 179.437C656.223 179.708 656.659 180.145 656.93 180.762C657.186 181.38 657.322 182.238 657.322 183.307V190.337C657.322 191.421 657.186 192.279 656.93 192.897C656.674 193.514 656.223 193.95 655.605 194.221C654.988 194.477 654.13 194.613 653.046 194.613H649.373H649.388Z" fill="#161616"/>
<path d="M666.49 203.284C667.348 203.284 667.77 202.863 667.77 202.005V197.172H673.702C675.734 197.172 677.239 196.675 678.218 195.697C679.197 194.718 679.678 193.213 679.678 191.18V187.672C679.678 185.64 679.197 184.135 678.218 183.156C677.239 182.177 675.734 181.696 673.702 181.696H672.542C671.534 181.696 670.63 181.831 669.817 182.117C669.004 182.403 668.327 182.81 667.785 183.367V182.99C667.785 182.132 667.363 181.711 666.505 181.711C665.647 181.711 665.226 182.132 665.226 182.99V202.02C665.226 202.878 665.647 203.3 666.505 203.3L666.49 203.284ZM667.77 194.613V186.167C667.815 185.505 668.312 185.023 669.23 184.722C670.164 184.421 671.263 184.27 672.527 184.27H673.686C675.026 184.27 675.93 184.511 676.396 184.978C676.863 185.444 677.104 186.348 677.104 187.688V191.195C677.104 192.52 676.863 193.423 676.396 193.905C675.93 194.387 675.011 194.628 673.686 194.628H667.755L667.77 194.613Z" fill="#161616"/>
<path d="M686.844 190.473H697.473C698.331 190.473 698.753 190.051 698.753 189.193V187.673C698.753 185.625 698.271 184.12 697.293 183.141C696.314 182.162 694.809 181.681 692.776 181.681H690.277C688.245 181.666 686.739 182.132 685.761 183.111C684.782 184.089 684.285 185.61 684.285 187.673V191.21C684.285 193.228 684.782 194.718 685.761 195.697C686.739 196.675 688.245 197.157 690.277 197.157H692.776C694.507 197.157 695.862 196.841 696.841 196.224C697.82 195.606 698.422 194.658 698.648 193.393C698.723 192.972 698.648 192.641 698.437 192.415C698.211 192.189 697.88 192.084 697.458 192.084C697.037 192.084 696.751 192.189 696.555 192.385C696.359 192.595 696.209 192.882 696.088 193.273C695.923 193.755 695.591 194.101 695.095 194.297C694.598 194.492 693.83 194.583 692.791 194.583H690.292C688.967 194.583 688.064 194.342 687.582 193.875C687.1 193.408 686.86 192.505 686.86 191.195V190.458L686.844 190.473ZM690.262 184.24H692.761C694.101 184.24 695.004 184.481 695.471 184.948C695.938 185.414 696.179 186.318 696.179 187.657V187.898H686.829V187.657C686.829 186.318 687.07 185.399 687.552 184.917C688.034 184.436 688.937 184.21 690.262 184.225V184.24Z" fill="#161616"/>
<path d="M705.362 197.172C706.22 197.172 706.641 196.751 706.641 195.893V185.986C706.777 185.384 707.304 184.948 708.222 184.662C709.125 184.375 710.194 184.24 711.414 184.24H712.272C713.582 184.24 714.485 184.481 714.967 184.948C715.449 185.414 715.689 186.318 715.689 187.657V195.877C715.689 196.736 716.111 197.157 716.969 197.157C717.827 197.157 718.249 196.736 718.249 195.877V187.657C718.249 185.625 717.767 184.12 716.788 183.141C715.81 182.162 714.304 181.681 712.272 181.681H711.414C709.321 181.681 707.725 182.283 706.641 183.472V182.975C706.641 182.117 706.22 181.696 705.362 181.696C704.504 181.696 704.082 182.117 704.082 182.975V195.893C704.082 196.751 704.504 197.172 705.362 197.172Z" fill="#161616"/>
<path d="M725.28 197.172C725.731 197.172 726.047 197.067 726.258 196.856C726.469 196.645 726.559 196.329 726.559 195.892V177.781C726.559 177.33 726.454 177.014 726.258 176.803C726.047 176.592 725.731 176.502 725.28 176.502C724.828 176.502 724.512 176.607 724.316 176.803C724.105 177.014 724 177.33 724 177.781V195.892C724 196.329 724.105 196.66 724.316 196.856C724.527 197.052 724.843 197.172 725.28 197.172Z" fill="#161616"/>
<path d="M733.891 197.172C734.749 197.172 735.171 196.751 735.171 195.893V185.986C735.306 185.384 735.833 184.948 736.736 184.662C737.64 184.375 738.708 184.24 739.928 184.24H740.786C742.096 184.24 742.999 184.481 743.481 184.948C743.963 185.414 744.204 186.318 744.204 187.657V195.877C744.204 196.736 744.625 197.157 745.483 197.157C746.341 197.157 746.763 196.736 746.763 195.877V187.657C746.763 185.625 746.281 184.12 745.303 183.141C744.324 182.162 742.818 181.681 740.786 181.681H739.928C737.835 181.681 736.239 182.283 735.156 183.472V182.975C735.156 182.117 734.734 181.696 733.876 181.696C733.018 181.696 732.596 182.117 732.596 182.975V195.893C732.596 196.751 733.018 197.172 733.876 197.172H733.891Z" fill="#161616"/>
<path d="M754.396 197.172C755.254 197.172 755.676 196.751 755.676 195.892V184.255H758.822C759.68 184.255 760.102 183.833 760.102 182.975C760.102 182.117 759.68 181.696 758.822 181.696H755.676V181.575C755.676 180.265 755.917 179.392 756.383 178.926C756.85 178.474 757.723 178.233 759.018 178.233C759.756 178.233 760.117 177.812 760.117 176.953C760.117 176.095 759.756 175.674 759.018 175.674C757.016 175.674 755.54 176.155 754.577 177.119C753.613 178.082 753.131 179.573 753.131 181.575V181.696H752.002C751.144 181.696 750.723 182.117 750.723 182.975C750.723 183.833 751.144 184.255 752.002 184.255H753.131V195.892C753.131 196.751 753.553 197.172 754.411 197.172H754.396Z" fill="#161616"/>
<path d="M765.296 197.172C766.154 197.172 766.575 196.751 766.575 195.892V187.808C766.621 186.739 767.117 185.881 768.036 185.234C768.969 184.586 770.309 184.255 772.07 184.255C772.929 184.255 773.35 183.833 773.35 182.975C773.35 182.117 772.929 181.696 772.07 181.696C770.866 181.696 769.797 181.906 768.864 182.328C767.93 182.75 767.163 183.367 766.56 184.18V182.99C766.56 182.132 766.139 181.711 765.281 181.711C764.423 181.711 764.001 182.132 764.001 182.99V195.908C764.001 196.766 764.423 197.187 765.281 197.187L765.296 197.172Z" fill="#161616"/>
<path d="M780.606 197.172H782.323C784.415 197.172 785.996 196.51 787.095 195.2V195.892C787.095 196.751 787.517 197.172 788.375 197.172C789.233 197.172 789.654 196.751 789.654 195.892V187.672C789.654 185.64 789.173 184.135 788.194 183.156C787.216 182.177 785.71 181.696 783.678 181.696H781.901C780.155 181.696 778.8 181.967 777.836 182.494C776.858 183.021 776.225 183.864 775.924 185.023C775.819 185.414 775.894 185.745 776.135 185.971C776.376 186.197 776.722 186.333 777.144 186.333C777.535 186.333 777.821 186.257 778.017 186.092C778.213 185.926 778.393 185.64 778.589 185.203C778.8 184.842 779.146 184.601 779.643 184.466C780.14 184.33 780.907 184.255 781.916 184.255H783.693C784.897 184.255 785.755 184.451 786.252 184.842C786.749 185.234 787.035 185.971 787.095 187.04H780.636C778.92 187.04 777.641 187.462 776.813 188.29C775.985 189.133 775.563 190.397 775.563 192.114C775.563 193.83 775.985 195.095 776.813 195.938C777.641 196.781 778.92 197.187 780.636 197.187L780.606 197.172ZM780.606 194.613C779.598 194.613 778.935 194.447 778.604 194.116C778.273 193.785 778.107 193.122 778.107 192.114C778.107 191.105 778.273 190.443 778.604 190.111C778.935 189.78 779.598 189.615 780.606 189.615H787.08V192.084C786.929 192.761 786.613 193.288 786.147 193.664C785.68 194.041 785.108 194.282 784.445 194.417C783.783 194.553 783.075 194.628 782.323 194.628H780.606V194.613Z" fill="#161616"/>
<path d="M647.13 226.319H649.583C651.149 226.319 652.308 225.942 653.061 225.205C653.814 224.467 654.175 223.308 654.175 221.742V213.311C654.175 213.025 654.1 212.814 653.964 212.664C653.814 212.528 653.603 212.453 653.317 212.453C653.031 212.453 652.82 212.528 652.67 212.664C652.519 212.799 652.459 213.025 652.459 213.311V221.742C652.459 222.465 652.369 223.052 652.203 223.458C652.022 223.88 651.736 224.166 651.315 224.346C650.893 224.527 650.321 224.602 649.599 224.602H647.145C646.407 224.602 645.835 224.512 645.428 224.346C645.007 224.166 644.721 223.88 644.54 223.458C644.359 223.037 644.284 222.465 644.284 221.742V213.311C644.284 213.025 644.209 212.814 644.073 212.664C643.938 212.513 643.712 212.453 643.426 212.453C643.14 212.453 642.929 212.528 642.779 212.664C642.628 212.799 642.568 213.025 642.568 213.311V221.742C642.568 223.308 642.944 224.467 643.682 225.205C644.42 225.942 645.579 226.319 647.145 226.319H647.13Z" fill="#161616"/>
<path d="M663.645 226.319H666.595C667.95 226.319 668.944 226.002 669.606 225.355C670.269 224.708 670.585 223.714 670.585 222.344C670.585 220.974 670.254 219.965 669.591 219.318C668.929 218.671 667.935 218.339 666.58 218.339H664.036C663.223 218.339 662.666 218.189 662.38 217.888C662.094 217.587 661.943 217.03 661.943 216.232C661.943 215.434 662.079 214.892 662.365 214.606C662.651 214.32 663.193 214.169 664.021 214.169H666.46C667.077 214.169 667.529 214.245 667.845 214.395C668.146 214.546 668.357 214.817 668.462 215.223C668.507 215.494 668.598 215.705 668.733 215.84C668.869 215.976 669.079 216.051 669.35 216.051C669.652 216.051 669.877 215.976 670.028 215.825C670.178 215.675 670.239 215.449 670.194 215.148C670.028 214.229 669.636 213.552 669.019 213.115C668.402 212.679 667.544 212.453 666.46 212.453H664.021C662.726 212.453 661.778 212.769 661.161 213.386C660.543 214.004 660.227 214.967 660.227 216.247C660.227 217.527 660.543 218.505 661.161 219.137C661.778 219.77 662.741 220.086 664.036 220.086H666.58C667.438 220.086 668.041 220.251 668.357 220.568C668.688 220.899 668.854 221.501 668.854 222.374C668.854 223.247 668.688 223.835 668.372 224.151C668.056 224.467 667.454 224.632 666.58 224.632H663.63C662.937 224.632 662.41 224.542 662.079 224.377C661.748 224.196 661.522 223.88 661.416 223.413C661.371 223.127 661.281 222.916 661.146 222.781C661.01 222.645 660.799 222.57 660.513 222.57C660.227 222.57 660.001 222.645 659.851 222.796C659.7 222.946 659.64 223.172 659.67 223.473C659.836 224.452 660.242 225.189 660.89 225.656C661.537 226.123 662.455 226.364 663.615 226.364L663.645 226.319Z" fill="#161616"/>
<path d="M677.375 226.319H684.722C685.294 226.319 685.58 226.032 685.58 225.46C685.58 224.888 685.294 224.602 684.722 224.602H678.233V220.176H682.313C682.885 220.176 683.171 219.89 683.171 219.318C683.171 218.746 682.885 218.46 682.313 218.46H678.233V214.154H684.722C685.294 214.154 685.58 213.868 685.58 213.296C685.58 212.724 685.294 212.438 684.722 212.438H677.375C676.803 212.438 676.517 212.724 676.517 213.296V225.46C676.517 226.032 676.803 226.319 677.375 226.319Z" fill="#161616"/>
<path d="M700.244 226.349C700.725 226.048 700.831 225.656 700.575 225.174L697.895 220.703C698.843 220.553 699.581 220.146 700.093 219.499C700.605 218.851 700.846 217.993 700.846 216.909V216.292C700.846 215.042 700.515 214.079 699.852 213.416C699.19 212.754 698.226 212.423 696.977 212.423H692.189C691.617 212.423 691.331 212.709 691.331 213.281V225.445C691.331 226.017 691.617 226.304 692.189 226.304C692.761 226.304 693.047 226.017 693.047 225.445V220.778H695.908L699.084 226.063C699.22 226.288 699.401 226.424 699.611 226.484C699.822 226.544 700.033 226.484 700.259 226.349H700.244ZM693.032 219.062V214.139H696.962C697.744 214.139 698.286 214.305 698.618 214.636C698.949 214.967 699.114 215.524 699.114 216.292V216.909C699.114 217.692 698.949 218.234 698.618 218.565C698.286 218.896 697.744 219.062 696.962 219.062H693.032Z" fill="#161616"/>
<path d="M718.746 226.319H721.2C722.63 226.319 723.684 225.987 724.361 225.325C725.039 224.662 725.37 223.594 725.37 222.148V220.327C725.37 219.755 725.084 219.469 724.512 219.469H722.058C721.486 219.453 721.2 219.74 721.2 220.312C721.2 220.884 721.486 221.17 722.058 221.17H723.654V222.148C723.654 222.796 723.578 223.292 723.443 223.654C723.307 224.015 723.051 224.256 722.69 224.391C722.329 224.527 721.832 224.602 721.2 224.602H718.746C718.023 224.602 717.436 224.512 717.029 224.346C716.608 224.166 716.322 223.88 716.141 223.458C715.96 223.037 715.885 222.464 715.885 221.742V217.03C715.885 216.292 715.976 215.72 716.141 215.298C716.322 214.877 716.608 214.576 717.014 214.41C717.421 214.244 717.993 214.154 718.716 214.169H721.2C721.998 214.169 722.585 214.275 722.946 214.5C723.307 214.726 723.533 215.148 723.593 215.765C723.669 216.337 723.97 216.623 724.497 216.623C724.783 216.623 725.009 216.548 725.159 216.397C725.31 216.247 725.37 216.036 725.325 215.735C725.219 214.591 724.828 213.763 724.15 213.236C723.473 212.709 722.494 212.438 721.215 212.438H718.731C717.18 212.438 716.021 212.784 715.283 213.537C714.545 214.29 714.169 215.449 714.169 217.03V221.742C714.169 223.308 714.545 224.467 715.283 225.204C716.021 225.942 717.18 226.319 718.746 226.319Z" fill="#161616"/>
<path d="M739.823 226.349C740.304 226.048 740.41 225.656 740.154 225.174L737.474 220.703C738.423 220.553 739.16 220.146 739.672 219.499C740.184 218.851 740.425 217.993 740.425 216.909V216.292C740.425 215.042 740.094 214.079 739.431 213.416C738.769 212.754 737.805 212.423 736.556 212.423H731.768C731.196 212.423 730.91 212.709 730.91 213.281V225.445C730.91 226.017 731.196 226.304 731.768 226.304C732.34 226.304 732.626 226.017 732.626 225.445V220.778H735.487L738.663 226.063C738.799 226.288 738.98 226.424 739.19 226.484C739.401 226.544 739.612 226.484 739.838 226.349H739.823ZM732.611 219.062V214.139H736.541C737.324 214.139 737.866 214.305 738.197 214.636C738.528 214.967 738.694 215.524 738.694 216.292V216.909C738.694 217.692 738.528 218.234 738.197 218.565C737.866 218.896 737.324 219.062 736.541 219.062H732.611Z" fill="#161616"/>
<path d="M749.94 226.319H752.394C753.96 226.319 755.119 225.942 755.872 225.204C756.609 224.452 756.986 223.308 756.986 221.742V217.03C756.986 215.464 756.609 214.305 755.872 213.552C755.134 212.814 753.975 212.438 752.394 212.438H749.94C748.389 212.438 747.23 212.784 746.477 213.522C745.725 214.26 745.348 215.419 745.348 217V221.727C745.348 223.292 745.725 224.452 746.462 225.189C747.2 225.927 748.359 226.303 749.925 226.303L749.94 226.319ZM749.94 224.602C749.217 224.602 748.63 224.512 748.224 224.346C747.802 224.166 747.516 223.88 747.335 223.458C747.155 223.037 747.079 222.464 747.079 221.742V217.015C747.079 216.277 747.17 215.705 747.35 215.298C747.531 214.877 747.832 214.591 748.239 214.425C748.66 214.26 749.232 214.169 749.955 214.184H752.409C753.132 214.184 753.719 214.275 754.125 214.455C754.547 214.636 754.833 214.937 755.013 215.343C755.194 215.765 755.269 216.337 755.269 217.06V221.772C755.269 222.495 755.179 223.082 755.013 223.488C754.833 223.91 754.547 224.196 754.125 224.376C753.704 224.557 753.132 224.632 752.409 224.632H749.955L749.94 224.602Z" fill="#161616"/>
<path d="M767.388 226.319H769.842C771.408 226.319 772.567 225.942 773.32 225.205C774.073 224.467 774.434 223.308 774.434 221.742V213.311C774.434 213.025 774.359 212.814 774.223 212.664C774.073 212.528 773.862 212.453 773.576 212.453C773.29 212.453 773.079 212.528 772.929 212.664C772.778 212.799 772.718 213.025 772.718 213.311V221.742C772.718 222.465 772.627 223.052 772.462 223.458C772.281 223.88 771.995 224.166 771.574 224.346C771.152 224.527 770.58 224.602 769.857 224.602H767.403C766.666 224.602 766.094 224.512 765.687 224.346C765.266 224.166 764.98 223.88 764.799 223.458C764.618 223.037 764.543 222.465 764.543 221.742V213.311C764.543 213.025 764.468 212.814 764.332 212.664C764.197 212.513 763.971 212.453 763.685 212.453C763.399 212.453 763.188 212.528 763.037 212.664C762.887 212.799 762.827 213.025 762.827 213.311V221.742C762.827 223.308 763.203 224.467 763.941 225.205C764.678 225.942 765.838 226.319 767.403 226.319H767.388Z" fill="#161616"/>
<path d="M780.983 226.319C781.555 226.319 781.841 226.032 781.841 225.46V220.793H785.771C787.02 220.793 787.984 220.462 788.646 219.8C789.309 219.137 789.64 218.174 789.64 216.924V216.307C789.64 215.057 789.309 214.094 788.646 213.431C787.984 212.769 787.02 212.438 785.771 212.438H780.983C780.411 212.438 780.125 212.724 780.125 213.296V225.46C780.125 226.032 780.411 226.319 780.983 226.319ZM781.841 219.062V214.139H785.771C786.553 214.139 787.095 214.305 787.427 214.636C787.758 214.967 787.923 215.524 787.923 216.292V216.909C787.923 217.692 787.758 218.234 787.427 218.565C787.095 218.896 786.553 219.062 785.771 219.062H781.841Z" fill="#161616"/>
<path d="M712.092 291.838H705.152L703.827 295.797H699.611L706.762 276.572H710.436L717.632 295.797H713.417L712.077 291.838H712.092ZM706.22 288.631H711.023L708.599 281.435L706.205 288.631H706.22Z" fill="#161616"/>
<path d="M727.327 294.337C726.394 295.481 725.084 296.053 723.413 296.053C721.878 296.053 720.718 295.616 719.905 294.728C719.092 293.855 718.686 292.56 718.671 290.859V281.495H722.48V290.739C722.48 292.229 723.157 292.967 724.512 292.967C725.867 292.967 726.695 292.515 727.177 291.612V281.48H731.001V295.767H727.403L727.297 294.322L727.327 294.337Z" fill="#161616"/>
<path d="M733.079 288.541C733.079 286.343 733.606 284.581 734.644 283.241C735.683 281.901 737.098 281.239 738.86 281.239C740.425 281.239 741.645 281.781 742.518 282.85L742.684 281.51H746.146V295.315C746.146 296.565 745.86 297.649 745.288 298.582C744.716 299.501 743.918 300.208 742.894 300.69C741.871 301.172 740.651 301.413 739.281 301.413C738.227 301.413 737.219 301.202 736.225 300.78C735.231 300.359 734.479 299.817 733.967 299.169L735.653 296.851C736.601 297.92 737.761 298.447 739.116 298.447C740.124 298.447 740.922 298.176 741.479 297.634C742.036 297.092 742.322 296.324 742.322 295.33V294.563C741.449 295.556 740.29 296.053 738.845 296.053C737.128 296.053 735.743 295.375 734.674 294.036C733.606 292.696 733.079 290.919 733.079 288.691V288.525V288.541ZM736.888 288.812C736.888 290.106 737.143 291.13 737.67 291.868C738.182 292.605 738.905 292.982 739.808 292.982C740.967 292.982 741.795 292.545 742.307 291.672V285.635C741.795 284.762 740.967 284.325 739.838 284.325C738.92 284.325 738.197 284.702 737.685 285.454C737.174 286.207 736.903 287.336 736.903 288.827L736.888 288.812Z" fill="#161616"/>
<path d="M757.347 294.337C756.414 295.481 755.104 296.053 753.433 296.053C751.897 296.053 750.738 295.616 749.925 294.728C749.112 293.855 748.705 292.56 748.69 290.859V281.495H752.514V290.739C752.514 292.229 753.192 292.967 754.547 292.967C755.902 292.967 756.73 292.515 757.212 291.612V281.48H761.035V295.767H757.437L757.332 294.322L757.347 294.337Z" fill="#161616"/>
<path d="M771.394 291.838C771.394 291.371 771.168 291.01 770.701 290.739C770.234 290.468 769.497 290.227 768.473 290.016C765.07 289.308 763.369 287.863 763.369 285.68C763.369 284.416 763.896 283.362 764.95 282.504C766.004 281.66 767.374 281.224 769.075 281.224C770.882 281.224 772.342 281.645 773.426 282.504C774.51 283.362 775.052 284.461 775.052 285.831H771.243C771.243 285.289 771.062 284.837 770.716 284.476C770.37 284.114 769.813 283.949 769.06 283.949C768.413 283.949 767.916 284.099 767.57 284.385C767.223 284.671 767.043 285.048 767.043 285.499C767.043 285.921 767.238 286.267 767.645 286.523C768.051 286.779 768.714 287.005 769.677 287.201C770.641 287.396 771.424 287.607 772.086 287.848C774.103 288.586 775.112 289.865 775.112 291.687C775.112 292.997 774.555 294.051 773.441 294.849C772.327 295.662 770.882 296.053 769.105 296.053C767.901 296.053 766.847 295.842 765.914 295.406C764.98 294.984 764.257 294.397 763.731 293.644C763.204 292.907 762.933 292.094 762.933 291.235H766.546C766.576 291.913 766.832 292.425 767.299 292.801C767.765 293.162 768.383 293.343 769.18 293.343C769.918 293.343 770.46 293.208 770.836 292.922C771.213 292.651 771.394 292.274 771.394 291.838Z" fill="#161616"/>
<path d="M781.857 278.002V281.51H784.295V284.31H781.857V291.446C781.857 291.973 781.962 292.349 782.158 292.575C782.353 292.801 782.745 292.922 783.317 292.922C783.738 292.922 784.115 292.891 784.446 292.831V295.722C783.693 295.948 782.925 296.068 782.128 296.068C779.448 296.068 778.093 294.713 778.033 292.018V284.325H775.94V281.525H778.033V278.017H781.841L781.857 278.002Z" fill="#161616"/>
<path d="M794.428 295.797C794.247 295.451 794.126 295.029 794.051 294.517C793.133 295.541 791.928 296.068 790.453 296.068C789.053 296.068 787.894 295.662 786.975 294.849C786.057 294.036 785.59 293.012 785.59 291.777C785.59 290.257 786.147 289.098 787.276 288.285C788.406 287.472 790.016 287.065 792.139 287.05H793.901V286.237C793.901 285.575 793.735 285.048 793.389 284.656C793.043 284.265 792.516 284.054 791.778 284.054C791.131 284.054 790.634 284.205 790.272 284.521C789.911 284.822 789.73 285.259 789.73 285.786H785.922C785.922 284.958 786.177 284.19 786.689 283.482C787.201 282.775 787.924 282.233 788.857 281.826C789.791 281.42 790.845 281.224 792.004 281.224C793.765 281.224 795.165 281.66 796.204 282.549C797.243 283.437 797.755 284.671 797.755 286.282V292.47C797.755 293.825 797.95 294.849 798.327 295.541V295.767H794.473L794.428 295.797ZM791.266 293.147C791.838 293.147 792.35 293.027 792.832 292.771C793.314 292.515 793.66 292.184 793.886 291.762V289.308H792.455C790.543 289.308 789.535 289.971 789.399 291.296V291.521C789.399 292.003 789.55 292.395 789.881 292.696C790.212 292.997 790.679 293.162 791.251 293.162L791.266 293.147Z" fill="#161616"/>
</g>
<path d="M662.7 349.802C662.21 349.802 661.965 349.557 661.965 349.067V338.666C661.965 338.175 662.21 337.93 662.7 337.93H667.27C668.198 337.93 668.91 338.175 669.406 338.666C669.908 339.156 670.159 339.856 670.159 340.767V341.24C670.159 342.028 669.911 342.638 669.415 343.07C670.343 343.589 670.807 344.537 670.807 345.915V346.51C670.807 347.584 670.521 348.401 669.949 348.962C669.383 349.522 668.566 349.802 667.498 349.802H662.7ZM663.435 348.331H667.498C668.157 348.331 668.627 348.191 668.907 347.911C669.193 347.625 669.336 347.158 669.336 346.51V345.915C669.336 345.267 669.199 344.806 668.925 344.532C668.651 344.251 668.175 344.111 667.498 344.111H663.435V348.331ZM663.435 342.641H667.585C668.011 342.641 668.3 342.509 668.452 342.247C668.61 341.984 668.688 341.648 668.688 341.24V340.767C668.688 340.259 668.583 339.906 668.373 339.708C668.163 339.503 667.795 339.401 667.27 339.401H663.435V342.641ZM677.774 349.802C676.437 349.802 675.448 349.484 674.806 348.848C674.169 348.206 673.851 347.216 673.851 345.88V341.835C673.851 340.487 674.172 339.497 674.814 338.867C675.456 338.231 676.443 337.919 677.774 337.93H679.875C681.217 337.93 682.207 338.248 682.843 338.885C683.479 339.521 683.797 340.51 683.797 341.853V345.88C683.797 347.216 683.479 348.206 682.843 348.848C682.207 349.484 681.217 349.802 679.875 349.802H677.774ZM677.774 348.331H679.875C680.499 348.331 680.99 348.258 681.346 348.112C681.702 347.961 681.953 347.707 682.099 347.351C682.25 346.995 682.326 346.504 682.326 345.88V341.853C682.326 341.234 682.25 340.747 682.099 340.39C681.953 340.034 681.702 339.781 681.346 339.629C680.99 339.477 680.499 339.401 679.875 339.401H677.774C677.155 339.395 676.668 339.465 676.311 339.611C675.955 339.757 675.702 340.008 675.55 340.364C675.398 340.72 675.322 341.211 675.322 341.835V345.88C675.322 346.504 675.395 346.995 675.541 347.351C675.693 347.707 675.947 347.961 676.303 348.112C676.659 348.258 677.149 348.331 677.774 348.331ZM691.038 349.802C689.701 349.802 688.712 349.484 688.07 348.848C687.434 348.206 687.116 347.216 687.116 345.88V341.853C687.116 340.504 687.434 339.512 688.07 338.876C688.706 338.234 689.69 337.919 691.021 337.93H693.139C694.237 337.93 695.074 338.158 695.652 338.613C696.23 339.063 696.565 339.775 696.659 340.749C696.694 340.995 696.647 341.181 696.519 341.31C696.39 341.438 696.204 341.502 695.958 341.502C695.515 341.502 695.258 341.257 695.188 340.767C695.13 340.23 694.943 339.868 694.628 339.681C694.318 339.495 693.822 339.401 693.139 339.401H691.021C690.402 339.395 689.915 339.465 689.558 339.611C689.208 339.757 688.957 340.011 688.806 340.373C688.66 340.729 688.587 341.222 688.587 341.853V345.88C688.587 346.504 688.66 346.995 688.806 347.351C688.957 347.707 689.211 347.961 689.567 348.112C689.923 348.258 690.414 348.331 691.038 348.331H693.139C693.682 348.331 694.105 348.273 694.409 348.156C694.718 348.034 694.934 347.821 695.057 347.517C695.179 347.214 695.24 346.785 695.24 346.23V345.407L693.875 345.39C693.384 345.39 693.139 345.144 693.139 344.654C693.139 344.164 693.384 343.919 693.875 343.919L695.976 343.936C696.466 343.936 696.711 344.181 696.711 344.672V346.23C696.711 347.473 696.422 348.381 695.845 348.953C695.267 349.519 694.365 349.802 693.139 349.802H691.038ZM703.79 349.802C702.453 349.802 701.464 349.484 700.822 348.848C700.185 348.206 699.867 347.216 699.867 345.88V341.835C699.867 340.487 700.188 339.497 700.83 338.867C701.472 338.231 702.459 337.919 703.79 337.93H705.891C707.233 337.93 708.223 338.248 708.859 338.885C709.495 339.521 709.813 340.51 709.813 341.853V345.88C709.813 347.216 709.495 348.206 708.859 348.848C708.223 349.484 707.233 349.802 705.891 349.802H703.79ZM703.79 348.331H705.891C706.515 348.331 707.006 348.258 707.362 348.112C707.718 347.961 707.969 347.707 708.115 347.351C708.266 346.995 708.342 346.504 708.342 345.88V341.853C708.342 341.234 708.266 340.747 708.115 340.39C707.969 340.034 707.718 339.781 707.362 339.629C707.006 339.477 706.515 339.401 705.891 339.401H703.79C703.171 339.395 702.684 339.465 702.328 339.611C701.971 339.757 701.718 340.008 701.566 340.364C701.414 340.72 701.338 341.211 701.338 341.835V345.88C701.338 346.504 701.411 346.995 701.557 347.351C701.709 347.707 701.963 347.961 702.319 348.112C702.675 348.258 703.165 348.331 703.79 348.331ZM716.406 349.802C716.16 349.802 715.977 349.741 715.854 349.618C715.731 349.496 715.67 349.312 715.67 349.067V339.419H712.273C712.028 339.419 711.844 339.357 711.722 339.235C711.599 339.112 711.538 338.928 711.538 338.683C711.538 338.438 711.599 338.254 711.722 338.132C711.844 338.009 712.028 337.948 712.273 337.948H720.538C720.783 337.948 720.967 338.009 721.089 338.132C721.212 338.254 721.273 338.438 721.273 338.683C721.273 338.928 721.212 339.112 721.089 339.235C720.967 339.357 720.783 339.419 720.538 339.419H717.141V349.067C717.141 349.3 717.077 349.481 716.948 349.61C716.826 349.738 716.645 349.802 716.406 349.802ZM722.169 349.732C721.703 349.551 721.562 349.23 721.749 348.769L725.917 338.508C726.092 338.123 726.366 337.93 726.74 337.93H726.775C727.154 337.948 727.411 338.14 727.545 338.508L731.782 348.769C731.969 349.23 731.835 349.551 731.38 349.732C730.919 349.913 730.598 349.779 730.417 349.329L729.471 347.036H724.017L723.115 349.329C722.934 349.785 722.619 349.919 722.169 349.732ZM724.595 345.565H728.867L726.687 340.259L724.595 345.565ZM734.479 352.026C734.269 352.026 734.106 351.973 733.989 351.868C733.878 351.763 733.837 351.611 733.866 351.413L734.357 348.62C734.374 348.194 734.608 347.981 735.057 347.981H735.477C735.921 347.981 736.143 348.209 736.143 348.664V349.102C736.143 349.201 736.125 349.3 736.09 349.399C736.061 349.493 736.023 349.586 735.976 349.68L735.057 351.641C734.917 351.897 734.724 352.026 734.479 352.026ZM749.49 349.802C748.153 349.802 747.164 349.484 746.522 348.848C745.886 348.206 745.568 347.216 745.568 345.88V341.853C745.568 340.504 745.886 339.512 746.522 338.876C747.158 338.234 748.142 337.919 749.472 337.93H751.591C752.688 337.93 753.526 338.158 754.104 338.613C754.682 339.063 755.017 339.775 755.111 340.749C755.146 340.995 755.099 341.181 754.971 341.31C754.842 341.438 754.655 341.502 754.41 341.502C753.967 341.502 753.71 341.257 753.64 340.767C753.582 340.23 753.395 339.868 753.08 339.681C752.77 339.495 752.274 339.401 751.591 339.401H749.472C748.854 339.395 748.366 339.465 748.01 339.611C747.66 339.757 747.409 340.011 747.257 340.373C747.112 340.729 747.039 341.222 747.039 341.853V345.88C747.039 346.504 747.112 346.995 747.257 347.351C747.409 347.707 747.663 347.961 748.019 348.112C748.375 348.258 748.865 348.331 749.49 348.331H751.591C752.274 348.331 752.77 348.238 753.08 348.051C753.395 347.859 753.582 347.497 753.64 346.966C753.71 346.475 753.967 346.23 754.41 346.23C754.655 346.23 754.842 346.294 754.971 346.423C755.099 346.551 755.146 346.738 755.111 346.983C755.017 347.964 754.682 348.679 754.104 349.128C753.526 349.577 752.688 349.802 751.591 349.802H749.49ZM762.207 349.802C760.871 349.802 759.881 349.484 759.239 348.848C758.603 348.206 758.285 347.216 758.285 345.88V341.835C758.285 340.487 758.606 339.497 759.248 338.867C759.89 338.231 760.877 337.919 762.207 337.93H764.309C765.651 337.93 766.64 338.248 767.276 338.885C767.913 339.521 768.231 340.51 768.231 341.853V345.88C768.231 347.216 767.913 348.206 767.276 348.848C766.64 349.484 765.651 349.802 764.309 349.802H762.207ZM762.207 348.331H764.309C764.933 348.331 765.423 348.258 765.779 348.112C766.135 347.961 766.386 347.707 766.532 347.351C766.684 346.995 766.76 346.504 766.76 345.88V341.853C766.76 341.234 766.684 340.747 766.532 340.39C766.386 340.034 766.135 339.781 765.779 339.629C765.423 339.477 764.933 339.401 764.309 339.401H762.207C761.589 339.395 761.101 339.465 760.745 339.611C760.389 339.757 760.135 340.008 759.984 340.364C759.832 340.72 759.756 341.211 759.756 341.835V345.88C759.756 346.504 759.829 346.995 759.975 347.351C760.127 347.707 760.38 347.961 760.736 348.112C761.093 348.258 761.583 348.331 762.207 348.331ZM772.705 349.802C772.215 349.802 771.97 349.557 771.97 349.067V338.666C771.97 338.175 772.215 337.93 772.705 337.93C773.196 337.93 773.441 338.175 773.441 338.666V348.331H778.291C778.781 348.331 779.026 348.576 779.026 349.067C779.026 349.557 778.781 349.802 778.291 349.802H772.705ZM785.128 349.802C783.792 349.802 782.802 349.484 782.16 348.848C781.524 348.206 781.206 347.216 781.206 345.88V341.835C781.206 340.487 781.527 339.497 782.169 338.867C782.811 338.231 783.798 337.919 785.128 337.93H787.23C788.572 337.93 789.561 338.248 790.197 338.885C790.834 339.521 791.152 340.51 791.152 341.853V345.88C791.152 347.216 790.834 348.206 790.197 348.848C789.561 349.484 788.572 349.802 787.23 349.802H785.128ZM785.128 348.331H787.23C787.854 348.331 788.344 348.258 788.7 348.112C789.056 347.961 789.307 347.707 789.453 347.351C789.605 346.995 789.681 346.504 789.681 345.88V341.853C789.681 341.234 789.605 340.747 789.453 340.39C789.307 340.034 789.056 339.781 788.7 339.629C788.344 339.477 787.854 339.401 787.23 339.401H785.128C784.51 339.395 784.022 339.465 783.666 339.611C783.31 339.757 783.056 340.008 782.905 340.364C782.753 340.72 782.677 341.211 782.677 341.835V345.88C782.677 346.504 782.75 346.995 782.896 347.351C783.048 347.707 783.301 347.961 783.657 348.112C784.014 348.258 784.504 348.331 785.128 348.331ZM795.626 349.802C795.136 349.802 794.891 349.557 794.891 349.067V338.666C794.891 338.175 795.136 337.93 795.626 337.93C795.947 337.93 796.216 338.088 796.432 338.403L800.564 344.619L800.249 344.672L804.416 338.403C804.615 338.088 804.912 337.93 805.309 337.93C805.706 337.93 805.905 338.175 805.905 338.666V349.067C805.905 349.557 805.659 349.802 805.169 349.802C804.679 349.802 804.434 349.557 804.434 349.067V340.137L804.889 340.294L801.212 345.705C800.996 346.02 800.698 346.178 800.319 346.178C800.056 346.178 799.817 346.02 799.601 345.705L795.924 340.294L796.362 340.417V349.067C796.362 349.557 796.117 349.802 795.626 349.802ZM810.806 349.802C810.316 349.802 810.071 349.557 810.071 349.067V338.666C810.071 338.175 810.316 337.93 810.806 337.93H815.376C816.304 337.93 817.016 338.175 817.512 338.666C818.014 339.156 818.265 339.856 818.265 340.767V341.24C818.265 342.028 818.017 342.638 817.521 343.07C818.449 343.589 818.913 344.537 818.913 345.915V346.51C818.913 347.584 818.627 348.401 818.055 348.962C817.489 349.522 816.672 349.802 815.604 349.802H810.806ZM811.541 348.331H815.604C816.263 348.331 816.733 348.191 817.013 347.911C817.299 347.625 817.442 347.158 817.442 346.51V345.915C817.442 345.267 817.305 344.806 817.031 344.532C816.756 344.251 816.281 344.111 815.604 344.111H811.541V348.331ZM811.541 342.641H815.691C816.117 342.641 816.406 342.509 816.558 342.247C816.716 341.984 816.794 341.648 816.794 341.24V340.767C816.794 340.259 816.689 339.906 816.479 339.708C816.269 339.503 815.901 339.401 815.376 339.401H811.541V342.641ZM823.113 349.802C822.862 349.802 822.675 349.744 822.553 349.627C822.436 349.504 822.377 349.318 822.377 349.067V338.683C822.377 338.426 822.436 338.24 822.553 338.123C822.675 338.006 822.862 337.948 823.113 337.948C823.37 337.948 823.556 338.006 823.673 338.123C823.79 338.24 823.848 338.426 823.848 338.683V349.067C823.848 349.318 823.79 349.504 823.673 349.627C823.556 349.744 823.37 349.802 823.113 349.802ZM827.455 349.732C826.988 349.551 826.848 349.23 827.035 348.769L831.202 338.508C831.377 338.123 831.652 337.93 832.025 337.93H832.06C832.44 337.948 832.697 338.14 832.831 338.508L837.068 348.769C837.255 349.23 837.121 349.551 836.665 349.732C836.204 349.913 835.883 349.779 835.702 349.329L834.757 347.036H829.302L828.401 349.329C828.22 349.785 827.905 349.919 827.455 349.732ZM829.88 345.565H834.153L831.973 340.259L829.88 345.565Z" fill="#FFB325"/>
<path d="M884.833 151.179H635.41C624.798 151.179 616.155 159.766 616.155 170.309V301.079C616.155 311.63 624.79 320.209 635.41 320.209H865.579C876.198 320.209 884.833 311.63 884.833 301.079V151.179Z" fill="white"/>
<path d="M635.409 155.302C627.078 155.302 620.298 162.039 620.298 170.316V254.118H880.691V155.302H635.409Z" fill="black"/>
<path d="M620.321 300.739C620.321 309.017 627.101 315.754 635.432 315.754H865.602C873.933 315.754 880.714 309.017 880.714 300.739V257.887H620.321V300.739Z" fill="black"/>
<path d="M806.099 188.238V192.354H834.604L806.099 220.676L809.033 223.584L844.607 188.238H806.099Z" fill="#F7B749"/>
<path d="M848.758 184.122L852.9 179.999H806.099V184.122H848.758Z" fill="#ED362F"/>
<path d="M851.684 187.03V229.407H855.827V182.914L851.684 187.03Z" fill="#43B85C"/>
<path d="M847.542 229.407V191.146L811.959 226.499L814.894 229.407L843.399 201.085V229.407H847.542Z" fill="#2CB4E2"/>
<path d="M651.882 200.979C649.594 200.979 647.899 200.436 646.804 199.348C645.709 198.26 645.162 196.576 645.162 194.303V187.415C645.162 185.119 645.709 183.435 646.812 182.355C647.914 181.275 649.601 180.746 651.882 180.769H655.477C657.78 180.769 659.475 181.313 660.562 182.393C661.649 183.473 662.197 185.157 662.197 187.445V194.303C662.197 196.576 661.649 198.26 660.562 199.348C659.475 200.436 657.78 200.979 655.477 200.979H651.882ZM651.882 198.472H655.477C656.549 198.472 657.385 198.344 658.001 198.094C658.609 197.837 659.042 197.415 659.301 196.803C659.559 196.199 659.681 195.36 659.681 194.295V187.438C659.681 186.388 659.552 185.557 659.301 184.953C659.042 184.349 658.609 183.918 658.001 183.654C657.393 183.397 656.549 183.269 655.477 183.269H651.882C650.825 183.261 649.989 183.382 649.373 183.624C648.758 183.866 648.332 184.296 648.066 184.908C647.807 185.512 647.678 186.35 647.678 187.415V194.303C647.678 195.368 647.807 196.199 648.058 196.81C648.317 197.415 648.75 197.845 649.358 198.102C649.966 198.359 650.81 198.479 651.882 198.479V198.472Z" fill="white"/>
<path d="M668.681 206.938C667.837 206.938 667.419 206.523 667.419 205.684V187.121C667.419 186.282 667.837 185.867 668.681 185.867C669.525 185.867 669.943 186.282 669.943 187.121V187.491C670.482 186.954 671.151 186.547 671.942 186.275C672.74 186.003 673.629 185.867 674.617 185.867H675.758C677.757 185.867 679.239 186.343 680.197 187.294C681.155 188.246 681.634 189.719 681.634 191.705V195.134C681.634 197.112 681.155 198.578 680.197 199.537C679.239 200.496 677.757 200.972 675.758 200.972H669.935V205.684C669.935 206.523 669.517 206.938 668.673 206.938H668.681ZM669.943 198.472H675.765C677.073 198.472 677.962 198.238 678.426 197.769C678.889 197.301 679.125 196.425 679.125 195.134V191.705C679.125 190.406 678.897 189.522 678.426 189.061C677.962 188.601 677.073 188.367 675.765 188.367H674.625C673.371 188.367 672.291 188.518 671.387 188.812C670.475 189.107 669.996 189.583 669.95 190.225V198.464L669.943 198.472Z" fill="white"/>
<path d="M688.657 194.454V195.172C688.657 196.455 688.893 197.324 689.364 197.785C689.835 198.245 690.717 198.479 692.017 198.479H694.48C695.498 198.479 696.251 198.389 696.745 198.2C697.232 198.011 697.558 197.679 697.718 197.203C697.824 196.826 697.984 196.539 698.174 196.342C698.372 196.146 698.668 196.04 699.064 196.04C699.459 196.04 699.801 196.153 700.021 196.365C700.242 196.584 700.31 196.901 700.227 197.316C700.006 198.547 699.421 199.469 698.455 200.073C697.498 200.677 696.167 200.979 694.465 200.979H692.002C690.01 200.979 688.536 200.504 687.57 199.552C686.605 198.6 686.126 197.135 686.126 195.172V191.713C686.126 189.696 686.605 188.216 687.57 187.264C688.536 186.313 690.01 185.852 692.002 185.867H694.465C696.464 185.867 697.946 186.343 698.904 187.287C699.862 188.238 700.341 189.711 700.341 191.705V193.193C700.341 194.031 699.922 194.446 699.079 194.446H688.642L688.657 194.454ZM692.017 188.374C690.717 188.352 689.835 188.578 689.364 189.047C688.893 189.515 688.657 190.406 688.657 191.713V191.954H697.84V191.713C697.84 190.413 697.604 189.53 697.14 189.069C696.677 188.608 695.787 188.374 694.48 188.374H692.017Z" fill="white"/>
<path d="M706.832 200.979C705.996 200.979 705.57 200.564 705.57 199.726V187.121C705.57 186.282 705.988 185.867 706.832 185.867C707.676 185.867 708.094 186.282 708.094 187.121V187.611C709.151 186.448 710.716 185.867 712.776 185.867H713.613C715.612 185.867 717.094 186.343 718.052 187.294C719.01 188.246 719.488 189.719 719.488 191.705V199.726C719.488 200.564 719.07 200.979 718.227 200.979C717.383 200.979 716.965 200.564 716.965 199.726V191.705C716.965 190.406 716.729 189.522 716.25 189.061C715.771 188.601 714.89 188.367 713.605 188.367H712.769C711.568 188.367 710.526 188.503 709.637 188.775C708.748 189.046 708.231 189.477 708.094 190.066V199.726C708.094 200.564 707.676 200.979 706.832 200.979Z" fill="white"/>
<path d="M726.39 200.979C725.965 200.979 725.646 200.881 725.44 200.677C725.235 200.473 725.136 200.156 725.136 199.733V182.06C725.136 181.622 725.243 181.305 725.44 181.109C725.646 180.913 725.965 180.814 726.39 180.814C726.816 180.814 727.151 180.913 727.348 181.109C727.546 181.305 727.645 181.622 727.645 182.06V199.733C727.645 200.164 727.546 200.473 727.348 200.677C727.151 200.881 726.831 200.979 726.39 200.979Z" fill="white"/>
<path d="M734.851 200.979C734.007 200.979 733.589 200.564 733.589 199.726V187.121C733.589 186.282 734.007 185.867 734.851 185.867C735.694 185.867 736.113 186.282 736.113 187.121V187.611C737.169 186.448 738.735 185.867 740.795 185.867H741.631C743.63 185.867 745.113 186.343 746.07 187.294C747.028 188.246 747.507 189.719 747.507 191.705V199.726C747.507 200.564 747.089 200.979 746.245 200.979C745.401 200.979 744.983 200.564 744.983 199.726V191.705C744.983 190.406 744.748 189.522 744.269 189.061C743.798 188.601 742.916 188.367 741.624 188.367H740.787C739.586 188.367 738.545 188.503 737.656 188.775C736.766 189.046 736.249 189.477 736.113 190.066V199.726C736.113 200.564 735.694 200.979 734.851 200.979Z" fill="white"/>
<path d="M754.979 200.979C754.143 200.979 753.717 200.564 753.717 199.726V188.367H752.608C751.771 188.367 751.346 187.951 751.346 187.113C751.346 186.275 751.764 185.859 752.608 185.859H753.717V185.738C753.717 183.782 754.189 182.332 755.139 181.396C756.089 180.459 757.541 179.991 759.502 179.991C760.224 179.991 760.581 180.406 760.581 181.245C760.581 182.083 760.224 182.498 759.502 182.498C758.24 182.498 757.381 182.725 756.925 183.171C756.461 183.616 756.233 184.477 756.233 185.746V185.867H759.327C760.163 185.867 760.589 186.282 760.589 187.121C760.589 187.959 760.171 188.374 759.327 188.374H756.233V199.733C756.233 200.571 755.815 200.987 754.972 200.987L754.979 200.979Z" fill="white"/>
<path d="M765.69 200.979C764.846 200.979 764.428 200.564 764.428 199.726V187.121C764.428 186.282 764.846 185.867 765.69 185.867C766.533 185.867 766.951 186.282 766.951 187.121V188.284C767.544 187.491 768.289 186.886 769.209 186.479C770.121 186.071 771.17 185.867 772.348 185.867C773.185 185.867 773.61 186.282 773.61 187.121C773.61 187.959 773.192 188.374 772.348 188.374C770.615 188.374 769.3 188.691 768.388 189.326C767.476 189.96 766.997 190.799 766.951 191.841V199.726C766.951 200.564 766.533 200.979 765.69 200.979Z" fill="white"/>
<path d="M780.718 200.979C779.038 200.979 777.784 200.571 776.97 199.756C776.157 198.94 775.739 197.701 775.739 196.032C775.739 194.363 776.149 193.125 776.963 192.309C777.776 191.493 779.03 191.086 780.718 191.086H787.065C787.004 190.043 786.73 189.333 786.236 188.948C785.75 188.563 784.906 188.374 783.72 188.374H781.979C780.976 188.374 780.231 188.442 779.745 188.578C779.251 188.714 778.909 188.956 778.711 189.303C778.528 189.719 778.346 190.006 778.156 190.164C777.966 190.323 777.685 190.406 777.305 190.406C776.887 190.406 776.552 190.293 776.316 190.058C776.081 189.824 776.005 189.515 776.104 189.129C776.4 188.004 777.031 187.189 777.981 186.66C778.939 186.139 780.269 185.874 781.979 185.874H783.72C785.719 185.874 787.202 186.35 788.159 187.302C789.117 188.253 789.596 189.726 789.596 191.712V199.733C789.596 200.571 789.178 200.987 788.334 200.987C787.49 200.987 787.072 200.571 787.072 199.733V199.061C786.001 200.345 784.442 200.987 782.39 200.987H780.71L780.718 200.979ZM780.718 198.472H782.398C783.135 198.472 783.834 198.404 784.48 198.268C785.126 198.132 785.689 197.89 786.153 197.528C786.616 197.173 786.928 196.659 787.072 195.995V193.578H780.71C779.722 193.578 779.061 193.744 778.741 194.069C778.422 194.394 778.255 195.051 778.255 196.017C778.255 196.984 778.414 197.656 778.741 197.973C779.068 198.298 779.722 198.457 780.71 198.457L780.718 198.472Z" fill="white"/>
<path d="M649.67 229.406C648.134 229.406 647.002 229.044 646.264 228.311C645.527 227.579 645.162 226.453 645.162 224.928V216.696C645.162 216.416 645.231 216.205 645.375 216.069C645.519 215.933 645.725 215.857 646.006 215.857C646.287 215.857 646.5 215.925 646.637 216.069C646.774 216.212 646.85 216.416 646.85 216.696V224.928C646.85 225.638 646.933 226.197 647.108 226.605C647.283 227.012 647.572 227.299 647.975 227.466C648.385 227.639 648.948 227.722 649.662 227.722H652.072C652.786 227.722 653.349 227.639 653.759 227.466C654.17 227.299 654.459 227.005 654.626 226.605C654.801 226.197 654.884 225.638 654.884 224.928V216.696C654.884 216.416 654.953 216.205 655.097 216.069C655.242 215.933 655.447 215.857 655.728 215.857C656.009 215.857 656.222 215.925 656.359 216.069C656.496 216.212 656.572 216.416 656.572 216.696V224.928C656.572 226.453 656.207 227.579 655.477 228.311C654.747 229.044 653.607 229.406 652.072 229.406H649.662H649.67Z" fill="white"/>
<path d="M665.883 229.407C664.736 229.407 663.846 229.18 663.208 228.719C662.569 228.259 662.166 227.549 662.007 226.589C661.976 226.295 662.037 226.076 662.189 225.932C662.333 225.789 662.554 225.713 662.835 225.713C663.116 225.713 663.322 225.781 663.451 225.91C663.58 226.046 663.671 226.25 663.717 226.529C663.816 226.99 664.036 227.307 664.363 227.473C664.698 227.647 665.199 227.73 665.883 227.73H668.779C669.646 227.73 670.231 227.579 670.543 227.269C670.855 226.96 671.007 226.386 671.007 225.54C671.007 224.694 670.847 224.09 670.528 223.78C670.209 223.463 669.623 223.304 668.779 223.304H666.286C665.017 223.304 664.082 222.995 663.466 222.383C662.85 221.771 662.546 220.827 662.546 219.573C662.546 218.32 662.85 217.391 663.458 216.786C664.067 216.182 665.002 215.88 666.271 215.88H668.665C669.73 215.88 670.566 216.099 671.174 216.53C671.782 216.96 672.162 217.625 672.322 218.516C672.36 218.803 672.306 219.022 672.162 219.173C672.018 219.324 671.79 219.4 671.501 219.4C671.235 219.4 671.029 219.332 670.9 219.188C670.763 219.045 670.68 218.848 670.642 218.576C670.535 218.184 670.33 217.912 670.026 217.776C669.722 217.632 669.274 217.557 668.665 217.557H666.271C665.465 217.557 664.926 217.7 664.652 217.98C664.378 218.259 664.241 218.795 664.241 219.573C664.241 220.351 664.378 220.902 664.66 221.189C664.941 221.484 665.488 221.628 666.286 221.628H668.779C670.102 221.628 671.083 221.945 671.729 222.587C672.375 223.229 672.702 224.21 672.702 225.547C672.702 226.884 672.383 227.851 671.736 228.478C671.09 229.104 670.11 229.422 668.779 229.422H665.883V229.407Z" fill="white"/>
<path d="M679.353 229.407C678.791 229.407 678.509 229.127 678.509 228.568V216.703C678.509 216.145 678.791 215.865 679.353 215.865H686.574C687.137 215.865 687.418 216.145 687.418 216.703C687.418 217.262 687.137 217.542 686.574 217.542H680.197V221.733H684.195C684.758 221.733 685.039 222.013 685.039 222.572C685.039 223.131 684.758 223.41 684.195 223.41H680.197V227.722H686.574C687.137 227.722 687.418 228.002 687.418 228.561C687.418 229.12 687.137 229.399 686.574 229.399H679.353V229.407Z" fill="white"/>
<path d="M701.815 229.444C701.595 229.58 701.382 229.626 701.184 229.573C700.987 229.52 700.812 229.384 700.675 229.165L697.559 224.014H694.746V228.568C694.746 229.127 694.465 229.407 693.902 229.407C693.34 229.407 693.059 229.127 693.059 228.568V216.703C693.059 216.145 693.34 215.865 693.902 215.865H698.608C699.831 215.865 700.774 216.19 701.428 216.839C702.081 217.489 702.408 218.425 702.408 219.641V220.238C702.408 221.295 702.157 222.141 701.663 222.768C701.169 223.395 700.447 223.788 699.512 223.939L702.142 228.304C702.401 228.772 702.287 229.15 701.823 229.444H701.815ZM694.738 222.33H698.6C699.36 222.33 699.907 222.171 700.227 221.854C700.546 221.537 700.713 220.993 700.713 220.238V219.641C700.713 218.886 700.554 218.35 700.227 218.025C699.907 217.7 699.36 217.542 698.6 217.542H694.738V222.338V222.33Z" fill="white"/>
<path d="M719.975 229.407C718.439 229.407 717.307 229.044 716.569 228.311C715.832 227.579 715.467 226.454 715.467 224.928V220.336C715.467 218.795 715.832 217.663 716.562 216.938C717.292 216.205 718.424 215.85 719.952 215.865H722.385C723.646 215.865 724.604 216.122 725.273 216.643C725.942 217.164 726.322 217.972 726.428 219.082C726.466 219.362 726.413 219.573 726.269 219.724C726.124 219.868 725.904 219.943 725.623 219.943C725.113 219.943 724.817 219.664 724.741 219.105C724.673 218.493 724.46 218.078 724.102 217.866C723.745 217.655 723.175 217.549 722.392 217.549H719.96C719.253 217.549 718.69 217.625 718.287 217.791C717.885 217.957 717.596 218.244 717.421 218.652C717.246 219.06 717.162 219.626 717.162 220.344V224.936C717.162 225.645 717.246 226.204 717.421 226.612C717.588 227.02 717.885 227.307 718.287 227.473C718.698 227.647 719.26 227.73 719.975 227.73H722.392C723.015 227.73 723.502 227.662 723.852 227.526C724.201 227.39 724.452 227.148 724.589 226.801C724.733 226.454 724.802 225.963 724.802 225.336V224.399L723.236 224.377C722.673 224.377 722.392 224.097 722.392 223.538C722.392 222.979 722.673 222.7 723.236 222.7L725.653 222.723C726.216 222.723 726.497 223.002 726.497 223.561V225.336C726.497 226.756 726.162 227.79 725.501 228.44C724.84 229.089 723.806 229.414 722.392 229.414H719.975V229.407Z" fill="white"/>
<path d="M740.673 229.444C740.453 229.58 740.24 229.626 740.042 229.573C739.845 229.52 739.67 229.384 739.533 229.165L736.417 224.014H733.604V228.568C733.604 229.127 733.323 229.407 732.76 229.407C732.198 229.407 731.917 229.127 731.917 228.568V216.703C731.917 216.145 732.198 215.865 732.76 215.865H737.466C738.689 215.865 739.632 216.19 740.286 216.839C740.939 217.489 741.266 218.425 741.266 219.641V220.238C741.266 221.295 741.015 222.141 740.521 222.768C740.027 223.395 739.305 223.788 738.37 223.939L741 228.304C741.259 228.772 741.145 229.15 740.681 229.444H740.673ZM733.596 222.33H737.458C738.218 222.33 738.765 222.171 739.085 221.854C739.404 221.537 739.571 220.993 739.571 220.238V219.641C739.571 218.886 739.411 218.35 739.085 218.025C738.765 217.7 738.218 217.542 737.458 217.542H733.596V222.338V222.33Z" fill="white"/>
<path d="M750.608 229.407C749.073 229.407 747.94 229.044 747.203 228.311C746.465 227.579 746.101 226.454 746.101 224.928V220.313C746.101 218.773 746.473 217.647 747.21 216.922C747.948 216.197 749.08 215.842 750.608 215.858H753.025C754.569 215.858 755.701 216.22 756.431 216.945C757.161 217.67 757.525 218.803 757.525 220.329V224.92C757.525 226.446 757.161 227.571 756.431 228.304C755.701 229.037 754.561 229.399 753.025 229.399H750.608V229.407ZM750.608 227.73H753.025C753.74 227.73 754.302 227.647 754.713 227.473C755.123 227.307 755.412 227.012 755.58 226.612C755.754 226.204 755.838 225.645 755.838 224.936V220.344C755.838 219.641 755.754 219.082 755.58 218.675C755.405 218.267 755.116 217.98 754.713 217.806C754.302 217.632 753.74 217.549 753.025 217.549H750.608C749.901 217.549 749.339 217.625 748.928 217.791C748.518 217.957 748.229 218.244 748.054 218.652C747.879 219.06 747.796 219.619 747.796 220.329V224.943C747.796 225.653 747.879 226.212 748.054 226.62C748.221 227.028 748.518 227.315 748.921 227.481C749.331 227.654 749.894 227.737 750.608 227.737V227.73Z" fill="white"/>
<path d="M767.734 229.407C766.199 229.407 765.066 229.044 764.329 228.311C763.591 227.579 763.227 226.454 763.227 224.928V216.696C763.227 216.416 763.295 216.205 763.439 216.069C763.584 215.933 763.789 215.858 764.07 215.858C764.352 215.858 764.564 215.926 764.701 216.069C764.838 216.213 764.914 216.416 764.914 216.696V224.928C764.914 225.638 764.998 226.197 765.173 226.605C765.347 227.012 765.636 227.299 766.039 227.466C766.45 227.639 767.012 227.722 767.727 227.722H770.136C770.851 227.722 771.413 227.639 771.824 227.466C772.234 227.299 772.523 227.005 772.69 226.605C772.865 226.197 772.949 225.638 772.949 224.928V216.696C772.949 216.416 773.017 216.205 773.162 216.069C773.306 215.933 773.511 215.858 773.792 215.858C774.074 215.858 774.287 215.926 774.423 216.069C774.56 216.213 774.636 216.416 774.636 216.696V224.928C774.636 226.454 774.271 227.579 773.542 228.311C772.812 229.044 771.672 229.407 770.136 229.407H767.727H767.734Z" fill="white"/>
<path d="M781.09 229.407C780.527 229.407 780.246 229.127 780.246 228.568V216.703C780.246 216.145 780.527 215.865 781.09 215.865H785.795C787.019 215.865 787.961 216.19 788.615 216.839C789.269 217.489 789.596 218.425 789.596 219.641V220.238C789.596 221.454 789.269 222.39 788.615 223.04C787.961 223.689 787.019 224.014 785.795 224.014H781.934V228.568C781.934 229.127 781.652 229.407 781.09 229.407ZM781.934 222.338H785.795C786.555 222.338 787.103 222.179 787.422 221.862C787.741 221.545 787.908 221.001 787.908 220.246V219.649C787.908 218.894 787.749 218.357 787.422 218.033C787.103 217.708 786.555 217.549 785.795 217.549H781.934V222.345V222.338Z" fill="white"/>
<path d="M689.717 295.452C687.809 295.452 686.396 294.998 685.48 294.09C684.571 293.173 684.117 291.761 684.117 289.852V284.102C684.117 282.177 684.571 280.761 685.48 279.852C686.388 278.936 687.792 278.486 689.692 278.502H692.717C694.284 278.502 695.48 278.827 696.305 279.477C697.13 280.119 697.609 281.136 697.742 282.527C697.792 282.877 697.726 283.144 697.542 283.327C697.359 283.511 697.092 283.602 696.742 283.602C696.109 283.602 695.742 283.252 695.642 282.552C695.559 281.786 695.292 281.269 694.842 281.002C694.401 280.736 693.692 280.602 692.717 280.602H689.692C688.809 280.594 688.113 280.694 687.605 280.902C687.105 281.111 686.746 281.473 686.53 281.99C686.321 282.498 686.217 283.202 686.217 284.102V289.852C686.217 290.744 686.321 291.444 686.53 291.952C686.746 292.461 687.109 292.823 687.617 293.04C688.126 293.248 688.826 293.352 689.717 293.352H692.717C693.692 293.352 694.401 293.219 694.842 292.952C695.292 292.677 695.559 292.161 695.642 291.402C695.742 290.702 696.109 290.352 696.742 290.352C697.092 290.352 697.359 290.444 697.542 290.627C697.726 290.811 697.792 291.077 697.742 291.427C697.609 292.827 697.13 293.848 696.305 294.49C695.48 295.132 694.284 295.452 692.717 295.452H689.717ZM707.874 295.452C705.966 295.452 704.554 294.998 703.637 294.09C702.729 293.173 702.274 291.761 702.274 289.852V284.077C702.274 282.152 702.733 280.74 703.649 279.84C704.566 278.932 705.974 278.486 707.874 278.502H710.874C712.791 278.502 714.204 278.957 715.112 279.865C716.02 280.773 716.474 282.186 716.474 284.102V289.852C716.474 291.761 716.02 293.173 715.112 294.09C714.204 294.998 712.791 295.452 710.874 295.452H707.874ZM707.874 293.352H710.874C711.766 293.352 712.466 293.248 712.974 293.04C713.483 292.823 713.841 292.461 714.049 291.952C714.266 291.444 714.374 290.744 714.374 289.852V284.102C714.374 283.219 714.266 282.523 714.049 282.015C713.841 281.507 713.483 281.144 712.974 280.927C712.466 280.711 711.766 280.602 710.874 280.602H707.874C706.991 280.594 706.295 280.694 705.787 280.902C705.279 281.111 704.916 281.469 704.699 281.977C704.483 282.486 704.374 283.186 704.374 284.077V289.852C704.374 290.744 704.479 291.444 704.687 291.952C704.904 292.461 705.266 292.823 705.774 293.04C706.283 293.248 706.983 293.352 707.874 293.352ZM722.863 295.452C722.163 295.452 721.813 295.102 721.813 294.402V279.552C721.813 278.852 722.163 278.502 722.863 278.502C723.563 278.502 723.913 278.852 723.913 279.552V293.352H730.838C731.538 293.352 731.888 293.702 731.888 294.402C731.888 295.102 731.538 295.452 730.838 295.452H722.863ZM740.6 295.452C738.692 295.452 737.279 294.998 736.363 294.09C735.454 293.173 735 291.761 735 289.852V284.077C735 282.152 735.458 280.74 736.375 279.84C737.292 278.932 738.7 278.486 740.6 278.502H743.6C745.517 278.502 746.929 278.957 747.838 279.865C748.746 280.773 749.2 282.186 749.2 284.102V289.852C749.2 291.761 748.746 293.173 747.838 294.09C746.929 294.998 745.517 295.452 743.6 295.452H740.6ZM740.6 293.352H743.6C744.492 293.352 745.192 293.248 745.7 293.04C746.208 292.823 746.567 292.461 746.775 291.952C746.992 291.444 747.1 290.744 747.1 289.852V284.102C747.1 283.219 746.992 282.523 746.775 282.015C746.567 281.507 746.208 281.144 745.7 280.927C745.192 280.711 744.492 280.602 743.6 280.602H740.6C739.717 280.594 739.021 280.694 738.513 280.902C738.004 281.111 737.642 281.469 737.425 281.977C737.208 282.486 737.1 283.186 737.1 284.077V289.852C737.1 290.744 737.204 291.444 737.413 291.952C737.629 292.461 737.992 292.823 738.5 293.04C739.008 293.248 739.708 293.352 740.6 293.352ZM755.588 295.452C754.888 295.452 754.538 295.102 754.538 294.402V279.552C754.538 278.852 754.888 278.502 755.588 278.502C756.047 278.502 756.43 278.727 756.738 279.177L762.638 288.052L762.188 288.127L768.138 279.177C768.422 278.727 768.847 278.502 769.413 278.502C769.98 278.502 770.263 278.852 770.263 279.552V294.402C770.263 295.102 769.913 295.452 769.213 295.452C768.513 295.452 768.163 295.102 768.163 294.402V281.652L768.813 281.877L763.563 289.602C763.255 290.052 762.83 290.277 762.288 290.277C761.913 290.277 761.572 290.052 761.263 289.602L756.013 281.877L756.638 282.052V294.402C756.638 295.102 756.288 295.452 755.588 295.452ZM777.261 295.452C776.561 295.452 776.211 295.102 776.211 294.402V279.552C776.211 278.852 776.561 278.502 777.261 278.502H783.786C785.111 278.502 786.128 278.852 786.836 279.552C787.553 280.252 787.911 281.252 787.911 282.552V283.227C787.911 284.352 787.557 285.223 786.849 285.84C788.174 286.582 788.836 287.936 788.836 289.902V290.752C788.836 292.286 788.428 293.452 787.611 294.252C786.803 295.052 785.636 295.452 784.111 295.452H777.261ZM778.311 293.352H784.111C785.053 293.352 785.724 293.152 786.124 292.752C786.532 292.344 786.736 291.677 786.736 290.752V289.902C786.736 288.977 786.54 288.319 786.149 287.927C785.757 287.527 785.078 287.327 784.111 287.327H778.311V293.352ZM778.311 285.227H784.236C784.845 285.227 785.257 285.04 785.474 284.665C785.699 284.29 785.811 283.811 785.811 283.227V282.552C785.811 281.827 785.661 281.323 785.361 281.04C785.061 280.748 784.536 280.602 783.786 280.602H778.311V285.227ZM794.833 295.452C794.474 295.452 794.208 295.369 794.033 295.202C793.866 295.027 793.783 294.761 793.783 294.402V279.577C793.783 279.211 793.866 278.944 794.033 278.777C794.208 278.611 794.474 278.527 794.833 278.527C795.199 278.527 795.466 278.611 795.633 278.777C795.799 278.944 795.883 279.211 795.883 279.577V294.402C795.883 294.761 795.799 295.027 795.633 295.202C795.466 295.369 795.199 295.452 794.833 295.452ZM801.032 295.352C800.366 295.094 800.166 294.636 800.432 293.977L806.382 279.327C806.632 278.777 807.024 278.502 807.557 278.502H807.607C808.149 278.527 808.516 278.802 808.707 279.327L814.757 293.977C815.024 294.636 814.832 295.094 814.182 295.352C813.524 295.611 813.066 295.419 812.807 294.777L811.457 291.502H803.67L802.382 294.777C802.124 295.427 801.674 295.619 801.032 295.352ZM804.495 289.402H810.595L807.482 281.827L804.495 289.402Z" fill="white"/>
</g>
<defs>
<clipPath id="clip0_328_52">
<rect width="1500" height="500" fill="white"/>
</clipPath>
<clipPath id="clip1_328_52">
<rect width="1502" height="500" fill="white" transform="translate(-2)"/>
</clipPath>
<clipPath id="clip2_328_52">
<rect width="273.654" height="173.282" fill="white" transform="translate(613 146.121)"/>
</clipPath>
</defs>
</svg>
